  0
SECTION
  2
HEADER
  9
$ACADVER
  1
AC1024
  9
$ACADMAINTVER
 70
6
  9
$DWGCODEPAGE
  3
ANSI_1252
  9
$LASTSAVEDBY
  1
ezdxf
  9
$INSBASE
 10
0.0
 20
0.0
 30
0.0
  9
$EXTMIN
 10
1e+20
 20
1e+20
 30
1e+20
  9
$EXTMAX
 10
-1e+20
 20
-1e+20
 30
-1e+20
  9
$LIMMIN
 10
0.0
 20
0.0
  9
$LIMMAX
 10
420.0
 20
297.0
  9
$ORTHOMODE
 70
0
  9
$REGENMODE
 70
1
  9
$FILLMODE
 70
1
  9
$QTEXTMODE
 70
0
  9
$MIRRTEXT
 70
1
  9
$LTSCALE
 40
1.0
  9
$ATTMODE
 70
1
  9
$TEXTSIZE
 40
2.5
  9
$TRACEWID
 40
1.0
  9
$TEXTSTYLE
  7
Standard
  9
$CLAYER
  8
0
  9
$CELTYPE
  6
ByLayer
  9
$CECOLOR
 62
256
  9
$CELTSCALE
 40
1.0
  9
$DISPSILH
 70
0
  9
$DIMSCALE
 40
1.0
  9
$DIMASZ
 40
2.5
  9
$DIMEXO
 40
0.625
  9
$DIMDLI
 40
3.75
  9
$DIMRND
 40
0.0
  9
$DIMDLE
 40
0.0
  9
$DIMEXE
 40
1.25
  9
$DIMTP
 40
0.0
  9
$DIMTM
 40
0.0
  9
$DIMTXT
 40
2.5
  9
$DIMCEN
 40
2.5
  9
$DIMTSZ
 40
0.0
  9
$DIMTOL
 70
0
  9
$DIMLIM
 70
0
  9
$DIMTIH
 70
0
  9
$DIMTOH
 70
0
  9
$DIMSE1
 70
0
  9
$DIMSE2
 70
0
  9
$DIMTAD
 70
1
  9
$DIMZIN
 70
8
  9
$DIMBLK
  1

  9
$DIMASO
 70
1
  9
$DIMSHO
 70
1
  9
$DIMPOST
  1

  9
$DIMAPOST
  1

  9
$DIMALT
 70
0
  9
$DIMALTD
 70
3
  9
$DIMALTF
 40
0.03937007874
  9
$DIMLFAC
 40
1.0
  9
$DIMTOFL
 70
1
  9
$DIMTVP
 40
0.0
  9
$DIMTIX
 70
0
  9
$DIMSOXD
 70
0
  9
$DIMSAH
 70
0
  9
$DIMBLK1
  1

  9
$DIMBLK2
  1

  9
$DIMSTYLE
  2
ISO-25
  9
$DIMCLRD
 70
0
  9
$DIMCLRE
 70
0
  9
$DIMCLRT
 70
0
  9
$DIMTFAC
 40
1.0
  9
$DIMGAP
 40
0.625
  9
$DIMJUST
 70
0
  9
$DIMSD1
 70
0
  9
$DIMSD2
 70
0
  9
$DIMTOLJ
 70
0
  9
$DIMTZIN
 70
8
  9
$DIMALTZ
 70
0
  9
$DIMALTTZ
 70
0
  9
$DIMUPT
 70
0
  9
$DIMDEC
 70
2
  9
$DIMTDEC
 70
2
  9
$DIMALTU
 70
2
  9
$DIMALTTD
 70
3
  9
$DIMTXSTY
  7
Standard
  9
$DIMAUNIT
 70
0
  9
$DIMADEC
 70
0
  9
$DIMALTRND
 40
0.0
  9
$DIMAZIN
 70
0
  9
$DIMDSEP
 70
44
  9
$DIMATFIT
 70
3
  9
$DIMFRAC
 70
0
  9
$DIMLDRBLK
  1

  9
$DIMLUNIT
 70
2
  9
$DIMLWD
 70
-2
  9
$DIMLWE
 70
-2
  9
$DIMTMOVE
 70
0
  9
$DIMFXL
 40
1.0
  9
$DIMFXLON
 70
0
  9
$DIMJOGANG
 40
0.785398163397
  9
$DIMTFILL
 70
0
  9
$DIMTFILLCLR
 70
0
  9
$DIMARCSYM
 70
0
  9
$DIMLTYPE
  6

  9
$DIMLTEX1
  6

  9
$DIMLTEX2
  6

  9
$DIMTXTDIRECTION
 70
0
  9
$LUNITS
 70
2
  9
$LUPREC
 70
4
  9
$SKETCHINC
 40
1.0
  9
$FILLETRAD
 40
10.0
  9
$AUNITS
 70
0
  9
$AUPREC
 70
2
  9
$MENU
  1
.
  9
$ELEVATION
 40
0.0
  9
$PELEVATION
 40
0.0
  9
$THICKNESS
 40
0.0
  9
$LIMCHECK
 70
0
  9
$CHAMFERA
 40
0.0
  9
$CHAMFERB
 40
0.0
  9
$CHAMFERC
 40
0.0
  9
$CHAMFERD
 40
0.0
  9
$SKPOLY
 70
0
  9
$TDCREATE
 40
2461224.6910416665
  9
$TDUCREATE
 40
2458532.153996898
  9
$TDUPDATE
 40
2461224.6910416665
  9
$TDUUPDATE
 40
2458532.1544311
  9
$TDINDWG
 40
0.0
  9
$TDUSRTIMER
 40
0.0
  9
$USRTIMER
 70
1
  9
$ANGBASE
 50
0.0
  9
$ANGDIR
 70
0
  9
$PDMODE
 70
0
  9
$PDSIZE
 40
0.0
  9
$PLINEWID
 40
0.0
  9
$SPLFRAME
 70
0
  9
$SPLINETYPE
 70
6
  9
$SPLINESEGS
 70
8
  9
$HANDSEED
  5
251
  9
$SURFTAB1
 70
6
  9
$SURFTAB2
 70
6
  9
$SURFTYPE
 70
6
  9
$SURFU
 70
6
  9
$SURFV
 70
6
  9
$UCSBASE
  2

  9
$UCSNAME
  2

  9
$UCSORG
 10
0.0
 20
0.0
 30
0.0
  9
$UCSXDIR
 10
1.0
 20
0.0
 30
0.0
  9
$UCSYDIR
 10
0.0
 20
1.0
 30
0.0
  9
$UCSORTHOREF
  2

  9
$UCSORTHOVIEW
 70
0
  9
$UCSORGTOP
 10
0.0
 20
0.0
 30
0.0
  9
$UCSORGBOTTOM
 10
0.0
 20
0.0
 30
0.0
  9
$UCSORGLEFT
 10
0.0
 20
0.0
 30
0.0
  9
$UCSORGRIGHT
 10
0.0
 20
0.0
 30
0.0
  9
$UCSORGFRONT
 10
0.0
 20
0.0
 30
0.0
  9
$UCSORGBACK
 10
0.0
 20
0.0
 30
0.0
  9
$PUCSBASE
  2

  9
$PUCSNAME
  2

  9
$PUCSORG
 10
0.0
 20
0.0
 30
0.0
  9
$PUCSXDIR
 10
1.0
 20
0.0
 30
0.0
  9
$PUCSYDIR
 10
0.0
 20
1.0
 30
0.0
  9
$PUCSORTHOREF
  2

  9
$PUCSORTHOVIEW
 70
0
  9
$PUCSORGTOP
 10
0.0
 20
0.0
 30
0.0
  9
$PUCSORGBOTTOM
 10
0.0
 20
0.0
 30
0.0
  9
$PUCSORGLEFT
 10
0.0
 20
0.0
 30
0.0
  9
$PUCSORGRIGHT
 10
0.0
 20
0.0
 30
0.0
  9
$PUCSORGFRONT
 10
0.0
 20
0.0
 30
0.0
  9
$PUCSORGBACK
 10
0.0
 20
0.0
 30
0.0
  9
$USERI1
 70
0
  9
$USERI2
 70
0
  9
$USERI3
 70
0
  9
$USERI4
 70
0
  9
$USERI5
 70
0
  9
$USERR1
 40
0.0
  9
$USERR2
 40
0.0
  9
$USERR3
 40
0.0
  9
$USERR4
 40
0.0
  9
$USERR5
 40
0.0
  9
$WORLDVIEW
 70
1
  9
$SHADEDGE
 70
3
  9
$SHADEDIF
 70
70
  9
$TILEMODE
 70
1
  9
$MAXACTVP
 70
64
  9
$PINSBASE
 10
0.0
 20
0.0
 30
0.0
  9
$PLIMCHECK
 70
0
  9
$PEXTMIN
 10
1e+20
 20
1e+20
 30
1e+20
  9
$PEXTMAX
 10
-1e+20
 20
-1e+20
 30
-1e+20
  9
$PLIMMIN
 10
0.0
 20
0.0
  9
$PLIMMAX
 10
420.0
 20
297.0
  9
$UNITMODE
 70
0
  9
$VISRETAIN
 70
1
  9
$PLINEGEN
 70
0
  9
$PSLTSCALE
 70
1
  9
$TREEDEPTH
 70
3020
  9
$CMLSTYLE
  2
Standard
  9
$CMLJUST
 70
0
  9
$CMLSCALE
 40
20.0
  9
$PROXYGRAPHICS
 70
1
  9
$MEASUREMENT
 70
1
  9
$CELWEIGHT
370
-1
  9
$ENDCAPS
280
0
  9
$JOINSTYLE
280
0
  9
$LWDISPLAY
290
0
  9
$INSUNITS
 70
6
  9
$HYPERLINKBASE
  1

  9
$STYLESHEET
  1

  9
$XEDIT
290
1
  9
$CEPSNTYPE
380
0
  9
$PSTYLEMODE
290
1
  9
$FINGERPRINTGUID
  2
{D677B6B2-0613-4D0B-80BC-54083B6CC0D4}
  9
$VERSIONGUID
  2
{F904F74C-2DDD-4439-BC90-ACC770ADDB12}
  9
$EXTNAMES
290
1
  9
$PSVPSCALE
 40
0.0
  9
$OLESTARTUP
290
0
  9
$SORTENTS
280
127
  9
$INDEXCTL
280
0
  9
$HIDETEXT
280
1
  9
$XCLIPFRAME
280
1
  9
$HALOGAP
280
0
  9
$OBSCOLOR
 70
257
  9
$OBSLTYPE
280
0
  9
$INTERSECTIONDISPLAY
280
0
  9
$INTERSECTIONCOLOR
 70
257
  9
$DIMASSOC
280
2
  9
$PROJECTNAME
  1

  9
$CAMERADISPLAY
290
0
  9
$LENSLENGTH
 40
50.0
  9
$CAMERAHEIGHT
 40
0.0
  9
$STEPSPERSEC
 40
24.0
  9
$STEPSIZE
 40
100.0
  9
$3DDWFPREC
 40
2.0
  9
$PSOLWIDTH
 40
0.005
  9
$PSOLHEIGHT
 40
0.08
  9
$LOFTANG1
 40
1.570796326795
  9
$LOFTANG2
 40
1.570796326795
  9
$LOFTMAG1
 40
0.0
  9
$LOFTMAG2
 40
0.0
  9
$LOFTPARAM
 70
7
  9
$LOFTNORMALS
280
1
  9
$LATITUDE
 40
37.795
  9
$LONGITUDE
 40
-122.394
  9
$NORTHDIRECTION
 40
0.0
  9
$TIMEZONE
 70
-8000
  9
$LIGHTGLYPHDISPLAY
280
1
  9
$TILEMODELIGHTSYNCH
280
1
  9
$CMATERIAL
347
20
  9
$SOLIDHIST
280
0
  9
$SHOWHIST
280
1
  9
$DWFFRAME
280
2
  9
$DGNFRAME
280
2
  9
$REALWORLDSCALE
290
1
  9
$INTERFERECOLOR
 62
256
  9
$CSHADOW
280
0
  9
$SHADOWPLANELOCATION
 40
0.0
  0
ENDSEC
  0
SECTION
  2
CLASSES
  0
CLASS
  1
ACDBDICTIONARYWDFLT
  2
AcDbDictionaryWithDefault
  3
ObjectDBX Classes
 90
0
 91
0
280
0
281
0
  0
CLASS
  1
SUN
  2
AcDbSun
  3
SCENEOE
 90
1153
 91
0
280
0
281
0
  0
CLASS
  1
VISUALSTYLE
  2
AcDbVisualStyle
  3
ObjectDBX Classes
 90
4095
 91
0
280
0
281
0
  0
CLASS
  1
MATERIAL
  2
AcDbMaterial
  3
ObjectDBX Classes
 90
1153
 91
0
280
0
281
0
  0
CLASS
  1
SCALE
  2
AcDbScale
  3
ObjectDBX Classes
 90
1153
 91
0
280
0
281
0
  0
CLASS
  1
TABLESTYLE
  2
AcDbTableStyle
  3
ObjectDBX Classes
 90
4095
 91
0
280
0
281
0
  0
CLASS
  1
MLEADERSTYLE
  2
AcDbMLeaderStyle
  3
ACDB_MLEADERSTYLE_CLASS
 90
4095
 91
0
280
0
281
0
  0
CLASS
  1
DICTIONARYVAR
  2
AcDbDictionaryVar
  3
ObjectDBX Classes
 90
0
 91
0
280
0
281
0
  0
CLASS
  1
CELLSTYLEMAP
  2
AcDbCellStyleMap
  3
ObjectDBX Classes
 90
1152
 91
0
280
0
281
0
  0
CLASS
  1
MENTALRAYRENDERSETTINGS
  2
AcDbMentalRayRenderSettings
  3
SCENEOE
 90
1024
 91
0
280
0
281
0
  0
CLASS
  1
ACDBDETAILVIEWSTYLE
  2
AcDbDetailViewStyle
  3
ObjectDBX Classes
 90
1025
 91
0
280
0
281
0
  0
CLASS
  1
ACDBSECTIONVIEWSTYLE
  2
AcDbSectionViewStyle
  3
ObjectDBX Classes
 90
1025
 91
0
280
0
281
0
  0
CLASS
  1
RASTERVARIABLES
  2
AcDbRasterVariables
  3
ISM
 90
0
 91
0
280
0
281
0
  0
CLASS
  1
ACDBPLACEHOLDER
  2
AcDbPlaceHolder
  3
ObjectDBX Classes
 90
0
 91
0
280
0
281
0
  0
CLASS
  1
LAYOUT
  2
AcDbLayout
  3
ObjectDBX Classes
 90
0
 91
0
280
0
281
0
  0
ENDSEC
  0
SECTION
  2
TABLES
  0
TABLE
  2
VPORT
  5
8
330
0
100
AcDbSymbolTable
 70
1
  0
VPORT
  5
23
330
8
100
AcDbSymbolTableRecord
100
AcDbViewportTableRecord
  2
*Active
 70
0
 10
0.0
 20
0.0
 11
1.0
 21
1.0
 12
0.0
 22
0.0
 13
0.0
 23
0.0
 14
0.5
 24
0.5
 15
0.5
 25
0.5
 16
0.0
 26
0.0
 36
1.0
 17
0.0
 27
0.0
 37
0.0
 40
1000.0
 41
1.34
 42
50.0
 43
0.0
 44
0.0
 50
0.0
 51
0.0
 71
0
 72
1000
 73
1
 74
3
 75
0
 76
0
 77
0
 78
0
281
0
 65
0
146
0.0
  0
ENDTAB
  0
TABLE
  2
LTYPE
  5
2
330
0
100
AcDbSymbolTable
 70
3
  0
LTYPE
  5
24
330
2
100
AcDbSymbolTableRecord
100
AcDbLinetypeTableRecord
  2
ByBlock
 70
0
  3

 72
65
 73
0
 40
0.0
  0
LTYPE
  5
25
330
2
100
AcDbSymbolTableRecord
100
AcDbLinetypeTableRecord
  2
ByLayer
 70
0
  3

 72
65
 73
0
 40
0.0
  0
LTYPE
  5
26
330
2
100
AcDbSymbolTableRecord
100
AcDbLinetypeTableRecord
  2
Continuous
 70
0
  3

 72
65
 73
0
 40
0.0
  0
ENDTAB
  0
TABLE
  2
LAYER
  5
1
330
0
100
AcDbSymbolTable
 70
2
  0
LAYER
  5
27
330
1
100
AcDbSymbolTableRecord
100
AcDbLayerTableRecord
  2
0
 70
0
 62
7
  6
Continuous
370
-3
390
13
347
21
  0
LAYER
  5
28
330
1
100
AcDbSymbolTableRecord
100
AcDbLayerTableRecord
  2
Defpoints
 70
0
 62
7
  6
Continuous
290
0
370
-3
390
13
347
21
  0
ENDTAB
  0
TABLE
  2
STYLE
  5
5
330
0
100
AcDbSymbolTable
 70
1
  0
STYLE
  5
29
330
5
100
AcDbSymbolTableRecord
100
AcDbTextStyleTableRecord
  2
Standard
 70
0
 40
0.0
 41
1.0
 50
0.0
 71
0
 42
2.5
  3
txt
  4

  0
ENDTAB
  0
TABLE
  2
VIEW
  5
7
330
0
100
AcDbSymbolTable
 70
0
  0
ENDTAB
  0
TABLE
  2
UCS
  5
6
330
0
100
AcDbSymbolTable
 70
0
  0
ENDTAB
  0
TABLE
  2
APPID
  5
3
330
0
100
AcDbSymbolTable
 70
3
  0
APPID
  5
2A
330
3
100
AcDbSymbolTableRecord
100
AcDbRegAppTableRecord
  2
ACAD
 70
0
  0
APPID
  5
24E
330
3
100
AcDbSymbolTableRecord
100
AcDbRegAppTableRecord
  2
HATCHBACKGROUNDCOLOR
 70
0
  0
APPID
  5
24F
330
3
100
AcDbSymbolTableRecord
100
AcDbRegAppTableRecord
  2
EZDXF
 70
0
  0
ENDTAB
  0
TABLE
  2
DIMSTYLE
  5
4
330
0
100
AcDbSymbolTable
 70
1
100
AcDbDimStyleTable
  0
DIMSTYLE
105
2B
330
4
100
AcDbSymbolTableRecord
100
AcDbDimStyleTableRecord
  2
Standard
 70
0
 40
1.0
 41
2.5
 42
0.625
 43
3.75
 44
1.25
 45
0.0
 46
0.0
 47
0.0
 48
0.0
 49
2.5
140
2.5
141
2.5
142
0.0
143
0.03937007874
144
1.0
145
0.0
146
1.0
147
0.625
148
0.0
 69
0
 70
0
 71
0
 72
0
 73
0
 74
0
 75
0
 76
0
 77
1
 78
8
 79
3
170
0
171
3
172
1
173
0
174
0
175
0
176
0
177
0
178
0
179
2
271
2
272
2
273
2
274
3
275
0
276
0
277
2
278
44
279
0
280
0
281
0
282
0
283
0
284
8
285
0
286
0
288
0
289
3
290
0
371
-2
372
-2
  0
ENDTAB
  0
TABLE
  2
BLOCK_RECORD
  5
9
330
0
100
AcDbSymbolTable
 70
2
  0
BLOCK_RECORD
  5
17
330
9
100
AcDbSymbolTableRecord
100
AcDbBlockTableRecord
  2
*Model_Space
340
1A
 70
0
280
1
281
0
  0
BLOCK_RECORD
  5
1B
330
9
100
AcDbSymbolTableRecord
100
AcDbBlockTableRecord
  2
*Paper_Space
340
1E
 70
0
280
1
281
0
  0
ENDTAB
  0
ENDSEC
  0
SECTION
  2
BLOCKS
  0
BLOCK
  5
18
330
17
100
AcDbEntity
  8
0
100
AcDbBlockBegin
  2
*Model_Space
 70
0
 10
0.0
 20
0.0
 30
0.0
  3
*Model_Space
  1

  0
ENDBLK
  5
19
330
17
100
AcDbEntity
  8
0
100
AcDbBlockEnd
  0
BLOCK
  5
1C
330
1B
100
AcDbEntity
  8
0
100
AcDbBlockBegin
  2
*Paper_Space
 70
0
 10
0.0
 20
0.0
 30
0.0
  3
*Paper_Space
  1

  0
ENDBLK
  5
1D
330
1B
100
AcDbEntity
  8
0
100
AcDbBlockEnd
  0
ENDSEC
  0
SECTION
  2
ENTITIES
  0
LWPOLYLINE
  5
2F
330
17
100
AcDbEntity
  8
GSK_FRM_EXT
 62
6
100
AcDbPolyline
 90
31
 70
1
 10
-52.90000533899297
 20
59.42171945152995
 42
0.1826758888702128
 10
-53.025005167150766
 20
59.7524385758843
 42
-0.4362879657284912
 10
-52.92249490456811
 20
60.77356649852209
 10
-52.190080350308335
 20
62.02301829981684
 42
0.2073074163340437
 10
-51.04353349272992
 20
64.01994901086482
 42
0.0916074222265504
 10
-51.13551427362904
 20
65.83452057998875
 42
0.4268639712463462
 10
-52.33020079046969
 20
66.574421601538
 42
-0.0527154374469259
 10
-54.74388819006731
 20
65.95253119250287
 42
0.3718316879017271
 10
-54.9999961905753
 20
65.65576008944026
 10
-55.00000381100813
 20
62.3034251136537
 42
-0.4589973865408548
 10
-55.34496861219236
 20
62.00681465850016
 10
-56.58333008830073
 20
62.10695884875474
 42
0.1730044290472394
 10
-56.76377817277489
 20
62.05858367939368
 10
-56.94542273380034
 20
61.94211662630141
 42
-0.6935273263148176
 10
-57.11113133477852
 20
62.02945422110042
 42
-0.1940731523186352
 10
-56.68123975570143
 20
62.81674290534295
 42
0.9442779230106229
 10
-56.84392456319756
 20
63.07951384161112
 42
0.1848969568933989
 10
-59.12889840087496
 20
60.956131757135836
 42
0.2413739550731988
 10
-59.12889840087496
 20
60.04379021950194
 42
0.1155441180481
 10
-57.09687683768129
 20
57.6495951354803
 42
0.8046084068019029
 10
-56.77321512657261
 20
57.93239158122486
 42
-0.0941294090166279
 10
-57.11113133477852
 20
58.970467755537356
 42
-0.6935273263667959
 10
-56.94542273379943
 20
59.057805350335684
 10
-56.691370728459674
 20
58.9335542784691
 42
0.1102863192832164
 10
-56.52324963794808
 20
58.900588454071
 10
-55.23024404430748
 20
59.01049900287353
 42
-0.4865963738769969
 10
-54.86961145922919
 20
58.635786369651896
 42
-0.0904941723492964
 10
-54.920121434422754
 20
56.939554695087054
 42
0.9312118644052843
 10
-54.31715543507903
 20
56.41687669152975
 10
-52.97376182719313
 20
58.60765460681796
 42
0.1383914179832654
 10
-52.900005338993424
 20
58.86902879959189
  0
LWPOLYLINE
  5
30
330
17
100
AcDbEntity
  8
FRM_EXT
100
AcDbPolyline
 90
129
 70
1
 10
-8.906716096271339
 20
6.9175570504583
 42
-0.2400787590801145
 10
-8.74491269739633
 20
6.9999999999995435
 10
-3.6439756095976454
 20
7.0
 42
-0.3690546425321124
 10
-2.6562129381904898
 20
6.155964434966334
 10
-2.18252293304772
 20
3.155964434966334
 42
-0.4608620707066395
 10
-3.170285604454873
 20
2.0
 10
-4.598075999999537
 20
2.0000000000000004
 10
-4.598075999999537
 20
1.0000000000000002
 42
0.4142135623730951
 10
-3.598075999999537
 20
2.2031861282441725e-16
 10
0.0
 20
0.0
 10
2.3015545529808157e-13
 20
44.99999999999977
 42
0.4142140000000855
 10
-0.9999999999999972
 20
46.00000000000021
 10
-4.558168279113938
 20
46.00000000000045
 42
0.4931454668899049
 10
-4.98494493415819
 20
45.44381375891292
 10
-4.643785587692713
 20
44.17059041395669
 42
0.3394542222102505
 10
-4.1608226915609485
 20
43.80000000000018
 10
-3.0913372702643724
 20
43.80000000000018
 42
-0.4608620707066395
 10
-2.1035745988572185
 20
42.64403556503384
 10
-2.4124148666098764
 20
40.688071130068
 42
-0.3690546425321124
 10
-4.387940209423956
 20
39.00000000000068
 10
-9.299999999999951
 20
39.0
 42
-0.4142135623730951
 10
-10.299999999999947
 20
40.0
 10
-10.299999999999947
 20
41.33566577471809
 42
-0.1006947051834969
 10
-10.260252426726078
 20
41.53103133896275
 10
-8.999999999999996
 20
44.5
 10
-8.999999999999996
 20
45.49999999999999
 42
0.4142135623730951
 10
-9.499999999999996
 20
46.0
 10
-11.964723819589146
 20
46.0
 42
0.3394542588635296
 10
-13.413612559023477
 20
44.88822856765363
 10
-13.482962913144537
 20
44.62940952255121
 42
0.493145426031274
 10
-12.999999999999996
 20
44.0
 10
-12.230305390341066
 20
44.00000000000066
 42
-0.5373193821392536
 10
-12.046204419650616
 20
43.72185377430287
 10
-13.149838941795448
 20
41.12185377430203
 42
-0.3009658391326293
 10
-13.333939912485897
 20
40.99999999999977
 10
-34.49999999840134
 20
41.0
 10
-34.64644661283819
 20
40.85355339063608
 42
-0.4142135623730502
 10
-35.35355339402486
 20
40.85355339055036
 10
-35.49999999840179
 20
41.0
 10
-41.91942074750385
 20
41.0
 10
-54.78909695432889
 20
39.1912849635437
 42
-0.5715470873652616
 10
-57.47098077297255
 20
42.56287500926053
 10
-55.33209786751422
 20
48.13485547692994
 42
0.0918870916679617
 10
-55.0
 20
49.92669522465757
 10
-54.99999999999977
 20
57.90000000000009
 10
-55.999999999999545
 20
58.90000000000011
 10
-56.49999999999999
 20
58.90000000000054
 10
-56.49999999999999
 20
58.10000000000036
 42
-0.4142140000002187
 10
-57.0
 20
57.60000000000037
 10
-59.50000000000066
 20
57.60000000000038
 42
-0.4142135623730951
 10
-60.500000000000675
 20
58.600000000000364
 10
-60.500000000000675
 20
60.09999813231208
 10
-60.49999999999999
 20
60.10000000000038
 10
-60.5000000000009
 20
60.43943908770711
 42
-0.2882204520472692
 10
-59.65019954769808
 20
61.79119370603644
 10
-56.78669327302645
 20
63.16855203673799
 42
-0.5525293025908593
 10
-56.49999999999999
 20
62.98831808762748
 10
-56.49999999999999
 20
62.10000000000036
 10
-55.999999999999545
 20
62.10000000000036
 10
-54.999999999999766
 20
63.10000000000082
 10
-54.99999999999999
 20
66.0
 10
-55.99999999999999
 20
66.0
 10
-60.78828200655696
 20
64.25720787634032
 42
0.3152987888790331
 10
-70.0
 20
51.10151118533669
 10
-70.0
 20
4.2862637970157365e-15
 10
-66.40192400000024
 20
4.065945184191305e-15
 42
0.4142135623730951
 10
-65.40192400000024
 20
1.000000000000004
 10
-65.40192400000024
 20
2.000000000000004
 10
-66.82971439554467
 20
2.000000000000004
 42
-0.4608620707066397
 10
-67.81747706695182
 20
3.155964434966338
 10
-67.34378706180951
 20
6.1559644349663385
 42
-0.3690546425321123
 10
-66.35602439040211
 20
7.000000000000004
 10
-61.25508730260342
 20
6.999999999999775
 42
-0.2400787590802713
 10
-61.09328390372843
 20
6.917557050458075
 10
-60.01151247204825
 20
5.428626409810935
 42
-0.2325553856618125
 10
-59.86105290366504
 20
4.5590527164527
 10
-60.29999999999995
 20
3.0644582269437737
 10
-60.29999999999995
 20
2.0000000000009126
 10
-60.59807621135314
 20
2.0000000000004574
 10
-61.0
 20
0.5000000000000038
 10
-60.99999999999977
 20
3.735172737399413e-15
 10
-57.19999999999981
 20
3.5024898455614188e-15
 42
0.4142135623730951
 10
-56.19999999999982
 20
1.0000000000000033
 10
-56.19999999999982
 20
2.0000000000000036
 10
-56.79999999587085
 20
2.0000000000004574
 42
-0.3349997217040084
 10
-57.76166160783759
 20
2.7257611550683154
 42
-0.1418030814149202
 10
-57.76122459779411
 20
2.8369666123253436
 10
-57.4623614926411
 20
3.8545816137884716
 42
0.1374014254549942
 10
-57.43864017345891
 20
5.742409146115507
 42
-0.4927503700213901
 10
-56.47238609093415
 20
7.0000000000000036
 10
-35.49999999840179
 20
7.000000000000002
 10
-35.35355339402464
 20
7.146446609450324
 42
-0.4142135623729112
 10
-34.64644661283819
 20
7.146446609363921
 10
-34.49999999840134
 20
7.000000000000002
 10
-23.4429650564382
 20
7.000000000000002
 42
-0.4927503700213129
 10
-22.4767109739139
 20
5.742409146115052
 42
0.1374014254549932
 10
-22.45298965473148
 20
3.8545816137882425
 10
-22.15412654957868
 20
2.8369666123253414
 42
-0.1418030814153937
 10
-22.15368953973689
 20
2.7257611551256105
 42
-0.3349997217039354
 10
-23.11535115150196
 20
2.000000000000455
 10
-23.91535115150213
 20
2.0000000000000013
 10
-23.91535115150213
 20
1.0000000000000016
 42
0.4142135623730951
 10
-22.91535115150214
 20
1.4031605719512354e-15
 10
-19.11535115150195
 20
6.832704776801132e-13
 42
0.4142135623730951
 10
-18.91535115150191
 20
0.20000000000072876
 10
-18.91535115150191
 20
0.5000000000000011
 10
-19.31727494014853
 20
2.000000000000455
 10
-19.61535115150173
 20
2.0000000000009104
 10
-19.61535115150173
 20
3.0644582269437715
 10
-20.05429824783687
 20
4.5590527164526975
 42
-0.2325553856618117
 10
-19.90383867945365
 20
5.428626409810932
 10
-18.82206724777347
 20
6.917557050457843
 42
-0.2400787590804843
 10
-18.66026384889824
 20
6.999999999999773
 10
-12.3182117870499
 20
7.000000000000228
 42
-0.5888795210479483
 10
-12.14855009789903
 20
6.694099522029319
 42
0.214102191292491
 10
-12.53763850735845
 20
3.854581613788242
 10
-12.23877540220565
 20
2.836966612325341
 42
-0.1418030814153268
 10
-12.23833839236408
 20
2.72576115512561
 42
-0.3349997205558119
 10
-13.19999999999982
 20
2.0000000000004547
 10
-14.97913649999986
 20
2.000000000000001
 10
-14.97913649999986
 20
1.0000000000000009
 42
0.4142135623730951
 10
-13.97913649999987
 20
8.559752384784387e-16
 10
-8.999999999999773
 20
5.510910596162951e-16
 10
-8.999999999999773
 20
0.5000000000000006
 10
-9.4019237886464
 20
2.0000000000004543
 10
-9.699999999999818
 20
2.0000000000009095
 10
-9.699999999999818
 20
3.0644582269437706
 10
-10.13894709633473
 20
4.5590527164526975
 42
-0.2325553856618117
 10
-9.988487527951518
 20
5.428626409810932
  0
LWPOLYLINE
  5
31
330
17
100
AcDbEntity
  8
FRM_INT
100
AcDbPolyline
 90
129
 70
1
 10
-8.906716096271339
 20
6.9175570504583
 42
-0.2400787590801145
 10
-8.74491269739633
 20
6.9999999999995435
 10
-3.6439756095976454
 20
7.0
 42
-0.3690546425321124
 10
-2.6562129381904898
 20
6.155964434966334
 10
-2.18252293304772
 20
3.155964434966334
 42
-0.4608620707066395
 10
-3.170285604454873
 20
2.0
 10
-4.598075999999537
 20
2.0000000000000004
 10
-4.598075999999537
 20
1.0000000000000002
 42
0.4142135623730951
 10
-3.598075999999537
 20
2.2031861282441725e-16
 10
0.0
 20
0.0
 10
2.3015545529808157e-13
 20
44.99999999999977
 42
0.4142140000000855
 10
-0.9999999999999972
 20
46.00000000000021
 10
-4.558168279113938
 20
46.00000000000045
 42
0.4931454668899049
 10
-4.98494493415819
 20
45.44381375891292
 10
-4.643785587692713
 20
44.17059041395669
 42
0.3394542222102505
 10
-4.1608226915609485
 20
43.80000000000018
 10
-3.0913372702643724
 20
43.80000000000018
 42
-0.4608620707066395
 10
-2.1035745988572185
 20
42.64403556503384
 10
-2.4124148666098764
 20
40.688071130068
 42
-0.3690546425321124
 10
-4.387940209423956
 20
39.00000000000068
 10
-9.299999999999951
 20
39.0
 42
-0.4142135623730951
 10
-10.299999999999947
 20
40.0
 10
-10.299999999999947
 20
41.33566577471809
 42
-0.1006947051834969
 10
-10.260252426726078
 20
41.53103133896275
 10
-8.999999999999996
 20
44.5
 10
-8.999999999999996
 20
45.49999999999999
 42
0.4142135623730951
 10
-9.499999999999996
 20
46.0
 10
-11.964723819589146
 20
46.0
 42
0.3394542588635296
 10
-13.413612559023477
 20
44.88822856765363
 10
-13.482962913144537
 20
44.62940952255121
 42
0.493145426031274
 10
-12.999999999999996
 20
44.0
 10
-12.230305390341066
 20
44.00000000000066
 42
-0.5373193821392536
 10
-12.046204419650616
 20
43.72185377430287
 10
-13.149838941795448
 20
41.12185377430203
 42
-0.3009658391326293
 10
-13.333939912485897
 20
40.99999999999977
 10
-34.49999999840134
 20
41.0
 10
-34.64644661283819
 20
40.85355339063608
 42
-0.4142135623730502
 10
-35.35355339402486
 20
40.85355339055036
 10
-35.49999999840179
 20
41.0
 10
-41.91942074750385
 20
41.0
 10
-54.78909695432889
 20
39.1912849635437
 42
-0.5715470873652616
 10
-57.47098077297255
 20
42.56287500926053
 10
-55.33209786751422
 20
48.13485547692994
 42
0.0918870916679617
 10
-55.0
 20
49.92669522465757
 10
-54.99999999999977
 20
57.90000000000009
 10
-55.999999999999545
 20
58.90000000000011
 10
-56.49999999999999
 20
58.90000000000054
 10
-56.49999999999999
 20
58.10000000000036
 42
-0.4142140000002187
 10
-57.0
 20
57.60000000000037
 10
-59.50000000000066
 20
57.60000000000038
 42
-0.4142135623730951
 10
-60.500000000000675
 20
58.600000000000364
 10
-60.500000000000675
 20
60.09999813231208
 10
-60.49999999999999
 20
60.10000000000038
 10
-60.5000000000009
 20
60.43943908770711
 42
-0.2882204520472692
 10
-59.65019954769808
 20
61.79119370603644
 10
-56.78669327302645
 20
63.16855203673799
 42
-0.5525293025908593
 10
-56.49999999999999
 20
62.98831808762748
 10
-56.49999999999999
 20
62.10000000000036
 10
-55.999999999999545
 20
62.10000000000036
 10
-54.999999999999766
 20
63.10000000000082
 10
-54.99999999999999
 20
66.0
 10
-55.99999999999999
 20
66.0
 10
-60.78828200655696
 20
64.25720787634032
 42
0.3152987888790331
 10
-70.0
 20
51.10151118533669
 10
-70.0
 20
4.2862637970157365e-15
 10
-66.40192400000024
 20
4.065945184191305e-15
 42
0.4142135623730951
 10
-65.40192400000024
 20
1.000000000000004
 10
-65.40192400000024
 20
2.000000000000004
 10
-66.82971439554467
 20
2.000000000000004
 42
-0.4608620707066397
 10
-67.81747706695182
 20
3.155964434966338
 10
-67.34378706180951
 20
6.1559644349663385
 42
-0.3690546425321123
 10
-66.35602439040211
 20
7.000000000000004
 10
-61.25508730260342
 20
6.999999999999775
 42
-0.2400787590802713
 10
-61.09328390372843
 20
6.917557050458075
 10
-60.01151247204825
 20
5.428626409810935
 42
-0.2325553856618125
 10
-59.86105290366504
 20
4.5590527164527
 10
-60.29999999999995
 20
3.0644582269437737
 10
-60.29999999999995
 20
2.0000000000009126
 10
-60.59807621135314
 20
2.0000000000004574
 10
-61.0
 20
0.5000000000000038
 10
-60.99999999999977
 20
3.735172737399413e-15
 10
-57.19999999999981
 20
3.5024898455614188e-15
 42
0.4142135623730951
 10
-56.19999999999982
 20
1.0000000000000033
 10
-56.19999999999982
 20
2.0000000000000036
 10
-56.79999999587085
 20
2.0000000000004574
 42
-0.3349997217040084
 10
-57.76166160783759
 20
2.7257611550683154
 42
-0.1418030814149202
 10
-57.76122459779411
 20
2.8369666123253436
 10
-57.4623614926411
 20
3.8545816137884716
 42
0.1374014254549942
 10
-57.43864017345891
 20
5.742409146115507
 42
-0.4927503700213901
 10
-56.47238609093415
 20
7.0000000000000036
 10
-35.49999999840179
 20
7.000000000000002
 10
-35.35355339402464
 20
7.146446609450324
 42
-0.4142135623729112
 10
-34.64644661283819
 20
7.146446609363921
 10
-34.49999999840134
 20
7.000000000000002
 10
-23.4429650564382
 20
7.000000000000002
 42
-0.4927503700213129
 10
-22.4767109739139
 20
5.742409146115052
 42
0.1374014254549932
 10
-22.45298965473148
 20
3.8545816137882425
 10
-22.15412654957868
 20
2.8369666123253414
 42
-0.1418030814153937
 10
-22.15368953973689
 20
2.7257611551256105
 42
-0.3349997217039354
 10
-23.11535115150196
 20
2.000000000000455
 10
-23.91535115150213
 20
2.0000000000000013
 10
-23.91535115150213
 20
1.0000000000000016
 42
0.4142135623730951
 10
-22.91535115150214
 20
1.4031605719512354e-15
 10
-19.11535115150195
 20
6.832704776801132e-13
 42
0.4142135623730951
 10
-18.91535115150191
 20
0.20000000000072876
 10
-18.91535115150191
 20
0.5000000000000011
 10
-19.31727494014853
 20
2.000000000000455
 10
-19.61535115150173
 20
2.0000000000009104
 10
-19.61535115150173
 20
3.0644582269437715
 10
-20.05429824783687
 20
4.5590527164526975
 42
-0.2325553856618117
 10
-19.90383867945365
 20
5.428626409810932
 10
-18.82206724777347
 20
6.917557050457843
 42
-0.2400787590804843
 10
-18.66026384889824
 20
6.999999999999773
 10
-12.3182117870499
 20
7.000000000000228
 42
-0.5888795210479483
 10
-12.14855009789903
 20
6.694099522029319
 42
0.214102191292491
 10
-12.53763850735845
 20
3.854581613788242
 10
-12.23877540220565
 20
2.836966612325341
 42
-0.1418030814153268
 10
-12.23833839236408
 20
2.72576115512561
 42
-0.3349997205558119
 10
-13.19999999999982
 20
2.0000000000004547
 10
-14.97913649999986
 20
2.000000000000001
 10
-14.97913649999986
 20
1.0000000000000009
 42
0.4142135623730951
 10
-13.97913649999987
 20
8.559752384784387e-16
 10
-8.999999999999773
 20
5.510910596162951e-16
 10
-8.999999999999773
 20
0.5000000000000006
 10
-9.4019237886464
 20
2.0000000000004543
 10
-9.699999999999818
 20
2.0000000000009095
 10
-9.699999999999818
 20
3.0644582269437706
 10
-10.13894709633473
 20
4.5590527164526975
 42
-0.2325553856618117
 10
-9.988487527951518
 20
5.428626409810932
  0
LWPOLYLINE
  5
32
330
17
100
AcDbEntity
  8
GSK_SSH_EXT
 62
6
100
AcDbPolyline
 90
31
 70
1
 10
-33.900004591917195
 20
109.42171870453146
 42
0.1826758888702128
 10
-34.02500442007499
 20
109.7524378288858
 42
-0.4362879657284912
 10
-33.92249415749234
 20
110.77356575152359
 10
-33.19007960323256
 20
112.02301755281835
 42
0.2073074163340437
 10
-32.04353274565415
 20
114.01994826386633
 42
0.0916074222265504
 10
-32.13551352655327
 20
115.83451983299025
 42
0.4268639712463462
 10
-33.330200043393916
 20
116.57442085453951
 42
-0.0527154374469259
 10
-35.743887442991536
 20
115.95253044550438
 42
0.3718316879017271
 10
-35.99999544349953
 20
115.65575934244177
 10
-36.000003063932354
 20
112.30342436665521
 42
-0.4589973865408548
 10
-36.34496786511659
 20
112.00681391150167
 10
-37.58332934122495
 20
112.10695810175625
 42
0.1730044290472394
 10
-37.76377742569912
 20
112.05858293239518
 10
-37.94542198672457
 20
111.94211587930292
 42
-0.6935273263148176
 10
-38.111130587702746
 20
112.02945347410193
 42
-0.1940731523186352
 10
-37.68123900862565
 20
112.81674215834445
 42
0.9442779230106229
 10
-37.84392381612179
 20
113.07951309461262
 42
0.1848969568933989
 10
-40.128897653799186
 20
110.95613101013734
 42
0.2413739550731988
 10
-40.128897653799186
 20
110.04378947250345
 42
0.1155441180481
 10
-38.09687609060552
 20
107.6495943884818
 42
0.8046084068019029
 10
-37.773214379496835
 20
107.93239083422637
 42
-0.0941294090166279
 10
-38.111130587702746
 20
108.97046700853886
 42
-0.6935273263667959
 10
-37.94542198672366
 20
109.05780460333719
 10
-37.6913699813839
 20
108.93355353147061
 42
0.1102863192832164
 10
-37.52324889087231
 20
108.9005877070725
 10
-36.23024329723171
 20
109.01049825587504
 42
-0.4865963738769969
 10
-35.86961071215342
 20
108.6357856226534
 42
-0.0904941723492964
 10
-35.92012068734698
 20
106.93955394808856
 42
0.9312118644052843
 10
-35.31715468800326
 20
106.41687594453126
 10
-33.973761080117356
 20
108.60765385981946
 42
0.1383914179832654
 10
-33.90000459191765
 20
108.86902805259339
  0
LWPOLYLINE
  5
33
330
17
100
AcDbEntity
  8
BZD_SSH
100
AcDbPolyline
 90
41
 70
1
 10
7.035276553947824
 20
96.72281118339379
 10
7.035276553947824
 20
95.99999925300017
 10
8.535276553947831
 20
95.99999925299971
 42
-0.4142135623730951
 10
9.035276553947824
 20
96.49999925299971
 10
11.004079405957327
 20
96.49999925299971
 42
-0.3394542588634029
 10
11.970005232246422
 20
95.75881829810214
 10
12.40739119613545
 20
94.12647165835006
 42
-0.2493293434598935
 10
12.301781417000711
 20
93.66903071618663
 10
11.107052579278847
 20
92.29466641980707
 42
-0.2171199618910894
 10
10.352346311259682
 20
91.95072925903241
 10
9.551250814972724
 20
91.95072925903196
 42
0.9999999999999998
 10
9.551250814973177
 20
90.25072925903214
 10
10.671352556131753
 20
90.2507292590326
 42
0.2171199618911793
 10
12.180765092171441
 20
90.93860358058282
 10
14.336075258354867
 20
93.41797902252438
 42
0.2493293434599847
 10
14.441685037489608
 20
93.87541996468781
 10
13.783016851041793
 20
96.33360310184253
 42
-0.6068148963146447
 10
14.43698983584909
 20
96.93285893478651
 10
17.000000747075774
 20
95.99999925300017
 10
18.000000747075774
 20
95.99999925300017
 10
17.082318736095658
 20
101.20443255806276
 42
0.2679491924310402
 10
8.083292200486996
 20
111.929054761727
 10
-3.1015358651337657
 20
115.99999925300017
 10
-4.101535865133766
 20
115.99999925300017
 10
-4.101535865133766
 20
113.09999925300144
 10
-3.1015358651342275
 20
112.09999925300053
 10
-2.6015358651337763
 20
112.09999925300053
 10
-2.6015358651337763
 20
113.18842014203892
 42
-0.5205670505518223
 10
-1.9305257934710163
 20
113.65826645243169
 10
1.0694742065289837
 20
112.56635574963228
 42
-0.3152987888789177
 10
1.3984641348662343
 20
112.09650943923953
 10
1.3984641348670337
 20
108.59999925300053
 42
-0.4142135623730951
 10
0.39846413486702303
 20
107.59999925300053
 10
-2.1015358651338865
 20
107.59999925300053
 42
-0.4142140000000189
 10
-2.6015358651338865
 20
108.09999925300053
 10
-2.6015358651338865
 20
108.89999925300071
 10
-3.1015358651343377
 20
108.89999925300071
 10
-4.1015358651338865
 20
107.89999925300071
 10
-4.1015358651338865
 20
105.67773217601552
 42
0.3152987888789177
 10
-2.785576151785797
 20
103.798346934444
 10
3.7453772705771335
 20
101.42127428732329
 42
-0.3152987888789177
  0
LWPOLYLINE
  5
34
330
17
100
AcDbEntity
  8
GSK_BZD_SSH
347
491
100
AcDbPolyline
 90
33
 70
1
 10
-1.9305257934710265
 20
113.65826645243192
 42
0.5337481849688936
 10
-2.6015358651333216
 20
113.16693630141981
 10
-2.6015358651337763
 20
112.09999925300053
 10
-3.1015358651337763
 20
112.09999925300053
 10
-4.101535865133776
 20
113.09999925300144
 10
-4.101535865133775
 20
115.78912869848227
 42
0.2075133254383016
 10
-4.196527017721454
 20
116.00815237866937
 42
-0.161228174486363
 10
-7.053003882379818
 20
120.13072259631008
 42
0.941095309667078
 10
-7.998149776573774
 20
119.99209427864707
 42
0.1085807304372004
 10
-6.465065524550829
 20
115.63410432037722
 42
-0.1390430086413624
 10
-5.451535865134595
 20
112.84493959227075
 10
-5.379538917642897
 20
108.85950955028693
 42
-0.8399780497293138
 10
-6.17605344824586
 20
108.73544307719044
 42
0.0657473970983625
 10
-6.391840399155064
 20
109.24546925385721
 42
0.3140963318641297
 10
-7.221650514933011
 20
109.62711600629382
 42
0.451051254984801
 10
-7.954081609830959
 20
108.39144460446869
 42
0.223054966404159
 10
-5.777714093838661
 20
106.06738283454888
 42
0.0994163557827123
 10
-5.623287738408983
 20
106.03637131776895
 10
-4.351535865133777
 20
106.0363713177685
 42
0.4142135623730951
 10
-4.101535865133777
 20
106.2863713177685
 10
-4.101535865133777
 20
107.89999925300071
 10
-3.1015358651337768
 20
108.89999925300071
 10
-2.6015358651337768
 20
108.89999925300071
 10
-2.6015358651333225
 20
108.09999925300144
 42
0.4142135623729619
 10
-2.1015358651333225
 20
107.59999925300167
 10
-1.6015358651337772
 20
107.59999925300144
 42
0.4142135623733615
 10
-1.101535865133323
 20
108.09999925300144
 10
-1.101535865133323
 20
108.63091232107035
 42
0.2156416552380446
 10
-1.271378117632944
 20
109.00640647789805
 42
-0.4523166325164124
 10
-1.2713781176324874
 20
112.02384662331042
 42
0.2156416552372918
 10
-1.1015358651337763
 20
112.39934078013812
 10
-1.101535865133322
 20
113.0064682484026
 42
0.3183729929591983
 10
-1.435786898188676
 20
113.47819622081511
  0
LWPOLYLINE
  5
35
330
17
100
AcDbEntity
  8
GLS_EXT
100
AcDbPolyline
 90
4
 70
1
 10
-31.999999252924226
 20
99.9999992530015
 10
-27.999999252924226
 20
99.9999992530015
 10
-27.999999252924226
 20
138.99999925300287
 10
-31.999999252924226
 20
138.99999925300287
  0
LWPOLYLINE
  5
36
330
17
100
AcDbEntity
  8
GLS_INT
100
AcDbPolyline
 90
4
 70
1
 10
-11.999999252924226
 20
99.9999992530015
 10
-7.999999252924226
 20
99.9999992530015
 10
-7.999999252924226
 20
138.99999925300287
 10
-11.999999252924226
 20
138.99999925300287
  0
LWPOLYLINE
  5
37
330
17
100
AcDbEntity
  8
SPACER_SSH
 62
3
100
AcDbPolyline
 90
4
 70
1
 10
-27.999999252924226
 20
99.9999992530015
 10
-11.999999252924226
 20
99.9999992530015
 10
-11.999999252924226
 20
113.9999992530015
 10
-27.999999252924226
 20
113.9999992530015
1001
AcDbBlockRepETag
1070
1
1071
8
1005
331
  0
LINE
  5
38
330
17
100
AcDbEntity
  8
SSH_EXT
100
AcDbLine
 10
16.000000747075774
 20
40.799999252999434
 30
0.0
 11
11.700000747076494
 21
40.799999252999434
 31
0.0
  0
LINE
  5
39
330
17
100
AcDbEntity
  8
SSH_INT
100
AcDbLine
 10
16.000000747075774
 20
40.799999252999434
 30
0.0
 11
11.700000747076494
 21
40.799999252999434
 31
0.0
  0
ARC
  5
3A
330
17
100
AcDbEntity
  8
SSH_EXT
100
AcDbCircle
 10
11.700000747076494
 20
40.99999925299971
 30
0.0
 40
0.2000000000000454
100
AcDbArc
 50
180.0
 51
-90.00000000000001
  0
ARC
  5
3B
330
17
100
AcDbEntity
  8
SSH_INT
100
AcDbCircle
 10
11.700000747076494
 20
40.99999925299971
 30
0.0
 40
0.2000000000000454
100
AcDbArc
 50
180.0
 51
-90.00000000000001
  0
LINE
  5
3C
330
17
100
AcDbEntity
  8
SSH_EXT
100
AcDbLine
 10
11.500000747076685
 20
40.99999925299971
 30
0.0
 11
11.500000747076685
 21
45.399999252924765
 31
0.0
  0
LINE
  5
3D
330
17
100
AcDbEntity
  8
SSH_INT
100
AcDbLine
 10
11.500000747076685
 20
40.99999925299971
 30
0.0
 11
11.500000747076685
 21
45.399999252924765
 31
0.0
  0
ARC
  5
3E
330
17
100
AcDbEntity
  8
SSH_EXT
100
AcDbCircle
 10
8.500000747076683
 20
45.399999252924765
 30
0.0
 40
2.999999999999999
100
AcDbArc
 50
1.4000000000000002e-14
 51
89.99999999999132
  0
ARC
  5
3F
330
17
100
AcDbEntity
  8
SSH_INT
100
AcDbCircle
 10
8.500000747076683
 20
45.399999252924765
 30
0.0
 40
2.999999999999999
100
AcDbArc
 50
1.4000000000000002e-14
 51
89.99999999999132
  0
LINE
  5
40
330
17
100
AcDbEntity
  8
SSH_EXT
100
AcDbLine
 10
8.500000747077138
 20
48.399999252924765
 30
0.0
 11
6.700000747075592
 21
48.39999925292522
 31
0.0
  0
LINE
  5
41
330
17
100
AcDbEntity
  8
SSH_INT
100
AcDbLine
 10
8.500000747077138
 20
48.399999252924765
 30
0.0
 11
6.700000747075592
 21
48.39999925292522
 31
0.0
  0
ARC
  5
42
330
17
100
AcDbEntity
  8
SSH_EXT
100
AcDbCircle
 10
6.700000747075592
 20
48.59999925292549
 30
0.0
 40
0.2000000000000454
100
AcDbArc
 50
180.0
 51
-90.00000000000001
  0
ARC
  5
43
330
17
100
AcDbEntity
  8
SSH_INT
100
AcDbCircle
 10
6.700000747075592
 20
48.59999925292549
 30
0.0
 40
0.2000000000000454
100
AcDbArc
 50
180.0
 51
-90.00000000000001
  0
LINE
  5
44
330
17
100
AcDbEntity
  8
SSH_EXT
100
AcDbLine
 10
6.500000747075773
 20
48.59999925292549
 30
0.0
 11
6.500000747075319
 21
52.99809660204709
 31
0.0
  0
LINE
  5
45
330
17
100
AcDbEntity
  8
SSH_INT
100
AcDbLine
 10
6.500000747075773
 20
48.59999925292549
 30
0.0
 11
6.500000747075319
 21
52.99809660204709
 31
0.0
  0
ARC
  5
46
330
17
100
AcDbEntity
  8
SSH_EXT
100
AcDbCircle
 10
6.700000747075592
 20
52.99809660204709
 30
0.0
 40
0.200000000000216
100
AcDbArc
 50
90.00000000000003
 51
180.0
  0
ARC
  5
47
330
17
100
AcDbEntity
  8
SSH_INT
100
AcDbCircle
 10
6.700000747075592
 20
52.99809660204709
 30
0.0
 40
0.200000000000216
100
AcDbArc
 50
90.00000000000003
 51
180.0
  0
LINE
  5
48
330
17
100
AcDbEntity
  8
SSH_EXT
100
AcDbLine
 10
6.700000747075592
 20
53.198096602047364
 30
0.0
 11
10.500000747075775
 21
53.198096602046
 31
0.0
  0
LINE
  5
49
330
17
100
AcDbEntity
  8
SSH_INT
100
AcDbLine
 10
6.700000747075592
 20
53.198096602047364
 30
0.0
 11
10.500000747075775
 21
53.198096602046
 31
0.0
  0
ARC
  5
4A
330
17
100
AcDbEntity
  8
SSH_EXT
100
AcDbCircle
 10
10.500000747075775
 20
53.698096602046
 30
0.0
 40
0.5
100
AcDbArc
 50
-90.00000000000001
 51
90.0
  0
ARC
  5
4B
330
17
100
AcDbEntity
  8
SSH_INT
100
AcDbCircle
 10
10.500000747075775
 20
53.698096602046
 30
0.0
 40
0.5
100
AcDbArc
 50
-90.00000000000001
 51
90.0
  0
LINE
  5
4C
330
17
100
AcDbEntity
  8
SSH_EXT
100
AcDbLine
 10
10.500000747075775
 20
54.198096602046
 30
0.0
 11
6.700000747075592
 21
54.198096602046455
 31
0.0
  0
LINE
  5
4D
330
17
100
AcDbEntity
  8
SSH_INT
100
AcDbLine
 10
10.500000747075775
 20
54.198096602046
 30
0.0
 11
6.700000747075592
 21
54.198096602046455
 31
0.0
  0
ARC
  5
4E
330
17
100
AcDbEntity
  8
SSH_EXT
100
AcDbCircle
 10
6.700000747075592
 20
54.39809660204673
 30
0.0
 40
0.2000000000000454
100
AcDbArc
 50
180.0
 51
-90.00000000000001
  0
ARC
  5
4F
330
17
100
AcDbEntity
  8
SSH_INT
100
AcDbCircle
 10
6.700000747075592
 20
54.39809660204673
 30
0.0
 40
0.2000000000000454
100
AcDbArc
 50
180.0
 51
-90.00000000000001
  0
LINE
  5
50
330
17
100
AcDbEntity
  8
SSH_EXT
100
AcDbLine
 10
6.500000747075773
 20
54.39809660204673
 30
0.0
 11
6.500000747075773
 21
58.799999253000806
 31
0.0
  0
LINE
  5
51
330
17
100
AcDbEntity
  8
SSH_INT
100
AcDbLine
 10
6.500000747075773
 20
54.39809660204673
 30
0.0
 11
6.500000747075773
 21
58.799999253000806
 31
0.0
  0
ARC
  5
52
330
17
100
AcDbEntity
  8
SSH_EXT
100
AcDbCircle
 10
6.700000747075592
 20
58.799999253000806
 30
0.0
 40
0.2000000000000454
100
AcDbArc
 50
90.00000000000003
 51
180.0
  0
ARC
  5
53
330
17
100
AcDbEntity
  8
SSH_INT
100
AcDbCircle
 10
6.700000747075592
 20
58.799999253000806
 30
0.0
 40
0.2000000000000454
100
AcDbArc
 50
90.00000000000003
 51
180.0
  0
LINE
  5
54
330
17
100
AcDbEntity
  8
SSH_EXT
100
AcDbLine
 10
6.700000747075592
 20
58.99999925300107
 30
0.0
 11
16.000000747075774
 21
58.99999925300107
 31
0.0
  0
LINE
  5
55
330
17
100
AcDbEntity
  8
SSH_INT
100
AcDbLine
 10
6.700000747075592
 20
58.99999925300107
 30
0.0
 11
16.000000747075774
 21
58.99999925300107
 31
0.0
  0
ARC
  5
56
330
17
100
AcDbEntity
  8
SSH_EXT
100
AcDbCircle
 10
16.000000747075774
 20
58.799999253000806
 30
0.0
 40
0.2000000000000454
100
AcDbArc
 50
0.0
 51
90.0
  0
ARC
  5
57
330
17
100
AcDbEntity
  8
SSH_INT
100
AcDbCircle
 10
16.000000747075774
 20
58.799999253000806
 30
0.0
 40
0.2000000000000454
100
AcDbArc
 50
0.0
 51
90.0
  0
LINE
  5
58
330
17
100
AcDbEntity
  8
SSH_EXT
100
AcDbLine
 10
16.200000747076043
 20
58.799999253000806
 30
0.0
 11
16.200000747075595
 21
54.39809660204673
 31
0.0
  0
LINE
  5
59
330
17
100
AcDbEntity
  8
SSH_INT
100
AcDbLine
 10
16.200000747076043
 20
58.799999253000806
 30
0.0
 11
16.200000747075595
 21
54.39809660204673
 31
0.0
  0
ARC
  5
5A
330
17
100
AcDbEntity
  8
SSH_EXT
100
AcDbCircle
 10
16.000000747075774
 20
54.39809660204673
 30
0.0
 40
0.199999999999875
100
AcDbArc
 50
-89.99999999993483
 51
0.0
  0
ARC
  5
5B
330
17
100
AcDbEntity
  8
SSH_INT
100
AcDbCircle
 10
16.000000747075774
 20
54.39809660204673
 30
0.0
 40
0.199999999999875
100
AcDbArc
 50
-89.99999999993483
 51
0.0
  0
LINE
  5
5C
330
17
100
AcDbEntity
  8
SSH_EXT
100
AcDbLine
 10
16.000000747075774
 20
54.19809660204691
 30
0.0
 11
13.500000747075775
 21
54.198096602046455
 31
0.0
  0
LINE
  5
5D
330
17
100
AcDbEntity
  8
SSH_INT
100
AcDbLine
 10
16.000000747075774
 20
54.19809660204691
 30
0.0
 11
13.500000747075775
 21
54.198096602046455
 31
0.0
  0
ARC
  5
5E
330
17
100
AcDbEntity
  8
SSH_EXT
100
AcDbCircle
 10
13.500000747075775
 20
53.698096602046
 30
0.0
 40
0.5000000000002274
100
AcDbArc
 50
90.00000000000003
 51
-90.00000000000001
  0
ARC
  5
5F
330
17
100
AcDbEntity
  8
SSH_INT
100
AcDbCircle
 10
13.500000747075775
 20
53.698096602046
 30
0.0
 40
0.5000000000002274
100
AcDbArc
 50
90.00000000000003
 51
-90.00000000000001
  0
LINE
  5
60
330
17
100
AcDbEntity
  8
SSH_EXT
100
AcDbLine
 10
13.500000747075775
 20
53.198096602045545
 30
0.0
 11
16.000000747075774
 21
53.198096602045545
 31
0.0
  0
LINE
  5
61
330
17
100
AcDbEntity
  8
SSH_INT
100
AcDbLine
 10
13.500000747075775
 20
53.198096602045545
 30
0.0
 11
16.000000747075774
 21
53.198096602045545
 31
0.0
  0
ARC
  5
62
330
17
100
AcDbEntity
  8
SSH_EXT
100
AcDbCircle
 10
16.000000747075774
 20
52.99809660204527
 30
0.0
 40
0.2000000000000454
100
AcDbArc
 50
0.0
 51
90.0
  0
ARC
  5
63
330
17
100
AcDbEntity
  8
SSH_INT
100
AcDbCircle
 10
16.000000747075774
 20
52.99809660204527
 30
0.0
 40
0.2000000000000454
100
AcDbArc
 50
0.0
 51
90.0
  0
LINE
  5
64
330
17
100
AcDbEntity
  8
SSH_EXT
100
AcDbLine
 10
16.200000747076043
 20
52.99809660204527
 30
0.0
 11
16.200000747075595
 21
47.89809660204673
 31
0.0
  0
LINE
  5
65
330
17
100
AcDbEntity
  8
SSH_INT
100
AcDbLine
 10
16.200000747076043
 20
52.99809660204527
 30
0.0
 11
16.200000747075595
 21
47.89809660204673
 31
0.0
  0
ARC
  5
66
330
17
100
AcDbEntity
  8
SSH_EXT
100
AcDbCircle
 10
16.000000747075774
 20
47.89809660204673
 30
0.0
 40
0.199999999999875
100
AcDbArc
 50
-89.99999999993483
 51
0.0
  0
ARC
  5
67
330
17
100
AcDbEntity
  8
SSH_INT
100
AcDbCircle
 10
16.000000747075774
 20
47.89809660204673
 30
0.0
 40
0.199999999999875
100
AcDbArc
 50
-89.99999999993483
 51
0.0
  0
LINE
  5
68
330
17
100
AcDbEntity
  8
SSH_EXT
100
AcDbLine
 10
16.000000747075774
 20
47.69809660204691
 30
0.0
 11
13.500000747075775
 21
47.698096602046
 31
0.0
  0
LINE
  5
69
330
17
100
AcDbEntity
  8
SSH_INT
100
AcDbLine
 10
16.000000747075774
 20
47.69809660204691
 30
0.0
 11
13.500000747075775
 21
47.698096602046
 31
0.0
  0
ARC
  5
6A
330
17
100
AcDbEntity
  8
SSH_EXT
100
AcDbCircle
 10
13.500000747075775
 20
47.198096602046
 30
0.0
 40
0.5
100
AcDbArc
 50
90.00000000000003
 51
-90.00000000000001
  0
ARC
  5
6B
330
17
100
AcDbEntity
  8
SSH_INT
100
AcDbCircle
 10
13.500000747075775
 20
47.198096602046
 30
0.0
 40
0.5
100
AcDbArc
 50
90.00000000000003
 51
-90.00000000000001
  0
LINE
  5
6C
330
17
100
AcDbEntity
  8
SSH_EXT
100
AcDbLine
 10
13.500000747075775
 20
46.698096602046
 30
0.0
 11
16.000000747075774
 21
46.698096602047364
 31
0.0
  0
LINE
  5
6D
330
17
100
AcDbEntity
  8
SSH_INT
100
AcDbLine
 10
13.500000747075775
 20
46.698096602046
 30
0.0
 11
16.000000747075774
 21
46.698096602047364
 31
0.0
  0
ARC
  5
6E
330
17
100
AcDbEntity
  8
SSH_EXT
100
AcDbCircle
 10
16.000000747075774
 20
46.49809660204709
 30
0.0
 40
0.2000000000000454
100
AcDbArc
 50
0.0
 51
90.0
  0
ARC
  5
6F
330
17
100
AcDbEntity
  8
SSH_INT
100
AcDbCircle
 10
16.000000747075774
 20
46.49809660204709
 30
0.0
 40
0.2000000000000454
100
AcDbArc
 50
0.0
 51
90.0
  0
LINE
  5
70
330
17
100
AcDbEntity
  8
SSH_EXT
100
AcDbLine
 10
16.200000747076043
 20
46.49809660204709
 30
0.0
 11
16.200000747075595
 21
40.99999925299971
 31
0.0
  0
LINE
  5
71
330
17
100
AcDbEntity
  8
SSH_INT
100
AcDbLine
 10
16.200000747076043
 20
46.49809660204709
 30
0.0
 11
16.200000747075595
 21
40.99999925299971
 31
0.0
  0
ARC
  5
72
330
17
100
AcDbEntity
  8
SSH_EXT
100
AcDbCircle
 10
16.000000747075774
 20
40.99999925299971
 30
0.0
 40
0.199999999999875
100
AcDbArc
 50
-89.99999999993483
 51
0.0
  0
ARC
  5
73
330
17
100
AcDbEntity
  8
SSH_INT
100
AcDbCircle
 10
16.000000747075774
 20
40.99999925299971
 30
0.0
 40
0.199999999999875
100
AcDbArc
 50
-89.99999999993483
 51
0.0
  0
ARC
  5
74
330
17
100
AcDbEntity
  8
SSH_EXT
100
AcDbCircle
 10
12.700000747075585
 20
60.699999253001806
 30
0.0
 40
0.2000000000000454
100
AcDbArc
 50
180.0
 51
-90.00000000000001
  0
ARC
  5
75
330
17
100
AcDbEntity
  8
SSH_INT
100
AcDbCircle
 10
12.700000747075585
 20
60.699999253001806
 30
0.0
 40
0.2000000000000454
100
AcDbArc
 50
180.0
 51
-90.00000000000001
  0
LINE
  5
76
330
17
100
AcDbEntity
  8
SSH_EXT
100
AcDbLine
 10
12.500000747075775
 20
60.699999253001806
 30
0.0
 11
12.500000747085775
 21
73.79999925299079
 31
0.0
  0
LINE
  5
77
330
17
100
AcDbEntity
  8
SSH_INT
100
AcDbLine
 10
12.500000747075775
 20
60.699999253001806
 30
0.0
 11
12.500000747085775
 21
73.79999925299079
 31
0.0
  0
ARC
  5
78
330
17
100
AcDbEntity
  8
SSH_EXT
100
AcDbCircle
 10
12.700000747085594
 20
73.79999925299079
 30
0.0
 40
0.200000000000017
100
AcDbArc
 50
90.00000000000003
 51
180.0
  0
ARC
  5
79
330
17
100
AcDbEntity
  8
SSH_INT
100
AcDbCircle
 10
12.700000747085594
 20
73.79999925299079
 30
0.0
 40
0.200000000000017
100
AcDbArc
 50
90.00000000000003
 51
180.0
  0
LINE
  5
7A
330
17
100
AcDbEntity
  8
SSH_EXT
100
AcDbLine
 10
12.700000747085594
 20
73.99999925299062
 30
0.0
 11
16.000000747086236
 21
73.99999925299062
 31
0.0
  0
LINE
  5
7B
330
17
100
AcDbEntity
  8
SSH_INT
100
AcDbLine
 10
12.700000747085594
 20
73.99999925299062
 30
0.0
 11
16.000000747086236
 21
73.99999925299062
 31
0.0
  0
ARC
  5
7C
330
17
100
AcDbEntity
  8
SSH_EXT
100
AcDbCircle
 10
16.000000747086236
 20
73.79999925299035
 30
0.0
 40
0.2000000000000454
100
AcDbArc
 50
0.0
 51
90.0
  0
ARC
  5
7D
330
17
100
AcDbEntity
  8
SSH_INT
100
AcDbCircle
 10
16.000000747086236
 20
73.79999925299035
 30
0.0
 40
0.2000000000000454
100
AcDbArc
 50
0.0
 51
90.0
  0
LINE
  5
7E
330
17
100
AcDbEntity
  8
SSH_EXT
100
AcDbLine
 10
16.200000747086506
 20
73.79999925299035
 30
0.0
 11
16.200000747076043
 21
60.69999925300089
 31
0.0
  0
LINE
  5
7F
330
17
100
AcDbEntity
  8
SSH_INT
100
AcDbLine
 10
16.200000747086506
 20
73.79999925299035
 30
0.0
 11
16.200000747076043
 21
60.69999925300089
 31
0.0
  0
ARC
  5
80
330
17
100
AcDbEntity
  8
SSH_EXT
100
AcDbCircle
 10
16.000000747075774
 20
60.69999925300089
 30
0.0
 40
0.2000000000000454
100
AcDbArc
 50
-90.00000000000001
 51
0.0
  0
ARC
  5
81
330
17
100
AcDbEntity
  8
SSH_INT
100
AcDbCircle
 10
16.000000747075774
 20
60.69999925300089
 30
0.0
 40
0.2000000000000454
100
AcDbArc
 50
-90.00000000000001
 51
0.0
  0
LINE
  5
82
330
17
100
AcDbEntity
  8
SSH_EXT
100
AcDbLine
 10
16.000000747075774
 20
60.49999925300107
 30
0.0
 11
12.700000747075585
 21
60.49999925300152
 31
0.0
  0
LINE
  5
83
330
17
100
AcDbEntity
  8
SSH_INT
100
AcDbLine
 10
16.000000747075774
 20
60.49999925300107
 30
0.0
 11
12.700000747075585
 21
60.49999925300152
 31
0.0
  0
ARC
  5
84
330
17
100
AcDbEntity
  8
SSH_EXT
100
AcDbCircle
 10
7.462630571588761
 20
60.69999925300043
 30
0.0
 40
0.2000000000000454
100
AcDbArc
 50
180.0
 51
-90.00000000000001
  0
ARC
  5
85
330
17
100
AcDbEntity
  8
SSH_INT
100
AcDbCircle
 10
7.462630571588761
 20
60.69999925300043
 30
0.0
 40
0.2000000000000454
100
AcDbArc
 50
180.0
 51
-90.00000000000001
  0
LINE
  5
86
330
17
100
AcDbEntity
  8
SSH_EXT
100
AcDbLine
 10
7.262630571588943
 20
60.69999925300043
 30
0.0
 11
7.2626305715989465
 21
73.79999925299035
 31
0.0
  0
LINE
  5
87
330
17
100
AcDbEntity
  8
SSH_INT
100
AcDbLine
 10
7.262630571588943
 20
60.69999925300043
 30
0.0
 11
7.2626305715989465
 21
73.79999925299035
 31
0.0
  0
ARC
  5
88
330
17
100
AcDbEntity
  8
SSH_EXT
100
AcDbCircle
 10
7.462630571598765
 20
73.79999925299035
 30
0.0
 40
0.200000000000017
100
AcDbArc
 50
90.00000000000003
 51
180.0
  0
ARC
  5
89
330
17
100
AcDbEntity
  8
SSH_INT
100
AcDbCircle
 10
7.462630571598765
 20
73.79999925299035
 30
0.0
 40
0.200000000000017
100
AcDbArc
 50
90.00000000000003
 51
180.0
  0
LINE
  5
8A
330
17
100
AcDbEntity
  8
SSH_EXT
100
AcDbLine
 10
7.462630571598765
 20
73.99999925299015
 30
0.0
 11
11.300000747085955
 21
73.99999925299015
 31
0.0
  0
LINE
  5
8B
330
17
100
AcDbEntity
  8
SSH_INT
100
AcDbLine
 10
7.462630571598765
 20
73.99999925299015
 30
0.0
 11
11.300000747085955
 21
73.99999925299015
 31
0.0
  0
ARC
  5
8C
330
17
100
AcDbEntity
  8
SSH_EXT
100
AcDbCircle
 10
11.300000747085955
 20
73.79999925299035
 30
0.0
 40
0.2000000000000454
100
AcDbArc
 50
0.0
 51
90.0
  0
ARC
  5
8D
330
17
100
AcDbEntity
  8
SSH_INT
100
AcDbCircle
 10
11.300000747085955
 20
73.79999925299035
 30
0.0
 40
0.2000000000000454
100
AcDbArc
 50
0.0
 51
90.0
  0
LINE
  5
8E
330
17
100
AcDbEntity
  8
SSH_EXT
100
AcDbLine
 10
11.500000747085775
 20
73.79999925299035
 30
0.0
 11
11.500000747075775
 21
60.69999925300089
 31
0.0
  0
LINE
  5
8F
330
17
100
AcDbEntity
  8
SSH_INT
100
AcDbLine
 10
11.500000747085775
 20
73.79999925299035
 30
0.0
 11
11.500000747075775
 21
60.69999925300089
 31
0.0
  0
ARC
  5
90
330
17
100
AcDbEntity
  8
SSH_EXT
100
AcDbCircle
 10
11.300000747075956
 20
60.69999925300089
 30
0.0
 40
0.2000000000000241
100
AcDbArc
 50
-90.00000000000001
 51
0.0
  0
ARC
  5
91
330
17
100
AcDbEntity
  8
SSH_INT
100
AcDbCircle
 10
11.300000747075956
 20
60.69999925300089
 30
0.0
 40
0.2000000000000241
100
AcDbArc
 50
-90.00000000000001
 51
0.0
  0
LINE
  5
92
330
17
100
AcDbEntity
  8
SSH_EXT
100
AcDbLine
 10
11.300000747075956
 20
60.49999925300107
 30
0.0
 11
7.462630571588761
 21
60.49999925300016
 31
0.0
  0
LINE
  5
93
330
17
100
AcDbEntity
  8
SSH_INT
100
AcDbLine
 10
11.300000747075956
 20
60.49999925300107
 30
0.0
 11
7.462630571588761
 21
60.49999925300016
 31
0.0
  0
LINE
  5
94
330
17
100
AcDbEntity
  8
SSH_EXT
100
AcDbLine
 10
16.000000747086236
 20
74.99999925299016
 30
0.0
 11
12.700000747085594
 21
74.99999925299016
 31
0.0
  0
LINE
  5
95
330
17
100
AcDbEntity
  8
SSH_INT
100
AcDbLine
 10
16.000000747086236
 20
74.99999925299016
 30
0.0
 11
12.700000747085594
 21
74.99999925299016
 31
0.0
  0
ARC
  5
96
330
17
100
AcDbEntity
  8
SSH_EXT
100
AcDbCircle
 10
12.700000747085594
 20
75.19999925299044
 30
0.0
 40
0.2000000000000454
100
AcDbArc
 50
180.0
 51
-90.00000000000001
  0
ARC
  5
97
330
17
100
AcDbEntity
  8
SSH_INT
100
AcDbCircle
 10
12.700000747085594
 20
75.19999925299044
 30
0.0
 40
0.2000000000000454
100
AcDbArc
 50
180.0
 51
-90.00000000000001
  0
LINE
  5
98
330
17
100
AcDbEntity
  8
SSH_EXT
100
AcDbLine
 10
12.500000747085775
 20
75.19999925299044
 30
0.0
 11
12.500000747075775
 21
86.29999925300035
 31
0.0
  0
LINE
  5
99
330
17
100
AcDbEntity
  8
SSH_INT
100
AcDbLine
 10
12.500000747085775
 20
75.19999925299044
 30
0.0
 11
12.500000747075775
 21
86.29999925300035
 31
0.0
  0
ARC
  5
9A
330
17
100
AcDbEntity
  8
SSH_EXT
100
AcDbCircle
 10
12.700000747075585
 20
86.29999925300035
 30
0.0
 40
0.200000000000017
100
AcDbArc
 50
90.00000000000003
 51
180.0
  0
ARC
  5
9B
330
17
100
AcDbEntity
  8
SSH_INT
100
AcDbCircle
 10
12.700000747075585
 20
86.29999925300035
 30
0.0
 40
0.200000000000017
100
AcDbArc
 50
90.00000000000003
 51
180.0
  0
LINE
  5
9C
330
17
100
AcDbEntity
  8
SSH_EXT
100
AcDbLine
 10
12.700000747075585
 20
86.49999925300061
 30
0.0
 11
16.000000747075774
 21
86.49999925300197
 31
0.0
  0
LINE
  5
9D
330
17
100
AcDbEntity
  8
SSH_INT
100
AcDbLine
 10
12.700000747075585
 20
86.49999925300061
 30
0.0
 11
16.000000747075774
 21
86.49999925300197
 31
0.0
  0
ARC
  5
9E
330
17
100
AcDbEntity
  8
SSH_EXT
100
AcDbCircle
 10
16.000000747075774
 20
86.2999992530017
 30
0.0
 40
0.2000000000000454
100
AcDbArc
 50
0.0
 51
90.0
  0
ARC
  5
9F
330
17
100
AcDbEntity
  8
SSH_INT
100
AcDbCircle
 10
16.000000747075774
 20
86.2999992530017
 30
0.0
 40
0.2000000000000454
100
AcDbArc
 50
0.0
 51
90.0
  0
LINE
  5
A0
330
17
100
AcDbEntity
  8
SSH_EXT
100
AcDbLine
 10
16.200000747076043
 20
86.2999992530017
 30
0.0
 11
16.200000747086506
 21
75.19999925298997
 31
0.0
  0
LINE
  5
A1
330
17
100
AcDbEntity
  8
SSH_INT
100
AcDbLine
 10
16.200000747076043
 20
86.2999992530017
 30
0.0
 11
16.200000747086506
 21
75.19999925298997
 31
0.0
  0
ARC
  5
A2
330
17
100
AcDbEntity
  8
SSH_EXT
100
AcDbCircle
 10
16.000000747086236
 20
75.19999925298997
 30
0.0
 40
0.200000000000017
100
AcDbArc
 50
-90.00000000000001
 51
0.0
  0
ARC
  5
A3
330
17
100
AcDbEntity
  8
SSH_INT
100
AcDbCircle
 10
16.000000747086236
 20
75.19999925298997
 30
0.0
 40
0.200000000000017
100
AcDbArc
 50
-90.00000000000001
 51
0.0
  0
LINE
  5
A4
330
17
100
AcDbEntity
  8
SSH_EXT
100
AcDbLine
 10
11.300000747085505
 20
74.99999925298971
 30
0.0
 11
7.462630571598765
 21
74.99999925298924
 31
0.0
  0
LINE
  5
A5
330
17
100
AcDbEntity
  8
SSH_INT
100
AcDbLine
 10
11.300000747085505
 20
74.99999925298971
 30
0.0
 11
7.462630571598765
 21
74.99999925298924
 31
0.0
  0
ARC
  5
A6
330
17
100
AcDbEntity
  8
SSH_EXT
100
AcDbCircle
 10
7.462630571598765
 20
75.19999925298953
 30
0.0
 40
0.2000000000000454
100
AcDbArc
 50
180.0
 51
-90.00000000000001
  0
ARC
  5
A7
330
17
100
AcDbEntity
  8
SSH_INT
100
AcDbCircle
 10
7.462630571598765
 20
75.19999925298953
 30
0.0
 40
0.2000000000000454
100
AcDbArc
 50
180.0
 51
-90.00000000000001
  0
LINE
  5
A8
330
17
100
AcDbEntity
  8
SSH_EXT
100
AcDbLine
 10
7.2626305715989465
 20
75.19999925298953
 30
0.0
 11
7.262630571588943
 21
87.053106873258
 31
0.0
  0
LINE
  5
A9
330
17
100
AcDbEntity
  8
SSH_INT
100
AcDbLine
 10
7.2626305715989465
 20
75.19999925298953
 30
0.0
 11
7.262630571588943
 21
87.053106873258
 31
0.0
  0
ARC
  5
AA
330
17
100
AcDbEntity
  8
SSH_EXT
100
AcDbCircle
 10
7.462630571588761
 20
87.053106873258
 30
0.0
 40
0.2000000000000223
100
AcDbArc
 50
52.79312825265275
 51
180.0
  0
ARC
  5
AB
330
17
100
AcDbEntity
  8
SSH_INT
100
AcDbCircle
 10
7.462630571588761
 20
87.053106873258
 30
0.0
 40
0.2000000000000223
100
AcDbArc
 50
52.79312825265275
 51
180.0
  0
ARC
  5
AC
330
17
100
AcDbEntity
  8
SSH_EXT
100
AcDbCircle
 10
9.70000074708696
 20
89.99999925299699
 30
0.0
 40
3.499999999996238
100
AcDbArc
 50
-127.20687174757799
 51
-90.00000000018612
  0
ARC
  5
AD
330
17
100
AcDbEntity
  8
SSH_INT
100
AcDbCircle
 10
9.70000074708696
 20
89.99999925299699
 30
0.0
 40
3.499999999996238
100
AcDbArc
 50
-127.20687174757799
 51
-90.00000000018612
  0
LINE
  5
AE
330
17
100
AcDbEntity
  8
SSH_EXT
100
AcDbLine
 10
9.700000747075592
 20
86.49999925300061
 30
0.0
 11
11.300000747075496
 21
86.49999925300108
 31
0.0
  0
LINE
  5
AF
330
17
100
AcDbEntity
  8
SSH_INT
100
AcDbLine
 10
9.700000747075592
 20
86.49999925300061
 30
0.0
 11
11.300000747075496
 21
86.49999925300108
 31
0.0
  0
ARC
  5
B0
330
17
100
AcDbEntity
  8
SSH_EXT
100
AcDbCircle
 10
11.300000747075496
 20
86.29999925300126
 30
0.0
 40
0.2000000000000454
100
AcDbArc
 50
0.0
 51
90.0
  0
ARC
  5
B1
330
17
100
AcDbEntity
  8
SSH_INT
100
AcDbCircle
 10
11.300000747075496
 20
86.29999925300126
 30
0.0
 40
0.2000000000000454
100
AcDbArc
 50
0.0
 51
90.0
  0
LINE
  5
B2
330
17
100
AcDbEntity
  8
SSH_EXT
100
AcDbLine
 10
11.500000747075775
 20
86.29999925300126
 30
0.0
 11
11.500000747085775
 21
75.19999925298997
 31
0.0
  0
LINE
  5
B3
330
17
100
AcDbEntity
  8
SSH_INT
100
AcDbLine
 10
11.500000747075775
 20
86.29999925300126
 30
0.0
 11
11.500000747085775
 21
75.19999925298997
 31
0.0
  0
ARC
  5
B4
330
17
100
AcDbEntity
  8
SSH_EXT
100
AcDbCircle
 10
11.300000747085505
 20
75.19999925298997
 30
0.0
 40
0.200000000000017
100
AcDbArc
 50
-90.00000000000001
 51
-6.510090442006648e-11
  0
ARC
  5
B5
330
17
100
AcDbEntity
  8
SSH_INT
100
AcDbCircle
 10
11.300000747085505
 20
75.19999925298997
 30
0.0
 40
0.200000000000017
100
AcDbArc
 50
-90.00000000000001
 51
-6.510090442006648e-11
  0
ARC
  5
B6
330
17
100
AcDbEntity
  8
SSH_EXT
100
AcDbCircle
 10
-8.742966291496941
 20
73.49999925300062
 30
0.0
 40
0.9999999999999853
100
AcDbArc
 50
-158.19859051363852
 51
-90.00000000001305
  0
ARC
  5
B7
330
17
100
AcDbEntity
  8
SSH_INT
100
AcDbCircle
 10
-8.742966291496941
 20
73.49999925300062
 30
0.0
 40
0.9999999999999853
100
AcDbArc
 50
-158.19859051363852
 51
-90.00000000001305
  0
LINE
  5
B8
330
17
100
AcDbEntity
  8
SSH_EXT
100
AcDbLine
 10
-9.671442982381905
 20
73.12860857664646
 30
0.0
 11
-10.248555523465706
 21
74.57138992935506
 31
0.0
  0
LINE
  5
B9
330
17
100
AcDbEntity
  8
SSH_INT
100
AcDbLine
 10
-9.671442982381905
 20
73.12860857664646
 30
0.0
 11
-10.248555523465706
 21
74.57138992935506
 31
0.0
  0
ARC
  5
BA
330
17
100
AcDbEntity
  8
SSH_EXT
100
AcDbCircle
 10
-11.177032214350675
 20
74.1999992530009
 30
0.0
 40
1.000000000000085
100
AcDbArc
 50
21.801409486362704
 51
90.00000000000003
  0
ARC
  5
BB
330
17
100
AcDbEntity
  8
SSH_INT
100
AcDbCircle
 10
-11.177032214350675
 20
74.1999992530009
 30
0.0
 40
1.000000000000085
100
AcDbArc
 50
21.801409486362704
 51
90.00000000000003
  0
LINE
  5
BC
330
17
100
AcDbEntity
  8
SSH_EXT
100
AcDbLine
 10
-11.177032214350675
 20
75.1999992530009
 30
0.0
 11
-11.999999252924225
 21
75.19999925300043
 31
0.0
  0
LINE
  5
BD
330
17
100
AcDbEntity
  8
SSH_INT
100
AcDbLine
 10
-11.177032214350675
 20
75.1999992530009
 30
0.0
 11
-11.999999252924225
 21
75.19999925300043
 31
0.0
  0
LINE
  5
BE
330
17
100
AcDbEntity
  8
SSH_EXT
100
AcDbLine
 10
-11.999999252924225
 20
75.19999925300043
 30
0.0
 11
-11.999999252924225
 21
73.25699408695117
 31
0.0
  0
LINE
  5
BF
330
17
100
AcDbEntity
  8
SSH_INT
100
AcDbLine
 10
-11.999999252924225
 20
75.19999925300043
 30
0.0
 11
-11.999999252924225
 21
73.25699408695117
 31
0.0
  0
ARC
  5
C0
330
17
100
AcDbEntity
  8
SSH_EXT
100
AcDbCircle
 10
-12.499999252924225
 20
73.25699408695117
 30
0.0
 40
0.4999999999999954
100
AcDbArc
 50
-98.21321070172282
 51
0.0
  0
ARC
  5
C1
330
17
100
AcDbEntity
  8
SSH_INT
100
AcDbCircle
 10
-12.499999252924225
 20
73.25699408695117
 30
0.0
 40
0.4999999999999954
100
AcDbArc
 50
-98.21321070172282
 51
0.0
  0
ARC
  5
C2
330
17
100
AcDbEntity
  8
SSH_EXT
100
AcDbCircle
 10
-12.999999252925585
 20
69.79289247181396
 30
0.0
 40
2.999999999999734
100
AcDbArc
 50
81.78678929823234
 51
98.21321070170627
  0
ARC
  5
C3
330
17
100
AcDbEntity
  8
SSH_INT
100
AcDbCircle
 10
-12.999999252925585
 20
69.79289247181396
 30
0.0
 40
2.999999999999734
100
AcDbArc
 50
81.78678929823234
 51
98.21321070170627
  0
ARC
  5
C4
330
17
100
AcDbEntity
  8
SSH_EXT
100
AcDbCircle
 10
-13.499999252924225
 20
73.25699408695164
 30
0.0
 40
0.4999999999997445
100
AcDbArc
 50
-179.9999999999479
 51
-81.78678929822374
  0
ARC
  5
C5
330
17
100
AcDbEntity
  8
SSH_INT
100
AcDbCircle
 10
-13.499999252924225
 20
73.25699408695164
 30
0.0
 40
0.4999999999997445
100
AcDbArc
 50
-179.9999999999479
 51
-81.78678929822374
  0
LINE
  5
C6
330
17
100
AcDbEntity
  8
SSH_EXT
100
AcDbLine
 10
-13.999999252924225
 20
73.25699408695117
 30
0.0
 11
-13.999999252924225
 21
75.19999925300043
 31
0.0
  0
LINE
  5
C7
330
17
100
AcDbEntity
  8
SSH_INT
100
AcDbLine
 10
-13.999999252924225
 20
73.25699408695117
 30
0.0
 11
-13.999999252924225
 21
75.19999925300043
 31
0.0
  0
LINE
  5
C8
330
17
100
AcDbEntity
  8
SSH_EXT
100
AcDbLine
 10
-13.999999252924225
 20
75.19999925300043
 30
0.0
 11
-14.822966291496865
 21
75.1999992530009
 31
0.0
  0
LINE
  5
C9
330
17
100
AcDbEntity
  8
SSH_INT
100
AcDbLine
 10
-13.999999252924225
 20
75.19999925300043
 30
0.0
 11
-14.822966291496865
 21
75.1999992530009
 31
0.0
  0
ARC
  5
CA
330
17
100
AcDbEntity
  8
SSH_EXT
100
AcDbCircle
 10
-14.822966291496865
 20
74.1999992530009
 30
0.0
 40
1.000000000000001
100
AcDbArc
 50
90.00000000000003
 51
158.1985905136312
  0
ARC
  5
CB
330
17
100
AcDbEntity
  8
SSH_INT
100
AcDbCircle
 10
-14.822966291496865
 20
74.1999992530009
 30
0.0
 40
1.000000000000001
100
AcDbArc
 50
90.00000000000003
 51
158.1985905136312
  0
LINE
  5
CC
330
17
100
AcDbEntity
  8
SSH_EXT
100
AcDbLine
 10
-15.751442982382285
 20
74.57138992935506
 30
0.0
 11
-16.328555523465635
 21
73.12860857664646
 31
0.0
  0
LINE
  5
CD
330
17
100
AcDbEntity
  8
SSH_INT
100
AcDbLine
 10
-15.751442982382285
 20
74.57138992935506
 30
0.0
 11
-16.328555523465635
 21
73.12860857664646
 31
0.0
  0
ARC
  5
CE
330
17
100
AcDbEntity
  8
SSH_EXT
100
AcDbCircle
 10
-17.257032214350605
 20
73.49999925300108
 30
0.0
 40
1.000000000000085
100
AcDbArc
 50
-90.00000000000001
 51
-21.80140948638557
  0
ARC
  5
CF
330
17
100
AcDbEntity
  8
SSH_INT
100
AcDbCircle
 10
-17.257032214350605
 20
73.49999925300108
 30
0.0
 40
1.000000000000085
100
AcDbArc
 50
-90.00000000000001
 51
-21.80140948638557
  0
LINE
  5
D0
330
17
100
AcDbEntity
  8
SSH_EXT
100
AcDbLine
 10
-17.257032214350605
 20
72.49999925300061
 30
0.0
 11
-20.388792448683034
 21
72.49999925299971
 31
0.0
  0
LINE
  5
D1
330
17
100
AcDbEntity
  8
SSH_INT
100
AcDbLine
 10
-17.257032214350605
 20
72.49999925300061
 30
0.0
 11
-20.388792448683034
 21
72.49999925299971
 31
0.0
  0
ARC
  5
D2
330
17
100
AcDbEntity
  8
SSH_EXT
100
AcDbCircle
 10
-20.388792448682576
 20
68.99999925299971
 30
0.0
 40
3.499999999999978
100
AcDbArc
 50
90.00000000000746
 51
-160.000000000012
  0
ARC
  5
D3
330
17
100
AcDbEntity
  8
SSH_INT
100
AcDbCircle
 10
-20.388792448682576
 20
68.99999925299971
 30
0.0
 40
3.499999999999978
100
AcDbArc
 50
90.00000000000746
 51
-160.000000000012
  0
LINE
  5
D4
330
17
100
AcDbEntity
  8
SSH_EXT
100
AcDbLine
 10
-23.677716621433774
 20
67.80292875136047
 30
0.0
 11
-22.068796947487954
 21
63.382458277478236
 31
0.0
  0
LINE
  5
D5
330
17
100
AcDbEntity
  8
SSH_INT
100
AcDbLine
 10
-23.677716621433774
 20
67.80292875136047
 30
0.0
 11
-22.068796947487954
 21
63.382458277478236
 31
0.0
  0
ARC
  5
D6
330
17
100
AcDbEntity
  8
SSH_EXT
100
AcDbCircle
 10
-23.008489568273486
 20
63.04043813415274
 30
0.0
 40
1.000000000000006
100
AcDbArc
 50
-55.259379595427006
 51
19.99999999998921
  0
ARC
  5
D7
330
17
100
AcDbEntity
  8
SSH_INT
100
AcDbCircle
 10
-23.008489568273486
 20
63.04043813415274
 30
0.0
 40
1.000000000000006
100
AcDbArc
 50
-55.259379595427006
 51
19.99999999998921
  0
ARC
  5
D8
330
17
100
AcDbEntity
  8
SSH_EXT
100
AcDbCircle
 10
-20.899999252929316
 20
59.99999925299197
 30
0.0
 40
2.699999999996393
100
AcDbArc
 50
124.74062040438861
 51
166.0320373252603
  0
ARC
  5
D9
330
17
100
AcDbEntity
  8
SSH_INT
100
AcDbCircle
 10
-20.899999252929316
 20
59.99999925299197
 30
0.0
 40
2.699999999996393
100
AcDbArc
 50
124.74062040438861
 51
166.0320373252603
  0
ARC
  5
DA
330
17
100
AcDbEntity
  8
SSH_EXT
100
AcDbCircle
 10
-23.714248708827654
 20
60.69999925301453
 30
0.0
 40
0.2000000000129773
100
AcDbArc
 50
-90.00000000475512
 51
-13.967962679431052
  0
ARC
  5
DB
330
17
100
AcDbEntity
  8
SSH_INT
100
AcDbCircle
 10
-23.714248708827654
 20
60.69999925301453
 30
0.0
 40
0.2000000000129773
100
AcDbArc
 50
-90.00000000475512
 51
-13.967962679431052
  0
LINE
  5
DC
330
17
100
AcDbEntity
  8
SSH_EXT
100
AcDbLine
 10
-23.714248708844487
 20
60.49999925300107
 30
0.0
 11
-31.037369428414426
 21
60.49999925300152
 31
0.0
  0
LINE
  5
DD
330
17
100
AcDbEntity
  8
SSH_INT
100
AcDbLine
 10
-23.714248708844487
 20
60.49999925300107
 30
0.0
 11
-31.037369428414426
 21
60.49999925300152
 31
0.0
  0
ARC
  5
DE
330
17
100
AcDbEntity
  8
SSH_EXT
100
AcDbCircle
 10
-31.037369428414426
 20
60.699999253001806
 30
0.0
 40
0.1999999999999318
100
AcDbArc
 50
-179.99999999986983
 51
-90.00000000000001
  0
ARC
  5
DF
330
17
100
AcDbEntity
  8
SSH_INT
100
AcDbCircle
 10
-31.037369428414426
 20
60.699999253001806
 30
0.0
 40
0.1999999999999318
100
AcDbArc
 50
-179.99999999986983
 51
-90.00000000000001
  0
LINE
  5
E0
330
17
100
AcDbEntity
  8
SSH_EXT
100
AcDbLine
 10
-31.237369428414244
 20
60.699999253001344
 30
0.0
 11
-31.237369428414244
 21
73.47523977178389
 31
0.0
  0
LINE
  5
E1
330
17
100
AcDbEntity
  8
SSH_INT
100
AcDbLine
 10
-31.237369428414244
 20
60.699999253001344
 30
0.0
 11
-31.237369428414244
 21
73.47523977178389
 31
0.0
  0
ARC
  5
E2
330
17
100
AcDbEntity
  8
SSH_EXT
100
AcDbCircle
 10
-31.037369428413964
 20
73.47523977178389
 30
0.0
 40
0.2000000000000175
100
AcDbArc
 50
135.0000000000921
 51
179.9999999999674
  0
ARC
  5
E3
330
17
100
AcDbEntity
  8
SSH_INT
100
AcDbCircle
 10
-31.037369428413964
 20
73.47523977178389
 30
0.0
 40
0.2000000000000175
100
AcDbArc
 50
135.0000000000921
 51
179.9999999999674
  0
LINE
  5
E4
330
17
100
AcDbEntity
  8
SSH_EXT
100
AcDbLine
 10
-31.178790784651486
 20
73.61666112802094
 30
0.0
 11
-30.737369428414244
 21
74.0580824842582
 31
0.0
  0
LINE
  5
E5
330
17
100
AcDbEntity
  8
SSH_INT
100
AcDbLine
 10
-31.178790784651486
 20
73.61666112802094
 30
0.0
 11
-30.737369428414244
 21
74.0580824842582
 31
0.0
  0
LINE
  5
E6
330
17
100
AcDbEntity
  8
SSH_EXT
100
AcDbLine
 10
-30.737369428414244
 20
74.0580824842582
 30
0.0
 11
-31.178790784651486
 21
74.49950384049544
 31
0.0
  0
LINE
  5
E7
330
17
100
AcDbEntity
  8
SSH_INT
100
AcDbLine
 10
-30.737369428414244
 20
74.0580824842582
 30
0.0
 11
-31.178790784651486
 21
74.49950384049544
 31
0.0
  0
ARC
  5
E8
330
17
100
AcDbEntity
  8
SSH_EXT
100
AcDbCircle
 10
-31.037369428414426
 20
74.6409251967334
 30
0.0
 40
0.2000000000000075
100
AcDbArc
 50
-179.99999999986983
 51
-134.99999999988492
  0
ARC
  5
E9
330
17
100
AcDbEntity
  8
SSH_INT
100
AcDbCircle
 10
-31.037369428414426
 20
74.6409251967334
 30
0.0
 40
0.2000000000000075
100
AcDbArc
 50
-179.99999999986983
 51
-134.99999999988492
  0
LINE
  5
EA
330
17
100
AcDbEntity
  8
SSH_EXT
100
AcDbLine
 10
-31.237369428414244
 20
74.64092519673294
 30
0.0
 11
-31.237369428413785
 21
87.14388609392472
 31
0.0
  0
LINE
  5
EB
330
17
100
AcDbEntity
  8
SSH_INT
100
AcDbLine
 10
-31.237369428414244
 20
74.64092519673294
 30
0.0
 11
-31.237369428413785
 21
87.14388609392472
 31
0.0
  0
ARC
  5
EC
330
17
100
AcDbEntity
  8
SSH_EXT
100
AcDbCircle
 10
-31.037369428413964
 20
87.14388609392516
 30
0.0
 40
0.19999999999991
100
AcDbArc
 50
98.00000000005141
 51
-179.99999999996754
  0
ARC
  5
ED
330
17
100
AcDbEntity
  8
SSH_INT
100
AcDbCircle
 10
-31.037369428413964
 20
87.14388609392516
 30
0.0
 40
0.19999999999991
100
AcDbArc
 50
98.00000000005141
 51
-179.99999999996754
  0
LINE
  5
EE
330
17
100
AcDbEntity
  8
SSH_EXT
100
AcDbLine
 10
-31.065204048606127
 20
87.34193970767319
 30
0.0
 11
-22.839971890255136
 21
88.49792070082867
 31
0.0
  0
LINE
  5
EF
330
17
100
AcDbEntity
  8
SSH_INT
100
AcDbLine
 10
-31.065204048606127
 20
87.34193970767319
 30
0.0
 11
-22.839971890255136
 21
88.49792070082867
 31
0.0
  0
ARC
  5
F0
330
17
100
AcDbEntity
  8
SSH_EXT
100
AcDbCircle
 10
-22.812137270061154
 20
88.29986708708111
 30
0.0
 40
0.1999999999998612
100
AcDbArc
 50
89.99927888598064
 51
98.00000000057194
  0
ARC
  5
F1
330
17
100
AcDbEntity
  8
SSH_INT
100
AcDbCircle
 10
-22.812137270061154
 20
88.29986708708111
 30
0.0
 40
0.1999999999998612
100
AcDbArc
 50
89.99927888598064
 51
98.00000000057194
  0
LINE
  5
F2
330
17
100
AcDbEntity
  8
SSH_EXT
100
AcDbLine
 10
-22.812134752898146
 20
88.499867087065
 30
0.0
 11
6.062633088753954
 21
88.49950367430391
 31
0.0
  0
LINE
  5
F3
330
17
100
AcDbEntity
  8
SSH_INT
100
AcDbLine
 10
-22.812134752898146
 20
88.499867087065
 30
0.0
 11
6.062633088753954
 21
88.49950367430391
 31
0.0
  0
ARC
  5
F4
330
17
100
AcDbEntity
  8
SSH_EXT
100
AcDbCircle
 10
6.062630571589125
 20
88.29950367432002
 30
0.0
 40
0.2000000000000075
100
AcDbArc
 50
0.0
 51
89.9992788853944
  0
ARC
  5
F5
330
17
100
AcDbEntity
  8
SSH_INT
100
AcDbCircle
 10
6.062630571589125
 20
88.29950367432002
 30
0.0
 40
0.2000000000000075
100
AcDbArc
 50
0.0
 51
89.9992788853944
  0
LINE
  5
F6
330
17
100
AcDbEntity
  8
SSH_EXT
100
AcDbLine
 10
6.262630571588943
 20
88.29950367432002
 30
0.0
 11
6.262630571588943
 21
81.6999992530009
 31
0.0
  0
LINE
  5
F7
330
17
100
AcDbEntity
  8
SSH_INT
100
AcDbLine
 10
6.262630571588943
 20
88.29950367432002
 30
0.0
 11
6.262630571588943
 21
81.6999992530009
 31
0.0
  0
ARC
  5
F8
330
17
100
AcDbEntity
  8
SSH_EXT
100
AcDbCircle
 10
6.06263057158867
 20
81.6999992530009
 30
0.0
 40
0.200000000000017
100
AcDbArc
 50
-90.00000000000001
 51
0.0
  0
ARC
  5
F9
330
17
100
AcDbEntity
  8
SSH_INT
100
AcDbCircle
 10
6.06263057158867
 20
81.6999992530009
 30
0.0
 40
0.200000000000017
100
AcDbArc
 50
-90.00000000000001
 51
0.0
  0
LINE
  5
FA
330
17
100
AcDbEntity
  8
SSH_EXT
100
AcDbLine
 10
6.06263057158867
 20
81.49999925300062
 30
0.0
 11
5.462630571586032
 21
81.49999925300062
 31
0.0
  0
LINE
  5
FB
330
17
100
AcDbEntity
  8
SSH_INT
100
AcDbLine
 10
6.06263057158867
 20
81.49999925300062
 30
0.0
 11
5.462630571586032
 21
81.49999925300062
 31
0.0
  0
ARC
  5
FC
330
17
100
AcDbEntity
  8
SSH_EXT
100
AcDbCircle
 10
5.462630571585578
 20
81.2999992530008
 30
0.0
 40
0.1999999999999318
100
AcDbArc
 50
89.99999999993486
 51
180.0
  0
ARC
  5
FD
330
17
100
AcDbEntity
  8
SSH_INT
100
AcDbCircle
 10
5.462630571585578
 20
81.2999992530008
 30
0.0
 40
0.1999999999999318
100
AcDbArc
 50
89.99999999993486
 51
180.0
  0
LINE
  5
FE
330
17
100
AcDbEntity
  8
SSH_EXT
100
AcDbLine
 10
5.26263057158576
 20
81.2999992530008
 30
0.0
 11
5.26263057158576
 21
80.69999925299999
 31
0.0
  0
LINE
  5
FF
330
17
100
AcDbEntity
  8
SSH_INT
100
AcDbLine
 10
5.26263057158576
 20
81.2999992530008
 30
0.0
 11
5.26263057158576
 21
80.69999925299999
 31
0.0
  0
ARC
  5
100
330
17
100
AcDbEntity
  8
SSH_EXT
100
AcDbCircle
 10
5.462630571586032
 20
80.69999925299999
 30
0.0
 40
0.200000000000017
100
AcDbArc
 50
180.0
 51
-90.00000000000001
  0
ARC
  5
101
330
17
100
AcDbEntity
  8
SSH_INT
100
AcDbCircle
 10
5.462630571586032
 20
80.69999925299999
 30
0.0
 40
0.200000000000017
100
AcDbArc
 50
180.0
 51
-90.00000000000001
  0
LINE
  5
102
330
17
100
AcDbEntity
  8
SSH_EXT
100
AcDbLine
 10
5.462630571586032
 20
80.49999925300017
 30
0.0
 11
6.062630571589125
 21
80.49999925300017
 31
0.0
  0
LINE
  5
103
330
17
100
AcDbEntity
  8
SSH_INT
100
AcDbLine
 10
5.462630571586032
 20
80.49999925300017
 30
0.0
 11
6.062630571589125
 21
80.49999925300017
 31
0.0
  0
ARC
  5
104
330
17
100
AcDbEntity
  8
SSH_EXT
100
AcDbCircle
 10
6.062630571589125
 20
80.2999992529999
 30
0.0
 40
0.2000000000000454
100
AcDbArc
 50
0.0
 51
90.0
  0
ARC
  5
105
330
17
100
AcDbEntity
  8
SSH_INT
100
AcDbCircle
 10
6.062630571589125
 20
80.2999992529999
 30
0.0
 40
0.2000000000000454
100
AcDbArc
 50
0.0
 51
90.0
  0
LINE
  5
106
330
17
100
AcDbEntity
  8
SSH_EXT
100
AcDbLine
 10
6.262630571588943
 20
80.2999992529999
 30
0.0
 11
6.262630571588943
 21
67.49999925300061
 31
0.0
  0
LINE
  5
107
330
17
100
AcDbEntity
  8
SSH_INT
100
AcDbLine
 10
6.262630571588943
 20
80.2999992529999
 30
0.0
 11
6.262630571588943
 21
67.49999925300061
 31
0.0
  0
ARC
  5
108
330
17
100
AcDbEntity
  8
SSH_EXT
100
AcDbCircle
 10
6.06263057158867
 20
67.49999925300061
 30
0.0
 40
0.2000000000000241
100
AcDbArc
 50
-90.00000000000001
 51
0.0
  0
ARC
  5
109
330
17
100
AcDbEntity
  8
SSH_INT
100
AcDbCircle
 10
6.06263057158867
 20
67.49999925300061
 30
0.0
 40
0.2000000000000241
100
AcDbArc
 50
-90.00000000000001
 51
0.0
  0
LINE
  5
10A
330
17
100
AcDbEntity
  8
SSH_EXT
100
AcDbLine
 10
6.06263057158867
 20
67.29999925300034
 30
0.0
 11
5.462630571586032
 21
67.2999992530008
 31
0.0
  0
LINE
  5
10B
330
17
100
AcDbEntity
  8
SSH_INT
100
AcDbLine
 10
6.06263057158867
 20
67.29999925300034
 30
0.0
 11
5.462630571586032
 21
67.2999992530008
 31
0.0
  0
ARC
  5
10C
330
17
100
AcDbEntity
  8
SSH_EXT
100
AcDbCircle
 10
5.462630571585578
 20
67.09999925300053
 30
0.0
 40
0.1999999999999318
100
AcDbArc
 50
89.99999999993486
 51
180.0
  0
ARC
  5
10D
330
17
100
AcDbEntity
  8
SSH_INT
100
AcDbCircle
 10
5.462630571585578
 20
67.09999925300053
 30
0.0
 40
0.1999999999999318
100
AcDbArc
 50
89.99999999993486
 51
180.0
  0
LINE
  5
10E
330
17
100
AcDbEntity
  8
SSH_EXT
100
AcDbLine
 10
5.26263057158576
 20
67.09999925300053
 30
0.0
 11
5.26263057158576
 21
66.49999925300017
 31
0.0
  0
LINE
  5
10F
330
17
100
AcDbEntity
  8
SSH_INT
100
AcDbLine
 10
5.26263057158576
 20
67.09999925300053
 30
0.0
 11
5.26263057158576
 21
66.49999925300017
 31
0.0
  0
ARC
  5
110
330
17
100
AcDbEntity
  8
SSH_EXT
100
AcDbCircle
 10
5.462630571586032
 20
66.49999925300017
 30
0.0
 40
0.2000000000000241
100
AcDbArc
 50
180.0
 51
-90.00000000000001
  0
ARC
  5
111
330
17
100
AcDbEntity
  8
SSH_INT
100
AcDbCircle
 10
5.462630571586032
 20
66.49999925300017
 30
0.0
 40
0.2000000000000241
100
AcDbArc
 50
180.0
 51
-90.00000000000001
  0
LINE
  5
112
330
17
100
AcDbEntity
  8
SSH_EXT
100
AcDbLine
 10
5.462630571586032
 20
66.2999992529999
 30
0.0
 11
6.062630571589125
 21
66.2999992529999
 31
0.0
  0
LINE
  5
113
330
17
100
AcDbEntity
  8
SSH_INT
100
AcDbLine
 10
5.462630571586032
 20
66.2999992529999
 30
0.0
 11
6.062630571589125
 21
66.2999992529999
 31
0.0
  0
ARC
  5
114
330
17
100
AcDbEntity
  8
SSH_EXT
100
AcDbCircle
 10
6.062630571589125
 20
66.09999925299961
 30
0.0
 40
0.2000000000000454
100
AcDbArc
 50
0.0
 51
90.0
  0
ARC
  5
115
330
17
100
AcDbEntity
  8
SSH_INT
100
AcDbCircle
 10
6.062630571589125
 20
66.09999925299961
 30
0.0
 40
0.2000000000000454
100
AcDbArc
 50
0.0
 51
90.0
  0
LINE
  5
116
330
17
100
AcDbEntity
  8
SSH_EXT
100
AcDbLine
 10
6.262630571588943
 20
66.09999925299961
 30
0.0
 11
6.262630571588487
 21
60.69999925300043
 31
0.0
  0
LINE
  5
117
330
17
100
AcDbEntity
  8
SSH_INT
100
AcDbLine
 10
6.262630571588943
 20
66.09999925299961
 30
0.0
 11
6.262630571588487
 21
60.69999925300043
 31
0.0
  0
ARC
  5
118
330
17
100
AcDbEntity
  8
SSH_EXT
100
AcDbCircle
 10
6.0626305715882145
 20
60.69999925300043
 30
0.0
 40
0.2000000000000241
100
AcDbArc
 50
-90.00000000000001
 51
0.0
  0
ARC
  5
119
330
17
100
AcDbEntity
  8
SSH_INT
100
AcDbCircle
 10
6.0626305715882145
 20
60.69999925300043
 30
0.0
 40
0.2000000000000241
100
AcDbArc
 50
-90.00000000000001
 51
0.0
  0
LINE
  5
11A
330
17
100
AcDbEntity
  8
SSH_EXT
100
AcDbLine
 10
6.0626305715882145
 20
60.49999925300016
 30
0.0
 11
-2.285749797003972
 21
60.49999925300107
 31
0.0
  0
LINE
  5
11B
330
17
100
AcDbEntity
  8
SSH_INT
100
AcDbLine
 10
6.0626305715882145
 20
60.49999925300016
 30
0.0
 11
-2.285749797003972
 21
60.49999925300107
 31
0.0
  0
ARC
  5
11C
330
17
100
AcDbEntity
  8
SSH_EXT
100
AcDbCircle
 10
-2.2857497970035183
 20
60.699999253001344
 30
0.0
 40
0.2000000000001532
100
AcDbArc
 50
-166.03203732556574
 51
-90.00000000013029
  0
ARC
  5
11D
330
17
100
AcDbEntity
  8
SSH_INT
100
AcDbCircle
 10
-2.2857497970035183
 20
60.699999253001344
 30
0.0
 40
0.2000000000001532
100
AcDbArc
 50
-166.03203732556574
 51
-90.00000000013029
  0
ARC
  5
11E
330
17
100
AcDbEntity
  8
SSH_EXT
100
AcDbCircle
 10
-5.099999252903671
 20
59.99999925297105
 30
0.0
 40
2.700000000012762
100
AcDbArc
 50
13.96796267526315
 51
55.25937959611561
  0
ARC
  5
11F
330
17
100
AcDbEntity
  8
SSH_INT
100
AcDbCircle
 10
-5.099999252903671
 20
59.99999925297105
 30
0.0
 40
2.700000000012762
100
AcDbArc
 50
13.96796267526315
 51
55.25937959611561
  0
ARC
  5
120
330
17
100
AcDbEntity
  8
SSH_EXT
100
AcDbCircle
 10
-2.991508937575872
 20
63.04043813415864
 30
0.0
 40
0.9999999999962463
100
AcDbArc
 50
160.0000000003023
 51
-124.7406204042695
  0
ARC
  5
121
330
17
100
AcDbEntity
  8
SSH_INT
100
AcDbCircle
 10
-2.991508937575872
 20
63.04043813415864
 30
0.0
 40
0.9999999999962463
100
AcDbArc
 50
160.0000000003023
 51
-124.7406204042695
  0
LINE
  5
122
330
17
100
AcDbEntity
  8
SSH_EXT
100
AcDbLine
 10
-3.9312015583604984
 20
63.382458277478236
 30
0.0
 11
-2.322281884414678
 21
67.80292875136
 31
0.0
  0
LINE
  5
123
330
17
100
AcDbEntity
  8
SSH_INT
100
AcDbLine
 10
-3.9312015583604984
 20
63.382458277478236
 30
0.0
 11
-2.322281884414678
 21
67.80292875136
 31
0.0
  0
ARC
  5
124
330
17
100
AcDbEntity
  8
SSH_EXT
100
AcDbCircle
 10
-5.611206057164964
 20
68.99999925300017
 30
0.0
 40
3.499999999999898
100
AcDbArc
 50
-20.000000000000497
 51
90.0
  0
ARC
  5
125
330
17
100
AcDbEntity
  8
SSH_INT
100
AcDbCircle
 10
-5.611206057164964
 20
68.99999925300017
 30
0.0
 40
3.499999999999898
100
AcDbArc
 50
-20.000000000000497
 51
90.0
  0
LINE
  5
126
330
17
100
AcDbEntity
  8
SSH_EXT
100
AcDbLine
 10
-5.611206057164964
 20
72.49999925299971
 30
0.0
 11
-8.742966291496941
 21
72.49999925300061
 31
0.0
  0
LINE
  5
127
330
17
100
AcDbEntity
  8
SSH_INT
100
AcDbLine
 10
-5.611206057164964
 20
72.49999925299971
 30
0.0
 11
-8.742966291496941
 21
72.49999925300061
 31
0.0
  0
LINE
  5
128
330
17
100
AcDbEntity
  8
SSH_EXT
100
AcDbLine
 10
-36.70160679203855
 20
60.70689580472525
 30
0.0
 11
-36.70527968015813
 21
63.76874925299852
 31
0.0
  0
LINE
  5
129
330
17
100
AcDbEntity
  8
SSH_INT
100
AcDbLine
 10
-36.70160679203855
 20
60.70689580472525
 30
0.0
 11
-36.70527968015813
 21
63.76874925299852
 31
0.0
  0
ARC
  5
12A
330
17
100
AcDbEntity
  8
SSH_EXT
100
AcDbCircle
 10
-39.40000108273397
 20
63.59999925300098
 30
0.0
 40
2.699999999999957
100
AcDbArc
 50
3.583321698419889
 51
81.95367362281122
  0
ARC
  5
12B
330
17
100
AcDbEntity
  8
SSH_INT
100
AcDbCircle
 10
-39.40000108273397
 20
63.59999925300098
 30
0.0
 40
2.699999999999957
100
AcDbArc
 50
3.583321698419889
 51
81.95367362281122
  0
ARC
  5
12C
330
17
100
AcDbEntity
  8
SSH_EXT
100
AcDbCircle
 10
-38.99407725278161
 20
66.47144938217843
 30
0.0
 40
0.2000000000129054
100
AcDbArc
 50
169.2192001426706
 51
-98.04632638081763
  0
ARC
  5
12D
330
17
100
AcDbEntity
  8
SSH_INT
100
AcDbCircle
 10
-38.99407725278161
 20
66.47144938217843
 30
0.0
 40
0.2000000000129054
100
AcDbArc
 50
169.2192001426706
 51
-98.04632638081763
  0
LINE
  5
12E
330
17
100
AcDbEntity
  8
SSH_EXT
100
AcDbLine
 10
-39.190547250418604
 20
66.50885980898238
 30
0.0
 11
-35.55765729196629
 21
85.58786913226821
 31
0.0
  0
LINE
  5
12F
330
17
100
AcDbEntity
  8
SSH_INT
100
AcDbLine
 10
-39.190547250418604
 20
66.50885980898238
 30
0.0
 11
-35.55765729196629
 21
85.58786913226821
 31
0.0
  0
ARC
  5
130
330
17
100
AcDbEntity
  8
SSH_EXT
100
AcDbCircle
 10
-34.068838064504234
 20
85.40506511716056
 30
0.0
 40
1.500000000000025
100
AcDbArc
 50
98.0000000000049
 51
173.000000000003
  0
ARC
  5
131
330
17
100
AcDbEntity
  8
SSH_INT
100
AcDbCircle
 10
-34.068838064504234
 20
85.40506511716056
 30
0.0
 40
1.500000000000025
100
AcDbArc
 50
98.0000000000049
 51
173.000000000003
  0
LINE
  5
132
330
17
100
AcDbEntity
  8
SSH_EXT
100
AcDbLine
 10
-34.27759771594447
 20
86.89046722027297
 30
0.0
 11
-32.46520404860622
 21
87.14518253908953
 31
0.0
  0
LINE
  5
133
330
17
100
AcDbEntity
  8
SSH_INT
100
AcDbLine
 10
-34.27759771594447
 20
86.89046722027297
 30
0.0
 11
-32.46520404860622
 21
87.14518253908953
 31
0.0
  0
ARC
  5
134
330
17
100
AcDbEntity
  8
SSH_EXT
100
AcDbCircle
 10
-32.43736942841451
 20
86.94712892534108
 30
0.0
 40
0.2000000000000219
100
AcDbArc
 50
0.0
 51
97.99999999990422
  0
ARC
  5
135
330
17
100
AcDbEntity
  8
SSH_INT
100
AcDbCircle
 10
-32.43736942841451
 20
86.94712892534108
 30
0.0
 40
0.2000000000000219
100
AcDbArc
 50
0.0
 51
97.99999999990422
  0
LINE
  5
136
330
17
100
AcDbEntity
  8
SSH_EXT
100
AcDbLine
 10
-32.23736942841423
 20
86.94712892534108
 30
0.0
 11
-32.23736942841423
 21
60.69999925300089
 31
0.0
  0
LINE
  5
137
330
17
100
AcDbEntity
  8
SSH_INT
100
AcDbLine
 10
-32.23736942841423
 20
86.94712892534108
 30
0.0
 11
-32.23736942841423
 21
60.69999925300089
 31
0.0
  0
ARC
  5
138
330
17
100
AcDbEntity
  8
SSH_EXT
100
AcDbCircle
 10
-32.43736942841451
 20
60.69999925300089
 30
0.0
 40
0.2000000000000241
100
AcDbArc
 50
-90.00000000000001
 51
0.0
  0
ARC
  5
139
330
17
100
AcDbEntity
  8
SSH_INT
100
AcDbCircle
 10
-32.43736942841451
 20
60.69999925300089
 30
0.0
 40
0.2000000000000241
100
AcDbArc
 50
-90.00000000000001
 51
0.0
  0
LINE
  5
13A
330
17
100
AcDbEntity
  8
SSH_EXT
100
AcDbLine
 10
-32.43736942841451
 20
60.49999925300107
 30
0.0
 11
-36.50172573347073
 21
60.49999925300107
 31
0.0
  0
LINE
  5
13B
330
17
100
AcDbEntity
  8
SSH_INT
100
AcDbLine
 10
-32.43736942841451
 20
60.49999925300107
 30
0.0
 11
-36.50172573347073
 21
60.49999925300107
 31
0.0
  0
ARC
  5
13C
330
17
100
AcDbEntity
  8
SSH_EXT
100
AcDbCircle
 10
-36.50172573347073
 20
60.699999253001344
 30
0.0
 40
0.2000000000000371
100
AcDbArc
 50
178.0238917143483
 51
-90.00000000000001
  0
ARC
  5
13D
330
17
100
AcDbEntity
  8
SSH_INT
100
AcDbCircle
 10
-36.50172573347073
 20
60.699999253001344
 30
0.0
 40
0.2000000000000371
100
AcDbArc
 50
178.0238917143483
 51
-90.00000000000001
  0
ARC
  5
13E
330
17
100
AcDbEntity
  8
SSH_EXT
100
AcDbCircle
 10
-47.999999252923764
 20
97.36695438839752
 30
0.0
 40
0.2000000000001592
100
AcDbArc
 50
-179.99999999996754
 51
-90.00000000000001
  0
ARC
  5
13F
330
17
100
AcDbEntity
  8
SSH_INT
100
AcDbCircle
 10
-47.999999252923764
 20
97.36695438839752
 30
0.0
 40
0.2000000000001592
100
AcDbArc
 50
-179.99999999996754
 51
-90.00000000000001
  0
LINE
  5
140
330
17
100
AcDbEntity
  8
SSH_EXT
100
AcDbLine
 10
-48.19999925292404
 20
97.36695438839752
 30
0.0
 11
-48.199999252924506
 21
101.10151043833912
 31
0.0
  0
LINE
  5
141
330
17
100
AcDbEntity
  8
SSH_INT
100
AcDbLine
 10
-48.19999925292404
 20
97.36695438839752
 30
0.0
 11
-48.199999252924506
 21
101.10151043833912
 31
0.0
  0
ARC
  5
142
330
17
100
AcDbEntity
  8
SSH_EXT
100
AcDbCircle
 10
-36.999999252919224
 20
101.10151043834911
 30
0.0
 40
11.20000000000525
100
AcDbArc
 50
130.8594423205477
 51
-179.99999999994944
  0
ARC
  5
143
330
17
100
AcDbEntity
  8
SSH_INT
100
AcDbCircle
 10
-36.999999252919224
 20
101.10151043834911
 30
0.0
 40
11.20000000000525
100
AcDbArc
 50
130.8594423205477
 51
-179.99999999994944
  0
ARC
  5
144
330
17
100
AcDbEntity
  8
SSH_EXT
100
AcDbCircle
 10
-43.999999252925136
 20
109.19409964082476
 30
0.0
 40
0.5000000000000762
100
AcDbArc
 50
2.54e-14
 51
130.8594423204317
  0
ARC
  5
145
330
17
100
AcDbEntity
  8
SSH_INT
100
AcDbCircle
 10
-43.999999252925136
 20
109.19409964082476
 30
0.0
 40
0.5000000000000762
100
AcDbArc
 50
2.54e-14
 51
130.8594423204317
  0
LINE
  5
146
330
17
100
AcDbEntity
  8
SSH_EXT
100
AcDbLine
 10
-43.499999252925136
 20
109.19409964082476
 30
0.0
 11
-43.499999252925136
 21
108.59999925300099
 31
0.0
  0
LINE
  5
147
330
17
100
AcDbEntity
  8
SSH_INT
100
AcDbLine
 10
-43.499999252925136
 20
109.19409964082476
 30
0.0
 11
-43.499999252925136
 21
108.59999925300099
 31
0.0
  0
ARC
  5
148
330
17
100
AcDbEntity
  8
SSH_EXT
100
AcDbCircle
 10
-40.499999252925136
 20
108.59999925300099
 30
0.0
 40
2.999999999999999
100
AcDbArc
 50
180.0
 51
-90.00000000000001
  0
ARC
  5
149
330
17
100
AcDbEntity
  8
SSH_INT
100
AcDbCircle
 10
-40.499999252925136
 20
108.59999925300099
 30
0.0
 40
2.999999999999999
100
AcDbArc
 50
180.0
 51
-90.00000000000001
  0
LINE
  5
14A
330
17
100
AcDbEntity
  8
SSH_EXT
100
AcDbLine
 10
-40.499999252925136
 20
105.59999925300099
 30
0.0
 11
-38.999999252924226
 21
105.59999925300099
 31
0.0
  0
LINE
  5
14B
330
17
100
AcDbEntity
  8
SSH_INT
100
AcDbLine
 10
-40.499999252925136
 20
105.59999925300099
 30
0.0
 11
-38.999999252924226
 21
105.59999925300099
 31
0.0
  0
ARC
  5
14C
330
17
100
AcDbEntity
  8
SSH_EXT
100
AcDbCircle
 10
-38.999999252924226
 20
105.09999925300099
 30
0.0
 40
0.5
100
AcDbArc
 50
0.0
 51
90.0
  0
ARC
  5
14D
330
17
100
AcDbEntity
  8
SSH_INT
100
AcDbCircle
 10
-38.999999252924226
 20
105.09999925300099
 30
0.0
 40
0.5
100
AcDbArc
 50
0.0
 51
90.0
  0
LINE
  5
14E
330
17
100
AcDbEntity
  8
SSH_EXT
100
AcDbLine
 10
-38.499999252924226
 20
105.09999925300099
 30
0.0
 11
-38.499999252924226
 21
99.9266944776582
 31
0.0
  0
LINE
  5
14F
330
17
100
AcDbEntity
  8
SSH_INT
100
AcDbLine
 10
-38.499999252924226
 20
105.09999925300099
 30
0.0
 11
-38.499999252924226
 21
99.9266944776582
 31
0.0
  0
ARC
  5
150
330
17
100
AcDbEntity
  8
SSH_EXT
100
AcDbCircle
 10
-40.99999925292421
 20
99.9266944776582
 30
0.0
 40
2.49999999999983
100
AcDbArc
 50
-20.99999999999357
 51
0.0
  0
ARC
  5
151
330
17
100
AcDbEntity
  8
SSH_INT
100
AcDbCircle
 10
-40.99999925292421
 20
99.9266944776582
 30
0.0
 40
2.49999999999983
100
AcDbArc
 50
-20.99999999999357
 51
0.0
  0
LINE
  5
152
330
17
100
AcDbEntity
  8
SSH_EXT
100
AcDbLine
 10
-38.666048186681564
 20
99.03077460379518
 30
0.0
 11
-39.332241841565065
 21
97.29528079848842
 31
0.0
  0
LINE
  5
153
330
17
100
AcDbEntity
  8
SSH_INT
100
AcDbLine
 10
-38.666048186681564
 20
99.03077460379518
 30
0.0
 11
-39.332241841565065
 21
97.29528079848842
 31
0.0
  0
ARC
  5
154
330
17
100
AcDbEntity
  8
SSH_EXT
100
AcDbCircle
 10
-39.51895792686445
 20
97.36695438839752
 30
0.0
 40
0.1999999999999297
100
AcDbArc
 50
-90.00000000000001
 51
-21.00000000001438
  0
ARC
  5
155
330
17
100
AcDbEntity
  8
SSH_INT
100
AcDbCircle
 10
-39.51895792686445
 20
97.36695438839752
 30
0.0
 40
0.1999999999999297
100
AcDbArc
 50
-90.00000000000001
 51
-21.00000000001438
  0
LINE
  5
156
330
17
100
AcDbEntity
  8
SSH_EXT
100
AcDbLine
 10
-39.51895792686445
 20
97.1669543883977
 30
0.0
 11
-47.999999252923764
 21
97.16695438839723
 31
0.0
  0
LINE
  5
157
330
17
100
AcDbEntity
  8
SSH_INT
100
AcDbLine
 10
-39.51895792686445
 20
97.1669543883977
 30
0.0
 11
-47.999999252923764
 21
97.16695438839723
 31
0.0
  0
ARC
  5
158
330
17
100
AcDbEntity
  8
SSH_EXT
100
AcDbCircle
 10
-40.056367575914
 20
95.96695438839788
 30
0.0
 40
0.1999999999999318
100
AcDbArc
 50
-20.999999999984052
 51
90.0
  0
ARC
  5
159
330
17
100
AcDbEntity
  8
SSH_INT
100
AcDbCircle
 10
-40.056367575914
 20
95.96695438839788
 30
0.0
 40
0.1999999999999318
100
AcDbArc
 50
-20.999999999984052
 51
90.0
  0
LINE
  5
15A
330
17
100
AcDbEntity
  8
SSH_EXT
100
AcDbLine
 10
-39.869651490614615
 20
95.89528079848877
 30
0.0
 11
-40.804931092152856
 21
93.45879413613191
 31
0.0
  0
LINE
  5
15B
330
17
100
AcDbEntity
  8
SSH_INT
100
AcDbLine
 10
-39.869651490614615
 20
95.89528079848877
 30
0.0
 11
-40.804931092152856
 21
93.45879413613191
 31
0.0
  0
ARC
  5
15C
330
17
100
AcDbEntity
  8
SSH_EXT
100
AcDbCircle
 10
-36.137028959673444
 20
91.66695438840769
 30
0.0
 40
4.99999999999312
100
AcDbArc
 50
158.9999999999973
 51
-97.0423615304969
  0
ARC
  5
15D
330
17
100
AcDbEntity
  8
SSH_INT
100
AcDbCircle
 10
-36.137028959673444
 20
91.66695438840769
 30
0.0
 40
4.99999999999312
100
AcDbArc
 50
158.9999999999973
 51
-97.0423615304969
  0
ARC
  5
15E
330
17
100
AcDbEntity
  8
SSH_EXT
100
AcDbCircle
 10
-36.78682563995744
 20
86.406938773011
 30
0.0
 40
0.2999999999999178
100
AcDbArc
 50
-10.648780644353025
 51
82.95763846922858
  0
ARC
  5
15F
330
17
100
AcDbEntity
  8
SSH_INT
100
AcDbCircle
 10
-36.78682563995744
 20
86.406938773011
 30
0.0
 40
0.2999999999999178
100
AcDbArc
 50
-10.648780644353025
 51
82.95763846922858
  0
LINE
  5
160
330
17
100
AcDbEntity
  8
SSH_EXT
100
AcDbLine
 10
-36.491992125987515
 20
86.35150233156673
 30
0.0
 11
-40.231544907827804
 21
66.46304162537217
 31
0.0
  0
LINE
  5
161
330
17
100
AcDbEntity
  8
SSH_INT
100
AcDbLine
 10
-36.491992125987515
 20
86.35150233156673
 30
0.0
 11
-40.231544907827804
 21
66.46304162537217
 31
0.0
  0
ARC
  5
162
330
17
100
AcDbEntity
  8
SSH_EXT
100
AcDbCircle
 10
-40.42810058380792
 20
66.49999925300152
 30
0.0
 40
0.1999999999999504
100
AcDbArc
 50
-90.00000000000001
 51
-10.648780644353126
  0
ARC
  5
163
330
17
100
AcDbEntity
  8
SSH_INT
100
AcDbCircle
 10
-40.42810058380792
 20
66.49999925300152
 30
0.0
 40
0.1999999999999504
100
AcDbArc
 50
-90.00000000000001
 51
-10.648780644353126
  0
LINE
  5
164
330
17
100
AcDbEntity
  8
SSH_EXT
100
AcDbLine
 10
-40.42810058380792
 20
66.29999925300172
 30
0.0
 11
-48.00000043550381
 21
66.29999925300126
 31
0.0
  0
LINE
  5
165
330
17
100
AcDbEntity
  8
SSH_INT
100
AcDbLine
 10
-40.42810058380792
 20
66.29999925300172
 30
0.0
 11
-48.00000043550381
 21
66.29999925300126
 31
0.0
  0
ARC
  5
166
330
17
100
AcDbEntity
  8
SSH_EXT
100
AcDbCircle
 10
-48.00000043550381
 20
66.49999925300108
 30
0.0
 40
0.2000000000000469
100
AcDbArc
 50
179.9999902411911
 51
-90.00000000000001
  0
ARC
  5
167
330
17
100
AcDbEntity
  8
SSH_INT
100
AcDbCircle
 10
-48.00000043550381
 20
66.49999925300108
 30
0.0
 40
0.2000000000000469
100
AcDbArc
 50
179.9999902411911
 51
-90.00000000000001
  0
LINE
  5
168
330
17
100
AcDbEntity
  8
SSH_EXT
100
AcDbLine
 10
-48.200000435503625
 20
66.49999928706575
 30
0.0
 11
-48.19999925292404
 21
95.96695438839788
 31
0.0
  0
LINE
  5
169
330
17
100
AcDbEntity
  8
SSH_INT
100
AcDbLine
 10
-48.200000435503625
 20
66.49999928706575
 30
0.0
 11
-48.19999925292404
 21
95.96695438839788
 31
0.0
  0
ARC
  5
16A
330
17
100
AcDbEntity
  8
SSH_EXT
100
AcDbCircle
 10
-47.999999252923764
 20
95.96695438839788
 30
0.0
 40
0.2000000000002728
100
AcDbArc
 50
90.00000000000003
 51
179.9999999999674
  0
ARC
  5
16B
330
17
100
AcDbEntity
  8
SSH_INT
100
AcDbCircle
 10
-47.999999252923764
 20
95.96695438839788
 30
0.0
 40
0.2000000000002728
100
AcDbArc
 50
90.00000000000003
 51
179.9999999999674
  0
LINE
  5
16C
330
17
100
AcDbEntity
  8
SSH_EXT
100
AcDbLine
 10
-47.999999252923764
 20
96.16695438839814
 30
0.0
 11
-40.056367575914
 21
96.1669543883977
 31
0.0
  0
LINE
  5
16D
330
17
100
AcDbEntity
  8
SSH_INT
100
AcDbLine
 10
-47.999999252923764
 20
96.16695438839814
 30
0.0
 11
-40.056367575914
 21
96.1669543883977
 31
0.0
  0
ARC
  5
16E
330
17
100
AcDbEntity
  8
SSH_EXT
100
AcDbCircle
 10
-6.699999252924498
 20
62.49999925300061
 30
0.0
 40
0.2000000000000288
100
AcDbArc
 50
159.9999999999751
 51
180.0
  0
ARC
  5
16F
330
17
100
AcDbEntity
  8
SSH_INT
100
AcDbCircle
 10
-6.699999252924498
 20
62.49999925300061
 30
0.0
 40
0.2000000000000288
100
AcDbArc
 50
159.9999999999751
 51
180.0
  0
LINE
  5
170
330
17
100
AcDbEntity
  8
SSH_EXT
100
AcDbLine
 10
-6.899999252924317
 20
62.49999925300061
 30
0.0
 11
-6.8999992529238625
 21
60.3999992530007
 31
0.0
  0
LINE
  5
171
330
17
100
AcDbEntity
  8
SSH_INT
100
AcDbLine
 10
-6.899999252924317
 20
62.49999925300061
 30
0.0
 11
-6.8999992529238625
 21
60.3999992530007
 31
0.0
  0
ARC
  5
172
330
17
100
AcDbEntity
  8
SSH_EXT
100
AcDbCircle
 10
-6.699999252924044
 20
60.3999992530007
 30
0.0
 40
0.1999999999998181
100
AcDbArc
 50
180.0
 51
-90.00000000000001
  0
ARC
  5
173
330
17
100
AcDbEntity
  8
SSH_INT
100
AcDbCircle
 10
-6.699999252924044
 20
60.3999992530007
 30
0.0
 40
0.1999999999998181
100
AcDbArc
 50
180.0
 51
-90.00000000000001
  0
LINE
  5
174
330
17
100
AcDbEntity
  8
SSH_EXT
100
AcDbLine
 10
-6.699999252924044
 20
60.19999925300089
 30
0.0
 11
-5.099999252923681
 21
60.19999925300089
 31
0.0
  0
LINE
  5
175
330
17
100
AcDbEntity
  8
SSH_INT
100
AcDbLine
 10
-6.699999252924044
 20
60.19999925300089
 30
0.0
 11
-5.099999252923681
 21
60.19999925300089
 31
0.0
  0
ARC
  5
176
330
17
100
AcDbEntity
  8
SSH_EXT
100
AcDbCircle
 10
-5.099999252923681
 20
59.99999925300061
 30
0.0
 40
0.2000000000000454
100
AcDbArc
 50
0.0
 51
89.99999999999999
  0
ARC
  5
177
330
17
100
AcDbEntity
  8
SSH_INT
100
AcDbCircle
 10
-5.099999252923681
 20
59.99999925300061
 30
0.0
 40
0.2000000000000454
100
AcDbArc
 50
0.0
 51
89.99999999999999
  0
LINE
  5
178
330
17
100
AcDbEntity
  8
SSH_EXT
100
AcDbLine
 10
-4.8999992529238625
 20
59.99999925300061
 30
0.0
 11
-4.8999992529238625
 21
58.19999925300043
 31
0.0
  0
LINE
  5
179
330
17
100
AcDbEntity
  8
SSH_INT
100
AcDbLine
 10
-4.8999992529238625
 20
59.99999925300061
 30
0.0
 11
-4.8999992529238625
 21
58.19999925300043
 31
0.0
  0
ARC
  5
17A
330
17
100
AcDbEntity
  8
SSH_EXT
100
AcDbCircle
 10
-4.699999252924044
 20
58.19999925300043
 30
0.0
 40
0.1999999999998181
100
AcDbArc
 50
180.0
 51
-90.00000000000001
  0
ARC
  5
17B
330
17
100
AcDbEntity
  8
SSH_INT
100
AcDbCircle
 10
-4.699999252924044
 20
58.19999925300043
 30
0.0
 40
0.1999999999998181
100
AcDbArc
 50
180.0
 51
-90.00000000000001
  0
LINE
  5
17C
330
17
100
AcDbEntity
  8
SSH_EXT
100
AcDbLine
 10
-4.699999252924044
 20
57.99999925300061
 30
0.0
 11
3.8000007470759547
 21
57.99999925300061
 31
0.0
  0
LINE
  5
17D
330
17
100
AcDbEntity
  8
SSH_INT
100
AcDbLine
 10
-4.699999252924044
 20
57.99999925300061
 30
0.0
 11
3.8000007470759547
 21
57.99999925300061
 31
0.0
  0
ARC
  5
17E
330
17
100
AcDbEntity
  8
SSH_EXT
100
AcDbCircle
 10
3.8000007470759547
 20
57.79999925300079
 30
0.0
 40
0.1999999999998181
100
AcDbArc
 50
0.0
 51
89.99999999999999
  0
ARC
  5
17F
330
17
100
AcDbEntity
  8
SSH_INT
100
AcDbCircle
 10
3.8000007470759547
 20
57.79999925300079
 30
0.0
 40
0.1999999999998181
100
AcDbArc
 50
0.0
 51
89.99999999999999
  0
LINE
  5
180
330
17
100
AcDbEntity
  8
SSH_EXT
100
AcDbLine
 10
4.000000747075773
 20
57.79999925300079
 30
0.0
 11
4.000000747075773
 21
46.09999925292549
 31
0.0
  0
LINE
  5
181
330
17
100
AcDbEntity
  8
SSH_INT
100
AcDbLine
 10
4.000000747075773
 20
57.79999925300079
 30
0.0
 11
4.000000747075773
 21
46.09999925292549
 31
0.0
  0
LINE
  5
182
330
17
100
AcDbEntity
  8
SSH_EXT
100
AcDbLine
 10
4.000000747075773
 20
46.09999925292549
 30
0.0
 11
5.000000747075319
 21
45.09999925292549
 31
0.0
  0
LINE
  5
183
330
17
100
AcDbEntity
  8
SSH_INT
100
AcDbLine
 10
4.000000747075773
 20
46.09999925292549
 30
0.0
 11
5.000000747075319
 21
45.09999925292549
 31
0.0
  0
LINE
  5
184
330
17
100
AcDbEntity
  8
SSH_EXT
100
AcDbLine
 10
5.000000747075319
 20
45.09999925292549
 30
0.0
 11
5.500000747075773
 21
45.09999925292549
 31
0.0
  0
LINE
  5
185
330
17
100
AcDbEntity
  8
SSH_INT
100
AcDbLine
 10
5.000000747075319
 20
45.09999925292549
 30
0.0
 11
5.500000747075773
 21
45.09999925292549
 31
0.0
  0
LINE
  5
186
330
17
100
AcDbEntity
  8
SSH_EXT
100
AcDbLine
 10
5.500000747075773
 20
45.09999925292549
 30
0.0
 11
5.500000747075773
 21
45.899999252924765
 31
0.0
  0
LINE
  5
187
330
17
100
AcDbEntity
  8
SSH_INT
100
AcDbLine
 10
5.500000747075773
 20
45.09999925292549
 30
0.0
 11
5.500000747075773
 21
45.899999252924765
 31
0.0
  0
ARC
  5
188
330
17
100
AcDbEntity
  8
SSH_EXT
100
AcDbCircle
 10
6.000000373538113
 20
45.899999626462424
 30
0.0
 40
0.4999996264624801
100
AcDbArc
 50
89.99995719570524
 51
-179.99995719570532
  0
ARC
  5
189
330
17
100
AcDbEntity
  8
SSH_INT
100
AcDbCircle
 10
6.000000373538113
 20
45.899999626462424
 30
0.0
 40
0.4999996264624801
100
AcDbArc
 50
89.99995719570524
 51
-179.99995719570532
  0
LINE
  5
18A
330
17
100
AcDbEntity
  8
SSH_EXT
100
AcDbLine
 10
6.000000747075773
 20
46.399999252924765
 30
0.0
 11
8.500000747076683
 21
46.399999252924765
 31
0.0
  0
LINE
  5
18B
330
17
100
AcDbEntity
  8
SSH_INT
100
AcDbLine
 10
6.000000747075773
 20
46.399999252924765
 30
0.0
 11
8.500000747076683
 21
46.399999252924765
 31
0.0
  0
ARC
  5
18C
330
17
100
AcDbEntity
  8
SSH_EXT
100
AcDbCircle
 10
8.500000747076683
 20
45.399999252924765
 30
0.0
 40
0.9999999999999998
100
AcDbArc
 50
0.0
 51
89.99999999999999
  0
ARC
  5
18D
330
17
100
AcDbEntity
  8
SSH_INT
100
AcDbCircle
 10
8.500000747076683
 20
45.399999252924765
 30
0.0
 40
0.9999999999999998
100
AcDbArc
 50
0.0
 51
89.99999999999999
  0
LINE
  5
18E
330
17
100
AcDbEntity
  8
SSH_EXT
100
AcDbLine
 10
9.500000747076683
 20
45.399999252924765
 30
0.0
 11
9.500000747076683
 21
43.90000112061306
 31
0.0
  0
LINE
  5
18F
330
17
100
AcDbEntity
  8
SSH_INT
100
AcDbLine
 10
9.500000747076683
 20
45.399999252924765
 30
0.0
 11
9.500000747076683
 21
43.90000112061306
 31
0.0
  0
LINE
  5
190
330
17
100
AcDbEntity
  8
SSH_EXT
100
AcDbLine
 10
9.500000747076683
 20
43.90000112061306
 30
0.0
 11
9.500000747075772
 21
43.89999925292522
 31
0.0
  0
LINE
  5
191
330
17
100
AcDbEntity
  8
SSH_INT
100
AcDbLine
 10
9.500000747076683
 20
43.90000112061306
 30
0.0
 11
9.500000747075772
 21
43.89999925292522
 31
0.0
  0
LINE
  5
192
330
17
100
AcDbEntity
  8
SSH_EXT
100
AcDbLine
 10
9.500000747075772
 20
43.89999925292522
 30
0.0
 11
9.500000747075772
 21
40.99999925300107
 31
0.0
  0
LINE
  5
193
330
17
100
AcDbEntity
  8
SSH_INT
100
AcDbLine
 10
9.500000747075772
 20
43.89999925292522
 30
0.0
 11
9.500000747075772
 21
40.99999925300107
 31
0.0
  0
ARC
  5
194
330
17
100
AcDbEntity
  8
SSH_EXT
100
AcDbCircle
 10
8.500000747075772
 20
40.99999925300107
 30
0.0
 40
0.9999999999999998
100
AcDbArc
 50
-90.00000000000001
 51
0.0
  0
ARC
  5
195
330
17
100
AcDbEntity
  8
SSH_INT
100
AcDbCircle
 10
8.500000747075772
 20
40.99999925300107
 30
0.0
 40
0.9999999999999998
100
AcDbArc
 50
-90.00000000000001
 51
0.0
  0
LINE
  5
196
330
17
100
AcDbEntity
  8
SSH_EXT
100
AcDbLine
 10
8.500000747075772
 20
39.99999925300107
 30
0.0
 11
5.700000747076046
 21
39.99999925300107
 31
0.0
  0
LINE
  5
197
330
17
100
AcDbEntity
  8
SSH_INT
100
AcDbLine
 10
8.500000747075772
 20
39.99999925300107
 30
0.0
 11
5.700000747076046
 21
39.99999925300107
 31
0.0
  0
ARC
  5
198
330
17
100
AcDbEntity
  8
SSH_EXT
100
AcDbCircle
 10
5.700000747076046
 20
40.19999925300089
 30
0.0
 40
0.2000000000000454
100
AcDbArc
 50
180.0
 51
-90.00000000000001
  0
ARC
  5
199
330
17
100
AcDbEntity
  8
SSH_INT
100
AcDbCircle
 10
5.700000747076046
 20
40.19999925300089
 30
0.0
 40
0.2000000000000454
100
AcDbArc
 50
180.0
 51
-90.00000000000001
  0
LINE
  5
19A
330
17
100
AcDbEntity
  8
SSH_EXT
100
AcDbLine
 10
5.500000747075773
 20
40.19999925300089
 30
0.0
 11
5.500000747075773
 21
41.899999252924765
 31
0.0
  0
LINE
  5
19B
330
17
100
AcDbEntity
  8
SSH_INT
100
AcDbLine
 10
5.500000747075773
 20
40.19999925300089
 30
0.0
 11
5.500000747075773
 21
41.899999252924765
 31
0.0
  0
LINE
  5
19C
330
17
100
AcDbEntity
  8
SSH_EXT
100
AcDbLine
 10
5.500000747075773
 20
41.899999252924765
 30
0.0
 11
5.000000747075319
 21
41.899999252924765
 31
0.0
  0
LINE
  5
19D
330
17
100
AcDbEntity
  8
SSH_INT
100
AcDbLine
 10
5.500000747075773
 20
41.899999252924765
 30
0.0
 11
5.000000747075319
 21
41.899999252924765
 31
0.0
  0
LINE
  5
19E
330
17
100
AcDbEntity
  8
SSH_EXT
100
AcDbLine
 10
5.000000747075319
 20
41.899999252924765
 30
0.0
 11
4.000000747075773
 21
40.899999252924765
 31
0.0
  0
LINE
  5
19F
330
17
100
AcDbEntity
  8
SSH_INT
100
AcDbLine
 10
5.000000747075319
 20
41.899999252924765
 30
0.0
 11
4.000000747075773
 21
40.899999252924765
 31
0.0
  0
LINE
  5
1A0
330
17
100
AcDbEntity
  8
SSH_EXT
100
AcDbLine
 10
4.000000747075773
 20
40.899999252924765
 30
0.0
 11
4.000000747075773
 21
37.99999925292513
 31
0.0
  0
LINE
  5
1A1
330
17
100
AcDbEntity
  8
SSH_INT
100
AcDbLine
 10
4.000000747075773
 20
40.899999252924765
 30
0.0
 11
4.000000747075773
 21
37.99999925292513
 31
0.0
  0
LINE
  5
1A2
330
17
100
AcDbEntity
  8
SSH_EXT
100
AcDbLine
 10
4.000000747075773
 20
37.99999925292513
 30
0.0
 11
16.500000747092145
 21
37.999999253004255
 31
0.0
  0
LINE
  5
1A3
330
17
100
AcDbEntity
  8
SSH_INT
100
AcDbLine
 10
4.000000747075773
 20
37.99999925292513
 30
0.0
 11
16.500000747092145
 21
37.999999253004255
 31
0.0
  0
ARC
  5
1A4
330
17
100
AcDbEntity
  8
SSH_EXT
100
AcDbCircle
 10
16.500000747076225
 20
40.499999253004255
 30
0.0
 40
2.5
100
AcDbArc
 50
-89.99999999963529
 51
0.0
  0
ARC
  5
1A5
330
17
100
AcDbEntity
  8
SSH_INT
100
AcDbCircle
 10
16.500000747076225
 20
40.499999253004255
 30
0.0
 40
2.5
100
AcDbArc
 50
-89.99999999963529
 51
0.0
  0
LINE
  5
1A6
330
17
100
AcDbEntity
  8
SSH_EXT
100
AcDbLine
 10
19.000000747076225
 20
40.499999253004255
 30
0.0
 11
19.000000747075774
 21
94.99999925300061
 31
0.0
  0
LINE
  5
1A7
330
17
100
AcDbEntity
  8
SSH_INT
100
AcDbLine
 10
19.000000747076225
 20
40.499999253004255
 30
0.0
 11
19.000000747075774
 21
94.99999925300061
 31
0.0
  0
ARC
  5
1A8
330
17
100
AcDbEntity
  8
SSH_EXT
100
AcDbCircle
 10
18.000001494151096
 20
95.00000000007547
 30
0.0
 40
0.9999992529253008
100
AcDbArc
 50
-4.280426867084724e-05
 51
90.00004280429475
  0
ARC
  5
1A9
330
17
100
AcDbEntity
  8
SSH_INT
100
AcDbCircle
 10
18.000001494151096
 20
95.00000000007547
 30
0.0
 40
0.9999992529253008
100
AcDbArc
 50
-4.280426867084724e-05
 51
90.00004280429475
  0
LINE
  5
1AA
330
17
100
AcDbEntity
  8
SSH_EXT
100
AcDbLine
 10
18.000000747075774
 20
95.99999925300062
 30
0.0
 11
14.441832467961374
 21
95.99999925300062
 31
0.0
  0
LINE
  5
1AB
330
17
100
AcDbEntity
  8
SSH_INT
100
AcDbLine
 10
18.000000747075774
 20
95.99999925300062
 30
0.0
 11
14.441832467961374
 21
95.99999925300062
 31
0.0
  0
ARC
  5
1AC
330
17
100
AcDbEntity
  8
SSH_EXT
100
AcDbCircle
 10
14.441832467961374
 20
95.55816753211457
 30
0.0
 40
0.4418317208859916
100
AcDbArc
 50
90.00000000000003
 51
-164.99999246769153
  0
ARC
  5
1AD
330
17
100
AcDbEntity
  8
SSH_INT
100
AcDbCircle
 10
14.441832467961374
 20
95.55816753211457
 30
0.0
 40
0.4418317208859916
100
AcDbArc
 50
90.00000000000003
 51
-164.99999246769153
  0
LINE
  5
1AE
330
17
100
AcDbEntity
  8
SSH_EXT
100
AcDbLine
 10
14.015055812917575
 20
95.44381301191332
 30
0.0
 11
14.356215159382824
 21
94.17058966695686
 31
0.0
  0
LINE
  5
1AF
330
17
100
AcDbEntity
  8
SSH_INT
100
AcDbLine
 10
14.015055812917575
 20
95.44381301191332
 30
0.0
 11
14.356215159382824
 21
94.17058966695686
 31
0.0
  0
ARC
  5
1B0
330
17
100
AcDbEntity
  8
SSH_EXT
100
AcDbCircle
 10
14.839178055514365
 20
94.29999925300079
 30
0.0
 40
0.5000000000000246
100
AcDbArc
 50
-164.99999246760882
 51
-90.00000000000001
  0
ARC
  5
1B1
330
17
100
AcDbEntity
  8
SSH_INT
100
AcDbCircle
 10
14.839178055514365
 20
94.29999925300079
 30
0.0
 40
0.5000000000000246
100
AcDbArc
 50
-164.99999246760882
 51
-90.00000000000001
  0
LINE
  5
1B2
330
17
100
AcDbEntity
  8
SSH_EXT
100
AcDbLine
 10
14.839178055514365
 20
93.7999992530008
 30
0.0
 11
15.908663476810485
 21
93.7999992530008
 31
0.0
  0
LINE
  5
1B3
330
17
100
AcDbEntity
  8
SSH_INT
100
AcDbLine
 10
14.839178055514365
 20
93.7999992530008
 30
0.0
 11
15.908663476810485
 21
93.7999992530008
 31
0.0
  0
ARC
  5
1B4
330
17
100
AcDbEntity
  8
SSH_EXT
100
AcDbCircle
 10
15.908663476810945
 20
92.79999925300079
 30
0.0
 40
0.9999999999999413
100
AcDbArc
 50
-8.972734591941263
 51
90.00000000002605
  0
ARC
  5
1B5
330
17
100
AcDbEntity
  8
SSH_INT
100
AcDbCircle
 10
15.908663476810945
 20
92.79999925300079
 30
0.0
 40
0.9999999999999413
100
AcDbArc
 50
-8.972734591941263
 51
90.00000000002605
  0
LINE
  5
1B6
330
17
100
AcDbEntity
  8
SSH_EXT
100
AcDbLine
 10
16.896426148218325
 20
92.64403481803444
 30
0.0
 11
16.587585880466115
 21
90.6880703830693
 31
0.0
  0
LINE
  5
1B7
330
17
100
AcDbEntity
  8
SSH_INT
100
AcDbLine
 10
16.896426148218325
 20
92.64403481803444
 30
0.0
 11
16.587585880466115
 21
90.6880703830693
 31
0.0
  0
ARC
  5
1B8
330
17
100
AcDbEntity
  8
SSH_EXT
100
AcDbCircle
 10
14.612060537651354
 20
90.99999925300152
 30
0.0
 40
2.000000000000027
100
AcDbArc
 50
-90.00000000000001
 51
-8.972734591928388
  0
ARC
  5
1B9
330
17
100
AcDbEntity
  8
SSH_INT
100
AcDbCircle
 10
14.612060537651354
 20
90.99999925300152
 30
0.0
 40
2.000000000000027
100
AcDbArc
 50
-90.00000000000001
 51
-8.972734591928388
  0
LINE
  5
1BA
330
17
100
AcDbEntity
  8
SSH_EXT
100
AcDbLine
 10
14.612060537651354
 20
88.99999925300152
 30
0.0
 11
9.700000747075592
 21
88.99999925300061
 31
0.0
  0
LINE
  5
1BB
330
17
100
AcDbEntity
  8
SSH_INT
100
AcDbLine
 10
14.612060537651354
 20
88.99999925300152
 30
0.0
 11
9.700000747075592
 21
88.99999925300061
 31
0.0
  0
ARC
  5
1BC
330
17
100
AcDbEntity
  8
SSH_EXT
100
AcDbCircle
 10
9.700000747075592
 20
89.99999925300061
 30
0.0
 40
0.9999999999999998
100
AcDbArc
 50
180.0
 51
-90.00000000000001
  0
ARC
  5
1BD
330
17
100
AcDbEntity
  8
SSH_INT
100
AcDbCircle
 10
9.700000747075592
 20
89.99999925300061
 30
0.0
 40
0.9999999999999998
100
AcDbArc
 50
180.0
 51
-90.00000000000001
  0
LINE
  5
1BE
330
17
100
AcDbEntity
  8
SSH_EXT
100
AcDbLine
 10
8.700000747075592
 20
89.99999925300061
 30
0.0
 11
8.700000747075592
 21
91.33566502771828
 31
0.0
  0
LINE
  5
1BF
330
17
100
AcDbEntity
  8
SSH_INT
100
AcDbLine
 10
8.700000747075592
 20
89.99999925300061
 30
0.0
 11
8.700000747075592
 21
91.33566502771828
 31
0.0
  0
ARC
  5
1C0
330
17
100
AcDbEntity
  8
SSH_EXT
100
AcDbCircle
 10
9.200000747076047
 20
91.33566502771872
 30
0.0
 40
0.500000000000063
100
AcDbArc
 50
157.0000000000639
 51
-179.9999999999479
  0
ARC
  5
1C1
330
17
100
AcDbEntity
  8
SSH_INT
100
AcDbCircle
 10
9.200000747076047
 20
91.33566502771872
 30
0.0
 40
0.500000000000063
100
AcDbArc
 50
157.0000000000639
 51
-179.9999999999479
  0
LINE
  5
1C2
330
17
100
AcDbEntity
  8
SSH_EXT
100
AcDbLine
 10
8.739748320349463
 20
91.53103059196292
 30
0.0
 11
10.000000747075775
 21
94.49999925300061
 31
0.0
  0
LINE
  5
1C3
330
17
100
AcDbEntity
  8
SSH_INT
100
AcDbLine
 10
8.739748320349463
 20
91.53103059196292
 30
0.0
 11
10.000000747075775
 21
94.49999925300061
 31
0.0
  0
LINE
  5
1C4
330
17
100
AcDbEntity
  8
SSH_EXT
100
AcDbLine
 10
10.000000747075775
 20
94.49999925300061
 30
0.0
 11
10.000000747075775
 21
95.49999925300062
 31
0.0
  0
LINE
  5
1C5
330
17
100
AcDbEntity
  8
SSH_INT
100
AcDbLine
 10
10.000000747075775
 20
94.49999925300061
 30
0.0
 11
10.000000747075775
 21
95.49999925300062
 31
0.0
  0
ARC
  5
1C6
330
17
100
AcDbEntity
  8
SSH_EXT
100
AcDbCircle
 10
9.500000747075772
 20
95.49999925300062
 30
0.0
 40
0.5
100
AcDbArc
 50
0.0
 51
90.0
  0
ARC
  5
1C7
330
17
100
AcDbEntity
  8
SSH_INT
100
AcDbCircle
 10
9.500000747075772
 20
95.49999925300062
 30
0.0
 40
0.5
100
AcDbArc
 50
0.0
 51
90.0
  0
LINE
  5
1C8
330
17
100
AcDbEntity
  8
SSH_EXT
100
AcDbLine
 10
9.500000747075772
 20
95.99999925300062
 30
0.0
 11
7.035276927485483
 21
95.99999925300017
 31
0.0
  0
LINE
  5
1C9
330
17
100
AcDbEntity
  8
SSH_INT
100
AcDbLine
 10
9.500000747075772
 20
95.99999925300062
 30
0.0
 11
7.035276927485483
 21
95.99999925300017
 31
0.0
  0
ARC
  5
1CA
330
17
100
AcDbEntity
  8
SSH_EXT
100
AcDbCircle
 10
7.035276927485483
 20
94.49999925300017
 30
0.0
 40
1.500000000000001
100
AcDbArc
 50
90.00000000000003
 51
165.0000000000055
  0
ARC
  5
1CB
330
17
100
AcDbEntity
  8
SSH_INT
100
AcDbCircle
 10
7.035276927485483
 20
94.49999925300017
 30
0.0
 40
1.500000000000001
100
AcDbArc
 50
90.00000000000003
 51
165.0000000000055
  0
LINE
  5
1CC
330
17
100
AcDbEntity
  8
SSH_EXT
100
AcDbLine
 10
5.586388188051842
 20
94.88822782065381
 30
0.0
 11
5.517037833931226
 21
94.62940877555184
 31
0.0
  0
LINE
  5
1CD
330
17
100
AcDbEntity
  8
SSH_INT
100
AcDbLine
 10
5.586388188051842
 20
94.88822782065381
 30
0.0
 11
5.517037833931226
 21
94.62940877555184
 31
0.0
  0
ARC
  5
1CE
330
17
100
AcDbEntity
  8
SSH_EXT
100
AcDbCircle
 10
6.000000747075773
 20
94.49999925300061
 30
0.0
 40
0.5000000000000004
100
AcDbArc
 50
165.0000000000055
 51
-90.00000000000001
  0
ARC
  5
1CF
330
17
100
AcDbEntity
  8
SSH_INT
100
AcDbCircle
 10
6.000000747075773
 20
94.49999925300061
 30
0.0
 40
0.5000000000000004
100
AcDbArc
 50
165.0000000000055
 51
-90.00000000000001
  0
LINE
  5
1D0
330
17
100
AcDbEntity
  8
SSH_EXT
100
AcDbLine
 10
6.000000747075773
 20
93.99999925300061
 30
0.0
 11
6.769695356734246
 21
93.99999925300061
 31
0.0
  0
LINE
  5
1D1
330
17
100
AcDbEntity
  8
SSH_INT
100
AcDbLine
 10
6.000000747075773
 20
93.99999925300061
 30
0.0
 11
6.769695356734246
 21
93.99999925300061
 31
0.0
  0
ARC
  5
1D2
330
17
100
AcDbEntity
  8
SSH_EXT
100
AcDbCircle
 10
6.769695356734246
 20
93.7999992530008
 30
0.0
 40
0.1999999999999315
100
AcDbArc
 50
-22.99999999998026
 51
90.0
  0
ARC
  5
1D3
330
17
100
AcDbEntity
  8
SSH_INT
100
AcDbCircle
 10
6.769695356734246
 20
93.7999992530008
 30
0.0
 40
0.1999999999999315
100
AcDbArc
 50
-22.99999999998026
 51
90.0
  0
LINE
  5
1D4
330
17
100
AcDbEntity
  8
SSH_EXT
100
AcDbLine
 10
6.953796327424697
 20
93.72185302730304
 30
0.0
 11
5.850161805280095
 21
91.12185302730268
 31
0.0
  0
LINE
  5
1D5
330
17
100
AcDbEntity
  8
SSH_INT
100
AcDbLine
 10
6.953796327424697
 20
93.72185302730304
 30
0.0
 11
5.850161805280095
 21
91.12185302730268
 31
0.0
  0
ARC
  5
1D6
330
17
100
AcDbEntity
  8
SSH_EXT
100
AcDbCircle
 10
5.666060834589643
 20
91.19999925300044
 30
0.0
 40
0.200000000000093
100
AcDbArc
 50
-90.00000000000001
 51
-22.99999999998026
  0
ARC
  5
1D7
330
17
100
AcDbEntity
  8
SSH_INT
100
AcDbCircle
 10
5.666060834589643
 20
91.19999925300044
 30
0.0
 40
0.200000000000093
100
AcDbArc
 50
-90.00000000000001
 51
-22.99999999998026
  0
LINE
  5
1D8
330
17
100
AcDbEntity
  8
SSH_EXT
100
AcDbLine
 10
5.666060834589643
 20
90.99999925300015
 30
0.0
 11
-15.499999251325786
 21
90.99999925300062
 31
0.0
  0
LINE
  5
1D9
330
17
100
AcDbEntity
  8
SSH_INT
100
AcDbLine
 10
5.666060834589643
 20
90.99999925300015
 30
0.0
 11
-15.499999251325786
 21
90.99999925300062
 31
0.0
  0
LINE
  5
1DA
330
17
100
AcDbEntity
  8
SSH_EXT
100
AcDbLine
 10
-15.499999251325786
 20
90.99999925300062
 30
0.0
 11
-15.646445865762415
 21
90.85355264363669
 31
0.0
  0
LINE
  5
1DB
330
17
100
AcDbEntity
  8
SSH_INT
100
AcDbLine
 10
-15.499999251325786
 20
90.99999925300062
 30
0.0
 11
-15.646445865762415
 21
90.85355264363669
 31
0.0
  0
ARC
  5
1DC
330
17
100
AcDbEntity
  8
SSH_EXT
100
AcDbCircle
 10
-15.999999256398496
 20
91.20710603418729
 30
0.0
 40
0.5000000000000844
100
AcDbArc
 50
-134.9999999930727
 51
-44.99999999307271
  0
ARC
  5
1DD
330
17
100
AcDbEntity
  8
SSH_INT
100
AcDbCircle
 10
-15.999999256398496
 20
91.20710603418729
 30
0.0
 40
0.5000000000000844
100
AcDbArc
 50
-134.9999999930727
 51
-44.99999999307271
  0
LINE
  5
1DE
330
17
100
AcDbEntity
  8
SSH_EXT
100
AcDbLine
 10
-16.353552646949087
 20
90.85355264355121
 30
0.0
 11
-16.499999251326244
 21
90.99999925300062
 31
0.0
  0
LINE
  5
1DF
330
17
100
AcDbEntity
  8
SSH_INT
100
AcDbLine
 10
-16.353552646949087
 20
90.85355264355121
 30
0.0
 11
-16.499999251326244
 21
90.99999925300062
 31
0.0
  0
LINE
  5
1E0
330
17
100
AcDbEntity
  8
SSH_EXT
100
AcDbLine
 10
-16.499999251326244
 20
90.99999925300062
 30
0.0
 11
-22.919420000428094
 21
90.99999925300062
 31
0.0
  0
LINE
  5
1E1
330
17
100
AcDbEntity
  8
SSH_INT
100
AcDbLine
 10
-16.499999251326244
 20
90.99999925300062
 30
0.0
 11
-22.919420000428094
 21
90.99999925300062
 31
0.0
  0
LINE
  5
1E2
330
17
100
AcDbEntity
  8
SSH_EXT
100
AcDbLine
 10
-22.919420000428094
 20
90.99999925300062
 30
0.0
 11
-35.789096207253806
 21
89.19128421654432
 31
0.0
  0
LINE
  5
1E3
330
17
100
AcDbEntity
  8
SSH_INT
100
AcDbLine
 10
-22.919420000428094
 20
90.99999925300062
 30
0.0
 11
-35.789096207253806
 21
89.19128421654432
 31
0.0
  0
ARC
  5
1E4
330
17
100
AcDbEntity
  8
SSH_EXT
100
AcDbCircle
 10
-36.1370289596539
 20
91.66695438839814
 30
0.0
 40
2.499999999999895
100
AcDbArc
 50
159.0000000000155
 51
-82.00000000000148
  0
ARC
  5
1E5
330
17
100
AcDbEntity
  8
SSH_INT
100
AcDbCircle
 10
-36.1370289596539
 20
91.66695438839814
 30
0.0
 40
2.499999999999895
100
AcDbArc
 50
159.0000000000155
 51
-82.00000000000148
  0
LINE
  5
1E6
330
17
100
AcDbEntity
  8
SSH_EXT
100
AcDbLine
 10
-38.470980025897006
 20
92.56287426226069
 30
0.0
 11
-36.33209712043845
 21
98.1348547299317
 31
0.0
  0
LINE
  5
1E7
330
17
100
AcDbEntity
  8
SSH_INT
100
AcDbLine
 10
-38.470980025897006
 20
92.56287426226069
 30
0.0
 11
-36.33209712043845
 21
98.1348547299317
 31
0.0
  0
ARC
  5
1E8
330
17
100
AcDbEntity
  8
SSH_EXT
100
AcDbCircle
 10
-40.999999252923764
 20
99.92669447765864
 30
0.0
 40
4.999999999999757
100
AcDbArc
 50
-21.000000000007667
 51
-5.1538097838421125e-12
  0
ARC
  5
1E9
330
17
100
AcDbEntity
  8
SSH_INT
100
AcDbCircle
 10
-40.999999252923764
 20
99.92669447765864
 30
0.0
 40
4.999999999999757
100
AcDbArc
 50
-21.000000000007667
 51
-5.1538097838421125e-12
  0
LINE
  5
1EA
330
17
100
AcDbEntity
  8
SSH_EXT
100
AcDbLine
 10
-35.999999252924226
 20
99.9266944776582
 30
0.0
 11
-35.999999252924226
 21
107.89999925300071
 31
0.0
  0
LINE
  5
1EB
330
17
100
AcDbEntity
  8
SSH_INT
100
AcDbLine
 10
-35.999999252924226
 20
99.9266944776582
 30
0.0
 11
-35.999999252924226
 21
107.89999925300071
 31
0.0
  0
LINE
  5
1EC
330
17
100
AcDbEntity
  8
SSH_EXT
100
AcDbLine
 10
-35.999999252924226
 20
107.89999925300071
 30
0.0
 11
-36.999999252924226
 21
108.8999992530007
 31
0.0
  0
LINE
  5
1ED
330
17
100
AcDbEntity
  8
SSH_INT
100
AcDbLine
 10
-35.999999252924226
 20
107.89999925300071
 30
0.0
 11
-36.999999252924226
 21
108.8999992530007
 31
0.0
  0
LINE
  5
1EE
330
17
100
AcDbEntity
  8
SSH_EXT
100
AcDbLine
 10
-36.999999252924226
 20
108.8999992530007
 30
0.0
 11
-37.499999252924226
 21
108.89999925300117
 31
0.0
  0
LINE
  5
1EF
330
17
100
AcDbEntity
  8
SSH_INT
100
AcDbLine
 10
-36.999999252924226
 20
108.8999992530007
 30
0.0
 11
-37.499999252924226
 21
108.89999925300117
 31
0.0
  0
LINE
  5
1F0
330
17
100
AcDbEntity
  8
SSH_EXT
100
AcDbLine
 10
-37.499999252924226
 20
108.89999925300117
 30
0.0
 11
-37.499999252924226
 21
108.09999925300099
 31
0.0
  0
LINE
  5
1F1
330
17
100
AcDbEntity
  8
SSH_INT
100
AcDbLine
 10
-37.499999252924226
 20
108.89999925300117
 30
0.0
 11
-37.499999252924226
 21
108.09999925300099
 31
0.0
  0
ARC
  5
1F2
330
17
100
AcDbEntity
  8
SSH_EXT
100
AcDbCircle
 10
-37.99999887938657
 20
108.09999887946333
 30
0.0
 40
0.4999996264624801
100
AcDbArc
 50
-90.00004280429472
 51
4.280429474870001e-05
  0
ARC
  5
1F3
330
17
100
AcDbEntity
  8
SSH_INT
100
AcDbCircle
 10
-37.99999887938657
 20
108.09999887946333
 30
0.0
 40
0.4999996264624801
100
AcDbArc
 50
-90.00004280429472
 51
4.280429474870001e-05
  0
LINE
  5
1F4
330
17
100
AcDbEntity
  8
SSH_EXT
100
AcDbLine
 10
-37.999999252924226
 20
107.59999925300099
 30
0.0
 11
-40.499999252925136
 21
107.59999925300099
 31
0.0
  0
LINE
  5
1F5
330
17
100
AcDbEntity
  8
SSH_INT
100
AcDbLine
 10
-37.999999252924226
 20
107.59999925300099
 30
0.0
 11
-40.499999252925136
 21
107.59999925300099
 31
0.0
  0
ARC
  5
1F6
330
17
100
AcDbEntity
  8
SSH_EXT
100
AcDbCircle
 10
-40.499999252925136
 20
108.59999925300099
 30
0.0
 40
0.9999999999999998
100
AcDbArc
 50
180.0
 51
-90.00000000000001
  0
ARC
  5
1F7
330
17
100
AcDbEntity
  8
SSH_INT
100
AcDbCircle
 10
-40.499999252925136
 20
108.59999925300099
 30
0.0
 40
0.9999999999999998
100
AcDbArc
 50
180.0
 51
-90.00000000000001
  0
LINE
  5
1F8
330
17
100
AcDbEntity
  8
SSH_EXT
100
AcDbLine
 10
-41.499999252925136
 20
108.59999925300099
 30
0.0
 11
-41.499999252925136
 21
110.09999738531269
 31
0.0
  0
LINE
  5
1F9
330
17
100
AcDbEntity
  8
SSH_INT
100
AcDbLine
 10
-41.499999252925136
 20
108.59999925300099
 30
0.0
 11
-41.499999252925136
 21
110.09999738531269
 31
0.0
  0
LINE
  5
1FA
330
17
100
AcDbEntity
  8
SSH_EXT
100
AcDbLine
 10
-41.499999252925136
 20
110.09999738531269
 30
0.0
 11
-41.499999252924226
 21
110.09999925300099
 31
0.0
  0
LINE
  5
1FB
330
17
100
AcDbEntity
  8
SSH_INT
100
AcDbLine
 10
-41.499999252925136
 20
110.09999738531269
 30
0.0
 11
-41.499999252924226
 21
110.09999925300099
 31
0.0
  0
LINE
  5
1FC
330
17
100
AcDbEntity
  8
SSH_EXT
100
AcDbLine
 10
-41.499999252924226
 20
110.09999925300099
 30
0.0
 11
-41.499999252925136
 21
110.43943834070797
 31
0.0
  0
LINE
  5
1FD
330
17
100
AcDbEntity
  8
SSH_INT
100
AcDbLine
 10
-41.499999252924226
 20
110.09999925300099
 30
0.0
 11
-41.499999252925136
 21
110.43943834070797
 31
0.0
  0
ARC
  5
1FE
330
17
100
AcDbEntity
  8
SSH_EXT
100
AcDbCircle
 10
-39.999999252925136
 20
110.43943834070797
 30
0.0
 40
1.499999999999993
100
AcDbArc
 50
115.68774639343239
 51
180.0
  0
ARC
  5
1FF
330
17
100
AcDbEntity
  8
SSH_INT
100
AcDbCircle
 10
-39.999999252925136
 20
110.43943834070797
 30
0.0
 40
1.499999999999993
100
AcDbArc
 50
115.68774639343239
 51
180.0
  0
LINE
  5
200
330
17
100
AcDbEntity
  8
SSH_EXT
100
AcDbLine
 10
-40.65019880062255
 20
111.79119295903683
 30
0.0
 11
-37.78669252595092
 21
113.16855128973839
 31
0.0
  0
LINE
  5
201
330
17
100
AcDbEntity
  8
SSH_INT
100
AcDbLine
 10
-40.65019880062255
 20
111.79119295903683
 30
0.0
 11
-37.78669252595092
 21
113.16855128973839
 31
0.0
  0
ARC
  5
202
330
17
100
AcDbEntity
  8
SSH_EXT
100
AcDbCircle
 10
-37.69999925292449
 20
112.98831734062787
 30
0.0
 40
0.2000000000000279
100
AcDbArc
 50
0.0
 51
115.68774639345581
  0
ARC
  5
203
330
17
100
AcDbEntity
  8
SSH_INT
100
AcDbCircle
 10
-37.69999925292449
 20
112.98831734062787
 30
0.0
 40
0.2000000000000279
100
AcDbArc
 50
0.0
 51
115.68774639345581
  0
LINE
  5
204
330
17
100
AcDbEntity
  8
SSH_EXT
100
AcDbLine
 10
-37.499999252924226
 20
112.98831734062787
 30
0.0
 11
-37.499999252924226
 21
112.09999925300096
 31
0.0
  0
LINE
  5
205
330
17
100
AcDbEntity
  8
SSH_INT
100
AcDbLine
 10
-37.499999252924226
 20
112.98831734062787
 30
0.0
 11
-37.499999252924226
 21
112.09999925300096
 31
0.0
  0
LINE
  5
206
330
17
100
AcDbEntity
  8
SSH_EXT
100
AcDbLine
 10
-37.499999252924226
 20
112.09999925300096
 30
0.0
 11
-36.999999252924226
 21
112.09999925300096
 31
0.0
  0
LINE
  5
207
330
17
100
AcDbEntity
  8
SSH_INT
100
AcDbLine
 10
-37.499999252924226
 20
112.09999925300096
 30
0.0
 11
-36.999999252924226
 21
112.09999925300096
 31
0.0
  0
LINE
  5
208
330
17
100
AcDbEntity
  8
SSH_EXT
100
AcDbLine
 10
-36.999999252924226
 20
112.09999925300096
 30
0.0
 11
-35.999999252924226
 21
113.09999925300144
 31
0.0
  0
LINE
  5
209
330
17
100
AcDbEntity
  8
SSH_INT
100
AcDbLine
 10
-36.999999252924226
 20
112.09999925300096
 30
0.0
 11
-35.999999252924226
 21
113.09999925300144
 31
0.0
  0
LINE
  5
20A
330
17
100
AcDbEntity
  8
SSH_EXT
100
AcDbLine
 10
-35.999999252924226
 20
113.09999925300144
 30
0.0
 11
-35.999999252924226
 21
115.99999925300062
 31
0.0
  0
LINE
  5
20B
330
17
100
AcDbEntity
  8
SSH_INT
100
AcDbLine
 10
-35.999999252924226
 20
113.09999925300144
 30
0.0
 11
-35.999999252924226
 21
115.99999925300062
 31
0.0
  0
LINE
  5
20C
330
17
100
AcDbEntity
  8
SSH_EXT
100
AcDbLine
 10
-35.999999252924226
 20
115.99999925300062
 30
0.0
 11
-36.999999252924226
 21
115.99999925300062
 31
0.0
  0
LINE
  5
20D
330
17
100
AcDbEntity
  8
SSH_INT
100
AcDbLine
 10
-35.999999252924226
 20
115.99999925300062
 30
0.0
 11
-36.999999252924226
 21
115.99999925300062
 31
0.0
  0
LINE
  5
20E
330
17
100
AcDbEntity
  8
SSH_EXT
100
AcDbLine
 10
-36.999999252924226
 20
115.99999925300062
 30
0.0
 11
-41.78828125948485
 21
114.2572071293398
 31
0.0
  0
LINE
  5
20F
330
17
100
AcDbEntity
  8
SSH_INT
100
AcDbLine
 10
-36.999999252924226
 20
115.99999925300062
 30
0.0
 11
-41.78828125948485
 21
114.2572071293398
 31
0.0
  0
ARC
  5
210
330
17
100
AcDbEntity
  8
SSH_EXT
100
AcDbCircle
 10
-36.999999252924226
 20
101.1015104383373
 30
0.0
 40
14.00000000000001
100
AcDbArc
 50
110.0000000000052
 51
180.0
  0
ARC
  5
211
330
17
100
AcDbEntity
  8
SSH_INT
100
AcDbCircle
 10
-36.999999252924226
 20
101.1015104383373
 30
0.0
 40
14.00000000000001
100
AcDbArc
 50
110.0000000000052
 51
180.0
  0
LINE
  5
212
330
17
100
AcDbEntity
  8
SSH_EXT
100
AcDbLine
 10
-50.999999252924226
 20
101.1015104383373
 30
0.0
 11
-50.999999252923764
 21
59.49999925300198
 31
0.0
  0
LINE
  5
213
330
17
100
AcDbEntity
  8
SSH_INT
100
AcDbLine
 10
-50.999999252924226
 20
101.1015104383373
 30
0.0
 11
-50.999999252923764
 21
59.49999925300198
 31
0.0
  0
LINE
  5
214
330
17
100
AcDbEntity
  8
SSH_EXT
100
AcDbLine
 10
-50.999999252923764
 20
59.49999925300198
 30
0.0
 11
-46.441830973809374
 21
59.49999925300152
 31
0.0
  0
LINE
  5
215
330
17
100
AcDbEntity
  8
SSH_INT
100
AcDbLine
 10
-50.999999252923764
 20
59.49999925300198
 30
0.0
 11
-46.441830973809374
 21
59.49999925300152
 31
0.0
  0
ARC
  5
216
330
17
100
AcDbEntity
  8
SSH_EXT
100
AcDbCircle
 10
-46.441830973809374
 20
59.94183097388758
 30
0.0
 40
0.4418317208861015
100
AcDbArc
 50
-90.00000000000001
 51
15.000007532293294
  0
ARC
  5
217
330
17
100
AcDbEntity
  8
SSH_INT
100
AcDbCircle
 10
-46.441830973809374
 20
59.94183097388758
 30
0.0
 40
0.4418317208861015
100
AcDbArc
 50
-90.00000000000001
 51
15.000007532293294
  0
LINE
  5
218
330
17
100
AcDbEntity
  8
SSH_EXT
100
AcDbLine
 10
-46.015054318765124
 20
60.05618549408881
 30
0.0
 11
-46.35621366523082
 21
61.32940883904574
 31
0.0
  0
LINE
  5
219
330
17
100
AcDbEntity
  8
SSH_INT
100
AcDbLine
 10
-46.015054318765124
 20
60.05618549408881
 30
0.0
 11
-46.35621366523082
 21
61.32940883904574
 31
0.0
  0
ARC
  5
21A
330
17
100
AcDbEntity
  8
SSH_EXT
100
AcDbCircle
 10
-46.839176561362365
 20
61.19999925300179
 30
0.0
 40
0.5000000000000249
100
AcDbArc
 50
15.00000753239127
 51
90.00000000005213
  0
ARC
  5
21B
330
17
100
AcDbEntity
  8
SSH_INT
100
AcDbCircle
 10
-46.839176561362365
 20
61.19999925300179
 30
0.0
 40
0.5000000000000249
100
AcDbArc
 50
15.00000753239127
 51
90.00000000005213
  0
LINE
  5
21C
330
17
100
AcDbEntity
  8
SSH_EXT
100
AcDbLine
 10
-46.83917656136281
 20
61.69999925300179
 30
0.0
 11
-48.00000108273389
 21
61.69999925300179
 31
0.0
  0
LINE
  5
21D
330
17
100
AcDbEntity
  8
SSH_INT
100
AcDbLine
 10
-46.83917656136281
 20
61.69999925300179
 30
0.0
 11
-48.00000108273389
 21
61.69999925300179
 31
0.0
  0
ARC
  5
21E
330
17
100
AcDbEntity
  8
SSH_EXT
100
AcDbCircle
 10
-48.00000108273389
 20
61.89999925300161
 30
0.0
 40
0.2000000000000454
100
AcDbArc
 50
180.0
 51
-90.00000000000001
  0
ARC
  5
21F
330
17
100
AcDbEntity
  8
SSH_INT
100
AcDbCircle
 10
-48.00000108273389
 20
61.89999925300161
 30
0.0
 40
0.2000000000000454
100
AcDbArc
 50
180.0
 51
-90.00000000000001
  0
LINE
  5
220
330
17
100
AcDbEntity
  8
SSH_EXT
100
AcDbLine
 10
-48.200001082733706
 20
61.89999925300161
 30
0.0
 11
-48.200001082734154
 21
63.59999925300143
 31
0.0
  0
LINE
  5
221
330
17
100
AcDbEntity
  8
SSH_INT
100
AcDbLine
 10
-48.200001082733706
 20
61.89999925300161
 30
0.0
 11
-48.200001082734154
 21
63.59999925300143
 31
0.0
  0
ARC
  5
222
330
17
100
AcDbEntity
  8
SSH_EXT
100
AcDbCircle
 10
-48.00000108273389
 20
63.59999925300143
 30
0.0
 40
0.2000000000000454
100
AcDbArc
 50
90.0
 51
180.0
  0
ARC
  5
223
330
17
100
AcDbEntity
  8
SSH_INT
100
AcDbCircle
 10
-48.00000108273389
 20
63.59999925300143
 30
0.0
 40
0.2000000000000454
100
AcDbArc
 50
90.0
 51
180.0
  0
LINE
  5
224
330
17
100
AcDbEntity
  8
SSH_EXT
100
AcDbLine
 10
-48.00000108273389
 20
63.79999925300125
 30
0.0
 11
-39.40000108273397
 21
63.79999925300125
 31
0.0
  0
LINE
  5
225
330
17
100
AcDbEntity
  8
SSH_INT
100
AcDbLine
 10
-48.00000108273389
 20
63.79999925300125
 30
0.0
 11
-39.40000108273397
 21
63.79999925300125
 31
0.0
  0
ARC
  5
226
330
17
100
AcDbEntity
  8
SSH_EXT
100
AcDbCircle
 10
-39.400001082733525
 20
63.59999925300098
 30
0.0
 40
0.2000000000000454
100
AcDbArc
 50
0.0
 51
90.00000000013026
  0
ARC
  5
227
330
17
100
AcDbEntity
  8
SSH_INT
100
AcDbCircle
 10
-39.400001082733525
 20
63.59999925300098
 30
0.0
 40
0.2000000000000454
100
AcDbArc
 50
0.0
 51
90.00000000013026
  0
LINE
  5
228
330
17
100
AcDbEntity
  8
SSH_EXT
100
AcDbLine
 10
-39.200001082733706
 20
63.59999925300098
 30
0.0
 11
-39.20000108273417
 21
58.99999925300107
 31
0.0
  0
LINE
  5
229
330
17
100
AcDbEntity
  8
SSH_INT
100
AcDbLine
 10
-39.200001082733706
 20
63.59999925300098
 30
0.0
 11
-39.20000108273417
 21
58.99999925300107
 31
0.0
  0
ARC
  5
22A
330
17
100
AcDbEntity
  8
SSH_EXT
100
AcDbCircle
 10
-38.200001082734154
 20
58.99999925300107
 30
0.0
 40
0.9999999999999998
100
AcDbArc
 50
180.0
 51
-90.00000000000001
  0
ARC
  5
22B
330
17
100
AcDbEntity
  8
SSH_INT
100
AcDbCircle
 10
-38.200001082734154
 20
58.99999925300107
 30
0.0
 40
0.9999999999999998
100
AcDbArc
 50
180.0
 51
-90.00000000000001
  0
LINE
  5
22C
330
17
100
AcDbEntity
  8
SSH_EXT
100
AcDbLine
 10
-38.200001082734154
 20
57.99999925300107
 30
0.0
 11
-21.299999252923495
 21
57.99999925300061
 31
0.0
  0
LINE
  5
22D
330
17
100
AcDbEntity
  8
SSH_INT
100
AcDbLine
 10
-38.200001082734154
 20
57.99999925300107
 30
0.0
 11
-21.299999252923495
 21
57.99999925300061
 31
0.0
  0
ARC
  5
22E
330
17
100
AcDbEntity
  8
SSH_EXT
100
AcDbCircle
 10
-21.299999252924405
 20
58.19999925300043
 30
0.0
 40
0.1999999999998181
100
AcDbArc
 50
-89.99999999973936
 51
0.0
  0
ARC
  5
22F
330
17
100
AcDbEntity
  8
SSH_INT
100
AcDbCircle
 10
-21.299999252924405
 20
58.19999925300043
 30
0.0
 40
0.1999999999998181
100
AcDbArc
 50
-89.99999999973936
 51
0.0
  0
LINE
  5
230
330
17
100
AcDbEntity
  8
SSH_EXT
100
AcDbLine
 10
-21.099999252924135
 20
58.19999925300043
 30
0.0
 11
-21.099999252923674
 21
59.99999925300061
 31
0.0
  0
LINE
  5
231
330
17
100
AcDbEntity
  8
SSH_INT
100
AcDbLine
 10
-21.099999252924135
 20
58.19999925300043
 30
0.0
 11
-21.099999252923674
 21
59.99999925300061
 31
0.0
  0
ARC
  5
232
330
17
100
AcDbEntity
  8
SSH_EXT
100
AcDbCircle
 10
-20.899999252923866
 20
59.99999925300061
 30
0.0
 40
0.2000000000000454
100
AcDbArc
 50
90.0
 51
180.0
  0
ARC
  5
233
330
17
100
AcDbEntity
  8
SSH_INT
100
AcDbCircle
 10
-20.899999252923866
 20
59.99999925300061
 30
0.0
 40
0.2000000000000454
100
AcDbArc
 50
90.0
 51
180.0
  0
LINE
  5
234
330
17
100
AcDbEntity
  8
SSH_EXT
100
AcDbLine
 10
-20.899999252923866
 20
60.19999925300089
 30
0.0
 11
-19.299999252924405
 21
60.19999925300089
 31
0.0
  0
LINE
  5
235
330
17
100
AcDbEntity
  8
SSH_INT
100
AcDbLine
 10
-20.899999252923866
 20
60.19999925300089
 30
0.0
 11
-19.299999252924405
 21
60.19999925300089
 31
0.0
  0
ARC
  5
236
330
17
100
AcDbEntity
  8
SSH_EXT
100
AcDbCircle
 10
-19.299999252923495
 20
60.3999992530007
 30
0.0
 40
0.1999999999998181
100
AcDbArc
 50
-90.00000000026061
 51
0.0
  0
ARC
  5
237
330
17
100
AcDbEntity
  8
SSH_INT
100
AcDbCircle
 10
-19.299999252923495
 20
60.3999992530007
 30
0.0
 40
0.1999999999998181
100
AcDbArc
 50
-90.00000000026061
 51
0.0
  0
LINE
  5
238
330
17
100
AcDbEntity
  8
SSH_EXT
100
AcDbLine
 10
-19.099999252923674
 20
60.3999992530007
 30
0.0
 11
-19.099999252923674
 21
62.49999925300061
 31
0.0
  0
LINE
  5
239
330
17
100
AcDbEntity
  8
SSH_INT
100
AcDbLine
 10
-19.099999252923674
 20
60.3999992530007
 30
0.0
 11
-19.099999252923674
 21
62.49999925300061
 31
0.0
  0
ARC
  5
23A
330
17
100
AcDbEntity
  8
SSH_EXT
100
AcDbCircle
 10
-19.299999252923495
 20
62.49999925300016
 30
0.0
 40
0.1999999999999994
100
AcDbArc
 50
1.302612e-10
 51
20.00000000014729
  0
ARC
  5
23B
330
17
100
AcDbEntity
  8
SSH_INT
100
AcDbCircle
 10
-19.299999252923495
 20
62.49999925300016
 30
0.0
 40
0.1999999999999994
100
AcDbArc
 50
1.302612e-10
 51
20.00000000014729
  0
LINE
  5
23C
330
17
100
AcDbEntity
  8
SSH_EXT
100
AcDbLine
 10
-19.112060728766664
 20
62.56840328166571
 30
0.0
 11
-21.328485069468574
 21
68.65797910967422
 31
0.0
  0
LINE
  5
23D
330
17
100
AcDbEntity
  8
SSH_INT
100
AcDbLine
 10
-19.112060728766664
 20
62.56840328166571
 30
0.0
 11
-21.328485069468574
 21
68.65797910967422
 31
0.0
  0
ARC
  5
23E
330
17
100
AcDbEntity
  8
SSH_EXT
100
AcDbCircle
 10
-20.388792448683034
 20
68.99999925299971
 30
0.0
 40
1.000000000000009
100
AcDbArc
 50
90.0
 51
-160.00000000000193
  0
ARC
  5
23F
330
17
100
AcDbEntity
  8
SSH_INT
100
AcDbCircle
 10
-20.388792448683034
 20
68.99999925299971
 30
0.0
 40
1.000000000000009
100
AcDbArc
 50
90.0
 51
-160.00000000000193
  0
LINE
  5
240
330
17
100
AcDbEntity
  8
SSH_EXT
100
AcDbLine
 10
-20.388792448683034
 20
69.99999925299971
 30
0.0
 11
-13.499999252924225
 21
69.99999925299971
 31
0.0
  0
LINE
  5
241
330
17
100
AcDbEntity
  8
SSH_INT
100
AcDbLine
 10
-20.388792448683034
 20
69.99999925299971
 30
0.0
 11
-13.499999252924225
 21
69.99999925299971
 31
0.0
  0
LINE
  5
242
330
17
100
AcDbEntity
  8
SSH_EXT
100
AcDbLine
 10
-13.499999252924225
 20
69.99999925299971
 30
0.0
 11
-13.353552643517554
 21
70.14644586240729
 31
0.0
  0
LINE
  5
243
330
17
100
AcDbEntity
  8
SSH_INT
100
AcDbLine
 10
-13.499999252924225
 20
69.99999925299971
 30
0.0
 11
-13.353552643517554
 21
70.14644586240729
 31
0.0
  0
ARC
  5
244
330
17
100
AcDbEntity
  8
SSH_EXT
100
AcDbCircle
 10
-12.999999252924225
 20
69.79289247181396
 30
0.0
 40
0.5000000000000844
100
AcDbArc
 50
45.0
 51
135.0
  0
ARC
  5
245
330
17
100
AcDbEntity
  8
SSH_INT
100
AcDbCircle
 10
-12.999999252924225
 20
69.79289247181396
 30
0.0
 40
0.5000000000000844
100
AcDbArc
 50
45.0
 51
135.0
  0
LINE
  5
246
330
17
100
AcDbEntity
  8
SSH_EXT
100
AcDbLine
 10
-12.646445862330895
 20
70.14644586240729
 30
0.0
 11
-12.499999252923315
 21
69.99999925299971
 31
0.0
  0
LINE
  5
247
330
17
100
AcDbEntity
  8
SSH_INT
100
AcDbLine
 10
-12.646445862330895
 20
70.14644586240729
 30
0.0
 11
-12.499999252923315
 21
69.99999925299971
 31
0.0
  0
LINE
  5
248
330
17
100
AcDbEntity
  8
SSH_EXT
100
AcDbLine
 10
-12.499999252923315
 20
69.99999925299971
 30
0.0
 11
-5.611206057164964
 21
69.99999925299971
 31
0.0
  0
LINE
  5
249
330
17
100
AcDbEntity
  8
SSH_INT
100
AcDbLine
 10
-12.499999252923315
 20
69.99999925299971
 30
0.0
 11
-5.611206057164964
 21
69.99999925299971
 31
0.0
  0
ARC
  5
24A
330
17
100
AcDbEntity
  8
SSH_EXT
100
AcDbCircle
 10
-5.611206057164964
 20
68.99999925299971
 30
0.0
 40
1.000000000000009
100
AcDbArc
 50
-19.999999999989303
 51
90.0
  0
ARC
  5
24B
330
17
100
AcDbEntity
  8
SSH_INT
100
AcDbCircle
 10
-5.611206057164964
 20
68.99999925299971
 30
0.0
 40
1.000000000000009
100
AcDbArc
 50
-19.999999999989303
 51
90.0
  0
LINE
  5
24C
330
17
100
AcDbEntity
  8
SSH_EXT
100
AcDbLine
 10
-4.671513436378972
 20
68.65797910967422
 30
0.0
 11
-6.8879377770813335
 21
62.56840328166571
 31
0.0
  0
LINE
  5
24D
330
17
100
AcDbEntity
  8
SSH_INT
100
AcDbLine
 10
-4.671513436378972
 20
68.65797910967422
 30
0.0
 11
-6.8879377770813335
 21
62.56840328166571
 31
0.0
  0
ENDSEC
  0
SECTION
  2
OBJECTS
  0
DICTIONARY
  5
A
330
0
100
AcDbDictionary
281
1
  3
ACAD_COLOR
350
B
  3
ACAD_GROUP
350
C
  3
ACAD_LAYOUT
350
D
  3
ACAD_MATERIAL
350
E
  3
ACAD_MLEADERSTYLE
350
F
  3
ACAD_MLINESTYLE
350
10
  3
ACAD_PLOTSETTINGS
350
11
  3
ACAD_PLOTSTYLENAME
350
12
  3
ACAD_SCALELIST
350
14
  3
ACAD_TABLESTYLE
350
15
  3
ACAD_VISUALSTYLE
350
16
  3
EZDXF_META
350
2D
  0
DICTIONARY
  5
B
330
A
100
AcDbDictionary
281
1
  0
DICTIONARY
  5
C
330
A
100
AcDbDictionary
281
1
  0
DICTIONARY
  5
D
330
A
100
AcDbDictionary
281
1
  3
Model
350
1A
  3
Layout1
350
1E
  0
DICTIONARY
  5
E
330
A
100
AcDbDictionary
281
1
  3
ByBlock
350
1F
  3
ByLayer
350
20
  3
Global
350
21
  0
DICTIONARY
  5
F
330
A
100
AcDbDictionary
281
1
  3
Standard
350
2C
  0
DICTIONARY
  5
10
330
A
100
AcDbDictionary
281
1
  3
Standard
350
22
  0
DICTIONARY
  5
11
330
A
100
AcDbDictionary
281
1
  0
ACDBDICTIONARYWDFLT
  5
12
330
A
100
AcDbDictionary
281
1
  3
Normal
350
13
100
AcDbDictionaryWithDefault
340
13
  0
ACDBPLACEHOLDER
  5
13
330
12
  0
DICTIONARY
  5
14
330
A
100
AcDbDictionary
281
1
  0
DICTIONARY
  5
15
330
A
100
AcDbDictionary
281
1
  0
DICTIONARY
  5
16
330
A
100
AcDbDictionary
281
1
  0
LAYOUT
  5
1A
330
D
100
AcDbPlotSettings
  1

  4
A3
  6

 40
7.5
 41
20.0
 42
7.5
 43
20.0
 44
420.0
 45
297.0
 46
0.0
 47
0.0
 48
0.0
 49
0.0
140
0.0
141
0.0
142
1.0
143
1.0
 70
1024
 72
1
 73
0
 74
5
  7

 75
16
 76
0
 77
2
 78
300
147
1.0
148
0.0
149
0.0
100
AcDbLayout
  1
Model
 70
1
 71
0
 10
0.0
 20
0.0
 11
420.0
 21
297.0
 12
0.0
 22
0.0
 32
0.0
 14
1e+20
 24
1e+20
 34
1e+20
 15
-1e+20
 25
-1e+20
 35
-1e+20
146
0.0
 13
0.0
 23
0.0
 33
0.0
 16
1.0
 26
0.0
 36
0.0
 17
0.0
 27
1.0
 37
0.0
 76
1
330
17
  0
LAYOUT
  5
1E
330
D
100
AcDbPlotSettings
  1

  4
A3
  6

 40
7.5
 41
20.0
 42
7.5
 43
20.0
 44
420.0
 45
297.0
 46
0.0
 47
0.0
 48
0.0
 49
0.0
140
0.0
141
0.0
142
1.0
143
1.0
 70
0
 72
1
 73
0
 74
5
  7

 75
16
 76
0
 77
2
 78
300
147
1.0
148
0.0
149
0.0
100
AcDbLayout
  1
Layout1
 70
1
 71
1
 10
0.0
 20
0.0
 11
420.0
 21
297.0
 12
0.0
 22
0.0
 32
0.0
 14
1e+20
 24
1e+20
 34
1e+20
 15
-1e+20
 25
-1e+20
 35
-1e+20
146
0.0
 13
0.0
 23
0.0
 33
0.0
 16
1.0
 26
0.0
 36
0.0
 17
0.0
 27
1.0
 37
0.0
 76
1
330
1B
  0
MATERIAL
  5
1F
102
{ACAD_REACTORS
330
E
102
}
330
E
100
AcDbMaterial
  1
ByBlock
  2

 70
0
 40
1.0
 71
1
 41
1.0
 91
-1023410177
 42
1.0
 72
1
  3

 73
1
 74
1
 75
1
 44
0.5
 73
0
 45
1.0
 46
1.0
 77
1
  4

 78
1
 79
1
170
1
 48
1.0
171
1
  6

172
1
173
1
174
1
140
1.0
141
1.0
175
1
  7

176
1
177
1
178
1
143
1.0
179
1
  8

270
1
271
1
272
1
145
1.0
146
1.0
273
1
  9

274
1
275
1
276
1
 42
1.0
 72
1
  3

 73
1
 74
1
 75
1
 94
63
  0
MATERIAL
  5
20
102
{ACAD_REACTORS
330
E
102
}
330
E
100
AcDbMaterial
  1
ByLayer
  2

 70
0
 40
1.0
 71
1
 41
1.0
 91
-1023410177
 42
1.0
 72
1
  3

 73
1
 74
1
 75
1
 44
0.5
 73
0
 45
1.0
 46
1.0
 77
1
  4

 78
1
 79
1
170
1
 48
1.0
171
1
  6

172
1
173
1
174
1
140
1.0
141
1.0
175
1
  7

176
1
177
1
178
1
143
1.0
179
1
  8

270
1
271
1
272
1
145
1.0
146
1.0
273
1
  9

274
1
275
1
276
1
 42
1.0
 72
1
  3

 73
1
 74
1
 75
1
 94
63
  0
MATERIAL
  5
21
102
{ACAD_REACTORS
330
E
102
}
330
E
100
AcDbMaterial
  1
Global
  2

 70
0
 40
1.0
 71
1
 41
1.0
 91
-1023410177
 42
1.0
 72
1
  3

 73
1
 74
1
 75
1
 44
0.5
 73
0
 45
1.0
 46
1.0
 77
1
  4

 78
1
 79
1
170
1
 48
1.0
171
1
  6

172
1
173
1
174
1
140
1.0
141
1.0
175
1
  7

176
1
177
1
178
1
143
1.0
179
1
  8

270
1
271
1
272
1
145
1.0
146
1.0
273
1
  9

274
1
275
1
276
1
 42
1.0
 72
1
  3

 73
1
 74
1
 75
1
 94
63
  0
MLINESTYLE
  5
22
102
{ACAD_REACTORS
330
10
102
}
330
10
100
AcDbMlineStyle
  2
Standard
 70
0
  3

 62
256
 51
90.0
 52
90.0
 71
2
 49
0.5
 62
256
  6
BYLAYER
 49
-0.5
 62
256
  6
BYLAYER
  0
MLEADERSTYLE
  5
2C
102
{ACAD_REACTORS
330
F
102
}
330
F
100
AcDbMLeaderStyle
179
2
170
2
171
1
172
0
 90
2
 40
0.0
 41
0.0
173
1
 91
-1056964608
 92
-2
290
1
 42
2.0
291
1
 43
8.0
  3
Standard
 44
4.0
300

342
29
174
1
175
1
176
0
178
1
 93
-1056964608
 45
4.0
292
0
297
0
 46
4.0
 94
-1056964608
 47
1.0
 49
1.0
140
1.0
294
1
141
0.0
177
0
142
1.0
295
0
296
0
143
3.75
271
0
272
9
273
9
  0
DICTIONARY
  5
2D
330
A
100
AcDbDictionary
280
1
281
1
  3
CREATED_BY_EZDXF
350
2E
  3
WRITTEN_BY_EZDXF
350
250
  0
DICTIONARYVAR
  5
2E
330
2D
100
DictionaryVariables
280
0
  1
1.4.4 @ 2026-07-02T14:35:06.218756+00:00
  0
DICTIONARYVAR
  5
250
330
2D
100
DictionaryVariables
280
0
  1
1.4.4 @ 2026-07-02T14:35:06.237264+00:00
  0
ENDSEC
  0
EOF
