  0
SECTION
  2
HEADER
  9
$ACADVER
  1
AC1024
  9
$ACADMAINTVER
 70
6
  9
$DWGCODEPAGE
  3
ANSI_1252
  9
$LASTSAVEDBY
  1
ezdxf
  9
$INSBASE
 10
0.0
 20
0.0
 30
0.0
  9
$EXTMIN
 10
1e+20
 20
1e+20
 30
1e+20
  9
$EXTMAX
 10
-1e+20
 20
-1e+20
 30
-1e+20
  9
$LIMMIN
 10
0.0
 20
0.0
  9
$LIMMAX
 10
420.0
 20
297.0
  9
$ORTHOMODE
 70
0
  9
$REGENMODE
 70
1
  9
$FILLMODE
 70
1
  9
$QTEXTMODE
 70
0
  9
$MIRRTEXT
 70
1
  9
$LTSCALE
 40
1.0
  9
$ATTMODE
 70
1
  9
$TEXTSIZE
 40
2.5
  9
$TRACEWID
 40
1.0
  9
$TEXTSTYLE
  7
Standard
  9
$CLAYER
  8
0
  9
$CELTYPE
  6
ByLayer
  9
$CECOLOR
 62
256
  9
$CELTSCALE
 40
1.0
  9
$DISPSILH
 70
0
  9
$DIMSCALE
 40
1.0
  9
$DIMASZ
 40
2.5
  9
$DIMEXO
 40
0.625
  9
$DIMDLI
 40
3.75
  9
$DIMRND
 40
0.0
  9
$DIMDLE
 40
0.0
  9
$DIMEXE
 40
1.25
  9
$DIMTP
 40
0.0
  9
$DIMTM
 40
0.0
  9
$DIMTXT
 40
2.5
  9
$DIMCEN
 40
2.5
  9
$DIMTSZ
 40
0.0
  9
$DIMTOL
 70
0
  9
$DIMLIM
 70
0
  9
$DIMTIH
 70
0
  9
$DIMTOH
 70
0
  9
$DIMSE1
 70
0
  9
$DIMSE2
 70
0
  9
$DIMTAD
 70
1
  9
$DIMZIN
 70
8
  9
$DIMBLK
  1

  9
$DIMASO
 70
1
  9
$DIMSHO
 70
1
  9
$DIMPOST
  1

  9
$DIMAPOST
  1

  9
$DIMALT
 70
0
  9
$DIMALTD
 70
3
  9
$DIMALTF
 40
0.03937007874
  9
$DIMLFAC
 40
1.0
  9
$DIMTOFL
 70
1
  9
$DIMTVP
 40
0.0
  9
$DIMTIX
 70
0
  9
$DIMSOXD
 70
0
  9
$DIMSAH
 70
0
  9
$DIMBLK1
  1

  9
$DIMBLK2
  1

  9
$DIMSTYLE
  2
ISO-25
  9
$DIMCLRD
 70
0
  9
$DIMCLRE
 70
0
  9
$DIMCLRT
 70
0
  9
$DIMTFAC
 40
1.0
  9
$DIMGAP
 40
0.625
  9
$DIMJUST
 70
0
  9
$DIMSD1
 70
0
  9
$DIMSD2
 70
0
  9
$DIMTOLJ
 70
0
  9
$DIMTZIN
 70
8
  9
$DIMALTZ
 70
0
  9
$DIMALTTZ
 70
0
  9
$DIMUPT
 70
0
  9
$DIMDEC
 70
2
  9
$DIMTDEC
 70
2
  9
$DIMALTU
 70
2
  9
$DIMALTTD
 70
3
  9
$DIMTXSTY
  7
Standard
  9
$DIMAUNIT
 70
0
  9
$DIMADEC
 70
0
  9
$DIMALTRND
 40
0.0
  9
$DIMAZIN
 70
0
  9
$DIMDSEP
 70
44
  9
$DIMATFIT
 70
3
  9
$DIMFRAC
 70
0
  9
$DIMLDRBLK
  1

  9
$DIMLUNIT
 70
2
  9
$DIMLWD
 70
-2
  9
$DIMLWE
 70
-2
  9
$DIMTMOVE
 70
0
  9
$DIMFXL
 40
1.0
  9
$DIMFXLON
 70
0
  9
$DIMJOGANG
 40
0.785398163397
  9
$DIMTFILL
 70
0
  9
$DIMTFILLCLR
 70
0
  9
$DIMARCSYM
 70
0
  9
$DIMLTYPE
  6

  9
$DIMLTEX1
  6

  9
$DIMLTEX2
  6

  9
$DIMTXTDIRECTION
 70
0
  9
$LUNITS
 70
2
  9
$LUPREC
 70
4
  9
$SKETCHINC
 40
1.0
  9
$FILLETRAD
 40
10.0
  9
$AUNITS
 70
0
  9
$AUPREC
 70
2
  9
$MENU
  1
.
  9
$ELEVATION
 40
0.0
  9
$PELEVATION
 40
0.0
  9
$THICKNESS
 40
0.0
  9
$LIMCHECK
 70
0
  9
$CHAMFERA
 40
0.0
  9
$CHAMFERB
 40
0.0
  9
$CHAMFERC
 40
0.0
  9
$CHAMFERD
 40
0.0
  9
$SKPOLY
 70
0
  9
$TDCREATE
 40
2461224.615127315
  9
$TDUCREATE
 40
2458532.153996898
  9
$TDUPDATE
 40
2461224.615127315
  9
$TDUUPDATE
 40
2458532.1544311
  9
$TDINDWG
 40
0.0
  9
$TDUSRTIMER
 40
0.0
  9
$USRTIMER
 70
1
  9
$ANGBASE
 50
0.0
  9
$ANGDIR
 70
0
  9
$PDMODE
 70
0
  9
$PDSIZE
 40
0.0
  9
$PLINEWID
 40
0.0
  9
$SPLFRAME
 70
0
  9
$SPLINETYPE
 70
6
  9
$SPLINESEGS
 70
8
  9
$HANDSEED
  5
86
  9
$SURFTAB1
 70
6
  9
$SURFTAB2
 70
6
  9
$SURFTYPE
 70
6
  9
$SURFU
 70
6
  9
$SURFV
 70
6
  9
$UCSBASE
  2

  9
$UCSNAME
  2

  9
$UCSORG
 10
0.0
 20
0.0
 30
0.0
  9
$UCSXDIR
 10
1.0
 20
0.0
 30
0.0
  9
$UCSYDIR
 10
0.0
 20
1.0
 30
0.0
  9
$UCSORTHOREF
  2

  9
$UCSORTHOVIEW
 70
0
  9
$UCSORGTOP
 10
0.0
 20
0.0
 30
0.0
  9
$UCSORGBOTTOM
 10
0.0
 20
0.0
 30
0.0
  9
$UCSORGLEFT
 10
0.0
 20
0.0
 30
0.0
  9
$UCSORGRIGHT
 10
0.0
 20
0.0
 30
0.0
  9
$UCSORGFRONT
 10
0.0
 20
0.0
 30
0.0
  9
$UCSORGBACK
 10
0.0
 20
0.0
 30
0.0
  9
$PUCSBASE
  2

  9
$PUCSNAME
  2

  9
$PUCSORG
 10
0.0
 20
0.0
 30
0.0
  9
$PUCSXDIR
 10
1.0
 20
0.0
 30
0.0
  9
$PUCSYDIR
 10
0.0
 20
1.0
 30
0.0
  9
$PUCSORTHOREF
  2

  9
$PUCSORTHOVIEW
 70
0
  9
$PUCSORGTOP
 10
0.0
 20
0.0
 30
0.0
  9
$PUCSORGBOTTOM
 10
0.0
 20
0.0
 30
0.0
  9
$PUCSORGLEFT
 10
0.0
 20
0.0
 30
0.0
  9
$PUCSORGRIGHT
 10
0.0
 20
0.0
 30
0.0
  9
$PUCSORGFRONT
 10
0.0
 20
0.0
 30
0.0
  9
$PUCSORGBACK
 10
0.0
 20
0.0
 30
0.0
  9
$USERI1
 70
0
  9
$USERI2
 70
0
  9
$USERI3
 70
0
  9
$USERI4
 70
0
  9
$USERI5
 70
0
  9
$USERR1
 40
0.0
  9
$USERR2
 40
0.0
  9
$USERR3
 40
0.0
  9
$USERR4
 40
0.0
  9
$USERR5
 40
0.0
  9
$WORLDVIEW
 70
1
  9
$SHADEDGE
 70
3
  9
$SHADEDIF
 70
70
  9
$TILEMODE
 70
1
  9
$MAXACTVP
 70
64
  9
$PINSBASE
 10
0.0
 20
0.0
 30
0.0
  9
$PLIMCHECK
 70
0
  9
$PEXTMIN
 10
1e+20
 20
1e+20
 30
1e+20
  9
$PEXTMAX
 10
-1e+20
 20
-1e+20
 30
-1e+20
  9
$PLIMMIN
 10
0.0
 20
0.0
  9
$PLIMMAX
 10
420.0
 20
297.0
  9
$UNITMODE
 70
0
  9
$VISRETAIN
 70
1
  9
$PLINEGEN
 70
0
  9
$PSLTSCALE
 70
1
  9
$TREEDEPTH
 70
3020
  9
$CMLSTYLE
  2
Standard
  9
$CMLJUST
 70
0
  9
$CMLSCALE
 40
20.0
  9
$PROXYGRAPHICS
 70
1
  9
$MEASUREMENT
 70
1
  9
$CELWEIGHT
370
-1
  9
$ENDCAPS
280
0
  9
$JOINSTYLE
280
0
  9
$LWDISPLAY
290
0
  9
$INSUNITS
 70
6
  9
$HYPERLINKBASE
  1

  9
$STYLESHEET
  1

  9
$XEDIT
290
1
  9
$CEPSNTYPE
380
0
  9
$PSTYLEMODE
290
1
  9
$FINGERPRINTGUID
  2
{5599DD78-5CFB-4289-B540-B4FEE7844BDF}
  9
$VERSIONGUID
  2
{146C981C-3B77-4174-9563-75ACACFCA5F9}
  9
$EXTNAMES
290
1
  9
$PSVPSCALE
 40
0.0
  9
$OLESTARTUP
290
0
  9
$SORTENTS
280
127
  9
$INDEXCTL
280
0
  9
$HIDETEXT
280
1
  9
$XCLIPFRAME
280
1
  9
$HALOGAP
280
0
  9
$OBSCOLOR
 70
257
  9
$OBSLTYPE
280
0
  9
$INTERSECTIONDISPLAY
280
0
  9
$INTERSECTIONCOLOR
 70
257
  9
$DIMASSOC
280
2
  9
$PROJECTNAME
  1

  9
$CAMERADISPLAY
290
0
  9
$LENSLENGTH
 40
50.0
  9
$CAMERAHEIGHT
 40
0.0
  9
$STEPSPERSEC
 40
24.0
  9
$STEPSIZE
 40
100.0
  9
$3DDWFPREC
 40
2.0
  9
$PSOLWIDTH
 40
0.005
  9
$PSOLHEIGHT
 40
0.08
  9
$LOFTANG1
 40
1.570796326795
  9
$LOFTANG2
 40
1.570796326795
  9
$LOFTMAG1
 40
0.0
  9
$LOFTMAG2
 40
0.0
  9
$LOFTPARAM
 70
7
  9
$LOFTNORMALS
280
1
  9
$LATITUDE
 40
37.795
  9
$LONGITUDE
 40
-122.394
  9
$NORTHDIRECTION
 40
0.0
  9
$TIMEZONE
 70
-8000
  9
$LIGHTGLYPHDISPLAY
280
1
  9
$TILEMODELIGHTSYNCH
280
1
  9
$CMATERIAL
347
20
  9
$SOLIDHIST
280
0
  9
$SHOWHIST
280
1
  9
$DWFFRAME
280
2
  9
$DGNFRAME
280
2
  9
$REALWORLDSCALE
290
1
  9
$INTERFERECOLOR
 62
256
  9
$CSHADOW
280
0
  9
$SHADOWPLANELOCATION
 40
0.0
  0
ENDSEC
  0
SECTION
  2
CLASSES
  0
CLASS
  1
ACDBDICTIONARYWDFLT
  2
AcDbDictionaryWithDefault
  3
ObjectDBX Classes
 90
0
 91
0
280
0
281
0
  0
CLASS
  1
SUN
  2
AcDbSun
  3
SCENEOE
 90
1153
 91
0
280
0
281
0
  0
CLASS
  1
VISUALSTYLE
  2
AcDbVisualStyle
  3
ObjectDBX Classes
 90
4095
 91
0
280
0
281
0
  0
CLASS
  1
MATERIAL
  2
AcDbMaterial
  3
ObjectDBX Classes
 90
1153
 91
0
280
0
281
0
  0
CLASS
  1
SCALE
  2
AcDbScale
  3
ObjectDBX Classes
 90
1153
 91
0
280
0
281
0
  0
CLASS
  1
TABLESTYLE
  2
AcDbTableStyle
  3
ObjectDBX Classes
 90
4095
 91
0
280
0
281
0
  0
CLASS
  1
MLEADERSTYLE
  2
AcDbMLeaderStyle
  3
ACDB_MLEADERSTYLE_CLASS
 90
4095
 91
0
280
0
281
0
  0
CLASS
  1
DICTIONARYVAR
  2
AcDbDictionaryVar
  3
ObjectDBX Classes
 90
0
 91
0
280
0
281
0
  0
CLASS
  1
CELLSTYLEMAP
  2
AcDbCellStyleMap
  3
ObjectDBX Classes
 90
1152
 91
0
280
0
281
0
  0
CLASS
  1
MENTALRAYRENDERSETTINGS
  2
AcDbMentalRayRenderSettings
  3
SCENEOE
 90
1024
 91
0
280
0
281
0
  0
CLASS
  1
ACDBDETAILVIEWSTYLE
  2
AcDbDetailViewStyle
  3
ObjectDBX Classes
 90
1025
 91
0
280
0
281
0
  0
CLASS
  1
ACDBSECTIONVIEWSTYLE
  2
AcDbSectionViewStyle
  3
ObjectDBX Classes
 90
1025
 91
0
280
0
281
0
  0
CLASS
  1
RASTERVARIABLES
  2
AcDbRasterVariables
  3
ISM
 90
0
 91
0
280
0
281
0
  0
CLASS
  1
ACDBPLACEHOLDER
  2
AcDbPlaceHolder
  3
ObjectDBX Classes
 90
0
 91
0
280
0
281
0
  0
CLASS
  1
LAYOUT
  2
AcDbLayout
  3
ObjectDBX Classes
 90
0
 91
0
280
0
281
0
  0
ENDSEC
  0
SECTION
  2
TABLES
  0
TABLE
  2
VPORT
  5
8
330
0
100
AcDbSymbolTable
 70
1
  0
VPORT
  5
23
330
8
100
AcDbSymbolTableRecord
100
AcDbViewportTableRecord
  2
*Active
 70
0
 10
0.0
 20
0.0
 11
1.0
 21
1.0
 12
0.0
 22
0.0
 13
0.0
 23
0.0
 14
0.5
 24
0.5
 15
0.5
 25
0.5
 16
0.0
 26
0.0
 36
1.0
 17
0.0
 27
0.0
 37
0.0
 40
1000.0
 41
1.34
 42
50.0
 43
0.0
 44
0.0
 50
0.0
 51
0.0
 71
0
 72
1000
 73
1
 74
3
 75
0
 76
0
 77
0
 78
0
281
0
 65
0
146
0.0
  0
ENDTAB
  0
TABLE
  2
LTYPE
  5
2
330
0
100
AcDbSymbolTable
 70
3
  0
LTYPE
  5
24
330
2
100
AcDbSymbolTableRecord
100
AcDbLinetypeTableRecord
  2
ByBlock
 70
0
  3

 72
65
 73
0
 40
0.0
  0
LTYPE
  5
25
330
2
100
AcDbSymbolTableRecord
100
AcDbLinetypeTableRecord
  2
ByLayer
 70
0
  3

 72
65
 73
0
 40
0.0
  0
LTYPE
  5
26
330
2
100
AcDbSymbolTableRecord
100
AcDbLinetypeTableRecord
  2
Continuous
 70
0
  3

 72
65
 73
0
 40
0.0
  0
ENDTAB
  0
TABLE
  2
LAYER
  5
1
330
0
100
AcDbSymbolTable
 70
2
  0
LAYER
  5
27
330
1
100
AcDbSymbolTableRecord
100
AcDbLayerTableRecord
  2
0
 70
0
 62
7
  6
Continuous
370
-3
390
13
347
21
  0
LAYER
  5
28
330
1
100
AcDbSymbolTableRecord
100
AcDbLayerTableRecord
  2
Defpoints
 70
0
 62
7
  6
Continuous
290
0
370
-3
390
13
347
21
  0
ENDTAB
  0
TABLE
  2
STYLE
  5
5
330
0
100
AcDbSymbolTable
 70
1
  0
STYLE
  5
29
330
5
100
AcDbSymbolTableRecord
100
AcDbTextStyleTableRecord
  2
Standard
 70
0
 40
0.0
 41
1.0
 50
0.0
 71
0
 42
2.5
  3
txt
  4

  0
ENDTAB
  0
TABLE
  2
VIEW
  5
7
330
0
100
AcDbSymbolTable
 70
0
  0
ENDTAB
  0
TABLE
  2
UCS
  5
6
330
0
100
AcDbSymbolTable
 70
0
  0
ENDTAB
  0
TABLE
  2
APPID
  5
3
330
0
100
AcDbSymbolTable
 70
3
  0
APPID
  5
2A
330
3
100
AcDbSymbolTableRecord
100
AcDbRegAppTableRecord
  2
ACAD
 70
0
  0
APPID
  5
83
330
3
100
AcDbSymbolTableRecord
100
AcDbRegAppTableRecord
  2
HATCHBACKGROUNDCOLOR
 70
0
  0
APPID
  5
84
330
3
100
AcDbSymbolTableRecord
100
AcDbRegAppTableRecord
  2
EZDXF
 70
0
  0
ENDTAB
  0
TABLE
  2
DIMSTYLE
  5
4
330
0
100
AcDbSymbolTable
 70
1
100
AcDbDimStyleTable
  0
DIMSTYLE
105
2B
330
4
100
AcDbSymbolTableRecord
100
AcDbDimStyleTableRecord
  2
Standard
 70
0
 40
1.0
 41
2.5
 42
0.625
 43
3.75
 44
1.25
 45
0.0
 46
0.0
 47
0.0
 48
0.0
 49
2.5
140
2.5
141
2.5
142
0.0
143
0.03937007874
144
1.0
145
0.0
146
1.0
147
0.625
148
0.0
 69
0
 70
0
 71
0
 72
0
 73
0
 74
0
 75
0
 76
0
 77
1
 78
8
 79
3
170
0
171
3
172
1
173
0
174
0
175
0
176
0
177
0
178
0
179
2
271
2
272
2
273
2
274
3
275
0
276
0
277
2
278
44
279
0
280
0
281
0
282
0
283
0
284
8
285
0
286
0
288
0
289
3
290
0
371
-2
372
-2
  0
ENDTAB
  0
TABLE
  2
BLOCK_RECORD
  5
9
330
0
100
AcDbSymbolTable
 70
2
  0
BLOCK_RECORD
  5
17
330
9
100
AcDbSymbolTableRecord
100
AcDbBlockTableRecord
  2
*Model_Space
340
1A
 70
0
280
1
281
0
  0
BLOCK_RECORD
  5
1B
330
9
100
AcDbSymbolTableRecord
100
AcDbBlockTableRecord
  2
*Paper_Space
340
1E
 70
0
280
1
281
0
  0
ENDTAB
  0
ENDSEC
  0
SECTION
  2
BLOCKS
  0
BLOCK
  5
18
330
17
100
AcDbEntity
  8
0
100
AcDbBlockBegin
  2
*Model_Space
 70
0
 10
0.0
 20
0.0
 30
0.0
  3
*Model_Space
  1

  0
ENDBLK
  5
19
330
17
100
AcDbEntity
  8
0
100
AcDbBlockEnd
  0
BLOCK
  5
1C
330
1B
100
AcDbEntity
  8
0
100
AcDbBlockBegin
  2
*Paper_Space
 70
0
 10
0.0
 20
0.0
 30
0.0
  3
*Paper_Space
  1

  0
ENDBLK
  5
1D
330
1B
100
AcDbEntity
  8
0
100
AcDbBlockEnd
  0
ENDSEC
  0
SECTION
  2
ENTITIES
  0
LWPOLYLINE
  5
2F
330
17
100
AcDbEntity
  8
GSK_FRM_EXT
 62
6
100
AcDbPolyline
 90
8
 70
1
 10
12.029429280665909
 20
61.25647579359702
 42
-0.1973171029117989
 10
12.392043129166952
 20
61.36958478733504
 10
14.361834243904696
 20
61.19725044042934
 42
-0.9163312066386604
 10
14.361834240389499
 20
59.8025778587737
 10
12.392043115741446
 20
59.63024356148935
 42
-0.1973171068159639
 10
12.029429262023541
 20
59.743352561850315
 10
11.581042941778607
 20
60.11492582765436
 42
-0.4700505917641017
 10
11.58104294686905
 20
60.88490253692294
  0
LWPOLYLINE
  5
30
330
17
100
AcDbEntity
  8
GSK_FRM_EXT
 62
6
100
AcDbPolyline
 90
31
 70
1
 10
17.09999466100703
 20
59.42171945152995
 42
0.1826758888702128
 10
16.974994832849234
 20
59.7524385758843
 42
-0.4362879657284912
 10
17.07750509543189
 20
60.77356649852209
 10
17.80991964969166
 20
62.02301829981684
 42
0.2073074163340437
 10
18.95646650727008
 20
64.01994901086482
 42
0.0916074222265504
 10
18.864485726370958
 20
65.83452057998875
 42
0.4268639712463462
 10
17.66979920953031
 20
66.574421601538
 42
-0.0527154374469259
 10
15.25611180993269
 20
65.95253119250287
 42
0.3718316879017271
 10
15.000003809424697
 20
65.65576008944026
 10
14.999996188991872
 20
62.3034251136537
 42
-0.4589973865408548
 10
14.65503138780764
 20
62.00681465850016
 10
13.416669911699275
 20
62.10695884875474
 42
0.1730044290472394
 10
13.236221827225112
 20
62.05858367939368
 10
13.05457726619966
 20
61.94211662630141
 42
-0.6935273263148176
 10
12.888868665221482
 20
62.02945422110042
 42
-0.1940731523186352
 10
13.318760244298574
 20
62.81674290534295
 42
0.9442779230106229
 10
13.156075436802439
 20
63.07951384161112
 42
0.1848969568933989
 10
10.87110159912504
 20
60.956131757135836
 42
0.2413739550731988
 10
10.87110159912504
 20
60.04379021950194
 42
0.1155441180481
 10
12.903123162318707
 20
57.6495951354803
 42
0.8046084068019029
 10
13.226784873427391
 20
57.93239158122486
 42
-0.0941294090166279
 10
12.888868665221482
 20
58.970467755537356
 42
-0.6935273263667959
 10
13.05457726620057
 20
59.057805350335684
 10
13.308629271540326
 20
58.9335542784691
 42
0.1102863192832164
 10
13.476750362051918
 20
58.900588454071
 10
14.769755955692517
 20
59.01049900287353
 42
-0.4865963738769969
 10
15.13038854077081
 20
58.635786369651896
 42
-0.0904941723492964
 10
15.079878565577246
 20
56.939554695087054
 42
0.9312118644052843
 10
15.68284456492097
 20
56.41687669152975
 10
17.02623817280687
 20
58.60765460681796
 42
0.1383914179832654
 10
17.099994661006573
 20
58.86902879959189
  0
LWPOLYLINE
  5
31
330
17
100
AcDbEntity
  8
GSK_FRM_EXT
 62
6
100
AcDbPolyline
 90
10
 70
1
 10
18.09727974141128
 20
64.04791982558777
 42
0.0468986504846958
 10
18.309709573779173
 20
65.53023878995577
 42
0.8599914742289989
 10
17.534316514055035
 20
65.68651829653527
 10
17.311915854055087
 20
65.07559929653553
 42
-0.2132349016356261
 10
17.028150063522617
 20
64.78255101844752
 42
-0.1448859614941374
 10
16.924220964423284
 20
64.43568727783486
 42
0.370324107822476
 10
16.499996181006964
 20
63.941462421530105
 10
16.499996181006964
 20
62.674223801529934
 42
0.5923216042815911
 10
17.269063176575173
 20
62.25279414916099
 10
17.22903041110635
 20
62.82997364582957
 42
0.1940050826117134
  0
LWPOLYLINE
  5
32
330
17
100
AcDbEntity
  8
FRM_EXT
100
AcDbPolyline
 90
129
 70
1
 10
61.09328390372866
 20
6.9175570504583
 42
-0.2400787590801145
 10
61.25508730260367
 20
6.9999999999995435
 10
66.35602439040235
 20
7.0
 42
-0.3690546425321124
 10
67.34378706180951
 20
6.155964434966334
 10
67.81747706695228
 20
3.155964434966334
 42
-0.4608620707066395
 10
66.82971439554512
 20
2.0
 10
65.40192400000046
 20
2.0000000000000004
 10
65.40192400000046
 20
1.0000000000000002
 42
0.4142135623730951
 10
66.40192400000046
 20
2.2031861282441725e-16
 10
70.0
 20
0.0
 10
70.00000000000023
 20
44.99999999999977
 42
0.4142140000000855
 10
69.0
 20
46.00000000000021
 10
65.44183172088606
 20
46.00000000000045
 42
0.4931454668899049
 10
65.0150550658418
 20
45.44381375891292
 10
65.35621441230728
 20
44.17059041395669
 42
0.3394542222102505
 10
65.83917730843905
 20
43.80000000000018
 10
66.90866272973562
 20
43.80000000000018
 42
-0.4608620707066395
 10
67.89642540114278
 20
42.64403556503384
 10
67.58758513339012
 20
40.688071130068
 42
-0.3690546425321124
 10
65.61205979057604
 20
39.00000000000068
 10
60.700000000000045
 20
39.0
 42
-0.4142135623730951
 10
59.70000000000005
 20
40.0
 10
59.70000000000005
 20
41.33566577471809
 42
-0.1006947051834969
 10
59.739747573273924
 20
41.53103133896275
 10
61.0
 20
44.5
 10
61.0
 20
45.49999999999999
 42
0.4142135623730951
 10
60.5
 20
46.0
 10
58.035276180410854
 20
46.0
 42
0.3394542588635296
 10
56.58638744097652
 20
44.88822856765363
 10
56.51703708685547
 20
44.62940952255121
 42
0.493145426031274
 10
57.0
 20
44.0
 10
57.769694609658934
 20
44.00000000000066
 42
-0.5373193821392536
 10
57.953795580349386
 20
43.72185377430287
 10
56.85016105820455
 20
41.12185377430203
 42
-0.3009658391326293
 10
56.666060087514104
 20
40.99999999999977
 10
35.50000000159866
 20
41.0
 10
35.35355338716181
 20
40.85355339063608
 42
-0.4142135623730502
 10
34.64644660597514
 20
40.85355339055036
 10
34.50000000159821
 20
41.0
 10
28.08057925249615
 20
41.0
 10
15.21090304567111
 20
39.1912849635437
 42
-0.5715470873652616
 10
12.529019227027447
 20
42.56287500926053
 10
14.667902132485779
 20
48.13485547692994
 42
0.0918870916679617
 10
15.0
 20
49.92669522465757
 10
15.000000000000227
 20
57.90000000000009
 10
14.000000000000455
 20
58.90000000000011
 10
13.500000000000007
 20
58.90000000000054
 10
13.500000000000007
 20
58.10000000000036
 42
-0.4142140000002187
 10
13.0
 20
57.60000000000037
 10
10.49999999999934
 20
57.60000000000038
 42
-0.4142135623730951
 10
9.499999999999325
 20
58.600000000000364
 10
9.499999999999325
 20
60.09999813231208
 10
9.500000000000007
 20
60.10000000000038
 10
9.499999999999098
 20
60.43943908770711
 42
-0.2882204520472692
 10
10.34980045230192
 20
61.79119370603644
 10
13.21330672697355
 20
63.16855203673799
 42
-0.5525293025908593
 10
13.500000000000007
 20
62.98831808762748
 10
13.500000000000007
 20
62.10000000000036
 10
14.000000000000455
 20
62.10000000000036
 10
15.000000000000234
 20
63.10000000000082
 10
15.000000000000007
 20
66.0
 10
14.000000000000007
 20
66.0
 10
9.211717993443038
 20
64.25720787634032
 42
0.3152987888790331
 10
0.0
 20
51.10151118533669
 10
0.0
 20
4.2862637970157365e-15
 10
3.5980759999997645
 20
4.065945184191305e-15
 42
0.4142135623730951
 10
4.5980759999997645
 20
1.000000000000004
 10
4.5980759999997645
 20
2.000000000000004
 10
3.17028560445533
 20
2.000000000000004
 42
-0.4608620707066397
 10
2.182522933048176
 20
3.155964434966338
 10
2.6562129381904924
 20
6.1559644349663385
 42
-0.3690546425321123
 10
3.643975609597888
 20
7.000000000000004
 10
8.744912697396579
 20
6.999999999999775
 42
-0.2400787590802713
 10
8.906716096271573
 20
6.917557050458075
 10
9.988487527951747
 20
5.428626409810935
 42
-0.2325553856618125
 10
10.13894709633496
 20
4.5590527164527
 10
9.700000000000053
 20
3.0644582269437737
 10
9.700000000000053
 20
2.0000000000009126
 10
9.401923788646862
 20
2.0000000000004574
 10
9.0
 20
0.5000000000000038
 10
9.000000000000227
 20
3.735172737399413e-15
 10
12.800000000000189
 20
3.5024898455614188e-15
 42
0.4142135623730951
 10
13.800000000000182
 20
1.0000000000000033
 10
13.800000000000182
 20
2.0000000000000036
 10
13.200000004129151
 20
2.0000000000004574
 42
-0.3349997217040084
 10
12.238338392162412
 20
2.7257611550683154
 42
-0.1418030814149202
 10
12.238775402205889
 20
2.8369666123253436
 10
12.5376385073589
 20
3.8545816137884716
 42
0.1374014254549942
 10
12.561359826541093
 20
5.742409146115507
 42
-0.4927503700213901
 10
13.527613909065849
 20
7.0000000000000036
 10
34.50000000159821
 20
7.000000000000002
 10
34.64644660597536
 20
7.146446609450324
 42
-0.4142135623729112
 10
35.35355338716181
 20
7.146446609363921
 10
35.50000000159866
 20
7.000000000000002
 10
46.5570349435618
 20
7.000000000000002
 42
-0.4927503700213129
 10
47.523289026086104
 20
5.742409146115052
 42
0.1374014254549932
 10
47.54701034526852
 20
3.8545816137882425
 10
47.84587345042132
 20
2.8369666123253414
 42
-0.1418030814153937
 10
47.84631046026311
 20
2.7257611551256105
 42
-0.3349997217039354
 10
46.88464884849804
 20
2.000000000000455
 10
46.08464884849787
 20
2.0000000000000013
 10
46.08464884849787
 20
1.0000000000000016
 42
0.4142135623730951
 10
47.084648848497864
 20
1.4031605719512354e-15
 10
50.884648848498045
 20
6.832704776801132e-13
 42
0.4142135623730951
 10
51.08464884849809
 20
0.20000000000072876
 10
51.08464884849809
 20
0.5000000000000011
 10
50.68272505985147
 20
2.000000000000455
 10
50.38464884849827
 20
2.0000000000009104
 10
50.38464884849827
 20
3.0644582269437715
 10
49.94570175216313
 20
4.5590527164526975
 42
-0.2325553856618117
 10
50.09616132054635
 20
5.428626409810932
 10
51.177932752226525
 20
6.917557050457843
 42
-0.2400787590804843
 10
51.33973615110176
 20
6.999999999999773
 10
57.681788212950096
 20
7.000000000000228
 42
-0.5888795210479483
 10
57.85144990210097
 20
6.694099522029319
 42
0.214102191292491
 10
57.46236149264155
 20
3.854581613788242
 10
57.76122459779435
 20
2.836966612325341
 42
-0.1418030814153268
 10
57.76166160763592
 20
2.72576115512561
 42
-0.3349997205558119
 10
56.80000000000018
 20
2.0000000000004547
 10
55.02086350000014
 20
2.000000000000001
 10
55.02086350000014
 20
1.0000000000000009
 42
0.4142135623730951
 10
56.02086350000013
 20
8.559752384784387e-16
 10
61.00000000000023
 20
5.510910596162951e-16
 10
61.00000000000023
 20
0.5000000000000006
 10
60.5980762113536
 20
2.0000000000004543
 10
60.30000000000018
 20
2.0000000000009095
 10
60.30000000000018
 20
3.0644582269437706
 10
59.86105290366527
 20
4.5590527164526975
 42
-0.2325553856618117
 10
60.01151247204848
 20
5.428626409810932
  0
LWPOLYLINE
  5
33
330
17
100
AcDbEntity
  8
FRM_INT
100
AcDbPolyline
 90
129
 70
1
 10
61.09328390372866
 20
6.9175570504583
 42
-0.2400787590801145
 10
61.25508730260367
 20
6.9999999999995435
 10
66.35602439040235
 20
7.0
 42
-0.3690546425321124
 10
67.34378706180951
 20
6.155964434966334
 10
67.81747706695228
 20
3.155964434966334
 42
-0.4608620707066395
 10
66.82971439554512
 20
2.0
 10
65.40192400000046
 20
2.0000000000000004
 10
65.40192400000046
 20
1.0000000000000002
 42
0.4142135623730951
 10
66.40192400000046
 20
2.2031861282441725e-16
 10
70.0
 20
0.0
 10
70.00000000000023
 20
44.99999999999977
 42
0.4142140000000855
 10
69.0
 20
46.00000000000021
 10
65.44183172088606
 20
46.00000000000045
 42
0.4931454668899049
 10
65.0150550658418
 20
45.44381375891292
 10
65.35621441230728
 20
44.17059041395669
 42
0.3394542222102505
 10
65.83917730843905
 20
43.80000000000018
 10
66.90866272973562
 20
43.80000000000018
 42
-0.4608620707066395
 10
67.89642540114278
 20
42.64403556503384
 10
67.58758513339012
 20
40.688071130068
 42
-0.3690546425321124
 10
65.61205979057604
 20
39.00000000000068
 10
60.700000000000045
 20
39.0
 42
-0.4142135623730951
 10
59.70000000000005
 20
40.0
 10
59.70000000000005
 20
41.33566577471809
 42
-0.1006947051834969
 10
59.739747573273924
 20
41.53103133896275
 10
61.0
 20
44.5
 10
61.0
 20
45.49999999999999
 42
0.4142135623730951
 10
60.5
 20
46.0
 10
58.035276180410854
 20
46.0
 42
0.3394542588635296
 10
56.58638744097652
 20
44.88822856765363
 10
56.51703708685547
 20
44.62940952255121
 42
0.493145426031274
 10
57.0
 20
44.0
 10
57.769694609658934
 20
44.00000000000066
 42
-0.5373193821392536
 10
57.953795580349386
 20
43.72185377430287
 10
56.85016105820455
 20
41.12185377430203
 42
-0.3009658391326293
 10
56.666060087514104
 20
40.99999999999977
 10
35.50000000159866
 20
41.0
 10
35.35355338716181
 20
40.85355339063608
 42
-0.4142135623730502
 10
34.64644660597514
 20
40.85355339055036
 10
34.50000000159821
 20
41.0
 10
28.08057925249615
 20
41.0
 10
15.21090304567111
 20
39.1912849635437
 42
-0.5715470873652616
 10
12.529019227027447
 20
42.56287500926053
 10
14.667902132485779
 20
48.13485547692994
 42
0.0918870916679617
 10
15.0
 20
49.92669522465757
 10
15.000000000000227
 20
57.90000000000009
 10
14.000000000000455
 20
58.90000000000011
 10
13.500000000000007
 20
58.90000000000054
 10
13.500000000000007
 20
58.10000000000036
 42
-0.4142140000002187
 10
13.0
 20
57.60000000000037
 10
10.49999999999934
 20
57.60000000000038
 42
-0.4142135623730951
 10
9.499999999999325
 20
58.600000000000364
 10
9.499999999999325
 20
60.09999813231208
 10
9.500000000000007
 20
60.10000000000038
 10
9.499999999999098
 20
60.43943908770711
 42
-0.2882204520472692
 10
10.34980045230192
 20
61.79119370603644
 10
13.21330672697355
 20
63.16855203673799
 42
-0.5525293025908593
 10
13.500000000000007
 20
62.98831808762748
 10
13.500000000000007
 20
62.10000000000036
 10
14.000000000000455
 20
62.10000000000036
 10
15.000000000000234
 20
63.10000000000082
 10
15.000000000000007
 20
66.0
 10
14.000000000000007
 20
66.0
 10
9.211717993443038
 20
64.25720787634032
 42
0.3152987888790331
 10
0.0
 20
51.10151118533669
 10
0.0
 20
4.2862637970157365e-15
 10
3.5980759999997645
 20
4.065945184191305e-15
 42
0.4142135623730951
 10
4.5980759999997645
 20
1.000000000000004
 10
4.5980759999997645
 20
2.000000000000004
 10
3.17028560445533
 20
2.000000000000004
 42
-0.4608620707066397
 10
2.182522933048176
 20
3.155964434966338
 10
2.6562129381904924
 20
6.1559644349663385
 42
-0.3690546425321123
 10
3.643975609597888
 20
7.000000000000004
 10
8.744912697396579
 20
6.999999999999775
 42
-0.2400787590802713
 10
8.906716096271573
 20
6.917557050458075
 10
9.988487527951747
 20
5.428626409810935
 42
-0.2325553856618125
 10
10.13894709633496
 20
4.5590527164527
 10
9.700000000000053
 20
3.0644582269437737
 10
9.700000000000053
 20
2.0000000000009126
 10
9.401923788646862
 20
2.0000000000004574
 10
9.0
 20
0.5000000000000038
 10
9.000000000000227
 20
3.735172737399413e-15
 10
12.800000000000189
 20
3.5024898455614188e-15
 42
0.4142135623730951
 10
13.800000000000182
 20
1.0000000000000033
 10
13.800000000000182
 20
2.0000000000000036
 10
13.200000004129151
 20
2.0000000000004574
 42
-0.3349997217040084
 10
12.238338392162412
 20
2.7257611550683154
 42
-0.1418030814149202
 10
12.238775402205889
 20
2.8369666123253436
 10
12.5376385073589
 20
3.8545816137884716
 42
0.1374014254549942
 10
12.561359826541093
 20
5.742409146115507
 42
-0.4927503700213901
 10
13.527613909065849
 20
7.0000000000000036
 10
34.50000000159821
 20
7.000000000000002
 10
34.64644660597536
 20
7.146446609450324
 42
-0.4142135623729112
 10
35.35355338716181
 20
7.146446609363921
 10
35.50000000159866
 20
7.000000000000002
 10
46.5570349435618
 20
7.000000000000002
 42
-0.4927503700213129
 10
47.523289026086104
 20
5.742409146115052
 42
0.1374014254549932
 10
47.54701034526852
 20
3.8545816137882425
 10
47.84587345042132
 20
2.8369666123253414
 42
-0.1418030814153937
 10
47.84631046026311
 20
2.7257611551256105
 42
-0.3349997217039354
 10
46.88464884849804
 20
2.000000000000455
 10
46.08464884849787
 20
2.0000000000000013
 10
46.08464884849787
 20
1.0000000000000016
 42
0.4142135623730951
 10
47.084648848497864
 20
1.4031605719512354e-15
 10
50.884648848498045
 20
6.832704776801132e-13
 42
0.4142135623730951
 10
51.08464884849809
 20
0.20000000000072876
 10
51.08464884849809
 20
0.5000000000000011
 10
50.68272505985147
 20
2.000000000000455
 10
50.38464884849827
 20
2.0000000000009104
 10
50.38464884849827
 20
3.0644582269437715
 10
49.94570175216313
 20
4.5590527164526975
 42
-0.2325553856618117
 10
50.09616132054635
 20
5.428626409810932
 10
51.177932752226525
 20
6.917557050457843
 42
-0.2400787590804843
 10
51.33973615110176
 20
6.999999999999773
 10
57.681788212950096
 20
7.000000000000228
 42
-0.5888795210479483
 10
57.85144990210097
 20
6.694099522029319
 42
0.214102191292491
 10
57.46236149264155
 20
3.854581613788242
 10
57.76122459779435
 20
2.836966612325341
 42
-0.1418030814153268
 10
57.76166160763592
 20
2.72576115512561
 42
-0.3349997205558119
 10
56.80000000000018
 20
2.0000000000004547
 10
55.02086350000014
 20
2.000000000000001
 10
55.02086350000014
 20
1.0000000000000009
 42
0.4142135623730951
 10
56.02086350000013
 20
8.559752384784387e-16
 10
61.00000000000023
 20
5.510910596162951e-16
 10
61.00000000000023
 20
0.5000000000000006
 10
60.5980762113536
 20
2.0000000000004543
 10
60.30000000000018
 20
2.0000000000009095
 10
60.30000000000018
 20
3.0644582269437706
 10
59.86105290366527
 20
4.5590527164526975
 42
-0.2325553856618117
 10
60.01151247204848
 20
5.428626409810932
  0
LWPOLYLINE
  5
34
330
17
100
AcDbEntity
  8
FRM_EXT
100
AcDbPolyline
 90
10
 70
1
 10
14.162271398648272
 20
36.71629648638168
 42
-0.4493657566859925
 10
14.575510488215969
 20
36.0931196118479
 10
11.480705204299973
 20
24.417720390797065
 42
-0.3639702342660556
 10
11.28374365369747
 20
24.252450026330514
 10
3.0
 20
24.252450026330514
 42
-0.4142135623730951
 10
2.7999999999999545
 20
24.452450026330553
 10
2.8000000000004093
 20
40.96695513539703
 42
-0.4142135623730951
 10
3.0000000000002274
 20
41.166955135397075
 10
9.710301082074238
 20
41.166955135397075
 42
-0.3751962976443171
 10
9.908480667120102
 20
40.99387821232015
 42
0.3356032756624312
  0
LWPOLYLINE
  5
35
330
17
100
AcDbEntity
  8
FRM_INT
100
AcDbPolyline
 90
10
 70
1
 10
14.162271398648272
 20
36.71629648638168
 42
-0.4493657566859925
 10
14.575510488215969
 20
36.0931196118479
 10
11.480705204299973
 20
24.417720390797065
 42
-0.3639702342660556
 10
11.28374365369747
 20
24.252450026330514
 10
3.0
 20
24.252450026330514
 42
-0.4142135623730951
 10
2.7999999999999545
 20
24.452450026330553
 10
2.8000000000004093
 20
40.96695513539703
 42
-0.4142135623730951
 10
3.0000000000002274
 20
41.166955135397075
 10
9.710301082074238
 20
41.166955135397075
 42
-0.3751962976443171
 10
9.908480667120102
 20
40.99387821232015
 42
0.3356032756624312
  0
LWPOLYLINE
  5
36
330
17
100
AcDbEntity
  8
FRM_EXT
100
AcDbPolyline
 90
14
 70
1
 10
7.499999999999339
 20
58.600000000000364
 42
0.4142135623730951
 10
10.49999999999934
 20
55.600000000000364
 10
12.000000000000227
 20
55.60000000000036
 42
-0.4142135623730951
 10
12.500000000000227
 20
55.10000000000037
 10
12.5
 20
49.92669522465757
 42
-0.0918870916679617
 10
12.333951066242903
 20
49.03077535079386
 10
10.195068160784103
 20
43.45879488312356
 42
0.0579381590202661
 10
9.908480667120102
 20
42.34003205847376
 42
-0.37519629764438
 10
9.710301082074238
 20
42.166955135396854
 10
3.0000000000002274
 20
42.166955135396854
 42
-0.4142135623730951
 10
2.800000000000196
 20
42.3669551353969
 10
2.800000000000196
 20
51.10151118533669
 42
-0.2177635796368319
 10
6.672897196265936
 20
59.572258761761766
 42
-0.6423549147341717
 10
7.499999999999339
 20
59.194100387824164
  0
LWPOLYLINE
  5
37
330
17
100
AcDbEntity
  8
FRM_INT
100
AcDbPolyline
 90
14
 70
1
 10
7.499999999999339
 20
58.600000000000364
 42
0.4142135623730951
 10
10.49999999999934
 20
55.600000000000364
 10
12.000000000000227
 20
55.60000000000036
 42
-0.4142135623730951
 10
12.500000000000227
 20
55.10000000000037
 10
12.5
 20
49.92669522465757
 42
-0.0918870916679617
 10
12.333951066242903
 20
49.03077535079386
 10
10.195068160784103
 20
43.45879488312356
 42
0.0579381590202661
 10
9.908480667120102
 20
42.34003205847376
 42
-0.37519629764438
 10
9.710301082074238
 20
42.166955135396854
 10
3.0000000000002274
 20
42.166955135396854
 42
-0.4142135623730951
 10
2.800000000000196
 20
42.3669551353969
 10
2.800000000000196
 20
51.10151118533669
 42
-0.2177635796368319
 10
6.672897196265936
 20
59.572258761761766
 42
-0.6423549147341717
 10
7.499999999999339
 20
59.194100387824164
  0
LWPOLYLINE
  5
38
330
17
100
AcDbEntity
  8
GLS_EXT
100
AcDbPolyline
 90
4
 70
1
 10
19.0
 20
50.0
 10
23.0
 20
50.0
 10
23.0
 20
89.00000000000136
 10
19.0
 20
89.00000000000136
  0
LWPOLYLINE
  5
39
330
17
100
AcDbEntity
  8
GLS_INT
100
AcDbPolyline
 90
4
 70
1
 10
39.0
 20
50.0
 10
43.0
 20
50.0
 10
43.0
 20
89.00000000000136
 10
39.0
 20
89.00000000000136
  0
LWPOLYLINE
  5
3A
330
17
100
AcDbEntity
  8
SPACER
 62
3
100
AcDbPolyline
 90
4
 70
1
 10
23.0
 20
50.0
 10
39.0
 20
50.0
 10
39.0
 20
64.0
 10
23.0
 20
64.0
1001
AcDbBlockRepETag
1070
1
1071
8
1005
331
  0
LWPOLYLINE
  5
3B
330
17
100
AcDbEntity
  8
BZD
100
AcDbPolyline
 90
41
 70
1
 10
58.03527580687205
 20
46.722811930394066
 10
58.03527580687205
 20
46.00000000000045
 10
59.53527580687206
 20
45.99999999999999
 42
-0.4142135623730951
 10
60.03527580687205
 20
46.49999999999999
 10
62.004078658881554
 20
46.49999999999999
 42
-0.3394542588634029
 10
62.97000448517065
 20
45.75881904510242
 10
63.407390449059676
 20
44.126472405350334
 42
-0.2493293434598935
 10
63.30178066992494
 20
43.669031463186904
 10
62.10705183220307
 20
42.29466716680735
 42
-0.2171199618910894
 10
61.352345564183906
 20
41.95073000603269
 10
60.55125006789695
 20
41.950730006032245
 42
0.9999999999999998
 10
60.5512500678974
 20
40.25073000603242
 10
61.67135180905598
 20
40.250730006032875
 42
0.2171199618911793
 10
63.18076434509567
 20
40.9386043275831
 10
65.3360745112791
 20
43.417979769524656
 42
0.2493293434599847
 10
65.44168429041383
 20
43.875420711688086
 10
64.78301610396602
 20
46.333603848842806
 42
-0.6068148963146447
 10
65.43698908877332
 20
46.93285968178679
 10
68.0
 20
46.00000000000045
 10
69.0
 20
46.00000000000045
 10
68.08231798901988
 20
51.20443330506304
 42
0.2679491924310402
 10
59.08329145341122
 20
61.929055508727274
 10
47.89846338779046
 20
66.00000000000045
 10
46.89846338779046
 20
66.00000000000045
 10
46.89846338779046
 20
63.100000000001714
 10
47.89846338779
 20
62.100000000000804
 10
48.39846338779045
 20
62.100000000000804
 10
48.39846338779045
 20
63.18842088903919
 42
-0.5205670505518223
 10
49.06947345945321
 20
63.65826719943197
 10
52.06947345945321
 20
62.56635649663256
 42
-0.3152987888789177
 10
52.39846338779046
 20
62.0965101862398
 10
52.39846338779126
 20
58.60000000000081
 42
-0.4142135623730951
 10
51.39846338779125
 20
57.60000000000081
 10
48.89846338779034
 20
57.60000000000081
 42
-0.4142140000000189
 10
48.39846338779034
 20
58.10000000000081
 10
48.39846338779034
 20
58.900000000000986
 10
47.89846338778989
 20
58.900000000000986
 10
46.89846338779034
 20
57.900000000000986
 10
46.89846338779034
 20
55.6777329230158
 42
0.3152987888789177
 10
48.21442310113843
 20
53.79834768144428
 10
54.74537652350136
 20
51.421275034323564
 42
-0.3152987888789177
  0
LWPOLYLINE
  5
3C
330
17
100
AcDbEntity
  8
BZD
100
AcDbPolyline
 90
18
 70
1
 10
55.36101278148817
 20
53.1127217517378
 42
-0.2464548693755317
 10
59.61508887896798
 20
48.439220953989654
 42
0.3668464132890396
 10
59.8267458339742
 20
48.29052728654414
 42
-0.0227013688753496
 10
60.03527580687205
 20
48.300000000000175
 10
62.004078658881554
 20
48.300000000000175
 42
-0.1232628537082183
 10
63.32325602299761
 20
47.96977146351718
 42
0.3432941107079666
 10
63.5653626607409
 20
48.01153008375058
 42
-0.3042054877104454
 10
66.05262534676012
 20
48.62430639920148
 10
66.42902455389003
 20
48.487308291604215
 42
0.5773502691897351
 10
66.69439013315741
 20
48.709976451295
 10
66.30966403359753
 20
50.89186658526295
 42
0.2679491924310402
 10
58.46765519542487
 20
60.23760879131259
 10
54.46686741645545
 20
61.693776456475
 42
0.5205670505518223
 10
54.19846338779053
 20
61.50583793231771
 10
54.19846338779098
 20
58.60000000000127
 42
-0.4142135623730951
 10
51.39846338779125
 20
55.80000000000063
 10
49.11203283852228
 20
55.80000000000063
 42
0.8390996311771779
 10
49.04362880985718
 20
55.41206147584352
  0
LWPOLYLINE
  5
3D
330
17
100
AcDbEntity
  8
GSK_BZD
347
491
100
AcDbPolyline
 90
33
 70
1
 10
49.0694734594532
 20
63.65826719943219
 42
0.5337481849688936
 10
48.398463387790905
 20
63.16693704842008
 10
48.39846338779045
 20
62.100000000000804
 10
47.89846338779045
 20
62.100000000000804
 10
46.89846338779045
 20
63.100000000001714
 10
46.89846338779045
 20
65.78912944548254
 42
0.2075133254383016
 10
46.80347223520277
 20
66.00815312566964
 42
-0.161228174486363
 10
43.94699537054441
 20
70.13072334331035
 42
0.941095309667078
 10
43.00184947635045
 20
69.99209502564734
 42
0.1085807304372004
 10
44.534933728373396
 20
65.63410506737749
 42
-0.1390430086413624
 10
45.54846338778963
 20
62.84494033927102
 10
45.62046033528133
 20
58.8595102972872
 42
-0.8399780497293138
 10
44.82394580467837
 20
58.73544382419071
 42
0.0657473970983625
 10
44.60815885376916
 20
59.24547000085748
 42
0.3140963318641297
 10
43.778348737991216
 20
59.627116753294096
 42
0.451051254984801
 10
43.04591764309327
 20
58.39144535146896
 42
0.223054966404159
 10
45.222285159085565
 20
56.06738358154915
 42
0.0994163557827123
 10
45.37671151451524
 20
56.036372064769225
 10
46.64846338779045
 20
56.03637206476877
 42
0.4142135623730951
 10
46.89846338779045
 20
56.28637206476877
 10
46.89846338779045
 20
57.900000000000986
 10
47.89846338779045
 20
58.900000000000986
 10
48.39846338779045
 20
58.900000000000986
 10
48.398463387790905
 20
58.100000000001714
 42
0.4142135623729619
 10
48.898463387790905
 20
57.60000000000194
 10
49.39846338779045
 20
57.600000000001714
 42
0.4142135623733615
 10
49.898463387790905
 20
58.100000000001714
 10
49.898463387790905
 20
58.630913068070626
 42
0.2156416552380446
 10
49.728621135291284
 20
59.006407224898325
 42
-0.4523166325164124
 10
49.72862113529174
 20
62.02384737031069
 42
0.2156416552372918
 10
49.89846338779045
 20
62.39934152713839
 10
49.898463387790905
 20
63.00646899540287
 42
0.3183729929591983
 10
49.56421235473555
 20
63.47819696781538
  0
LWPOLYLINE
  5
3E
330
17
100
AcDbEntity
  8
GSK_FRM_EXT
 62
6
100
AcDbPolyline
 90
8
 70
1
 10
12.029429280665909
 20
232.25647579359833
 42
-0.1973171029117989
 10
12.392043129166952
 20
232.36958478733635
 10
14.361834243904696
 20
232.19725044043065
 42
-0.9163312066386604
 10
14.361834240389499
 20
230.802577858775
 10
12.392043115741446
 20
230.63024356149066
 42
-0.1973171068159639
 10
12.029429262023541
 20
230.74335256185162
 10
11.581042941778607
 20
231.11492582765567
 42
-0.4700505917641017
 10
11.58104294686905
 20
231.88490253692424
  0
LWPOLYLINE
  5
3F
330
17
100
AcDbEntity
  8
GSK_FRM_EXT
 62
6
100
AcDbPolyline
 90
31
 70
1
 10
17.09999466100703
 20
230.42171945153126
 42
0.1826758888702128
 10
16.974994832849234
 20
230.7524385758856
 42
-0.4362879657284912
 10
17.07750509543189
 20
231.7735664985234
 10
17.80991964969166
 20
233.02301829981815
 42
0.2073074163340437
 10
18.95646650727008
 20
235.01994901086613
 42
0.0916074222265504
 10
18.864485726370958
 20
236.83452057999006
 42
0.4268639712463462
 10
17.66979920953031
 20
237.5744216015393
 42
-0.0527154374469259
 10
15.25611180993269
 20
236.95253119250418
 42
0.3718316879017271
 10
15.000003809424697
 20
236.65576008944157
 10
14.999996188991872
 20
233.303425113655
 42
-0.4589973865408548
 10
14.65503138780764
 20
233.00681465850147
 10
13.416669911699275
 20
233.10695884875605
 42
0.1730044290472394
 10
13.236221827225112
 20
233.05858367939499
 10
13.05457726619966
 20
232.94211662630272
 42
-0.6935273263148176
 10
12.888868665221482
 20
233.02945422110173
 42
-0.1940731523186352
 10
13.318760244298574
 20
233.81674290534426
 42
0.9442779230106229
 10
13.156075436802439
 20
234.07951384161242
 42
0.1848969568933989
 10
10.87110159912504
 20
231.95613175713714
 42
0.2413739550731988
 10
10.87110159912504
 20
231.04379021950325
 42
0.1155441180481
 10
12.903123162318707
 20
228.6495951354816
 42
0.8046084068019029
 10
13.226784873427391
 20
228.93239158122617
 42
-0.0941294090166279
 10
12.888868665221482
 20
229.97046775553866
 42
-0.6935273263667959
 10
13.05457726620057
 20
230.057805350337
 10
13.308629271540326
 20
229.9335542784704
 42
0.1102863192832164
 10
13.476750362051918
 20
229.9005884540723
 10
14.769755955692517
 20
230.01049900287484
 42
-0.4865963738769969
 10
15.13038854077081
 20
229.6357863696532
 42
-0.0904941723492964
 10
15.079878565577246
 20
227.93955469508836
 42
0.9312118644052843
 10
15.68284456492097
 20
227.41687669153106
 10
17.02623817280687
 20
229.60765460681927
 42
0.1383914179832654
 10
17.099994661006573
 20
229.8690287995932
  0
LWPOLYLINE
  5
40
330
17
100
AcDbEntity
  8
GSK_FRM_EXT
 62
6
100
AcDbPolyline
 90
10
 70
1
 10
18.09727974141128
 20
235.04791982558908
 42
0.0468986504846958
 10
18.309709573779173
 20
236.53023878995708
 42
0.8599914742289989
 10
17.534316514055035
 20
236.68651829653658
 10
17.311915854055087
 20
236.07559929653684
 42
-0.2132349016356261
 10
17.028150063522617
 20
235.78255101844883
 42
-0.1448859614941374
 10
16.924220964423284
 20
235.43568727783617
 42
0.370324107822476
 10
16.499996181006964
 20
234.9414624215314
 10
16.499996181006964
 20
233.67422380153124
 42
0.5923216042815911
 10
17.269063176575173
 20
233.2527941491623
 10
17.22903041110635
 20
233.82997364583088
 42
0.1940050826117134
  0
LWPOLYLINE
  5
41
330
17
100
AcDbEntity
  8
GSK_FRM_EXT
 62
6
100
AcDbPolyline
 90
8
 70
1
 10
12.029429280665909
 20
157.7435242064043
 42
0.1973171029117989
 10
12.392043129166952
 20
157.63041521266626
 10
14.361834243904696
 20
157.80274955957196
 42
0.9163312066386604
 10
14.361834240389499
 20
159.1974221412276
 10
12.392043115741448
 20
159.36975643851196
 42
0.1973171068159639
 10
12.029429262023543
 20
159.256647438151
 10
11.581042941778609
 20
158.88507417234695
 42
0.4700505917641017
 10
11.58104294686905
 20
158.11509746307837
  0
LWPOLYLINE
  5
42
330
17
100
AcDbEntity
  8
GSK_FRM_EXT
 62
6
100
AcDbPolyline
 90
31
 70
1
 10
17.09999466100703
 20
159.57828054847135
 42
-0.1826758888702128
 10
16.974994832849234
 20
159.247561424117
 42
0.4362879657284912
 10
17.07750509543189
 20
158.22643350147922
 10
17.80991964969166
 20
156.97698170018447
 42
-0.2073074163340437
 10
18.95646650727008
 20
154.9800509891365
 42
-0.0916074222265504
 10
18.864485726370958
 20
153.16547942001256
 42
-0.4268639712463462
 10
17.66979920953031
 20
152.4255783984633
 42
0.0527154374469259
 10
15.25611180993269
 20
153.04746880749843
 42
-0.3718316879017271
 10
15.000003809424697
 20
153.34423991056104
 10
14.999996188991872
 20
156.6965748863476
 42
0.4589973865408548
 10
14.65503138780764
 20
156.99318534150115
 10
13.416669911699275
 20
156.89304115124656
 42
-0.1730044290472394
 10
13.236221827225112
 20
156.94141632060763
 10
13.05457726619966
 20
157.0578833736999
 42
0.6935273263148176
 10
12.888868665221482
 20
156.97054577890088
 42
0.1940731523186352
 10
13.318760244298574
 20
156.18325709465836
 42
-0.9442779230106229
 10
13.15607543680244
 20
155.9204861583902
 42
-0.1848969568933989
 10
10.87110159912504
 20
158.04386824286547
 42
-0.2413739550731988
 10
10.87110159912504
 20
158.95620978049936
 42
-0.1155441180481
 10
12.903123162318707
 20
161.350404864521
 42
-0.8046084068019029
 10
13.226784873427393
 20
161.06760841877644
 42
0.0941294090166279
 10
12.888868665221484
 20
160.02953224446395
 42
0.6935273263667959
 10
13.054577266200571
 20
159.94219464966562
 10
13.308629271540328
 20
160.0664457215322
 42
-0.1102863192832164
 10
13.47675036205192
 20
160.0994115459303
 10
14.769755955692517
 20
159.98950099712778
 42
0.4865963738769969
 10
15.13038854077081
 20
160.3642136303494
 42
0.0904941723492964
 10
15.079878565577248
 20
162.06044530491425
 42
-0.9312118644052843
 10
15.682844564920972
 20
162.58312330847156
 10
17.02623817280687
 20
160.39234539318335
 42
-0.1383914179832654
 10
17.099994661006576
 20
160.13097120040942
  0
LWPOLYLINE
  5
43
330
17
100
AcDbEntity
  8
GSK_FRM_EXT
 62
6
100
AcDbPolyline
 90
10
 70
1
 10
18.09727974141128
 20
154.95208017441354
 42
-0.0468986504846958
 10
18.309709573779173
 20
153.46976121004553
 42
-0.8599914742289989
 10
17.534316514055035
 20
153.31348170346604
 10
17.311915854055087
 20
153.92440070346578
 42
0.2132349016356261
 10
17.028150063522617
 20
154.2174489815538
 42
0.1448859614941374
 10
16.924220964423284
 20
154.56431272216645
 42
-0.370324107822476
 10
16.499996181006964
 20
155.0585375784712
 10
16.499996181006964
 20
156.32577619847137
 42
-0.5923216042815911
 10
17.269063176575173
 20
156.74720585084032
 10
17.22903041110635
 20
156.17002635417174
 42
-0.1940050826117134
  0
LWPOLYLINE
  5
44
330
17
100
AcDbEntity
  8
0
100
AcDbPolyline
 90
108
 70
1
 10
70.0
 20
216.00000000000085
 42
0.414214000000013
 10
68.99999999999977
 20
217.00000000000085
 10
65.44183172088583
 20
217.00000000000108
 42
0.4931454668898546
 10
65.01505506584158
 20
216.4438137589138
 10
65.35621441230705
 20
215.17059041395754
 42
0.3394542222102445
 10
65.83917730843882
 20
214.80000000000103
 10
66.90866272973494
 20
214.80000000000126
 42
-0.4608620707067141
 10
67.89642540114255
 20
213.64403556503493
 10
67.58758513339012
 20
211.68807113006932
 42
-0.3690546425320968
 10
65.61205979057581
 20
210.00000000000176
 10
60.69999999999982
 20
210.00000000000108
 42
-0.4142135623730951
 10
59.69999999999982
 20
211.00000000000108
 10
59.70000000000005
 20
212.33566577471873
 42
-0.1006947051833751
 10
59.73974757327346
 20
212.53103133896337
 10
60.99999999999977
 20
215.50000000000108
 10
60.99999999999977
 20
216.50000000000085
 42
0.4142135623730951
 10
60.49999999999977
 20
217.00000000000085
 10
58.035276180409944
 20
217.0000000000004
 42
0.3394542588633729
 10
56.58638744097607
 20
215.88822856765427
 10
56.51703708685523
 20
215.6294095225523
 42
0.4931454260312745
 10
56.99999999999977
 20
215.00000000000108
 10
57.7696946096587
 20
215.0000000000013
 42
-0.5373193821397761
 10
57.95379558034893
 20
214.7218537743035
 10
56.85016105820432
 20
212.12185377430313
 42
-0.3009658391329427
 10
56.66606008751364
 20
212.00000000000085
 10
35.50000000159844
 20
212.00000000000108
 10
35.35355338711884
 20
211.8535533905942
 42
-0.4142135623730012
 10
34.64644660597514
 20
211.8535533905512
 10
34.50000000159797
 20
212.00000000000108
 10
28.0805792524959
 20
212.00000000000108
 10
15.210903045670179
 20
210.19128496354455
 42
-0.5715470873652189
 10
12.529019227027213
 20
213.56287500926163
 10
14.667902132485779
 20
219.1348554769324
 42
0.091887091667884
 10
14.999999999999773
 20
220.92669522465843
 10
15.0
 20
228.90000000000094
 10
14.000000000000227
 20
229.90000000000094
 10
13.499999999999773
 20
229.90000000000117
 10
13.499999999999773
 20
229.10000000000122
 42
-0.4142140000000796
 10
12.999999999999773
 20
228.60000000000122
 10
10.49999999999909
 20
228.60000000000144
 42
-0.4142135623730951
 10
9.49999999999909
 20
229.60000000000144
 10
9.49999999999909
 20
231.09999813231317
 10
9.49999999999978
 20
231.100000000001
 10
9.499999999998863
 20
231.4394390877082
 42
-0.2882204520473333
 10
10.349800452301693
 20
232.79119370603752
 10
13.213306726973329
 20
234.16855203673907
 42
-0.5525293025908538
 10
13.499999999999773
 20
233.98831808762856
 10
13.499999999999773
 20
233.100000000001
 10
14.000000000000227
 20
233.10000000000122
 10
15.0
 20
234.10000000000167
 10
14.999999999999773
 20
237.00000000000108
 10
13.99999999999978
 20
237.00000000000108
 10
9.211717993439379
 20
235.2572078763398
 42
0.3152987888789615
 10
-2.2737367544323206e-13
 20
222.10151118533753
 10
-2.2737367544323206e-13
 20
167.8984888146644
 42
0.3152987888789811
 10
9.211717993440523
 20
154.7427921236619
 10
13.99999999999978
 20
153.00000000000108
 10
14.999999999999773
 20
153.00000000000108
 10
15.0
 20
155.9000000000005
 10
14.000000000000227
 20
156.90000000000094
 10
13.499999999999773
 20
156.90000000000117
 10
13.499999999999773
 20
156.01168191237383
 42
-0.5525293025908538
 10
13.213306726973329
 20
155.83144796326332
 10
10.349800452301693
 20
157.2088062939651
 42
-0.2882204520472691
 10
9.499999999998863
 20
158.5605609122942
 10
9.49999999999978
 20
158.90000000000117
 10
9.49999999999909
 20
158.900001867689
 10
9.49999999999909
 20
160.40000000000072
 42
-0.4142135623730951
 10
10.49999999999909
 20
161.40000000000072
 10
12.999999999999773
 20
161.40000000000094
 42
-0.4142140000000796
 10
13.499999999999773
 20
160.90000000000094
 10
13.499999999999773
 20
160.100000000001
 10
14.000000000000227
 20
160.10000000000122
 10
15.0
 20
161.10000000000122
 10
14.999999999999773
 20
169.07330477534373
 42
0.0918870916679447
 10
14.667902132485779
 20
170.8651445230709
 10
12.529019227027
 20
176.43712499074076
 42
-0.5715470873651795
 10
15.210903045670179
 20
179.8087150364576
 10
28.0805792524959
 20
178.00000000000108
 10
34.50000000159797
 20
178.00000000000108
 10
34.64644660597491
 20
178.14644660945095
 42
-0.4142135623730951
 10
35.35355338711861
 20
178.14644660940797
 10
35.50000000159844
 20
178.00000000000108
 10
56.66606008751364
 20
178.0000000000013
 42
-0.3009658391331316
 10
56.85016105820432
 20
177.87814622569903
 10
57.95379558034915
 20
175.27814622569866
 42
-0.5373193821396333
 10
57.7696946096587
 20
175.00000000000063
 10
56.99999999999977
 20
175.00000000000108
 42
0.4931454260312746
 10
56.517037086855225
 20
174.37059047744987
 10
56.586387440976296
 20
174.1117714323479
 42
0.3394542588634029
 10
58.03527618040994
 20
173.00000000000153
 10
60.49999999999977
 20
173.0000000000013
 42
0.4142135623730951
 10
60.99999999999977
 20
173.5000000000013
 10
60.99999999999977
 20
174.50000000000108
 10
59.73974757327346
 20
177.4689686610388
 42
-0.1006947051833751
 10
59.700000000000045
 20
177.66433422528343
 10
59.69999999999982
 20
179.00000000000108
 42
-0.4142135623730951
 10
60.69999999999982
 20
180.00000000000108
 10
65.61205979057581
 20
180.0000000000004
 42
-0.3690546425320965
 10
67.58758513339012
 20
178.31192886993284
 10
67.89642540114255
 20
176.35596443496723
 42
-0.4608620707067931
 10
66.90866272973517
 20
175.20000000000067
 10
65.83917730843882
 20
175.20000000000113
 42
0.3394542222102444
 10
65.35621441230705
 20
174.82940958604462
 10
65.01505506584158
 20
173.55618624108837
 42
0.493145466889855
 10
65.44183172088583
 20
173.00000000000108
 10
68.99999999999977
 20
173.0000000000013
 42
0.4142140000000796
 10
70.0
 20
174.00000000000153
  0
LWPOLYLINE
  5
45
330
17
100
AcDbEntity
  8
POST_EXT
100
AcDbPolyline
 90
108
 70
1
 10
70.0
 20
216.00000000000085
 42
0.414214000000013
 10
68.99999999999977
 20
217.00000000000085
 10
65.44183172088583
 20
217.00000000000108
 42
0.4931454668898546
 10
65.01505506584158
 20
216.4438137589138
 10
65.35621441230705
 20
215.17059041395754
 42
0.3394542222102445
 10
65.83917730843882
 20
214.80000000000103
 10
66.90866272973494
 20
214.80000000000126
 42
-0.4608620707067141
 10
67.89642540114255
 20
213.64403556503493
 10
67.58758513339012
 20
211.68807113006932
 42
-0.3690546425320968
 10
65.61205979057581
 20
210.00000000000176
 10
60.69999999999982
 20
210.00000000000108
 42
-0.4142135623730951
 10
59.69999999999982
 20
211.00000000000108
 10
59.70000000000005
 20
212.33566577471873
 42
-0.1006947051833751
 10
59.73974757327346
 20
212.53103133896337
 10
60.99999999999977
 20
215.50000000000108
 10
60.99999999999977
 20
216.50000000000085
 42
0.4142135623730951
 10
60.49999999999977
 20
217.00000000000085
 10
58.035276180409944
 20
217.0000000000004
 42
0.3394542588633729
 10
56.58638744097607
 20
215.88822856765427
 10
56.51703708685523
 20
215.6294095225523
 42
0.4931454260312745
 10
56.99999999999977
 20
215.00000000000108
 10
57.7696946096587
 20
215.0000000000013
 42
-0.5373193821397761
 10
57.95379558034893
 20
214.7218537743035
 10
56.85016105820432
 20
212.12185377430313
 42
-0.3009658391329427
 10
56.66606008751364
 20
212.00000000000085
 10
35.50000000159844
 20
212.00000000000108
 10
35.35355338711884
 20
211.8535533905942
 42
-0.4142135623730012
 10
34.64644660597514
 20
211.8535533905512
 10
34.50000000159797
 20
212.00000000000108
 10
28.0805792524959
 20
212.00000000000108
 10
15.210903045670179
 20
210.19128496354455
 42
-0.5715470873652189
 10
12.529019227027213
 20
213.56287500926163
 10
14.667902132485779
 20
219.1348554769324
 42
0.091887091667884
 10
14.999999999999773
 20
220.92669522465843
 10
15.0
 20
228.90000000000094
 10
14.000000000000227
 20
229.90000000000094
 10
13.499999999999773
 20
229.90000000000117
 10
13.499999999999773
 20
229.10000000000122
 42
-0.4142140000000796
 10
12.999999999999773
 20
228.60000000000122
 10
10.49999999999909
 20
228.60000000000144
 42
-0.4142135623730951
 10
9.49999999999909
 20
229.60000000000144
 10
9.49999999999909
 20
231.09999813231317
 10
9.49999999999978
 20
231.100000000001
 10
9.499999999998863
 20
231.4394390877082
 42
-0.2882204520473333
 10
10.349800452301693
 20
232.79119370603752
 10
13.213306726973329
 20
234.16855203673907
 42
-0.5525293025908538
 10
13.499999999999773
 20
233.98831808762856
 10
13.499999999999773
 20
233.100000000001
 10
14.000000000000227
 20
233.10000000000122
 10
15.0
 20
234.10000000000167
 10
14.999999999999773
 20
237.00000000000108
 10
13.99999999999978
 20
237.00000000000108
 10
9.211717993439379
 20
235.2572078763398
 42
0.3152987888789615
 10
-2.2737367544323206e-13
 20
222.10151118533753
 10
-2.2737367544323206e-13
 20
167.8984888146644
 42
0.3152987888789811
 10
9.211717993440523
 20
154.7427921236619
 10
13.99999999999978
 20
153.00000000000108
 10
14.999999999999773
 20
153.00000000000108
 10
15.0
 20
155.9000000000005
 10
14.000000000000227
 20
156.90000000000094
 10
13.499999999999773
 20
156.90000000000117
 10
13.499999999999773
 20
156.01168191237383
 42
-0.5525293025908538
 10
13.213306726973329
 20
155.83144796326332
 10
10.349800452301693
 20
157.2088062939651
 42
-0.2882204520472691
 10
9.499999999998863
 20
158.5605609122942
 10
9.49999999999978
 20
158.90000000000117
 10
9.49999999999909
 20
158.900001867689
 10
9.49999999999909
 20
160.40000000000072
 42
-0.4142135623730951
 10
10.49999999999909
 20
161.40000000000072
 10
12.999999999999773
 20
161.40000000000094
 42
-0.4142140000000796
 10
13.499999999999773
 20
160.90000000000094
 10
13.499999999999773
 20
160.100000000001
 10
14.000000000000227
 20
160.10000000000122
 10
15.0
 20
161.10000000000122
 10
14.999999999999773
 20
169.07330477534373
 42
0.0918870916679447
 10
14.667902132485779
 20
170.8651445230709
 10
12.529019227027
 20
176.43712499074076
 42
-0.5715470873651795
 10
15.210903045670179
 20
179.8087150364576
 10
28.0805792524959
 20
178.00000000000108
 10
34.50000000159797
 20
178.00000000000108
 10
34.64644660597491
 20
178.14644660945095
 42
-0.4142135623730951
 10
35.35355338711861
 20
178.14644660940797
 10
35.50000000159844
 20
178.00000000000108
 10
56.66606008751364
 20
178.0000000000013
 42
-0.3009658391331316
 10
56.85016105820432
 20
177.87814622569903
 10
57.95379558034915
 20
175.27814622569866
 42
-0.5373193821396333
 10
57.7696946096587
 20
175.00000000000063
 10
56.99999999999977
 20
175.00000000000108
 42
0.4931454260312746
 10
56.517037086855225
 20
174.37059047744987
 10
56.586387440976296
 20
174.1117714323479
 42
0.3394542588634029
 10
58.03527618040994
 20
173.00000000000153
 10
60.49999999999977
 20
173.0000000000013
 42
0.4142135623730951
 10
60.99999999999977
 20
173.5000000000013
 10
60.99999999999977
 20
174.50000000000108
 10
59.73974757327346
 20
177.4689686610388
 42
-0.1006947051833751
 10
59.700000000000045
 20
177.66433422528343
 10
59.69999999999982
 20
179.00000000000108
 42
-0.4142135623730951
 10
60.69999999999982
 20
180.00000000000108
 10
65.61205979057581
 20
180.0000000000004
 42
-0.3690546425320965
 10
67.58758513339012
 20
178.31192886993284
 10
67.89642540114255
 20
176.35596443496723
 42
-0.4608620707067931
 10
66.90866272973517
 20
175.20000000000067
 10
65.83917730843882
 20
175.20000000000113
 42
0.3394542222102444
 10
65.35621441230705
 20
174.82940958604462
 10
65.01505506584158
 20
173.55618624108837
 42
0.493145466889855
 10
65.44183172088583
 20
173.00000000000108
 10
68.99999999999977
 20
173.0000000000013
 42
0.4142140000000796
 10
70.0
 20
174.00000000000153
  0
LWPOLYLINE
  5
46
330
17
100
AcDbEntity
  8
POST_INT
100
AcDbPolyline
 90
108
 70
1
 10
70.0
 20
216.00000000000085
 42
0.414214000000013
 10
68.99999999999977
 20
217.00000000000085
 10
65.44183172088583
 20
217.00000000000108
 42
0.4931454668898546
 10
65.01505506584158
 20
216.4438137589138
 10
65.35621441230705
 20
215.17059041395754
 42
0.3394542222102445
 10
65.83917730843882
 20
214.80000000000103
 10
66.90866272973494
 20
214.80000000000126
 42
-0.4608620707067141
 10
67.89642540114255
 20
213.64403556503493
 10
67.58758513339012
 20
211.68807113006932
 42
-0.3690546425320968
 10
65.61205979057581
 20
210.00000000000176
 10
60.69999999999982
 20
210.00000000000108
 42
-0.4142135623730951
 10
59.69999999999982
 20
211.00000000000108
 10
59.70000000000005
 20
212.33566577471873
 42
-0.1006947051833751
 10
59.73974757327346
 20
212.53103133896337
 10
60.99999999999977
 20
215.50000000000108
 10
60.99999999999977
 20
216.50000000000085
 42
0.4142135623730951
 10
60.49999999999977
 20
217.00000000000085
 10
58.035276180409944
 20
217.0000000000004
 42
0.3394542588633729
 10
56.58638744097607
 20
215.88822856765427
 10
56.51703708685523
 20
215.6294095225523
 42
0.4931454260312745
 10
56.99999999999977
 20
215.00000000000108
 10
57.7696946096587
 20
215.0000000000013
 42
-0.5373193821397761
 10
57.95379558034893
 20
214.7218537743035
 10
56.85016105820432
 20
212.12185377430313
 42
-0.3009658391329427
 10
56.66606008751364
 20
212.00000000000085
 10
35.50000000159844
 20
212.00000000000108
 10
35.35355338711884
 20
211.8535533905942
 42
-0.4142135623730012
 10
34.64644660597514
 20
211.8535533905512
 10
34.50000000159797
 20
212.00000000000108
 10
28.0805792524959
 20
212.00000000000108
 10
15.210903045670179
 20
210.19128496354455
 42
-0.5715470873652189
 10
12.529019227027213
 20
213.56287500926163
 10
14.667902132485779
 20
219.1348554769324
 42
0.091887091667884
 10
14.999999999999773
 20
220.92669522465843
 10
15.0
 20
228.90000000000094
 10
14.000000000000227
 20
229.90000000000094
 10
13.499999999999773
 20
229.90000000000117
 10
13.499999999999773
 20
229.10000000000122
 42
-0.4142140000000796
 10
12.999999999999773
 20
228.60000000000122
 10
10.49999999999909
 20
228.60000000000144
 42
-0.4142135623730951
 10
9.49999999999909
 20
229.60000000000144
 10
9.49999999999909
 20
231.09999813231317
 10
9.49999999999978
 20
231.100000000001
 10
9.499999999998863
 20
231.4394390877082
 42
-0.2882204520473333
 10
10.349800452301693
 20
232.79119370603752
 10
13.213306726973329
 20
234.16855203673907
 42
-0.5525293025908538
 10
13.499999999999773
 20
233.98831808762856
 10
13.499999999999773
 20
233.100000000001
 10
14.000000000000227
 20
233.10000000000122
 10
15.0
 20
234.10000000000167
 10
14.999999999999773
 20
237.00000000000108
 10
13.99999999999978
 20
237.00000000000108
 10
9.211717993439379
 20
235.2572078763398
 42
0.3152987888789615
 10
-2.2737367544323206e-13
 20
222.10151118533753
 10
-2.2737367544323206e-13
 20
167.8984888146644
 42
0.3152987888789811
 10
9.211717993440523
 20
154.7427921236619
 10
13.99999999999978
 20
153.00000000000108
 10
14.999999999999773
 20
153.00000000000108
 10
15.0
 20
155.9000000000005
 10
14.000000000000227
 20
156.90000000000094
 10
13.499999999999773
 20
156.90000000000117
 10
13.499999999999773
 20
156.01168191237383
 42
-0.5525293025908538
 10
13.213306726973329
 20
155.83144796326332
 10
10.349800452301693
 20
157.2088062939651
 42
-0.2882204520472691
 10
9.499999999998863
 20
158.5605609122942
 10
9.49999999999978
 20
158.90000000000117
 10
9.49999999999909
 20
158.900001867689
 10
9.49999999999909
 20
160.40000000000072
 42
-0.4142135623730951
 10
10.49999999999909
 20
161.40000000000072
 10
12.999999999999773
 20
161.40000000000094
 42
-0.4142140000000796
 10
13.499999999999773
 20
160.90000000000094
 10
13.499999999999773
 20
160.100000000001
 10
14.000000000000227
 20
160.10000000000122
 10
15.0
 20
161.10000000000122
 10
14.999999999999773
 20
169.07330477534373
 42
0.0918870916679447
 10
14.667902132485779
 20
170.8651445230709
 10
12.529019227027
 20
176.43712499074076
 42
-0.5715470873651795
 10
15.210903045670179
 20
179.8087150364576
 10
28.0805792524959
 20
178.00000000000108
 10
34.50000000159797
 20
178.00000000000108
 10
34.64644660597491
 20
178.14644660945095
 42
-0.4142135623730951
 10
35.35355338711861
 20
178.14644660940797
 10
35.50000000159844
 20
178.00000000000108
 10
56.66606008751364
 20
178.0000000000013
 42
-0.3009658391331316
 10
56.85016105820432
 20
177.87814622569903
 10
57.95379558034915
 20
175.27814622569866
 42
-0.5373193821396333
 10
57.7696946096587
 20
175.00000000000063
 10
56.99999999999977
 20
175.00000000000108
 42
0.4931454260312746
 10
56.517037086855225
 20
174.37059047744987
 10
56.586387440976296
 20
174.1117714323479
 42
0.3394542588634029
 10
58.03527618040994
 20
173.00000000000153
 10
60.49999999999977
 20
173.0000000000013
 42
0.4142135623730951
 10
60.99999999999977
 20
173.5000000000013
 10
60.99999999999977
 20
174.50000000000108
 10
59.73974757327346
 20
177.4689686610388
 42
-0.1006947051833751
 10
59.700000000000045
 20
177.66433422528343
 10
59.69999999999982
 20
179.00000000000108
 42
-0.4142135623730951
 10
60.69999999999982
 20
180.00000000000108
 10
65.61205979057581
 20
180.0000000000004
 42
-0.3690546425320965
 10
67.58758513339012
 20
178.31192886993284
 10
67.89642540114255
 20
176.35596443496723
 42
-0.4608620707067931
 10
66.90866272973517
 20
175.20000000000067
 10
65.83917730843882
 20
175.20000000000113
 42
0.3394542222102444
 10
65.35621441230705
 20
174.82940958604462
 10
65.01505506584158
 20
173.55618624108837
 42
0.493145466889855
 10
65.44183172088583
 20
173.00000000000108
 10
68.99999999999977
 20
173.0000000000013
 42
0.4142140000000796
 10
70.0
 20
174.00000000000153
  0
LWPOLYLINE
  5
47
330
17
100
AcDbEntity
  8
0
100
AcDbPolyline
 90
12
 70
1
 10
12.879345011278467
 20
181.92273229847996
 42
0.0930584001182167
 10
11.349734542029182
 20
180.89073717229456
 42
-0.1972789002251599
 10
11.209205111976871
 20
180.8330448646047
 10
2.9999999999997726
 20
180.83304486460423
 42
-0.4142135623730951
 10
2.799999999999727
 20
181.03304486460428
 10
2.799999999999727
 20
208.96695513539788
 42
-0.4142135623730951
 10
2.9999999999997726
 20
209.16695513539793
 10
11.209205111976871
 20
209.16695513539747
 42
-0.1972789002248784
 10
11.349734542026447
 20
209.1092628277051
 42
0.0930584001182298
 10
12.879345011280073
 20
208.07726770152584
 42
-0.2991888898505953
 10
12.99999999999909
 20
207.89368020416754
 10
12.99999999999909
 20
182.10631979583485
 42
-0.2991888898509296
  0
LWPOLYLINE
  5
48
330
17
100
AcDbEntity
  8
POST_EXT
100
AcDbPolyline
 90
12
 70
1
 10
12.879345011278467
 20
181.92273229847996
 42
0.0930584001182167
 10
11.349734542029182
 20
180.89073717229456
 42
-0.1972789002251599
 10
11.209205111976871
 20
180.8330448646047
 10
2.9999999999997726
 20
180.83304486460423
 42
-0.4142135623730951
 10
2.799999999999727
 20
181.03304486460428
 10
2.799999999999727
 20
208.96695513539788
 42
-0.4142135623730951
 10
2.9999999999997726
 20
209.16695513539793
 10
11.209205111976871
 20
209.16695513539747
 42
-0.1972789002248784
 10
11.349734542026447
 20
209.1092628277051
 42
0.0930584001182298
 10
12.879345011280073
 20
208.07726770152584
 42
-0.2991888898505953
 10
12.99999999999909
 20
207.89368020416754
 10
12.99999999999909
 20
182.10631979583485
 42
-0.2991888898509296
  0
LWPOLYLINE
  5
49
330
17
100
AcDbEntity
  8
POST_INT
100
AcDbPolyline
 90
12
 70
1
 10
12.879345011278467
 20
181.92273229847996
 42
0.0930584001182167
 10
11.349734542029182
 20
180.89073717229456
 42
-0.1972789002251599
 10
11.209205111976871
 20
180.8330448646047
 10
2.9999999999997726
 20
180.83304486460423
 42
-0.4142135623730951
 10
2.799999999999727
 20
181.03304486460428
 10
2.799999999999727
 20
208.96695513539788
 42
-0.4142135623730951
 10
2.9999999999997726
 20
209.16695513539793
 10
11.209205111976871
 20
209.16695513539747
 42
-0.1972789002248784
 10
11.349734542026447
 20
209.1092628277051
 42
0.0930584001182298
 10
12.879345011280073
 20
208.07726770152584
 42
-0.2991888898505953
 10
12.99999999999909
 20
207.89368020416754
 10
12.99999999999909
 20
182.10631979583485
 42
-0.2991888898509296
  0
LWPOLYLINE
  5
4A
330
17
100
AcDbEntity
  8
0
100
AcDbPolyline
 90
14
 70
1
 10
12.499999999999773
 20
220.92669522465843
 42
-0.0918870916678773
 10
12.333951066242903
 20
220.0307753507954
 10
10.195068160784103
 20
214.45879488312488
 42
0.2091441109455753
 10
10.378653440823882
 20
210.45541667385936
 42
-0.5557428453044457
 10
10.199280766726588
 20
210.16695513539793
 10
2.9999999999997726
 20
210.16695513539793
 42
-0.4142135623730951
 10
2.799999999999727
 20
210.36695513539797
 10
2.799999999999727
 20
222.10151118533798
 42
-0.2177635796368932
 10
6.672897196267968
 20
230.57225876176489
 42
-0.6423549147334385
 10
7.4999999999990905
 20
230.19410038782502
 10
7.4999999999990905
 20
229.60000000000144
 42
0.4142135623730951
 10
10.49999999999909
 20
226.60000000000144
 10
12.000000000000227
 20
226.600000000001
 42
-0.4142135623729618
 10
12.5
 20
226.100000000001
  0
LWPOLYLINE
  5
4B
330
17
100
AcDbEntity
  8
POST_EXT
100
AcDbPolyline
 90
14
 70
1
 10
12.499999999999773
 20
220.92669522465843
 42
-0.0918870916678773
 10
12.333951066242903
 20
220.0307753507954
 10
10.195068160784103
 20
214.45879488312488
 42
0.2091441109455753
 10
10.378653440823882
 20
210.45541667385936
 42
-0.5557428453044457
 10
10.199280766726588
 20
210.16695513539793
 10
2.9999999999997726
 20
210.16695513539793
 42
-0.4142135623730951
 10
2.799999999999727
 20
210.36695513539797
 10
2.799999999999727
 20
222.10151118533798
 42
-0.2177635796368932
 10
6.672897196267968
 20
230.57225876176489
 42
-0.6423549147334385
 10
7.4999999999990905
 20
230.19410038782502
 10
7.4999999999990905
 20
229.60000000000144
 42
0.4142135623730951
 10
10.49999999999909
 20
226.60000000000144
 10
12.000000000000227
 20
226.600000000001
 42
-0.4142135623729618
 10
12.5
 20
226.100000000001
  0
LWPOLYLINE
  5
4C
330
17
100
AcDbEntity
  8
POST_INT
100
AcDbPolyline
 90
14
 70
1
 10
12.499999999999773
 20
220.92669522465843
 42
-0.0918870916678773
 10
12.333951066242903
 20
220.0307753507954
 10
10.195068160784103
 20
214.45879488312488
 42
0.2091441109455753
 10
10.378653440823882
 20
210.45541667385936
 42
-0.5557428453044457
 10
10.199280766726588
 20
210.16695513539793
 10
2.9999999999997726
 20
210.16695513539793
 42
-0.4142135623730951
 10
2.799999999999727
 20
210.36695513539797
 10
2.799999999999727
 20
222.10151118533798
 42
-0.2177635796368932
 10
6.672897196267968
 20
230.57225876176489
 42
-0.6423549147334385
 10
7.4999999999990905
 20
230.19410038782502
 10
7.4999999999990905
 20
229.60000000000144
 42
0.4142135623730951
 10
10.49999999999909
 20
226.60000000000144
 10
12.000000000000227
 20
226.600000000001
 42
-0.4142135623729618
 10
12.5
 20
226.100000000001
  0
LWPOLYLINE
  5
4D
330
17
100
AcDbEntity
  8
0
100
AcDbPolyline
 90
10
 70
1
 10
20.77216537980712
 20
181.5516995173154
 10
15.558835798070753
 20
182.28438520831145
 42
0.0103664214635234
 10
15.352993144600298
 20
182.30897468777988
 42
-0.3857461938549578
 10
13.99999999999909
 20
183.80175363473285
 10
13.99999999999909
 20
206.1982463652693
 42
-0.385746193854934
 10
15.352993144600077
 20
207.69102531222228
 42
0.0103664214635345
 10
15.558835798070753
 20
207.7156147916907
 10
20.7721653798069
 20
208.44830048268585
 42
-0.4557262555328079
 10
20.999999999999098
 20
208.2502468689376
 10
20.99999999999934
 20
181.74975313106364
 42
-0.4557262555324676
  0
LWPOLYLINE
  5
4E
330
17
100
AcDbEntity
  8
POST_EXT
100
AcDbPolyline
 90
10
 70
1
 10
20.77216537980712
 20
181.5516995173154
 10
15.558835798070753
 20
182.28438520831145
 42
0.0103664214635234
 10
15.352993144600298
 20
182.30897468777988
 42
-0.3857461938549578
 10
13.99999999999909
 20
183.80175363473285
 10
13.99999999999909
 20
206.1982463652693
 42
-0.385746193854934
 10
15.352993144600077
 20
207.69102531222228
 42
0.0103664214635345
 10
15.558835798070753
 20
207.7156147916907
 10
20.7721653798069
 20
208.44830048268585
 42
-0.4557262555328079
 10
20.999999999999098
 20
208.2502468689376
 10
20.99999999999934
 20
181.74975313106364
 42
-0.4557262555324676
  0
LWPOLYLINE
  5
4F
330
17
100
AcDbEntity
  8
POST_INT
100
AcDbPolyline
 90
10
 70
1
 10
20.77216537980712
 20
181.5516995173154
 10
15.558835798070753
 20
182.28438520831145
 42
0.0103664214635234
 10
15.352993144600298
 20
182.30897468777988
 42
-0.3857461938549578
 10
13.99999999999909
 20
183.80175363473285
 10
13.99999999999909
 20
206.1982463652693
 42
-0.385746193854934
 10
15.352993144600077
 20
207.69102531222228
 42
0.0103664214635345
 10
15.558835798070753
 20
207.7156147916907
 10
20.7721653798069
 20
208.44830048268585
 42
-0.4557262555328079
 10
20.999999999999098
 20
208.2502468689376
 10
20.99999999999934
 20
181.74975313106364
 42
-0.4557262555324676
  0
LWPOLYLINE
  5
50
330
17
100
AcDbEntity
  8
0
100
AcDbPolyline
 90
14
 70
1
 10
10.49999999999909
 20
163.40000000000072
 42
0.4142135623730951
 10
7.4999999999990905
 20
160.40000000000072
 10
7.4999999999990905
 20
159.80589961217714
 42
-0.6423549147333733
 10
6.672897196261147
 20
159.42774123822954
 42
-0.2177635796368953
 10
2.7999999999999545
 20
167.8984888146644
 10
2.799999999999727
 20
179.6330448646042
 42
-0.4142135623730951
 10
2.9999999999997726
 20
179.83304486460423
 10
10.199280766726588
 20
179.83304486460423
 42
-0.5557428453041549
 10
10.378653440824557
 20
179.5445833261428
 42
0.2091441109455576
 10
10.195068160784103
 20
175.54120511687773
 10
12.333951066242442
 20
169.96922464920766
 42
-0.0918870916679794
 10
12.499999999999773
 20
169.07330477534373
 10
12.5
 20
163.90000000000117
 42
-0.4142135623729618
 10
12.000000000000227
 20
163.40000000000117
  0
LWPOLYLINE
  5
51
330
17
100
AcDbEntity
  8
POST_EXT
100
AcDbPolyline
 90
14
 70
1
 10
10.49999999999909
 20
163.40000000000072
 42
0.4142135623730951
 10
7.4999999999990905
 20
160.40000000000072
 10
7.4999999999990905
 20
159.80589961217714
 42
-0.6423549147333733
 10
6.672897196261147
 20
159.42774123822954
 42
-0.2177635796368953
 10
2.7999999999999545
 20
167.8984888146644
 10
2.799999999999727
 20
179.6330448646042
 42
-0.4142135623730951
 10
2.9999999999997726
 20
179.83304486460423
 10
10.199280766726588
 20
179.83304486460423
 42
-0.5557428453041549
 10
10.378653440824557
 20
179.5445833261428
 42
0.2091441109455576
 10
10.195068160784103
 20
175.54120511687773
 10
12.333951066242442
 20
169.96922464920766
 42
-0.0918870916679794
 10
12.499999999999773
 20
169.07330477534373
 10
12.5
 20
163.90000000000117
 42
-0.4142135623729618
 10
12.000000000000227
 20
163.40000000000117
  0
LWPOLYLINE
  5
52
330
17
100
AcDbEntity
  8
POST_INT
100
AcDbPolyline
 90
14
 70
1
 10
10.49999999999909
 20
163.40000000000072
 42
0.4142135623730951
 10
7.4999999999990905
 20
160.40000000000072
 10
7.4999999999990905
 20
159.80589961217714
 42
-0.6423549147333733
 10
6.672897196261147
 20
159.42774123822954
 42
-0.2177635796368953
 10
2.7999999999999545
 20
167.8984888146644
 10
2.799999999999727
 20
179.6330448646042
 42
-0.4142135623730951
 10
2.9999999999997726
 20
179.83304486460423
 10
10.199280766726588
 20
179.83304486460423
 42
-0.5557428453041549
 10
10.378653440824557
 20
179.5445833261428
 42
0.2091441109455576
 10
10.195068160784103
 20
175.54120511687773
 10
12.333951066242442
 20
169.96922464920766
 42
-0.0918870916679794
 10
12.499999999999773
 20
169.07330477534373
 10
12.5
 20
163.90000000000117
 42
-0.4142135623729618
 10
12.000000000000227
 20
163.40000000000117
  0
LWPOLYLINE
  5
53
330
17
100
AcDbEntity
  8
0
100
AcDbPolyline
 90
62
 70
1
 10
58.49999999999886
 20
194.70000000000113
 42
0.4142135623730951
 10
58.69999999999891
 20
194.50000000000108
 10
59.30000000000178
 20
194.50000000000085
 42
-0.4142135623730951
 10
59.50000000000182
 20
194.3000000000008
 10
59.50000000000182
 20
182.42490875790344
 42
-0.304618048277597
 10
59.37567567567726
 20
182.23977855477318
 42
0.1781923853543517
 10
57.59130440333638
 20
180.6081081080858
 42
-0.2803707336536108
 10
57.41366465490637
 20
180.50000000000176
 10
50.80812024111242
 20
180.49999925292553
 42
-0.3888787318529866
 10
50.31002289206663
 20
180.9564213815517
 10
50.03993176203722
 20
184.04357712430004
 42
0.3888787318528557
 10
49.54183441299165
 20
184.49999925292622
 10
49.4581655870088
 20
184.49999925292576
 42
0.3888787318531175
 10
48.96006823796279
 20
184.0435771242996
 10
48.68997710793337
 20
180.9564213815517
 42
-0.3888787318529981
 10
48.19187975888758
 20
180.49999925292553
 10
40.30978147735663
 20
180.49999925292553
 42
-0.3635075116083591
 10
38.34073630023272
 20
182.14948378900766
 42
0.3635075116084014
 10
35.53484692283519
 20
184.49999925292553
 10
34.43484692283504
 20
184.499999252926
 42
0.3635075116083639
 10
31.628957545433423
 20
182.1494837890088
 42
-0.3635075116084183
 10
29.65991236831337
 20
180.49999925292553
 10
28.29035968832818
 20
180.50000000000108
 42
-0.0349207694915853
 10
28.22077313784849
 20
180.50486596563036
 10
22.172165379806977
 20
181.35494234873266
 42
-0.3738846794845943
 10
21.99999999999909
 20
181.5529959624809
 10
21.99999999999909
 20
186.95541532757937
 42
-0.1989123673794489
 10
22.058578643761862
 20
187.09683668381643
 10
22.49999999999887
 20
187.5382580400539
 10
22.058578643761606
 20
187.97967939629137
 42
-0.1989123673794491
 10
21.99999999999909
 20
188.12110075252866
 10
21.999999999998863
 20
200.05692651291605
 42
-0.1989123673794489
 10
22.058578643761606
 20
200.19834786915334
 10
22.49999999999887
 20
200.63976922539058
 10
22.058578643761606
 20
201.08119058162805
 42
-0.198912367379449
 10
21.99999999999909
 20
201.22261193786534
 10
21.999999999998863
 20
208.44700403752148
 42
-0.3738846794845943
 10
22.172165379806977
 20
208.64505765126972
 10
28.220773137848248
 20
209.49513403437203
 42
-0.0349207694916844
 10
28.29035968832818
 20
209.50000000000108
 10
29.65991236831337
 20
209.50000000000108
 42
-0.363507511608362
 10
31.628957545437068
 20
207.85051546391895
 42
0.3635075116083921
 10
34.43484692283504
 20
205.50000000000085
 10
35.53484692283496
 20
205.50000000000108
 42
0.3635075116083841
 10
38.34073630023636
 20
207.85051546391827
 42
-0.3635075116083999
 10
40.30978147735663
 20
209.5000000000013
 10
48.19187975888758
 20
209.5000000000013
 42
-0.3888787318529922
 10
48.68997710793337
 20
209.04357787137513
 10
48.96006823796279
 20
205.95642212862725
 42
0.388878731853052
 10
49.45816558700858
 20
205.50000000000108
 10
49.54183441299142
 20
205.50000000000063
 42
0.3888787318528614
 10
50.039931762036986
 20
205.9564221286268
 10
50.3100228920664
 20
209.04357787137513
 42
-0.3888787318529981
 10
50.80812024111242
 20
209.5000000000013
 10
57.41366465490637
 20
209.5000000000013
 42
-0.2803707336535193
 10
57.59130440328704
 20
209.39189189189182
 42
0.1781923853543347
 10
59.37567567567453
 20
207.76022144522307
 42
-0.3046180482774058
 10
59.50000000000159
 20
207.57509124209986
 10
59.50000000000182
 20
195.70000000000158
 42
-0.4142135623730951
 10
59.30000000000178
 20
195.50000000000153
 10
58.69999999999891
 20
195.500000000002
 42
0.4142135623730951
 10
58.49999999999886
 20
195.30000000000194
  0
LWPOLYLINE
  5
54
330
17
100
AcDbEntity
  8
POST_EXT
100
AcDbPolyline
 90
62
 70
1
 10
58.49999999999886
 20
194.70000000000113
 42
0.4142135623730951
 10
58.69999999999891
 20
194.50000000000108
 10
59.30000000000178
 20
194.50000000000085
 42
-0.4142135623730951
 10
59.50000000000182
 20
194.3000000000008
 10
59.50000000000182
 20
182.42490875790344
 42
-0.304618048277597
 10
59.37567567567726
 20
182.23977855477318
 42
0.1781923853543517
 10
57.59130440333638
 20
180.6081081080858
 42
-0.2803707336536108
 10
57.41366465490637
 20
180.50000000000176
 10
50.80812024111242
 20
180.49999925292553
 42
-0.3888787318529866
 10
50.31002289206663
 20
180.9564213815517
 10
50.03993176203722
 20
184.04357712430004
 42
0.3888787318528557
 10
49.54183441299165
 20
184.49999925292622
 10
49.4581655870088
 20
184.49999925292576
 42
0.3888787318531175
 10
48.96006823796279
 20
184.0435771242996
 10
48.68997710793337
 20
180.9564213815517
 42
-0.3888787318529981
 10
48.19187975888758
 20
180.49999925292553
 10
40.30978147735663
 20
180.49999925292553
 42
-0.3635075116083591
 10
38.34073630023272
 20
182.14948378900766
 42
0.3635075116084014
 10
35.53484692283519
 20
184.49999925292553
 10
34.43484692283504
 20
184.499999252926
 42
0.3635075116083639
 10
31.628957545433423
 20
182.1494837890088
 42
-0.3635075116084183
 10
29.65991236831337
 20
180.49999925292553
 10
28.29035968832818
 20
180.50000000000108
 42
-0.0349207694915853
 10
28.22077313784849
 20
180.50486596563036
 10
22.172165379806977
 20
181.35494234873266
 42
-0.3738846794845943
 10
21.99999999999909
 20
181.5529959624809
 10
21.99999999999909
 20
186.95541532757937
 42
-0.1989123673794489
 10
22.058578643761862
 20
187.09683668381643
 10
22.49999999999887
 20
187.5382580400539
 10
22.058578643761606
 20
187.97967939629137
 42
-0.1989123673794491
 10
21.99999999999909
 20
188.12110075252866
 10
21.999999999998863
 20
200.05692651291605
 42
-0.1989123673794489
 10
22.058578643761606
 20
200.19834786915334
 10
22.49999999999887
 20
200.63976922539058
 10
22.058578643761606
 20
201.08119058162805
 42
-0.198912367379449
 10
21.99999999999909
 20
201.22261193786534
 10
21.999999999998863
 20
208.44700403752148
 42
-0.3738846794845943
 10
22.172165379806977
 20
208.64505765126972
 10
28.220773137848248
 20
209.49513403437203
 42
-0.0349207694916844
 10
28.29035968832818
 20
209.50000000000108
 10
29.65991236831337
 20
209.50000000000108
 42
-0.363507511608362
 10
31.628957545437068
 20
207.85051546391895
 42
0.3635075116083921
 10
34.43484692283504
 20
205.50000000000085
 10
35.53484692283496
 20
205.50000000000108
 42
0.3635075116083841
 10
38.34073630023636
 20
207.85051546391827
 42
-0.3635075116083999
 10
40.30978147735663
 20
209.5000000000013
 10
48.19187975888758
 20
209.5000000000013
 42
-0.3888787318529922
 10
48.68997710793337
 20
209.04357787137513
 10
48.96006823796279
 20
205.95642212862725
 42
0.388878731853052
 10
49.45816558700858
 20
205.50000000000108
 10
49.54183441299142
 20
205.50000000000063
 42
0.3888787318528614
 10
50.039931762036986
 20
205.9564221286268
 10
50.3100228920664
 20
209.04357787137513
 42
-0.3888787318529981
 10
50.80812024111242
 20
209.5000000000013
 10
57.41366465490637
 20
209.5000000000013
 42
-0.2803707336535193
 10
57.59130440328704
 20
209.39189189189182
 42
0.1781923853543347
 10
59.37567567567453
 20
207.76022144522307
 42
-0.3046180482774058
 10
59.50000000000159
 20
207.57509124209986
 10
59.50000000000182
 20
195.70000000000158
 42
-0.4142135623730951
 10
59.30000000000178
 20
195.50000000000153
 10
58.69999999999891
 20
195.500000000002
 42
0.4142135623730951
 10
58.49999999999886
 20
195.30000000000194
  0
LWPOLYLINE
  5
55
330
17
100
AcDbEntity
  8
POST_INT
100
AcDbPolyline
 90
62
 70
1
 10
58.49999999999886
 20
194.70000000000113
 42
0.4142135623730951
 10
58.69999999999891
 20
194.50000000000108
 10
59.30000000000178
 20
194.50000000000085
 42
-0.4142135623730951
 10
59.50000000000182
 20
194.3000000000008
 10
59.50000000000182
 20
182.42490875790344
 42
-0.304618048277597
 10
59.37567567567726
 20
182.23977855477318
 42
0.1781923853543517
 10
57.59130440333638
 20
180.6081081080858
 42
-0.2803707336536108
 10
57.41366465490637
 20
180.50000000000176
 10
50.80812024111242
 20
180.49999925292553
 42
-0.3888787318529866
 10
50.31002289206663
 20
180.9564213815517
 10
50.03993176203722
 20
184.04357712430004
 42
0.3888787318528557
 10
49.54183441299165
 20
184.49999925292622
 10
49.4581655870088
 20
184.49999925292576
 42
0.3888787318531175
 10
48.96006823796279
 20
184.0435771242996
 10
48.68997710793337
 20
180.9564213815517
 42
-0.3888787318529981
 10
48.19187975888758
 20
180.49999925292553
 10
40.30978147735663
 20
180.49999925292553
 42
-0.3635075116083591
 10
38.34073630023272
 20
182.14948378900766
 42
0.3635075116084014
 10
35.53484692283519
 20
184.49999925292553
 10
34.43484692283504
 20
184.499999252926
 42
0.3635075116083639
 10
31.628957545433423
 20
182.1494837890088
 42
-0.3635075116084183
 10
29.65991236831337
 20
180.49999925292553
 10
28.29035968832818
 20
180.50000000000108
 42
-0.0349207694915853
 10
28.22077313784849
 20
180.50486596563036
 10
22.172165379806977
 20
181.35494234873266
 42
-0.3738846794845943
 10
21.99999999999909
 20
181.5529959624809
 10
21.99999999999909
 20
186.95541532757937
 42
-0.1989123673794489
 10
22.058578643761862
 20
187.09683668381643
 10
22.49999999999887
 20
187.5382580400539
 10
22.058578643761606
 20
187.97967939629137
 42
-0.1989123673794491
 10
21.99999999999909
 20
188.12110075252866
 10
21.999999999998863
 20
200.05692651291605
 42
-0.1989123673794489
 10
22.058578643761606
 20
200.19834786915334
 10
22.49999999999887
 20
200.63976922539058
 10
22.058578643761606
 20
201.08119058162805
 42
-0.198912367379449
 10
21.99999999999909
 20
201.22261193786534
 10
21.999999999998863
 20
208.44700403752148
 42
-0.3738846794845943
 10
22.172165379806977
 20
208.64505765126972
 10
28.220773137848248
 20
209.49513403437203
 42
-0.0349207694916844
 10
28.29035968832818
 20
209.50000000000108
 10
29.65991236831337
 20
209.50000000000108
 42
-0.363507511608362
 10
31.628957545437068
 20
207.85051546391895
 42
0.3635075116083921
 10
34.43484692283504
 20
205.50000000000085
 10
35.53484692283496
 20
205.50000000000108
 42
0.3635075116083841
 10
38.34073630023636
 20
207.85051546391827
 42
-0.3635075116083999
 10
40.30978147735663
 20
209.5000000000013
 10
48.19187975888758
 20
209.5000000000013
 42
-0.3888787318529922
 10
48.68997710793337
 20
209.04357787137513
 10
48.96006823796279
 20
205.95642212862725
 42
0.388878731853052
 10
49.45816558700858
 20
205.50000000000108
 10
49.54183441299142
 20
205.50000000000063
 42
0.3888787318528614
 10
50.039931762036986
 20
205.9564221286268
 10
50.3100228920664
 20
209.04357787137513
 42
-0.3888787318529981
 10
50.80812024111242
 20
209.5000000000013
 10
57.41366465490637
 20
209.5000000000013
 42
-0.2803707336535193
 10
57.59130440328704
 20
209.39189189189182
 42
0.1781923853543347
 10
59.37567567567453
 20
207.76022144522307
 42
-0.3046180482774058
 10
59.50000000000159
 20
207.57509124209986
 10
59.50000000000182
 20
195.70000000000158
 42
-0.4142135623730951
 10
59.30000000000178
 20
195.50000000000153
 10
58.69999999999891
 20
195.500000000002
 42
0.4142135623730951
 10
58.49999999999886
 20
195.30000000000194
  0
LWPOLYLINE
  5
56
330
17
100
AcDbEntity
  8
0
100
AcDbPolyline
 90
4
 70
1
 10
35.53484692283496
 20
182.79999925292572
 10
34.43484692283504
 20
182.79999925292594
 42
0.9999999999999998
 10
34.43484692283504
 20
180.49999925292576
 10
35.53484692283496
 20
180.499999252926
 42
0.9999999999999998
  0
LWPOLYLINE
  5
57
330
17
100
AcDbEntity
  8
POST_EXT
100
AcDbPolyline
 90
4
 70
1
 10
35.53484692283496
 20
182.79999925292572
 10
34.43484692283504
 20
182.79999925292594
 42
0.9999999999999998
 10
34.43484692283504
 20
180.49999925292576
 10
35.53484692283496
 20
180.499999252926
 42
0.9999999999999998
  0
LWPOLYLINE
  5
58
330
17
100
AcDbEntity
  8
POST_INT
100
AcDbPolyline
 90
4
 70
1
 10
35.53484692283496
 20
182.79999925292572
 10
34.43484692283504
 20
182.79999925292594
 42
0.9999999999999998
 10
34.43484692283504
 20
180.49999925292576
 10
35.53484692283496
 20
180.499999252926
 42
0.9999999999999998
  0
LWPOLYLINE
  5
59
330
17
100
AcDbEntity
  8
0
100
AcDbPolyline
 90
4
 70
1
 10
35.53484692283496
 20
209.50000000000085
 10
34.43484692283504
 20
209.50000000000108
 42
0.9999999999999998
 10
34.43484692283504
 20
207.2000000000009
 10
35.53484692283496
 20
207.20000000000113
 42
0.9999999999999998
  0
LWPOLYLINE
  5
5A
330
17
100
AcDbEntity
  8
POST_EXT
100
AcDbPolyline
 90
4
 70
1
 10
35.53484692283496
 20
209.50000000000085
 10
34.43484692283504
 20
209.50000000000108
 42
0.9999999999999998
 10
34.43484692283504
 20
207.2000000000009
 10
35.53484692283496
 20
207.20000000000113
 42
0.9999999999999998
  0
LWPOLYLINE
  5
5B
330
17
100
AcDbEntity
  8
POST_INT
100
AcDbPolyline
 90
4
 70
1
 10
35.53484692283496
 20
209.50000000000085
 10
34.43484692283504
 20
209.50000000000108
 42
0.9999999999999998
 10
34.43484692283504
 20
207.2000000000009
 10
35.53484692283496
 20
207.20000000000113
 42
0.9999999999999998
  0
LWPOLYLINE
  5
5C
330
17
100
AcDbEntity
  8
0
100
AcDbPolyline
 90
21
 70
1
 10
65.07285406091728
 20
205.21317591116866
 10
65.44694122354508
 20
207.3347296355352
 42
-0.3639702342660116
 10
65.64390277414736
 20
207.50000000000176
 10
66.16655205826919
 20
207.50000000000176
 42
0.033452595219282
 10
66.63331900728372
 20
207.53126411854458
 42
-0.4539564130904736
 10
67.19999999999982
 20
207.03573042119336
 10
67.19999999999982
 20
195.70000000000158
 42
-0.4142135623730951
 10
66.99999999999977
 20
195.50000000000153
 10
60.700000000001864
 20
195.50000000000063
 42
-0.4142135623730951
 10
60.50000000000182
 20
195.70000000000067
 10
60.50000000000182
 20
205.34963044924638
 42
-0.916331174017719
 10
60.896961550604374
 20
205.38436008477964
 10
60.927145939082266
 20
205.21317591116866
 42
0.3639702342664366
 10
61.419549815588425
 20
204.80000000000172
 10
61.99999999999977
 20
204.80000000000172
 10
61.99999999999977
 20
207.00000000000153
 42
-0.4142135623730951
 10
62.49999999999977
 20
207.50000000000153
 10
63.49999999999977
 20
207.50000000000153
 42
-0.4142135623730951
 10
63.99999999999977
 20
207.00000000000153
 10
63.99999999999977
 20
204.80000000000172
 10
64.58045018441112
 20
204.80000000000172
 42
0.3639702342664368
  0
LWPOLYLINE
  5
5D
330
17
100
AcDbEntity
  8
POST_EXT
100
AcDbPolyline
 90
21
 70
1
 10
65.07285406091728
 20
205.21317591116866
 10
65.44694122354508
 20
207.3347296355352
 42
-0.3639702342660116
 10
65.64390277414736
 20
207.50000000000176
 10
66.16655205826919
 20
207.50000000000176
 42
0.033452595219282
 10
66.63331900728372
 20
207.53126411854458
 42
-0.4539564130904736
 10
67.19999999999982
 20
207.03573042119336
 10
67.19999999999982
 20
195.70000000000158
 42
-0.4142135623730951
 10
66.99999999999977
 20
195.50000000000153
 10
60.700000000001864
 20
195.50000000000063
 42
-0.4142135623730951
 10
60.50000000000182
 20
195.70000000000067
 10
60.50000000000182
 20
205.34963044924638
 42
-0.916331174017719
 10
60.896961550604374
 20
205.38436008477964
 10
60.927145939082266
 20
205.21317591116866
 42
0.3639702342664366
 10
61.419549815588425
 20
204.80000000000172
 10
61.99999999999977
 20
204.80000000000172
 10
61.99999999999977
 20
207.00000000000153
 42
-0.4142135623730951
 10
62.49999999999977
 20
207.50000000000153
 10
63.49999999999977
 20
207.50000000000153
 42
-0.4142135623730951
 10
63.99999999999977
 20
207.00000000000153
 10
63.99999999999977
 20
204.80000000000172
 10
64.58045018441112
 20
204.80000000000172
 42
0.3639702342664368
  0
LWPOLYLINE
  5
5E
330
17
100
AcDbEntity
  8
POST_INT
100
AcDbPolyline
 90
21
 70
1
 10
65.07285406091728
 20
205.21317591116866
 10
65.44694122354508
 20
207.3347296355352
 42
-0.3639702342660116
 10
65.64390277414736
 20
207.50000000000176
 10
66.16655205826919
 20
207.50000000000176
 42
0.033452595219282
 10
66.63331900728372
 20
207.53126411854458
 42
-0.4539564130904736
 10
67.19999999999982
 20
207.03573042119336
 10
67.19999999999982
 20
195.70000000000158
 42
-0.4142135623730951
 10
66.99999999999977
 20
195.50000000000153
 10
60.700000000001864
 20
195.50000000000063
 42
-0.4142135623730951
 10
60.50000000000182
 20
195.70000000000067
 10
60.50000000000182
 20
205.34963044924638
 42
-0.916331174017719
 10
60.896961550604374
 20
205.38436008477964
 10
60.927145939082266
 20
205.21317591116866
 42
0.3639702342664366
 10
61.419549815588425
 20
204.80000000000172
 10
61.99999999999977
 20
204.80000000000172
 10
61.99999999999977
 20
207.00000000000153
 42
-0.4142135623730951
 10
62.49999999999977
 20
207.50000000000153
 10
63.49999999999977
 20
207.50000000000153
 42
-0.4142135623730951
 10
63.99999999999977
 20
207.00000000000153
 10
63.99999999999977
 20
204.80000000000172
 10
64.58045018441112
 20
204.80000000000172
 42
0.3639702342664368
  0
LWPOLYLINE
  5
5F
330
17
100
AcDbEntity
  8
0
100
AcDbPolyline
 90
21
 70
1
 10
63.99999999999977
 20
185.2000000000009
 10
63.99999999999977
 20
183.00000000000108
 42
-0.4142135623730951
 10
63.49999999999977
 20
182.50000000000108
 10
62.49999999999977
 20
182.50000000000108
 42
-0.4142135623730951
 10
61.99999999999977
 20
183.00000000000108
 10
61.99999999999977
 20
185.2000000000009
 10
61.419549815588425
 20
185.20000000000067
 42
0.3639702342663098
 10
60.927145939082266
 20
184.78682408883395
 10
60.896961550604374
 20
184.61563991522274
 42
-0.9163311740176284
 10
60.500000000002046
 20
184.650369550756
 10
60.50000000000182
 20
194.30000000000172
 42
-0.4142135623730951
 10
60.700000000001864
 20
194.50000000000176
 10
66.99999999999977
 20
194.50000000000153
 42
-0.4142135623730951
 10
67.19999999999982
 20
194.3000000000015
 10
67.19999999999982
 20
182.9642695788097
 42
-0.4539564130906096
 10
66.63331900728349
 20
182.46873588145849
 42
0.0334525952192573
 10
66.16655205826942
 20
182.5000000000013
 10
65.64390277414736
 20
182.50000000000063
 42
-0.3639702342663844
 10
65.44694122354485
 20
182.6652703644674
 10
65.07285406091728
 20
184.78682408883395
 42
0.3639702342664368
 10
64.58045018441112
 20
185.2000000000009
  0
LWPOLYLINE
  5
60
330
17
100
AcDbEntity
  8
POST_EXT
100
AcDbPolyline
 90
21
 70
1
 10
63.99999999999977
 20
185.2000000000009
 10
63.99999999999977
 20
183.00000000000108
 42
-0.4142135623730951
 10
63.49999999999977
 20
182.50000000000108
 10
62.49999999999977
 20
182.50000000000108
 42
-0.4142135623730951
 10
61.99999999999977
 20
183.00000000000108
 10
61.99999999999977
 20
185.2000000000009
 10
61.419549815588425
 20
185.20000000000067
 42
0.3639702342663098
 10
60.927145939082266
 20
184.78682408883395
 10
60.896961550604374
 20
184.61563991522274
 42
-0.9163311740176284
 10
60.500000000002046
 20
184.650369550756
 10
60.50000000000182
 20
194.30000000000172
 42
-0.4142135623730951
 10
60.700000000001864
 20
194.50000000000176
 10
66.99999999999977
 20
194.50000000000153
 42
-0.4142135623730951
 10
67.19999999999982
 20
194.3000000000015
 10
67.19999999999982
 20
182.9642695788097
 42
-0.4539564130906096
 10
66.63331900728349
 20
182.46873588145849
 42
0.0334525952192573
 10
66.16655205826942
 20
182.5000000000013
 10
65.64390277414736
 20
182.50000000000063
 42
-0.3639702342663844
 10
65.44694122354485
 20
182.6652703644674
 10
65.07285406091728
 20
184.78682408883395
 42
0.3639702342664368
 10
64.58045018441112
 20
185.2000000000009
  0
LWPOLYLINE
  5
61
330
17
100
AcDbEntity
  8
POST_INT
100
AcDbPolyline
 90
21
 70
1
 10
63.99999999999977
 20
185.2000000000009
 10
63.99999999999977
 20
183.00000000000108
 42
-0.4142135623730951
 10
63.49999999999977
 20
182.50000000000108
 10
62.49999999999977
 20
182.50000000000108
 42
-0.4142135623730951
 10
61.99999999999977
 20
183.00000000000108
 10
61.99999999999977
 20
185.2000000000009
 10
61.419549815588425
 20
185.20000000000067
 42
0.3639702342663098
 10
60.927145939082266
 20
184.78682408883395
 10
60.896961550604374
 20
184.61563991522274
 42
-0.9163311740176284
 10
60.500000000002046
 20
184.650369550756
 10
60.50000000000182
 20
194.30000000000172
 42
-0.4142135623730951
 10
60.700000000001864
 20
194.50000000000176
 10
66.99999999999977
 20
194.50000000000153
 42
-0.4142135623730951
 10
67.19999999999982
 20
194.3000000000015
 10
67.19999999999982
 20
182.9642695788097
 42
-0.4539564130906096
 10
66.63331900728349
 20
182.46873588145849
 42
0.0334525952192573
 10
66.16655205826942
 20
182.5000000000013
 10
65.64390277414736
 20
182.50000000000063
 42
-0.3639702342663844
 10
65.44694122354485
 20
182.6652703644674
 10
65.07285406091728
 20
184.78682408883395
 42
0.3639702342664368
 10
64.58045018441112
 20
185.2000000000009
  0
LWPOLYLINE
  5
62
330
17
100
AcDbEntity
  8
GLS_EXT
100
AcDbPolyline
 90
4
 70
1
 10
-19.0
 20
169.0000000000013
 10
-23.0
 20
169.0000000000013
 10
-22.999999999999996
 20
129.99999999999994
 10
-18.999999999999996
 20
129.99999999999994
210
0.0
220
-0.0
230
-1.0
  0
LWPOLYLINE
  5
63
330
17
100
AcDbEntity
  8
GLS_INT
100
AcDbPolyline
 90
4
 70
1
 10
-39.0
 20
169.0000000000013
 10
-43.0
 20
169.0000000000013
 10
-43.0
 20
129.99999999999994
 10
-39.0
 20
129.99999999999994
210
0.0
220
-0.0
230
-1.0
  0
LWPOLYLINE
  5
64
330
17
100
AcDbEntity
  8
SPACER
 62
3
100
AcDbPolyline
 90
4
 70
1
 10
23.0
 20
169.0000000000013
 10
39.0
 20
169.0000000000013
 10
39.0
 20
155.0000000000013
 10
23.0
 20
155.0000000000013
1001
AcDbBlockRepETag
1070
1
1071
8
1005
331
  0
LWPOLYLINE
  5
65
330
17
100
AcDbEntity
  8
BZD
100
AcDbPolyline
 90
41
 70
1
 10
58.035275806871596
 20
172.27718806960814
 10
58.035275806871596
 20
173.00000000000176
 10
59.5352758068716
 20
173.00000000000222
 42
0.4142135623730951
 10
60.035275806871596
 20
172.50000000000222
 10
62.0040786588811
 20
172.50000000000222
 42
0.3394542588634029
 10
62.97000448517019
 20
173.2411809548998
 10
63.40739044905922
 20
174.87352759465188
 42
0.2493293434598935
 10
63.30178066992448
 20
175.3309685368153
 10
62.107051832202615
 20
176.70533283319486
 42
0.2171199618910894
 10
61.35234556418345
 20
177.04926999396952
 10
60.5512500678965
 20
177.04926999396997
 42
-0.9999999999999998
 10
60.551250067896945
 20
178.7492699939698
 10
61.67135180905552
 20
178.74926999396934
 42
-0.2171199618911793
 10
63.18076434509521
 20
178.0613956724191
 10
65.33607451127864
 20
175.58202023047755
 42
-0.2493293434599847
 10
65.44168429041338
 20
175.12457928831412
 10
64.78301610396556
 20
172.6663961511594
 42
0.6068148963146447
 10
65.43698908877286
 20
172.06714031821542
 10
67.99999999999955
 20
173.00000000000176
 10
68.99999999999955
 20
173.00000000000176
 10
68.08231798901943
 20
167.79556669493917
 42
-0.2679491924310402
 10
59.083291453410766
 20
157.07094449127493
 10
47.89846338779
 20
153.00000000000176
 10
46.89846338779
 20
153.00000000000176
 10
46.89846338779
 20
155.9000000000005
 10
47.89846338778955
 20
156.9000000000014
 10
48.398463387789995
 20
156.9000000000014
 10
48.398463387789995
 20
155.811579110963
 42
0.5205670505518223
 10
49.06947345945275
 20
155.34173280057024
 10
52.06947345945275
 20
156.43364350336964
 42
0.3152987888789177
 10
52.39846338779
 20
156.9034898137624
 10
52.398463387790805
 20
160.4000000000014
 42
0.4142135623730951
 10
51.3984633877908
 20
161.4000000000014
 10
48.89846338778989
 20
161.4000000000014
 42
0.4142140000000189
 10
48.39846338778989
 20
160.9000000000014
 10
48.39846338778989
 20
160.10000000000122
 10
47.898463387789434
 20
160.10000000000122
 10
46.89846338778989
 20
161.10000000000122
 10
46.89846338778989
 20
163.3222670769864
 42
-0.3152987888789177
 10
48.214423101137974
 20
165.20165231855793
 10
54.74537652350091
 20
167.57872496567865
 42
0.3152987888789177
  0
LWPOLYLINE
  5
66
330
17
100
AcDbEntity
  8
BZD
100
AcDbPolyline
 90
18
 70
1
 10
55.361012781487716
 20
165.8872782482644
 42
0.2464548693755317
 10
59.615088878967526
 20
170.56077904601256
 42
-0.3668464132890396
 10
59.826745833973746
 20
170.70947271345807
 42
0.0227013688753496
 10
60.035275806871596
 20
170.70000000000203
 10
62.0040786588811
 20
170.70000000000203
 42
0.1232628537082183
 10
63.32325602299716
 20
171.03022853648503
 42
-0.3432941107079666
 10
63.56536266074045
 20
170.98846991625163
 42
0.3042054877104454
 10
66.05262534675967
 20
170.37569360080073
 10
66.42902455388958
 20
170.512691708398
 42
-0.5773502691897351
 10
66.69439013315696
 20
170.2900235487072
 10
66.30966403359707
 20
168.10813341473926
 42
-0.2679491924310402
 10
58.46765519542441
 20
158.76239120868962
 10
54.466867416454996
 20
157.3062235435272
 42
-0.5205670505518223
 10
54.19846338779007
 20
157.4941620676845
 10
54.198463387790525
 20
160.40000000000094
 42
0.4142135623730951
 10
51.3984633877908
 20
163.20000000000158
 10
49.11203283852183
 20
163.20000000000158
 42
-0.8390996311771779
 10
49.04362880985673
 20
163.5879385241587
  0
LWPOLYLINE
  5
67
330
17
100
AcDbEntity
  8
GSK_BZD
347
491
100
AcDbPolyline
 90
33
 70
1
 10
49.069473459452745
 20
155.34173280057
 42
-0.5337481849688936
 10
48.39846338779045
 20
155.83306295158212
 10
48.398463387789995
 20
156.9000000000014
 10
47.898463387789995
 20
156.9000000000014
 10
46.898463387789995
 20
155.9000000000005
 10
46.898463387789995
 20
153.21087055451966
 42
-0.2075133254383016
 10
46.803472235202314
 20
152.99184687433257
 42
0.161228174486363
 10
43.94699537054395
 20
148.86927665669185
 42
-0.941095309667078
 10
43.001849476349996
 20
149.00790497435486
 42
-0.1085807304372004
 10
44.53493372837294
 20
153.3658949326247
 42
0.1390430086413624
 10
45.54846338778918
 20
156.15505966073118
 10
45.620460335280875
 20
160.140489702715
 42
0.8399780497293138
 10
44.82394580467791
 20
160.2645561758115
 42
-0.0657473970983625
 10
44.60815885376871
 20
159.75452999914472
 42
-0.3140963318641297
 10
43.77834873799076
 20
159.3728832467081
 42
-0.451051254984801
 10
43.045917643092814
 20
160.60855464853324
 42
-0.223054966404159
 10
45.22228515908511
 20
162.93261641845305
 42
-0.0994163557827123
 10
45.37671151451479
 20
162.96362793523298
 10
46.648463387789995
 20
162.96362793523343
 42
-0.4142135623730951
 10
46.898463387789995
 20
162.71362793523343
 10
46.898463387789995
 20
161.10000000000122
 10
47.898463387789995
 20
160.10000000000122
 10
48.398463387789995
 20
160.10000000000122
 10
48.39846338779045
 20
160.9000000000005
 42
-0.4142135623729619
 10
48.89846338779045
 20
161.40000000000026
 10
49.398463387789995
 20
161.4000000000005
 42
-0.4142135623733615
 10
49.89846338779045
 20
160.9000000000005
 10
49.89846338779045
 20
160.36908693193158
 42
-0.2156416552380446
 10
49.72862113529083
 20
159.99359277510388
 42
0.4523166325164124
 10
49.728621135291284
 20
156.9761526296915
 42
-0.2156416552372918
 10
49.898463387789995
 20
156.6006584728638
 10
49.89846338779045
 20
155.99353100459933
 42
-0.3183729929591983
 10
49.5642123547351
 20
155.52180303218682
  0
LWPOLYLINE
  5
68
330
17
100
AcDbEntity
  8
GSK_FRM_EXT
 62
6
100
AcDbPolyline
 90
8
 70
1
 10
31.029430027741228
 20
282.2564742995241
 42
-0.1973171029117989
 10
31.39204387624227
 20
282.3695832932621
 10
33.361834990980014
 20
282.1972489463564
 42
-0.9163312066386604
 10
33.36183498746482
 20
280.80257636470077
 10
31.392043862816763
 20
280.6302420674164
 42
-0.1973171068159639
 10
31.02943000909886
 20
280.7433510677774
 10
30.581043688853924
 20
281.1149243335814
 42
-0.4700505917641017
 10
30.58104369394437
 20
281.88490104285
  0
LWPOLYLINE
  5
69
330
17
100
AcDbEntity
  8
GSK_FRM_EXT
 62
6
100
AcDbPolyline
 90
31
 70
1
 10
36.09999540808235
 20
280.421717957457
 42
0.1826758888702128
 10
35.97499557992455
 20
280.75243708181137
 42
-0.4362879657284912
 10
36.07750584250721
 20
281.77356500444915
 10
36.809920396766984
 20
283.0230168057439
 42
0.2073074163340437
 10
37.9564672543454
 20
285.0199475167919
 42
0.0916074222265504
 10
37.86448647344628
 20
286.8345190859158
 42
0.4268639712463462
 10
36.66979995660563
 20
287.5744201074651
 42
-0.0527154374469259
 10
34.25611255700801
 20
286.95252969842994
 42
0.3718316879017271
 10
34.000004556500016
 20
286.65575859536733
 10
33.99999693606719
 20
283.30342361958077
 42
-0.4589973865408548
 10
33.65503213488296
 20
283.00681316442723
 10
32.41667065877459
 20
283.1069573546818
 42
0.1730044290472394
 10
32.23622257430043
 20
283.05858218532074
 10
32.05457801327498
 20
282.9421151322285
 42
-0.6935273263148176
 10
31.8888694122968
 20
283.0294527270275
 42
-0.1940731523186352
 10
32.31876099137389
 20
283.81674141127
 42
0.9442779230106229
 10
32.15607618387776
 20
284.0795123475382
 42
0.1848969568933989
 10
29.87110234620036
 20
281.9561302630629
 42
0.2413739550731988
 10
29.87110234620036
 20
281.043788725429
 42
0.1155441180481
 10
31.903123909394026
 20
278.64959364140736
 42
0.8046084068019029
 10
32.22678562050271
 20
278.93239008715193
 42
-0.0941294090166279
 10
31.8888694122968
 20
279.9704662614644
 42
-0.6935273263667959
 10
32.054578013275886
 20
280.05780385626275
 10
32.308630018615645
 20
279.93355278439617
 42
0.1102863192832164
 10
32.476751109127235
 20
279.90058695999807
 10
33.769756702767836
 20
280.0104975088006
 42
-0.4865963738769969
 10
34.13038928784613
 20
279.63578487557896
 42
-0.0904941723492964
 10
34.079879312652565
 20
277.9395532010141
 42
0.9312118644052843
 10
34.68284531199629
 20
277.4168751974568
 10
36.02623891988219
 20
279.607653112745
 42
0.1383914179832654
 10
36.099995408081895
 20
279.86902730551896
  0
LWPOLYLINE
  5
6A
330
17
100
AcDbEntity
  8
GSK_FRM_EXT
 62
6
100
AcDbPolyline
 90
10
 70
1
 10
37.097280488486604
 20
285.04791833151484
 42
0.0468986504846958
 10
37.30971032085449
 20
286.53023729588284
 42
0.8599914742289989
 10
36.534317261130354
 20
286.68651680246234
 10
36.311916601130406
 20
286.0755978024626
 42
-0.2132349016356261
 10
36.028150810597936
 20
285.7825495243746
 42
-0.1448859614941374
 10
35.9242217114986
 20
285.4356857837619
 42
0.370324107822476
 10
35.49999692808228
 20
284.9414609274572
 10
35.49999692808228
 20
283.674222307457
 42
0.5923216042815911
 10
36.26906392365049
 20
283.25279265508806
 10
36.22903115818167
 20
283.82997215175664
 42
0.1940050826117134
  0
LWPOLYLINE
  5
6B
330
17
100
AcDbEntity
  8
BZD
100
AcDbPolyline
 90
41
 70
1
 10
77.03527655394737
 20
267.7228104363193
 10
77.03527655394737
 20
266.9999985059257
 10
78.53527655394737
 20
266.99999850592525
 42
-0.4142135623730951
 10
79.03527655394737
 20
267.49999850592525
 10
81.00407940595687
 20
267.49999850592525
 42
-0.3394542588634029
 10
81.97000523224597
 20
266.7588175510277
 10
82.407391196135
 20
265.1264709112756
 42
-0.2493293434598935
 10
82.30178141700026
 20
264.66902996911216
 10
81.10705257927839
 20
263.2946656727326
 42
-0.2171199618910894
 10
80.35234631125923
 20
262.95072851195795
 10
79.55125081497226
 20
262.9507285119575
 42
0.9999999999999998
 10
79.55125081497272
 20
261.2507285119577
 10
80.6713525561313
 20
261.25072851195813
 42
0.2171199618911793
 10
82.18076509217099
 20
261.93860283350836
 10
84.33607525835441
 20
264.4179782754499
 42
0.2493293434599847
 10
84.44168503748915
 20
264.87541921761334
 10
83.78301685104134
 20
267.33360235476806
 42
-0.6068148963146447
 10
84.43698983584864
 20
267.93285818771204
 10
87.00000074707532
 20
266.9999985059257
 10
88.00000074707532
 20
266.9999985059257
 10
87.0823187360952
 20
272.2044318109883
 42
0.2679491924310402
 10
78.08329220048654
 20
282.92905401465254
 10
66.89846413486578
 20
286.9999985059257
 10
65.89846413486578
 20
286.9999985059257
 10
65.89846413486578
 20
284.099998505927
 10
66.89846413486532
 20
283.09999850592607
 10
67.39846413486578
 20
283.09999850592607
 10
67.39846413486578
 20
284.18841939496446
 42
-0.5205670505518223
 10
68.06947420652853
 20
284.6582657053572
 10
71.06947420652853
 20
283.5663550025578
 42
-0.3152987888789177
 10
71.39846413486578
 20
283.09650869216506
 10
71.39846413486657
 20
279.59999850592607
 42
-0.4142135623730951
 10
70.39846413486657
 20
278.59999850592607
 10
67.89846413486566
 20
278.59999850592607
 42
-0.4142140000000189
 10
67.39846413486566
 20
279.09999850592607
 10
67.39846413486566
 20
279.89999850592625
 10
66.89846413486521
 20
279.89999850592625
 10
65.89846413486566
 20
278.89999850592625
 10
65.89846413486566
 20
276.67773142894106
 42
0.3152987888789177
 10
67.21442384821376
 20
274.79834618736953
 10
73.74537727057668
 20
272.4212735402488
 42
-0.3152987888789177
  0
LWPOLYLINE
  5
6C
330
17
100
AcDbEntity
  8
BZD
100
AcDbPolyline
 90
18
 70
1
 10
74.36101352856349
 20
274.11272025766306
 42
-0.2464548693755317
 10
78.6150896260433
 20
269.4392194599149
 42
0.3668464132890396
 10
78.82674658104952
 20
269.2905257924694
 42
-0.0227013688753496
 10
79.03527655394737
 20
269.29999850592543
 10
81.00407940595687
 20
269.29999850592543
 42
-0.1232628537082183
 10
82.32325677007293
 20
268.96976996944244
 42
0.3432941107079666
 10
82.56536340781622
 20
269.01152858967583
 42
-0.3042054877104454
 10
85.05262609383544
 20
269.62430490512673
 10
85.42902530096535
 20
269.48730679752947
 42
0.5773502691897351
 10
85.69439088023273
 20
269.70997495722025
 10
85.30966478067285
 20
271.8918650911882
 42
0.2679491924310402
 10
77.46765594250019
 20
281.23760729723784
 10
73.46686816353078
 20
282.69377496240025
 42
0.5205670505518223
 10
73.19846413486584
 20
282.50583643824297
 10
73.1984641348663
 20
279.5999985059265
 42
-0.4142135623730951
 10
70.39846413486657
 20
276.7999985059259
 10
68.1120335855976
 20
276.7999985059259
 42
0.8390996311771779
 10
68.0436295569325
 20
276.4120599817688
  0
LWPOLYLINE
  5
6D
330
17
100
AcDbEntity
  8
GSK_BZD
347
491
100
AcDbPolyline
 90
33
 70
1
 10
68.06947420652853
 20
284.65826570535745
 42
0.5337481849688936
 10
67.39846413486623
 20
284.16693555434534
 10
67.39846413486578
 20
283.09999850592607
 10
66.89846413486578
 20
283.09999850592607
 10
65.89846413486578
 20
284.099998505927
 10
65.89846413486578
 20
286.7891279514078
 42
0.2075133254383016
 10
65.8034729822781
 20
287.0081516315949
 42
-0.161228174486363
 10
62.94699611761973
 20
291.1307218492356
 42
0.941095309667078
 10
62.00185022342578
 20
290.9920935315726
 42
0.1085807304372004
 10
63.53493447544872
 20
286.63410357330275
 42
-0.1390430086413624
 10
64.54846413486496
 20
283.8449388451963
 10
64.62046108235666
 20
279.85950880321246
 42
-0.8399780497293138
 10
63.82394655175369
 20
279.735442330116
 42
0.0657473970983625
 10
63.60815960084449
 20
280.24546850678274
 42
0.3140963318641297
 10
62.77834948506654
 20
280.62711525921935
 42
0.451051254984801
 10
62.045918390168595
 20
279.3914438573942
 42
0.223054966404159
 10
64.22228590616089
 20
277.0673820874744
 42
0.0994163557827123
 10
64.37671226159057
 20
277.0363705706945
 10
65.64846413486578
 20
277.03637057069403
 42
0.4142135623730951
 10
65.89846413486578
 20
277.28637057069403
 10
65.89846413486578
 20
278.89999850592625
 10
66.89846413486578
 20
279.89999850592625
 10
67.39846413486578
 20
279.89999850592625
 10
67.39846413486623
 20
279.099998505927
 42
0.4142135623729619
 10
67.89846413486623
 20
278.5999985059272
 10
68.39846413486578
 20
278.599998505927
 42
0.4142135623733615
 10
68.89846413486623
 20
279.099998505927
 10
68.89846413486623
 20
279.6309115739959
 42
0.2156416552380446
 10
68.72862188236661
 20
280.0064057308236
 42
-0.4523166325164124
 10
68.72862188236707
 20
283.02384587623595
 42
0.2156416552372918
 10
68.89846413486578
 20
283.39934003306365
 10
68.89846413486623
 20
284.00646750132813
 42
0.3183729929591983
 10
68.56421310181088
 20
284.47819547374064
  0
LWPOLYLINE
  5
6E
330
17
100
AcDbEntity
  8
GLS_EXT
100
AcDbPolyline
 90
4
 70
1
 10
38.00000074707532
 20
270.99999850592707
 10
42.00000074707532
 20
270.99999850592707
 10
42.00000074707532
 20
309.99999850592843
 10
38.00000074707532
 20
309.99999850592843
  0
LWPOLYLINE
  5
6F
330
17
100
AcDbEntity
  8
GLS_INT
100
AcDbPolyline
 90
4
 70
1
 10
58.00000074707532
 20
270.99999850592707
 10
62.00000074707532
 20
270.99999850592707
 10
62.00000074707532
 20
309.99999850592843
 10
58.00000074707532
 20
309.99999850592843
  0
LWPOLYLINE
  5
70
330
17
100
AcDbEntity
  8
SPACER
 62
3
100
AcDbPolyline
 90
4
 70
1
 10
42.00000074707532
 20
270.99999850592707
 10
58.00000074707532
 20
270.99999850592707
 10
58.00000074707532
 20
284.99999850592707
 10
42.00000074707532
 20
284.99999850592707
1001
AcDbBlockRepETag
1070
1
1071
8
1005
331
  0
LWPOLYLINE
  5
71
330
17
100
AcDbEntity
  8
GSK_FRM_EXT
 62
6
100
AcDbPolyline
 90
8
 70
1
 10
12.029429280665902
 20
438.743524206403
 42
0.1973171029117989
 10
12.392043129166945
 20
438.63041521266496
 10
14.361834243904688
 20
438.80274955957066
 42
0.9163312066386604
 10
14.361834240389491
 20
440.1974221412263
 10
12.39204311574144
 20
440.36975643851065
 42
0.1973171068159639
 10
12.029429262023536
 20
440.2566474381497
 10
11.581042941778602
 20
439.88507417234564
 42
0.4700505917641017
 10
11.581042946869044
 20
439.11509746307706
  0
LWPOLYLINE
  5
72
330
17
100
AcDbEntity
  8
GSK_FRM_EXT
 62
6
100
AcDbPolyline
 90
31
 70
1
 10
17.099994661007024
 20
440.57828054847005
 42
-0.1826758888702128
 10
16.974994832849227
 20
440.2475614241157
 42
0.4362879657284912
 10
17.07750509543188
 20
439.2264335014779
 10
17.809919649691654
 20
437.97698170018316
 42
-0.2073074163340437
 10
18.956466507270072
 20
435.9800509891352
 42
-0.0916074222265504
 10
18.86448572637095
 20
434.16547942001125
 42
-0.4268639712463462
 10
17.669799209530304
 20
433.425578398462
 42
0.0527154374469259
 10
15.256111809932683
 20
434.0474688074971
 42
-0.3718316879017271
 10
15.00000380942469
 20
434.34423991055974
 10
14.999996188991865
 20
437.6965748863463
 42
0.4589973865408548
 10
14.655031387807632
 20
437.99318534149984
 10
13.416669911699268
 20
437.89304115124526
 42
-0.1730044290472394
 10
13.236221827225105
 20
437.9414163206063
 10
13.054577266199653
 20
438.0578833736986
 42
0.6935273263148176
 10
12.888868665221475
 20
437.9705457788996
 42
0.1940731523186352
 10
13.318760244298566
 20
437.18325709465705
 42
-0.9442779230106229
 10
13.156075436802434
 20
436.9204861583889
 42
-0.1848969568933989
 10
10.871101599125033
 20
439.04386824286416
 42
-0.2413739550731988
 10
10.871101599125033
 20
439.95620978049806
 42
-0.1155441180481
 10
12.9031231623187
 20
442.3504048645197
 42
-0.8046084068019029
 10
13.226784873427386
 20
442.06760841877514
 42
0.0941294090166279
 10
12.888868665221477
 20
441.02953224446264
 42
0.6935273263667959
 10
13.054577266200564
 20
440.9421946496643
 10
13.30862927154032
 20
441.0664457215309
 42
-0.1102863192832164
 10
13.476750362051913
 20
441.099411545929
 10
14.76975595569251
 20
440.98950099712647
 42
0.4865963738769969
 10
15.130388540770802
 20
441.3642136303481
 42
0.0904941723492964
 10
15.079878565577241
 20
443.06044530491295
 42
-0.9312118644052843
 10
15.682844564920964
 20
443.58312330847025
 10
17.026238172806863
 20
441.39234539318204
 42
-0.1383914179832654
 10
17.09999466100657
 20
441.1309712004081
  0
LWPOLYLINE
  5
73
330
17
100
AcDbEntity
  8
GSK_FRM_EXT
 62
6
100
AcDbPolyline
 90
10
 70
1
 10
18.097279741411274
 20
435.95208017441223
 42
-0.0468986504846958
 10
18.309709573779166
 20
434.4697612100442
 42
-0.8599914742289989
 10
17.53431651405503
 20
434.31348170346473
 10
17.31191585405508
 20
434.92440070346447
 42
0.2132349016356261
 10
17.02815006352261
 20
435.2174489815525
 42
0.1448859614941374
 10
16.924220964423277
 20
435.56431272216514
 42
-0.370324107822476
 10
16.499996181006956
 20
436.0585375784699
 10
16.499996181006956
 20
437.32577619847007
 42
-0.5923216042815911
 10
17.269063176575166
 20
437.747205850839
 10
17.229030411106343
 20
437.17002635417043
 42
-0.1940050826117134
  0
LWPOLYLINE
  5
74
330
17
100
AcDbEntity
  8
FRM_EXT
100
AcDbPolyline
 90
129
 70
1
 10
61.09328390372866
 20
493.0824429495417
 42
0.2400787590801145
 10
61.25508730260367
 20
493.00000000000045
 10
66.35602439040235
 20
493.0
 42
0.3690546425321124
 10
67.34378706180951
 20
493.84403556503366
 10
67.81747706695228
 20
496.84403556503366
 42
0.4608620707066395
 10
66.82971439554512
 20
498.0
 10
65.40192400000046
 20
498.0
 10
65.40192400000046
 20
499.0
 42
-0.4142135623730951
 10
66.40192400000046
 20
500.0
 10
70.0
 20
500.0
 10
70.00000000000023
 20
455.0000000000002
 42
-0.4142140000000855
 10
69.0
 20
453.9999999999998
 10
65.44183172088606
 20
453.99999999999955
 42
-0.4931454668899049
 10
65.0150550658418
 20
454.55618624108706
 10
65.35621441230728
 20
455.8294095860433
 42
-0.3394542222102505
 10
65.83917730843905
 20
456.1999999999998
 10
66.90866272973562
 20
456.1999999999998
 42
0.4608620707066395
 10
67.89642540114278
 20
457.35596443496615
 10
67.58758513339012
 20
459.311928869932
 42
0.3690546425321124
 10
65.61205979057604
 20
460.9999999999993
 10
60.700000000000045
 20
461.0
 42
0.4142135623730951
 10
59.700000000000045
 20
460.0
 10
59.700000000000045
 20
458.6643342252819
 42
0.1006947051834969
 10
59.73974757327392
 20
458.46896866103725
 10
61.0
 20
455.5
 10
61.0
 20
454.5
 42
-0.4142135623730951
 10
60.5
 20
454.0
 10
58.03527618041085
 20
454.0
 42
-0.3394542588635296
 10
56.586387440976516
 20
455.11177143234636
 10
56.51703708685545
 20
455.3705904774488
 42
-0.493145426031274
 10
57.0
 20
456.0
 10
57.76969460965893
 20
455.9999999999993
 42
0.5373193821392536
 10
57.95379558034938
 20
456.2781462256971
 10
56.85016105820455
 20
458.87814622569795
 42
0.3009658391326293
 10
56.6660600875141
 20
459.0000000000002
 10
35.50000000159866
 20
459.0
 10
35.35355338716181
 20
459.1464466093639
 42
0.4142135623730502
 10
34.64644660597514
 20
459.14644660944964
 10
34.50000000159821
 20
459.0
 10
28.08057925249615
 20
459.0
 10
15.21090304567111
 20
460.8087150364563
 42
0.5715470873652616
 10
12.529019227027447
 20
457.43712499073945
 10
14.667902132485779
 20
451.86514452307006
 42
-0.0918870916679617
 10
15.0
 20
450.0733047753424
 10
15.000000000000227
 20
442.0999999999999
 10
14.00000000000044
 20
441.0999999999999
 10
13.499999999999993
 20
441.09999999999945
 10
13.499999999999993
 20
441.89999999999964
 42
0.4142140000002187
 10
13.0
 20
442.39999999999964
 10
10.49999999999934
 20
442.39999999999964
 42
0.4142135623730951
 10
9.49999999999931
 20
441.39999999999964
 10
9.49999999999931
 20
439.90000186768793
 10
9.499999999999993
 20
439.89999999999964
 10
9.499999999999083
 20
439.5605609122929
 42
0.2882204520472692
 10
10.349800452301906
 20
438.20880629396356
 10
13.213306726973535
 20
436.831447963262
 42
0.5525293025908593
 10
13.499999999999993
 20
437.0116819123725
 10
13.499999999999993
 20
437.89999999999964
 10
14.00000000000044
 20
437.89999999999964
 10
15.00000000000022
 20
436.8999999999992
 10
14.999999999999993
 20
434.0
 10
13.999999999999993
 20
434.0
 10
9.211717993443024
 20
435.7427921236597
 42
-0.3152987888790331
 10
-0.0
 20
448.8984888146633
 10
-0.0
 20
500.0
 10
3.5980759999997645
 20
500.0
 42
-0.4142135623730951
 10
4.5980759999997645
 20
499.0
 10
4.5980759999997645
 20
498.0
 10
3.17028560445533
 20
498.0
 42
0.4608620707066397
 10
2.182522933048176
 20
496.84403556503366
 10
2.6562129381904924
 20
493.84403556503366
 42
0.3690546425321123
 10
3.643975609597888
 20
493.0
 10
8.744912697396579
 20
493.0000000000002
 42
0.2400787590802713
 10
8.906716096271573
 20
493.0824429495419
 10
9.988487527951747
 20
494.57137359018907
 42
0.2325553856618125
 10
10.13894709633496
 20
495.4409472835473
 10
9.700000000000053
 20
496.93554177305623
 10
9.700000000000053
 20
497.9999999999991
 10
9.401923788646862
 20
497.99999999999955
 10
9.0
 20
499.5
 10
9.000000000000227
 20
500.0
 10
12.800000000000189
 20
500.0
 42
-0.4142135623730951
 10
13.800000000000182
 20
499.0
 10
13.800000000000182
 20
498.0
 10
13.200000004129151
 20
497.99999999999955
 42
0.3349997217040084
 10
12.238338392162412
 20
497.2742388449317
 42
0.1418030814149202
 10
12.238775402205889
 20
497.16303338767466
 10
12.5376385073589
 20
496.14541838621153
 42
-0.1374014254549942
 10
12.561359826541093
 20
494.2575908538845
 42
0.4927503700213901
 10
13.527613909065849
 20
493.0
 10
34.50000000159821
 20
493.0
 10
34.64644660597536
 20
492.8535533905497
 42
0.4142135623729112
 10
35.35355338716181
 20
492.8535533906361
 10
35.50000000159866
 20
493.0
 10
46.5570349435618
 20
493.0
 42
0.4927503700213129
 10
47.523289026086104
 20
494.25759085388495
 42
-0.1374014254549932
 10
47.54701034526852
 20
496.14541838621176
 10
47.84587345042132
 20
497.16303338767466
 42
0.1418030814153937
 10
47.84631046026311
 20
497.2742388448744
 42
0.3349997217039354
 10
46.88464884849804
 20
497.99999999999955
 10
46.08464884849787
 20
498.0
 10
46.08464884849787
 20
499.0
 42
-0.4142135623730951
 10
47.084648848497864
 20
500.0
 10
50.884648848498045
 20
499.9999999999993
 42
-0.4142135623730951
 10
51.08464884849809
 20
499.7999999999993
 10
51.08464884849809
 20
499.5
 10
50.68272505985147
 20
497.99999999999955
 10
50.38464884849827
 20
497.9999999999991
 10
50.38464884849827
 20
496.93554177305623
 10
49.94570175216313
 20
495.4409472835473
 42
0.2325553856618117
 10
50.09616132054635
 20
494.57137359018907
 10
51.177932752226525
 20
493.08244294954216
 42
0.2400787590804843
 10
51.33973615110176
 20
493.0000000000002
 10
57.681788212950096
 20
492.9999999999998
 42
0.5888795210479483
 10
57.85144990210097
 20
493.3059004779707
 42
-0.214102191292491
 10
57.46236149264155
 20
496.14541838621176
 10
57.76122459779435
 20
497.16303338767466
 42
0.1418030814153268
 10
57.76166160763592
 20
497.2742388448744
 42
0.3349997205558119
 10
56.80000000000018
 20
497.99999999999955
 10
55.02086350000014
 20
498.0
 10
55.02086350000014
 20
499.0
 42
-0.4142135623730951
 10
56.02086350000013
 20
500.0
 10
61.00000000000023
 20
500.0
 10
61.00000000000023
 20
499.5
 10
60.5980762113536
 20
497.99999999999955
 10
60.30000000000018
 20
497.9999999999991
 10
60.30000000000018
 20
496.93554177305623
 10
59.86105290366527
 20
495.4409472835473
 42
0.2325553856618117
 10
60.01151247204848
 20
494.57137359018907
  0
LWPOLYLINE
  5
75
330
17
100
AcDbEntity
  8
FRM_INT
100
AcDbPolyline
 90
129
 70
1
 10
61.09328390372866
 20
493.0824429495417
 42
0.2400787590801145
 10
61.25508730260367
 20
493.00000000000045
 10
66.35602439040235
 20
493.0
 42
0.3690546425321124
 10
67.34378706180951
 20
493.84403556503366
 10
67.81747706695228
 20
496.84403556503366
 42
0.4608620707066395
 10
66.82971439554512
 20
498.0
 10
65.40192400000046
 20
498.0
 10
65.40192400000046
 20
499.0
 42
-0.4142135623730951
 10
66.40192400000046
 20
500.0
 10
70.0
 20
500.0
 10
70.00000000000023
 20
455.0000000000002
 42
-0.4142140000000855
 10
69.0
 20
453.9999999999998
 10
65.44183172088606
 20
453.99999999999955
 42
-0.4931454668899049
 10
65.0150550658418
 20
454.55618624108706
 10
65.35621441230728
 20
455.8294095860433
 42
-0.3394542222102505
 10
65.83917730843905
 20
456.1999999999998
 10
66.90866272973562
 20
456.1999999999998
 42
0.4608620707066395
 10
67.89642540114278
 20
457.35596443496615
 10
67.58758513339012
 20
459.311928869932
 42
0.3690546425321124
 10
65.61205979057604
 20
460.9999999999993
 10
60.700000000000045
 20
461.0
 42
0.4142135623730951
 10
59.700000000000045
 20
460.0
 10
59.700000000000045
 20
458.6643342252819
 42
0.1006947051834969
 10
59.73974757327392
 20
458.46896866103725
 10
61.0
 20
455.5
 10
61.0
 20
454.5
 42
-0.4142135623730951
 10
60.5
 20
454.0
 10
58.03527618041085
 20
454.0
 42
-0.3394542588635296
 10
56.586387440976516
 20
455.11177143234636
 10
56.51703708685545
 20
455.3705904774488
 42
-0.493145426031274
 10
57.0
 20
456.0
 10
57.76969460965893
 20
455.9999999999993
 42
0.5373193821392536
 10
57.95379558034938
 20
456.2781462256971
 10
56.85016105820455
 20
458.87814622569795
 42
0.3009658391326293
 10
56.6660600875141
 20
459.0000000000002
 10
35.50000000159866
 20
459.0
 10
35.35355338716181
 20
459.1464466093639
 42
0.4142135623730502
 10
34.64644660597514
 20
459.14644660944964
 10
34.50000000159821
 20
459.0
 10
28.08057925249615
 20
459.0
 10
15.21090304567111
 20
460.8087150364563
 42
0.5715470873652616
 10
12.529019227027447
 20
457.43712499073945
 10
14.667902132485779
 20
451.86514452307006
 42
-0.0918870916679617
 10
15.0
 20
450.0733047753424
 10
15.000000000000227
 20
442.0999999999999
 10
14.00000000000044
 20
441.0999999999999
 10
13.499999999999993
 20
441.09999999999945
 10
13.499999999999993
 20
441.89999999999964
 42
0.4142140000002187
 10
13.0
 20
442.39999999999964
 10
10.49999999999934
 20
442.39999999999964
 42
0.4142135623730951
 10
9.49999999999931
 20
441.39999999999964
 10
9.49999999999931
 20
439.90000186768793
 10
9.499999999999993
 20
439.89999999999964
 10
9.499999999999083
 20
439.5605609122929
 42
0.2882204520472692
 10
10.349800452301906
 20
438.20880629396356
 10
13.213306726973535
 20
436.831447963262
 42
0.5525293025908593
 10
13.499999999999993
 20
437.0116819123725
 10
13.499999999999993
 20
437.89999999999964
 10
14.00000000000044
 20
437.89999999999964
 10
15.00000000000022
 20
436.8999999999992
 10
14.999999999999993
 20
434.0
 10
13.999999999999993
 20
434.0
 10
9.211717993443024
 20
435.7427921236597
 42
-0.3152987888790331
 10
-0.0
 20
448.8984888146633
 10
-0.0
 20
500.0
 10
3.5980759999997645
 20
500.0
 42
-0.4142135623730951
 10
4.5980759999997645
 20
499.0
 10
4.5980759999997645
 20
498.0
 10
3.17028560445533
 20
498.0
 42
0.4608620707066397
 10
2.182522933048176
 20
496.84403556503366
 10
2.6562129381904924
 20
493.84403556503366
 42
0.3690546425321123
 10
3.643975609597888
 20
493.0
 10
8.744912697396579
 20
493.0000000000002
 42
0.2400787590802713
 10
8.906716096271573
 20
493.0824429495419
 10
9.988487527951747
 20
494.57137359018907
 42
0.2325553856618125
 10
10.13894709633496
 20
495.4409472835473
 10
9.700000000000053
 20
496.93554177305623
 10
9.700000000000053
 20
497.9999999999991
 10
9.401923788646862
 20
497.99999999999955
 10
9.0
 20
499.5
 10
9.000000000000227
 20
500.0
 10
12.800000000000189
 20
500.0
 42
-0.4142135623730951
 10
13.800000000000182
 20
499.0
 10
13.800000000000182
 20
498.0
 10
13.200000004129151
 20
497.99999999999955
 42
0.3349997217040084
 10
12.238338392162412
 20
497.2742388449317
 42
0.1418030814149202
 10
12.238775402205889
 20
497.16303338767466
 10
12.5376385073589
 20
496.14541838621153
 42
-0.1374014254549942
 10
12.561359826541093
 20
494.2575908538845
 42
0.4927503700213901
 10
13.527613909065849
 20
493.0
 10
34.50000000159821
 20
493.0
 10
34.64644660597536
 20
492.8535533905497
 42
0.4142135623729112
 10
35.35355338716181
 20
492.8535533906361
 10
35.50000000159866
 20
493.0
 10
46.5570349435618
 20
493.0
 42
0.4927503700213129
 10
47.523289026086104
 20
494.25759085388495
 42
-0.1374014254549932
 10
47.54701034526852
 20
496.14541838621176
 10
47.84587345042132
 20
497.16303338767466
 42
0.1418030814153937
 10
47.84631046026311
 20
497.2742388448744
 42
0.3349997217039354
 10
46.88464884849804
 20
497.99999999999955
 10
46.08464884849787
 20
498.0
 10
46.08464884849787
 20
499.0
 42
-0.4142135623730951
 10
47.084648848497864
 20
500.0
 10
50.884648848498045
 20
499.9999999999993
 42
-0.4142135623730951
 10
51.08464884849809
 20
499.7999999999993
 10
51.08464884849809
 20
499.5
 10
50.68272505985147
 20
497.99999999999955
 10
50.38464884849827
 20
497.9999999999991
 10
50.38464884849827
 20
496.93554177305623
 10
49.94570175216313
 20
495.4409472835473
 42
0.2325553856618117
 10
50.09616132054635
 20
494.57137359018907
 10
51.177932752226525
 20
493.08244294954216
 42
0.2400787590804843
 10
51.33973615110176
 20
493.0000000000002
 10
57.681788212950096
 20
492.9999999999998
 42
0.5888795210479483
 10
57.85144990210097
 20
493.3059004779707
 42
-0.214102191292491
 10
57.46236149264155
 20
496.14541838621176
 10
57.76122459779435
 20
497.16303338767466
 42
0.1418030814153268
 10
57.76166160763592
 20
497.2742388448744
 42
0.3349997205558119
 10
56.80000000000018
 20
497.99999999999955
 10
55.02086350000014
 20
498.0
 10
55.02086350000014
 20
499.0
 42
-0.4142135623730951
 10
56.02086350000013
 20
500.0
 10
61.00000000000023
 20
500.0
 10
61.00000000000023
 20
499.5
 10
60.5980762113536
 20
497.99999999999955
 10
60.30000000000018
 20
497.9999999999991
 10
60.30000000000018
 20
496.93554177305623
 10
59.86105290366527
 20
495.4409472835473
 42
0.2325553856618117
 10
60.01151247204848
 20
494.57137359018907
  0
LWPOLYLINE
  5
76
330
17
100
AcDbEntity
  8
FRM_EXT
100
AcDbPolyline
 90
10
 70
1
 10
14.162271398648272
 20
463.2837035136183
 42
0.4493657566859925
 10
14.575510488215969
 20
463.9068803881521
 10
11.480705204299973
 20
475.58227960920294
 42
0.3639702342660556
 10
11.28374365369747
 20
475.7475499736695
 10
3.0
 20
475.7475499736695
 42
0.4142135623730951
 10
2.7999999999999545
 20
475.54754997366945
 10
2.8000000000004093
 20
459.03304486460297
 42
0.4142135623730951
 10
3.0000000000002274
 20
458.8330448646029
 10
9.710301082074238
 20
458.8330448646029
 42
0.3751962976443171
 10
9.908480667120102
 20
459.0061217876799
 42
-0.3356032756624312
  0
LWPOLYLINE
  5
77
330
17
100
AcDbEntity
  8
FRM_INT
100
AcDbPolyline
 90
10
 70
1
 10
14.162271398648272
 20
463.2837035136183
 42
0.4493657566859925
 10
14.575510488215969
 20
463.9068803881521
 10
11.480705204299973
 20
475.58227960920294
 42
0.3639702342660556
 10
11.28374365369747
 20
475.7475499736695
 10
3.0
 20
475.7475499736695
 42
0.4142135623730951
 10
2.7999999999999545
 20
475.54754997366945
 10
2.8000000000004093
 20
459.03304486460297
 42
0.4142135623730951
 10
3.0000000000002274
 20
458.8330448646029
 10
9.710301082074238
 20
458.8330448646029
 42
0.3751962976443171
 10
9.908480667120102
 20
459.0061217876799
 42
-0.3356032756624312
  0
LWPOLYLINE
  5
78
330
17
100
AcDbEntity
  8
FRM_EXT
100
AcDbPolyline
 90
14
 70
1
 10
7.499999999999325
 20
441.39999999999964
 42
-0.4142135623730951
 10
10.49999999999934
 20
444.39999999999964
 10
12.000000000000227
 20
444.39999999999964
 42
0.4142135623730951
 10
12.500000000000227
 20
444.89999999999964
 10
12.5
 20
450.0733047753424
 42
0.0918870916679617
 10
12.333951066242903
 20
450.9692246492061
 10
10.195068160784103
 20
456.5412051168764
 42
-0.0579381590202661
 10
9.908480667120102
 20
457.65996794152625
 42
0.37519629764438
 10
9.710301082074238
 20
457.83304486460315
 10
3.0000000000002274
 20
457.83304486460315
 42
0.4142135623730951
 10
2.800000000000196
 20
457.6330448646031
 10
2.800000000000196
 20
448.8984888146633
 42
0.2177635796368319
 10
6.672897196265922
 20
440.42774123823824
 42
0.6423549147341717
 10
7.499999999999325
 20
440.80589961217584
  0
LWPOLYLINE
  5
79
330
17
100
AcDbEntity
  8
FRM_INT
100
AcDbPolyline
 90
14
 70
1
 10
7.499999999999325
 20
441.39999999999964
 42
-0.4142135623730951
 10
10.49999999999934
 20
444.39999999999964
 10
12.000000000000227
 20
444.39999999999964
 42
0.4142135623730951
 10
12.500000000000227
 20
444.89999999999964
 10
12.5
 20
450.0733047753424
 42
0.0918870916679617
 10
12.333951066242903
 20
450.9692246492061
 10
10.195068160784103
 20
456.5412051168764
 42
-0.0579381590202661
 10
9.908480667120102
 20
457.65996794152625
 42
0.37519629764438
 10
9.710301082074238
 20
457.83304486460315
 10
3.0000000000002274
 20
457.83304486460315
 42
0.4142135623730951
 10
2.800000000000196
 20
457.6330448646031
 10
2.800000000000196
 20
448.8984888146633
 42
0.2177635796368319
 10
6.672897196265922
 20
440.42774123823824
 42
0.6423549147341717
 10
7.499999999999325
 20
440.80589961217584
  0
LWPOLYLINE
  5
7A
330
17
100
AcDbEntity
  8
GSK_FRM_EXT
 62
6
100
AcDbPolyline
 90
8
 70
1
 10
31.029430027741675
 20
388.74352495340145
 42
0.1973171029117989
 10
31.39204387624272
 20
388.6304159596634
 10
33.36183499098046
 20
388.8027503065691
 42
0.9163312066386604
 10
33.361834987465265
 20
390.19742288822476
 10
31.392043862817214
 20
390.3697571855091
 42
0.1973171068159639
 10
31.029430009099308
 20
390.25664818514815
 10
30.581043688854376
 20
389.8850749193441
 42
0.4700505917641017
 10
30.581043693944817
 20
389.11509821007553
  0
LWPOLYLINE
  5
7B
330
17
100
AcDbEntity
  8
GSK_FRM_EXT
 62
6
100
AcDbPolyline
 90
31
 70
1
 10
36.0999954080828
 20
390.5782812954685
 42
-0.1826758888702128
 10
35.974995579925
 20
390.24756217111417
 42
0.4362879657284912
 10
36.077505842507655
 20
389.2264342484764
 10
36.80992039676743
 20
387.9769824471816
 42
-0.2073074163340437
 10
37.956467254345846
 20
385.98005173613365
 42
-0.0916074222265504
 10
37.864486473446725
 20
384.1654801670097
 42
-0.4268639712463462
 10
36.66979995660608
 20
383.42557914546046
 42
0.0527154374469259
 10
34.25611255700846
 20
384.0474695544956
 42
-0.3718316879017271
 10
34.000004556500464
 20
384.3442406575582
 10
33.99999693606764
 20
387.69657563334476
 42
0.4589973865408548
 10
33.655032134883406
 20
387.9931860884983
 10
32.41667065877504
 20
387.8930418982437
 42
-0.1730044290472394
 10
32.236222574300875
 20
387.9414170676048
 10
32.054578013275425
 20
388.05788412069705
 42
0.6935273263148176
 10
31.88886941229725
 20
387.97054652589804
 42
0.1940731523186352
 10
32.31876099137434
 20
387.1832578416555
 42
-0.9442779230106229
 10
32.156076183878206
 20
386.92048690538735
 42
-0.1848969568933989
 10
29.871102346200807
 20
389.04386898986263
 42
-0.2413739550731988
 10
29.871102346200807
 20
389.9562105274965
 42
-0.1155441180481
 10
31.903123909394473
 20
392.35040561151817
 42
-0.8046084068019029
 10
32.22678562050316
 20
392.0676091657736
 42
0.0941294090166279
 10
31.88886941229725
 20
391.0295329914611
 42
0.6935273263667959
 10
32.054578013276334
 20
390.9421953966628
 10
32.30863001861609
 20
391.06644646852936
 42
-0.1102863192832164
 10
32.47675110912768
 20
391.09941229292747
 10
33.769756702768284
 20
390.98950174412494
 42
0.4865963738769969
 10
34.130389287846576
 20
391.36421437734657
 42
0.0904941723492964
 10
34.07987931265301
 20
393.0604460519114
 42
-0.9312118644052843
 10
34.682845311996736
 20
393.5831240554687
 10
36.02623891988264
 20
391.3923461401805
 42
-0.1383914179832654
 10
36.09999540808234
 20
391.1309719474066
  0
LWPOLYLINE
  5
7C
330
17
100
AcDbEntity
  8
GSK_FRM_EXT
 62
6
100
AcDbPolyline
 90
10
 70
1
 10
37.09728048848705
 20
385.9520809214107
 42
-0.0468986504846958
 10
37.30971032085494
 20
384.4697619570427
 42
-0.8599914742289989
 10
36.5343172611308
 20
384.3134824504632
 10
36.311916601130854
 20
384.92440145046294
 42
0.2132349016356261
 10
36.02815081059838
 20
385.21744972855095
 42
0.1448859614941374
 10
35.92422171149905
 20
385.5643134691636
 42
-0.370324107822476
 10
35.49999692808273
 20
386.05853832546836
 10
35.49999692808273
 20
387.32577694546853
 42
-0.5923216042815911
 10
36.26906392365094
 20
387.7472065978375
 10
36.22903115818212
 20
387.1700271011689
 42
-0.1940050826117134
  0
LWPOLYLINE
  5
7D
330
17
100
AcDbEntity
  8
BZD
100
AcDbPolyline
 90
41
 70
1
 10
77.03527655394782
 20
403.2771888166062
 10
77.03527655394782
 20
404.00000074699983
 10
78.53527655394782
 20
404.0000007470003
 42
0.4142135623730951
 10
79.03527655394782
 20
403.5000007470003
 10
81.00407940595733
 20
403.5000007470003
 42
0.3394542588634029
 10
81.97000523224642
 20
404.24118170189786
 10
82.40739119613545
 20
405.87352834164994
 42
0.2493293434598935
 10
82.30178141700071
 20
406.3309692838134
 10
81.10705257927884
 20
407.7053335801929
 42
0.2171199618910894
 10
80.35234631125968
 20
408.0492707409676
 10
79.55125081497272
 20
408.04927074096804
 42
-0.9999999999999998
 10
79.55125081497317
 20
409.74927074096786
 10
80.67135255613175
 20
409.7492707409674
 42
-0.2171199618911793
 10
82.18076509217144
 20
409.0613964194172
 10
84.33607525835487
 20
406.5820209774756
 42
-0.2493293434599847
 10
84.4416850374896
 20
406.1245800353122
 10
83.7830168510418
 20
403.6663968981575
 42
0.6068148963146447
 10
84.43698983584909
 20
403.0671410652135
 10
87.00000074707577
 20
404.00000074699983
 10
88.00000074707577
 20
404.00000074699983
 10
87.08231873609566
 20
398.79556744193724
 42
-0.2679491924310402
 10
78.083292200487
 20
388.070945238273
 10
66.89846413486623
 20
384.00000074699983
 10
65.89846413486623
 20
384.00000074699983
 10
65.89846413486623
 20
386.90000074699856
 10
66.89846413486578
 20
387.90000074699947
 10
67.39846413486623
 20
387.90000074699947
 10
67.39846413486623
 20
386.8115798579611
 42
0.5205670505518223
 10
68.06947420652898
 20
386.3417335475683
 10
71.06947420652898
 20
387.4336442503677
 42
0.3152987888789177
 10
71.39846413486623
 20
387.9034905607605
 10
71.39846413486703
 20
391.40000074699947
 42
0.4142135623730951
 10
70.39846413486703
 20
392.40000074699947
 10
67.89846413486612
 20
392.40000074699947
 42
0.4142140000000189
 10
67.39846413486612
 20
391.90000074699947
 10
67.39846413486612
 20
391.1000007469993
 10
66.89846413486566
 20
391.1000007469993
 10
65.89846413486612
 20
392.1000007469993
 10
65.89846413486612
 20
394.3222678239845
 42
-0.3152987888789177
 10
67.21442384821421
 20
396.201653065556
 10
73.74537727057714
 20
398.5787257126767
 42
0.3152987888789177
  0
LWPOLYLINE
  5
7E
330
17
100
AcDbEntity
  8
BZD
100
AcDbPolyline
 90
18
 70
1
 10
74.36101352856394
 20
396.8872789952625
 42
0.2464548693755317
 10
78.61508962604375
 20
401.5607797930106
 42
-0.3668464132890396
 10
78.82674658104997
 20
401.70947346045614
 42
0.0227013688753496
 10
79.03527655394782
 20
401.7000007470001
 10
81.00407940595733
 20
401.7000007470001
 42
0.1232628537082183
 10
82.32325677007339
 20
402.0302292834831
 42
-0.3432941107079666
 10
82.56536340781668
 20
401.9884706632497
 42
0.3042054877104454
 10
85.0526260938359
 20
401.3756943477988
 10
85.4290253009658
 20
401.51269245539606
 42
-0.5773502691897351
 10
85.69439088023319
 20
401.2900242957053
 10
85.3096647806733
 20
399.1081341617373
 42
-0.2679491924310402
 10
77.46765594250064
 20
389.7623919556877
 10
73.46686816353122
 20
388.3062242905253
 42
-0.5205670505518223
 10
73.1984641348663
 20
388.49416281468257
 10
73.19846413486675
 20
391.400000746999
 42
0.4142135623730951
 10
70.39846413486703
 20
394.20000074699965
 10
68.11203358559806
 20
394.20000074699965
 42
-0.8390996311771779
 10
68.04362955693296
 20
394.58793927115676
  0
LWPOLYLINE
  5
7F
330
17
100
AcDbEntity
  8
GSK_BZD
347
491
100
AcDbPolyline
 90
33
 70
1
 10
68.06947420652898
 20
386.3417335475681
 42
-0.5337481849688936
 10
67.39846413486669
 20
386.8330636985802
 10
67.39846413486623
 20
387.90000074699947
 10
66.89846413486623
 20
387.90000074699947
 10
65.89846413486623
 20
386.90000074699856
 10
65.89846413486623
 20
384.2108713015177
 42
-0.2075133254383016
 10
65.80347298227855
 20
383.99184762133063
 42
0.161228174486363
 10
62.94699611762019
 20
379.8692774036899
 42
-0.941095309667078
 10
62.00185022342623
 20
380.0079057213529
 42
-0.1085807304372004
 10
63.53493447544918
 20
384.3658956796228
 42
0.1390430086413624
 10
64.54846413486541
 20
387.15506040772925
 10
64.62046108235711
 20
391.14049044971307
 42
0.8399780497293138
 10
63.82394655175415
 20
391.26455692280956
 42
-0.0657473970983625
 10
63.60815960084494
 20
390.7545307461428
 42
-0.3140963318641297
 10
62.778349485067
 20
390.3728839937062
 42
-0.451051254984801
 10
62.04591839016905
 20
391.6085553955313
 42
-0.223054966404159
 10
64.22228590616135
 20
393.9326171654511
 42
-0.0994163557827123
 10
64.37671226159102
 20
393.96362868223105
 10
65.64846413486623
 20
393.9636286822315
 42
-0.4142135623730951
 10
65.89846413486623
 20
393.7136286822315
 10
65.89846413486623
 20
392.1000007469993
 10
66.89846413486623
 20
391.1000007469993
 10
67.39846413486623
 20
391.1000007469993
 10
67.39846413486669
 20
391.90000074699856
 42
-0.4142135623729619
 10
67.89846413486669
 20
392.40000074699833
 10
68.39846413486623
 20
392.40000074699856
 42
-0.4142135623733615
 10
68.89846413486669
 20
391.90000074699856
 10
68.89846413486669
 20
391.36908767892965
 42
-0.2156416552380446
 10
68.72862188236707
 20
390.99359352210195
 42
0.4523166325164124
 10
68.72862188236752
 20
387.9761533766896
 42
-0.2156416552372918
 10
68.89846413486623
 20
387.6006592198619
 10
68.89846413486669
 20
386.9935317515974
 42
-0.3183729929591983
 10
68.56421310181133
 20
386.5218037791849
  0
LWPOLYLINE
  5
80
330
17
100
AcDbEntity
  8
GLS_EXT
100
AcDbPolyline
 90
4
 70
1
 10
-38.00000074707577
 20
400.00000074699847
 10
-42.00000074707577
 20
400.00000074699847
 10
-42.00000074707577
 20
361.0000007469971
 10
-38.00000074707577
 20
361.0000007469971
210
0.0
220
-0.0
230
-1.0
  0
LWPOLYLINE
  5
81
330
17
100
AcDbEntity
  8
GLS_INT
100
AcDbPolyline
 90
4
 70
1
 10
-58.000000747075774
 20
400.00000074699847
 10
-62.000000747075774
 20
400.00000074699847
 10
-62.00000074707576
 20
361.0000007469971
 10
-58.00000074707576
 20
361.0000007469971
210
0.0
220
-0.0
230
-1.0
  0
LWPOLYLINE
  5
82
330
17
100
AcDbEntity
  8
SPACER
 62
3
100
AcDbPolyline
 90
4
 70
1
 10
42.00000074707577
 20
400.00000074699847
 10
58.000000747075774
 20
400.00000074699847
 10
58.00000074707577
 20
386.00000074699847
 10
42.00000074707577
 20
386.00000074699847
1001
AcDbBlockRepETag
1070
1
1071
8
1005
331
  0
ENDSEC
  0
SECTION
  2
OBJECTS
  0
DICTIONARY
  5
A
330
0
100
AcDbDictionary
281
1
  3
ACAD_COLOR
350
B
  3
ACAD_GROUP
350
C
  3
ACAD_LAYOUT
350
D
  3
ACAD_MATERIAL
350
E
  3
ACAD_MLEADERSTYLE
350
F
  3
ACAD_MLINESTYLE
350
10
  3
ACAD_PLOTSETTINGS
350
11
  3
ACAD_PLOTSTYLENAME
350
12
  3
ACAD_SCALELIST
350
14
  3
ACAD_TABLESTYLE
350
15
  3
ACAD_VISUALSTYLE
350
16
  3
EZDXF_META
350
2D
  0
DICTIONARY
  5
B
330
A
100
AcDbDictionary
281
1
  0
DICTIONARY
  5
C
330
A
100
AcDbDictionary
281
1
  0
DICTIONARY
  5
D
330
A
100
AcDbDictionary
281
1
  3
Model
350
1A
  3
Layout1
350
1E
  0
DICTIONARY
  5
E
330
A
100
AcDbDictionary
281
1
  3
ByBlock
350
1F
  3
ByLayer
350
20
  3
Global
350
21
  0
DICTIONARY
  5
F
330
A
100
AcDbDictionary
281
1
  3
Standard
350
2C
  0
DICTIONARY
  5
10
330
A
100
AcDbDictionary
281
1
  3
Standard
350
22
  0
DICTIONARY
  5
11
330
A
100
AcDbDictionary
281
1
  0
ACDBDICTIONARYWDFLT
  5
12
330
A
100
AcDbDictionary
281
1
  3
Normal
350
13
100
AcDbDictionaryWithDefault
340
13
  0
ACDBPLACEHOLDER
  5
13
330
12
  0
DICTIONARY
  5
14
330
A
100
AcDbDictionary
281
1
  0
DICTIONARY
  5
15
330
A
100
AcDbDictionary
281
1
  0
DICTIONARY
  5
16
330
A
100
AcDbDictionary
281
1
  0
LAYOUT
  5
1A
330
D
100
AcDbPlotSettings
  1

  4
A3
  6

 40
7.5
 41
20.0
 42
7.5
 43
20.0
 44
420.0
 45
297.0
 46
0.0
 47
0.0
 48
0.0
 49
0.0
140
0.0
141
0.0
142
1.0
143
1.0
 70
1024
 72
1
 73
0
 74
5
  7

 75
16
 76
0
 77
2
 78
300
147
1.0
148
0.0
149
0.0
100
AcDbLayout
  1
Model
 70
1
 71
0
 10
0.0
 20
0.0
 11
420.0
 21
297.0
 12
0.0
 22
0.0
 32
0.0
 14
1e+20
 24
1e+20
 34
1e+20
 15
-1e+20
 25
-1e+20
 35
-1e+20
146
0.0
 13
0.0
 23
0.0
 33
0.0
 16
1.0
 26
0.0
 36
0.0
 17
0.0
 27
1.0
 37
0.0
 76
1
330
17
  0
LAYOUT
  5
1E
330
D
100
AcDbPlotSettings
  1

  4
A3
  6

 40
7.5
 41
20.0
 42
7.5
 43
20.0
 44
420.0
 45
297.0
 46
0.0
 47
0.0
 48
0.0
 49
0.0
140
0.0
141
0.0
142
1.0
143
1.0
 70
0
 72
1
 73
0
 74
5
  7

 75
16
 76
0
 77
2
 78
300
147
1.0
148
0.0
149
0.0
100
AcDbLayout
  1
Layout1
 70
1
 71
1
 10
0.0
 20
0.0
 11
420.0
 21
297.0
 12
0.0
 22
0.0
 32
0.0
 14
1e+20
 24
1e+20
 34
1e+20
 15
-1e+20
 25
-1e+20
 35
-1e+20
146
0.0
 13
0.0
 23
0.0
 33
0.0
 16
1.0
 26
0.0
 36
0.0
 17
0.0
 27
1.0
 37
0.0
 76
1
330
1B
  0
MATERIAL
  5
1F
102
{ACAD_REACTORS
330
E
102
}
330
E
100
AcDbMaterial
  1
ByBlock
  2

 70
0
 40
1.0
 71
1
 41
1.0
 91
-1023410177
 42
1.0
 72
1
  3

 73
1
 74
1
 75
1
 44
0.5
 73
0
 45
1.0
 46
1.0
 77
1
  4

 78
1
 79
1
170
1
 48
1.0
171
1
  6

172
1
173
1
174
1
140
1.0
141
1.0
175
1
  7

176
1
177
1
178
1
143
1.0
179
1
  8

270
1
271
1
272
1
145
1.0
146
1.0
273
1
  9

274
1
275
1
276
1
 42
1.0
 72
1
  3

 73
1
 74
1
 75
1
 94
63
  0
MATERIAL
  5
20
102
{ACAD_REACTORS
330
E
102
}
330
E
100
AcDbMaterial
  1
ByLayer
  2

 70
0
 40
1.0
 71
1
 41
1.0
 91
-1023410177
 42
1.0
 72
1
  3

 73
1
 74
1
 75
1
 44
0.5
 73
0
 45
1.0
 46
1.0
 77
1
  4

 78
1
 79
1
170
1
 48
1.0
171
1
  6

172
1
173
1
174
1
140
1.0
141
1.0
175
1
  7

176
1
177
1
178
1
143
1.0
179
1
  8

270
1
271
1
272
1
145
1.0
146
1.0
273
1
  9

274
1
275
1
276
1
 42
1.0
 72
1
  3

 73
1
 74
1
 75
1
 94
63
  0
MATERIAL
  5
21
102
{ACAD_REACTORS
330
E
102
}
330
E
100
AcDbMaterial
  1
Global
  2

 70
0
 40
1.0
 71
1
 41
1.0
 91
-1023410177
 42
1.0
 72
1
  3

 73
1
 74
1
 75
1
 44
0.5
 73
0
 45
1.0
 46
1.0
 77
1
  4

 78
1
 79
1
170
1
 48
1.0
171
1
  6

172
1
173
1
174
1
140
1.0
141
1.0
175
1
  7

176
1
177
1
178
1
143
1.0
179
1
  8

270
1
271
1
272
1
145
1.0
146
1.0
273
1
  9

274
1
275
1
276
1
 42
1.0
 72
1
  3

 73
1
 74
1
 75
1
 94
63
  0
MLINESTYLE
  5
22
102
{ACAD_REACTORS
330
10
102
}
330
10
100
AcDbMlineStyle
  2
Standard
 70
0
  3

 62
256
 51
90.0
 52
90.0
 71
2
 49
0.5
 62
256
  6
BYLAYER
 49
-0.5
 62
256
  6
BYLAYER
  0
MLEADERSTYLE
  5
2C
102
{ACAD_REACTORS
330
F
102
}
330
F
100
AcDbMLeaderStyle
179
2
170
2
171
1
172
0
 90
2
 40
0.0
 41
0.0
173
1
 91
-1056964608
 92
-2
290
1
 42
2.0
291
1
 43
8.0
  3
Standard
 44
4.0
300

342
29
174
1
175
1
176
0
178
1
 93
-1056964608
 45
4.0
292
0
297
0
 46
4.0
 94
-1056964608
 47
1.0
 49
1.0
140
1.0
294
1
141
0.0
177
0
142
1.0
295
0
296
0
143
3.75
271
0
272
9
273
9
  0
DICTIONARY
  5
2D
330
A
100
AcDbDictionary
280
1
281
1
  3
CREATED_BY_EZDXF
350
2E
  3
WRITTEN_BY_EZDXF
350
85
  0
DICTIONARYVAR
  5
2E
330
2D
100
DictionaryVariables
280
0
  1
1.4.4 @ 2026-07-02T12:45:47.800507+00:00
  0
DICTIONARYVAR
  5
85
330
2D
100
DictionaryVariables
280
0
  1
1.4.4 @ 2026-07-02T12:45:47.828550+00:00
  0
ENDSEC
  0
EOF
