  0
SECTION
  2
HEADER
  9
$ACADVER
  1
AC1024
  9
$ACADMAINTVER
 70
6
  9
$DWGCODEPAGE
  3
ANSI_1252
  9
$LASTSAVEDBY
  1
ezdxf
  9
$INSBASE
 10
0.0
 20
0.0
 30
0.0
  9
$EXTMIN
 10
1e+20
 20
1e+20
 30
1e+20
  9
$EXTMAX
 10
-1e+20
 20
-1e+20
 30
-1e+20
  9
$LIMMIN
 10
0.0
 20
0.0
  9
$LIMMAX
 10
420.0
 20
297.0
  9
$ORTHOMODE
 70
0
  9
$REGENMODE
 70
1
  9
$FILLMODE
 70
1
  9
$QTEXTMODE
 70
0
  9
$MIRRTEXT
 70
1
  9
$LTSCALE
 40
1.0
  9
$ATTMODE
 70
1
  9
$TEXTSIZE
 40
2.5
  9
$TRACEWID
 40
1.0
  9
$TEXTSTYLE
  7
Standard
  9
$CLAYER
  8
0
  9
$CELTYPE
  6
ByLayer
  9
$CECOLOR
 62
256
  9
$CELTSCALE
 40
1.0
  9
$DISPSILH
 70
0
  9
$DIMSCALE
 40
1.0
  9
$DIMASZ
 40
2.5
  9
$DIMEXO
 40
0.625
  9
$DIMDLI
 40
3.75
  9
$DIMRND
 40
0.0
  9
$DIMDLE
 40
0.0
  9
$DIMEXE
 40
1.25
  9
$DIMTP
 40
0.0
  9
$DIMTM
 40
0.0
  9
$DIMTXT
 40
2.5
  9
$DIMCEN
 40
2.5
  9
$DIMTSZ
 40
0.0
  9
$DIMTOL
 70
0
  9
$DIMLIM
 70
0
  9
$DIMTIH
 70
0
  9
$DIMTOH
 70
0
  9
$DIMSE1
 70
0
  9
$DIMSE2
 70
0
  9
$DIMTAD
 70
1
  9
$DIMZIN
 70
8
  9
$DIMBLK
  1

  9
$DIMASO
 70
1
  9
$DIMSHO
 70
1
  9
$DIMPOST
  1

  9
$DIMAPOST
  1

  9
$DIMALT
 70
0
  9
$DIMALTD
 70
3
  9
$DIMALTF
 40
0.03937007874
  9
$DIMLFAC
 40
1.0
  9
$DIMTOFL
 70
1
  9
$DIMTVP
 40
0.0
  9
$DIMTIX
 70
0
  9
$DIMSOXD
 70
0
  9
$DIMSAH
 70
0
  9
$DIMBLK1
  1

  9
$DIMBLK2
  1

  9
$DIMSTYLE
  2
ISO-25
  9
$DIMCLRD
 70
0
  9
$DIMCLRE
 70
0
  9
$DIMCLRT
 70
0
  9
$DIMTFAC
 40
1.0
  9
$DIMGAP
 40
0.625
  9
$DIMJUST
 70
0
  9
$DIMSD1
 70
0
  9
$DIMSD2
 70
0
  9
$DIMTOLJ
 70
0
  9
$DIMTZIN
 70
8
  9
$DIMALTZ
 70
0
  9
$DIMALTTZ
 70
0
  9
$DIMUPT
 70
0
  9
$DIMDEC
 70
2
  9
$DIMTDEC
 70
2
  9
$DIMALTU
 70
2
  9
$DIMALTTD
 70
3
  9
$DIMTXSTY
  7
Standard
  9
$DIMAUNIT
 70
0
  9
$DIMADEC
 70
0
  9
$DIMALTRND
 40
0.0
  9
$DIMAZIN
 70
0
  9
$DIMDSEP
 70
44
  9
$DIMATFIT
 70
3
  9
$DIMFRAC
 70
0
  9
$DIMLDRBLK
  1

  9
$DIMLUNIT
 70
2
  9
$DIMLWD
 70
-2
  9
$DIMLWE
 70
-2
  9
$DIMTMOVE
 70
0
  9
$DIMFXL
 40
1.0
  9
$DIMFXLON
 70
0
  9
$DIMJOGANG
 40
0.785398163397
  9
$DIMTFILL
 70
0
  9
$DIMTFILLCLR
 70
0
  9
$DIMARCSYM
 70
0
  9
$DIMLTYPE
  6

  9
$DIMLTEX1
  6

  9
$DIMLTEX2
  6

  9
$DIMTXTDIRECTION
 70
0
  9
$LUNITS
 70
2
  9
$LUPREC
 70
4
  9
$SKETCHINC
 40
1.0
  9
$FILLETRAD
 40
10.0
  9
$AUNITS
 70
0
  9
$AUPREC
 70
2
  9
$MENU
  1
.
  9
$ELEVATION
 40
0.0
  9
$PELEVATION
 40
0.0
  9
$THICKNESS
 40
0.0
  9
$LIMCHECK
 70
0
  9
$CHAMFERA
 40
0.0
  9
$CHAMFERB
 40
0.0
  9
$CHAMFERC
 40
0.0
  9
$CHAMFERD
 40
0.0
  9
$SKPOLY
 70
0
  9
$TDCREATE
 40
2461224.6833564816
  9
$TDUCREATE
 40
2458532.153996898
  9
$TDUPDATE
 40
2461224.6833564816
  9
$TDUUPDATE
 40
2458532.1544311
  9
$TDINDWG
 40
0.0
  9
$TDUSRTIMER
 40
0.0
  9
$USRTIMER
 70
1
  9
$ANGBASE
 50
0.0
  9
$ANGDIR
 70
0
  9
$PDMODE
 70
0
  9
$PDSIZE
 40
0.0
  9
$PLINEWID
 40
0.0
  9
$SPLFRAME
 70
0
  9
$SPLINETYPE
 70
6
  9
$SPLINESEGS
 70
8
  9
$HANDSEED
  5
258
  9
$SURFTAB1
 70
6
  9
$SURFTAB2
 70
6
  9
$SURFTYPE
 70
6
  9
$SURFU
 70
6
  9
$SURFV
 70
6
  9
$UCSBASE
  2

  9
$UCSNAME
  2

  9
$UCSORG
 10
0.0
 20
0.0
 30
0.0
  9
$UCSXDIR
 10
1.0
 20
0.0
 30
0.0
  9
$UCSYDIR
 10
0.0
 20
1.0
 30
0.0
  9
$UCSORTHOREF
  2

  9
$UCSORTHOVIEW
 70
0
  9
$UCSORGTOP
 10
0.0
 20
0.0
 30
0.0
  9
$UCSORGBOTTOM
 10
0.0
 20
0.0
 30
0.0
  9
$UCSORGLEFT
 10
0.0
 20
0.0
 30
0.0
  9
$UCSORGRIGHT
 10
0.0
 20
0.0
 30
0.0
  9
$UCSORGFRONT
 10
0.0
 20
0.0
 30
0.0
  9
$UCSORGBACK
 10
0.0
 20
0.0
 30
0.0
  9
$PUCSBASE
  2

  9
$PUCSNAME
  2

  9
$PUCSORG
 10
0.0
 20
0.0
 30
0.0
  9
$PUCSXDIR
 10
1.0
 20
0.0
 30
0.0
  9
$PUCSYDIR
 10
0.0
 20
1.0
 30
0.0
  9
$PUCSORTHOREF
  2

  9
$PUCSORTHOVIEW
 70
0
  9
$PUCSORGTOP
 10
0.0
 20
0.0
 30
0.0
  9
$PUCSORGBOTTOM
 10
0.0
 20
0.0
 30
0.0
  9
$PUCSORGLEFT
 10
0.0
 20
0.0
 30
0.0
  9
$PUCSORGRIGHT
 10
0.0
 20
0.0
 30
0.0
  9
$PUCSORGFRONT
 10
0.0
 20
0.0
 30
0.0
  9
$PUCSORGBACK
 10
0.0
 20
0.0
 30
0.0
  9
$USERI1
 70
0
  9
$USERI2
 70
0
  9
$USERI3
 70
0
  9
$USERI4
 70
0
  9
$USERI5
 70
0
  9
$USERR1
 40
0.0
  9
$USERR2
 40
0.0
  9
$USERR3
 40
0.0
  9
$USERR4
 40
0.0
  9
$USERR5
 40
0.0
  9
$WORLDVIEW
 70
1
  9
$SHADEDGE
 70
3
  9
$SHADEDIF
 70
70
  9
$TILEMODE
 70
1
  9
$MAXACTVP
 70
64
  9
$PINSBASE
 10
0.0
 20
0.0
 30
0.0
  9
$PLIMCHECK
 70
0
  9
$PEXTMIN
 10
1e+20
 20
1e+20
 30
1e+20
  9
$PEXTMAX
 10
-1e+20
 20
-1e+20
 30
-1e+20
  9
$PLIMMIN
 10
0.0
 20
0.0
  9
$PLIMMAX
 10
420.0
 20
297.0
  9
$UNITMODE
 70
0
  9
$VISRETAIN
 70
1
  9
$PLINEGEN
 70
0
  9
$PSLTSCALE
 70
1
  9
$TREEDEPTH
 70
3020
  9
$CMLSTYLE
  2
Standard
  9
$CMLJUST
 70
0
  9
$CMLSCALE
 40
20.0
  9
$PROXYGRAPHICS
 70
1
  9
$MEASUREMENT
 70
1
  9
$CELWEIGHT
370
-1
  9
$ENDCAPS
280
0
  9
$JOINSTYLE
280
0
  9
$LWDISPLAY
290
0
  9
$INSUNITS
 70
6
  9
$HYPERLINKBASE
  1

  9
$STYLESHEET
  1

  9
$XEDIT
290
1
  9
$CEPSNTYPE
380
0
  9
$PSTYLEMODE
290
1
  9
$FINGERPRINTGUID
  2
{61168759-34FB-4FD7-8B4C-82A405F0EE2D}
  9
$VERSIONGUID
  2
{5063B25F-632C-42B7-8157-E5DD44303C2B}
  9
$EXTNAMES
290
1
  9
$PSVPSCALE
 40
0.0
  9
$OLESTARTUP
290
0
  9
$SORTENTS
280
127
  9
$INDEXCTL
280
0
  9
$HIDETEXT
280
1
  9
$XCLIPFRAME
280
1
  9
$HALOGAP
280
0
  9
$OBSCOLOR
 70
257
  9
$OBSLTYPE
280
0
  9
$INTERSECTIONDISPLAY
280
0
  9
$INTERSECTIONCOLOR
 70
257
  9
$DIMASSOC
280
2
  9
$PROJECTNAME
  1

  9
$CAMERADISPLAY
290
0
  9
$LENSLENGTH
 40
50.0
  9
$CAMERAHEIGHT
 40
0.0
  9
$STEPSPERSEC
 40
24.0
  9
$STEPSIZE
 40
100.0
  9
$3DDWFPREC
 40
2.0
  9
$PSOLWIDTH
 40
0.005
  9
$PSOLHEIGHT
 40
0.08
  9
$LOFTANG1
 40
1.570796326795
  9
$LOFTANG2
 40
1.570796326795
  9
$LOFTMAG1
 40
0.0
  9
$LOFTMAG2
 40
0.0
  9
$LOFTPARAM
 70
7
  9
$LOFTNORMALS
280
1
  9
$LATITUDE
 40
37.795
  9
$LONGITUDE
 40
-122.394
  9
$NORTHDIRECTION
 40
0.0
  9
$TIMEZONE
 70
-8000
  9
$LIGHTGLYPHDISPLAY
280
1
  9
$TILEMODELIGHTSYNCH
280
1
  9
$CMATERIAL
347
20
  9
$SOLIDHIST
280
0
  9
$SHOWHIST
280
1
  9
$DWFFRAME
280
2
  9
$DGNFRAME
280
2
  9
$REALWORLDSCALE
290
1
  9
$INTERFERECOLOR
 62
256
  9
$CSHADOW
280
0
  9
$SHADOWPLANELOCATION
 40
0.0
  0
ENDSEC
  0
SECTION
  2
CLASSES
  0
CLASS
  1
ACDBDICTIONARYWDFLT
  2
AcDbDictionaryWithDefault
  3
ObjectDBX Classes
 90
0
 91
0
280
0
281
0
  0
CLASS
  1
SUN
  2
AcDbSun
  3
SCENEOE
 90
1153
 91
0
280
0
281
0
  0
CLASS
  1
VISUALSTYLE
  2
AcDbVisualStyle
  3
ObjectDBX Classes
 90
4095
 91
0
280
0
281
0
  0
CLASS
  1
MATERIAL
  2
AcDbMaterial
  3
ObjectDBX Classes
 90
1153
 91
0
280
0
281
0
  0
CLASS
  1
SCALE
  2
AcDbScale
  3
ObjectDBX Classes
 90
1153
 91
0
280
0
281
0
  0
CLASS
  1
TABLESTYLE
  2
AcDbTableStyle
  3
ObjectDBX Classes
 90
4095
 91
0
280
0
281
0
  0
CLASS
  1
MLEADERSTYLE
  2
AcDbMLeaderStyle
  3
ACDB_MLEADERSTYLE_CLASS
 90
4095
 91
0
280
0
281
0
  0
CLASS
  1
DICTIONARYVAR
  2
AcDbDictionaryVar
  3
ObjectDBX Classes
 90
0
 91
0
280
0
281
0
  0
CLASS
  1
CELLSTYLEMAP
  2
AcDbCellStyleMap
  3
ObjectDBX Classes
 90
1152
 91
0
280
0
281
0
  0
CLASS
  1
MENTALRAYRENDERSETTINGS
  2
AcDbMentalRayRenderSettings
  3
SCENEOE
 90
1024
 91
0
280
0
281
0
  0
CLASS
  1
ACDBDETAILVIEWSTYLE
  2
AcDbDetailViewStyle
  3
ObjectDBX Classes
 90
1025
 91
0
280
0
281
0
  0
CLASS
  1
ACDBSECTIONVIEWSTYLE
  2
AcDbSectionViewStyle
  3
ObjectDBX Classes
 90
1025
 91
0
280
0
281
0
  0
CLASS
  1
RASTERVARIABLES
  2
AcDbRasterVariables
  3
ISM
 90
0
 91
0
280
0
281
0
  0
CLASS
  1
LAYOUT
  2
AcDbLayout
  3
ObjectDBX Classes
 90
0
 91
0
280
0
281
0
  0
CLASS
  1
ACDBPLACEHOLDER
  2
AcDbPlaceHolder
  3
ObjectDBX Classes
 90
0
 91
0
280
0
281
0
  0
ENDSEC
  0
SECTION
  2
TABLES
  0
TABLE
  2
VPORT
  5
8
330
0
100
AcDbSymbolTable
 70
1
  0
VPORT
  5
23
330
8
100
AcDbSymbolTableRecord
100
AcDbViewportTableRecord
  2
*Active
 70
0
 10
0.0
 20
0.0
 11
1.0
 21
1.0
 12
0.0
 22
0.0
 13
0.0
 23
0.0
 14
0.5
 24
0.5
 15
0.5
 25
0.5
 16
0.0
 26
0.0
 36
1.0
 17
0.0
 27
0.0
 37
0.0
 40
1000.0
 41
1.34
 42
50.0
 43
0.0
 44
0.0
 50
0.0
 51
0.0
 71
0
 72
1000
 73
1
 74
3
 75
0
 76
0
 77
0
 78
0
281
0
 65
0
146
0.0
  0
ENDTAB
  0
TABLE
  2
LTYPE
  5
2
330
0
100
AcDbSymbolTable
 70
3
  0
LTYPE
  5
24
330
2
100
AcDbSymbolTableRecord
100
AcDbLinetypeTableRecord
  2
ByBlock
 70
0
  3

 72
65
 73
0
 40
0.0
  0
LTYPE
  5
25
330
2
100
AcDbSymbolTableRecord
100
AcDbLinetypeTableRecord
  2
ByLayer
 70
0
  3

 72
65
 73
0
 40
0.0
  0
LTYPE
  5
26
330
2
100
AcDbSymbolTableRecord
100
AcDbLinetypeTableRecord
  2
Continuous
 70
0
  3

 72
65
 73
0
 40
0.0
  0
ENDTAB
  0
TABLE
  2
LAYER
  5
1
330
0
100
AcDbSymbolTable
 70
2
  0
LAYER
  5
27
330
1
100
AcDbSymbolTableRecord
100
AcDbLayerTableRecord
  2
0
 70
0
 62
7
  6
Continuous
370
-3
390
13
347
21
  0
LAYER
  5
28
330
1
100
AcDbSymbolTableRecord
100
AcDbLayerTableRecord
  2
Defpoints
 70
0
 62
7
  6
Continuous
290
0
370
-3
390
13
347
21
  0
ENDTAB
  0
TABLE
  2
STYLE
  5
5
330
0
100
AcDbSymbolTable
 70
1
  0
STYLE
  5
29
330
5
100
AcDbSymbolTableRecord
100
AcDbTextStyleTableRecord
  2
Standard
 70
0
 40
0.0
 41
1.0
 50
0.0
 71
0
 42
2.5
  3
txt
  4

  0
ENDTAB
  0
TABLE
  2
VIEW
  5
7
330
0
100
AcDbSymbolTable
 70
0
  0
ENDTAB
  0
TABLE
  2
UCS
  5
6
330
0
100
AcDbSymbolTable
 70
0
  0
ENDTAB
  0
TABLE
  2
APPID
  5
3
330
0
100
AcDbSymbolTable
 70
3
  0
APPID
  5
2A
330
3
100
AcDbSymbolTableRecord
100
AcDbRegAppTableRecord
  2
ACAD
 70
0
  0
APPID
  5
255
330
3
100
AcDbSymbolTableRecord
100
AcDbRegAppTableRecord
  2
HATCHBACKGROUNDCOLOR
 70
0
  0
APPID
  5
256
330
3
100
AcDbSymbolTableRecord
100
AcDbRegAppTableRecord
  2
EZDXF
 70
0
  0
ENDTAB
  0
TABLE
  2
DIMSTYLE
  5
4
330
0
100
AcDbSymbolTable
 70
1
100
AcDbDimStyleTable
  0
DIMSTYLE
105
2B
330
4
100
AcDbSymbolTableRecord
100
AcDbDimStyleTableRecord
  2
Standard
 70
0
 40
1.0
 41
2.5
 42
0.625
 43
3.75
 44
1.25
 45
0.0
 46
0.0
 47
0.0
 48
0.0
 49
2.5
140
2.5
141
2.5
142
0.0
143
0.03937007874
144
1.0
145
0.0
146
1.0
147
0.625
148
0.0
 69
0
 70
0
 71
0
 72
0
 73
0
 74
0
 75
0
 76
0
 77
1
 78
8
 79
3
170
0
171
3
172
1
173
0
174
0
175
0
176
0
177
0
178
0
179
2
271
2
272
2
273
2
274
3
275
0
276
0
277
2
278
44
279
0
280
0
281
0
282
0
283
0
284
8
285
0
286
0
288
0
289
3
290
0
371
-2
372
-2
  0
ENDTAB
  0
TABLE
  2
BLOCK_RECORD
  5
9
330
0
100
AcDbSymbolTable
 70
2
  0
BLOCK_RECORD
  5
17
330
9
100
AcDbSymbolTableRecord
100
AcDbBlockTableRecord
  2
*Model_Space
340
1A
 70
0
280
1
281
0
  0
BLOCK_RECORD
  5
1B
330
9
100
AcDbSymbolTableRecord
100
AcDbBlockTableRecord
  2
*Paper_Space
340
1E
 70
0
280
1
281
0
  0
ENDTAB
  0
ENDSEC
  0
SECTION
  2
BLOCKS
  0
BLOCK
  5
18
330
17
100
AcDbEntity
  8
0
100
AcDbBlockBegin
  2
*Model_Space
 70
0
 10
0.0
 20
0.0
 30
0.0
  3
*Model_Space
  1

  0
ENDBLK
  5
19
330
17
100
AcDbEntity
  8
0
100
AcDbBlockEnd
  0
BLOCK
  5
1C
330
1B
100
AcDbEntity
  8
0
100
AcDbBlockBegin
  2
*Paper_Space
 70
0
 10
0.0
 20
0.0
 30
0.0
  3
*Paper_Space
  1

  0
ENDBLK
  5
1D
330
1B
100
AcDbEntity
  8
0
100
AcDbBlockEnd
  0
ENDSEC
  0
SECTION
  2
ENTITIES
  0
LWPOLYLINE
  5
2F
330
17
100
AcDbEntity
  8
GSK_POST_EXT
 62
6
100
AcDbPolyline
 90
31
 70
1
 10
-52.90000533899297
 20
35.42171945152995
 42
0.1826758888702128
 10
-53.025005167150766
 20
35.7524385758843
 42
-0.4362879657284912
 10
-52.92249490456811
 20
36.77356649852209
 10
-52.190080350308335
 20
38.02301829981684
 42
0.2073074163340437
 10
-51.04353349272992
 20
40.01994901086482
 42
0.0916074222265504
 10
-51.13551427362904
 20
41.83452057998875
 42
0.4268639712463462
 10
-52.33020079046969
 20
42.574421601538006
 42
-0.0527154374469259
 10
-54.74388819006731
 20
41.952531192502875
 42
0.3718316879017271
 10
-54.9999961905753
 20
41.655760089440264
 10
-55.00000381100813
 20
38.3034251136537
 42
-0.4589973865408548
 10
-55.34496861219236
 20
38.00681465850016
 10
-56.58333008830073
 20
38.10695884875474
 42
0.1730044290472394
 10
-56.76377817277489
 20
38.05858367939368
 10
-56.94542273380034
 20
37.94211662630141
 42
-0.6935273263148176
 10
-57.11113133477852
 20
38.02945422110042
 42
-0.1940731523186352
 10
-56.68123975570143
 20
38.81674290534295
 42
0.9442779230106229
 10
-56.84392456319756
 20
39.07951384161112
 42
0.1848969568933989
 10
-59.12889840087496
 20
36.956131757135836
 42
0.2413739550731988
 10
-59.12889840087496
 20
36.04379021950194
 42
0.1155441180481
 10
-57.09687683768129
 20
33.6495951354803
 42
0.8046084068019029
 10
-56.77321512657261
 20
33.93239158122486
 42
-0.0941294090166279
 10
-57.11113133477852
 20
34.970467755537356
 42
-0.6935273263667959
 10
-56.94542273379943
 20
35.057805350335684
 10
-56.691370728459674
 20
34.9335542784691
 42
0.1102863192832164
 10
-56.52324963794808
 20
34.900588454071
 10
-55.23024404430748
 20
35.01049900287353
 42
-0.4865963738769969
 10
-54.86961145922919
 20
34.635786369651896
 42
-0.0904941723492964
 10
-54.920121434422754
 20
32.939554695087054
 42
0.9312118644052843
 10
-54.31715543507903
 20
32.41687669152975
 10
-52.97376182719313
 20
34.60765460681796
 42
0.1383914179832654
 10
-52.900005338993424
 20
34.86902879959189
  0
LWPOLYLINE
  5
30
330
17
100
AcDbEntity
  8
GSK_POST_EXT
 62
6
100
AcDbPolyline
 90
31
 70
1
 10
-52.90000533899297
 20
-35.42171945152995
 42
-0.1826758888702128
 10
-53.025005167150766
 20
-35.7524385758843
 42
0.4362879657284912
 10
-52.92249490456811
 20
-36.77356649852209
 10
-52.190080350308335
 20
-38.02301829981684
 42
-0.2073074163340437
 10
-51.04353349272992
 20
-40.01994901086482
 42
-0.0916074222265504
 10
-51.13551427362904
 20
-41.83452057998875
 42
-0.4268639712463462
 10
-52.33020079046969
 20
-42.574421601538006
 42
0.0527154374469259
 10
-54.74388819006731
 20
-41.952531192502875
 42
-0.3718316879017271
 10
-54.9999961905753
 20
-41.655760089440264
 10
-55.00000381100813
 20
-38.3034251136537
 42
0.4589973865408548
 10
-55.34496861219236
 20
-38.00681465850016
 10
-56.58333008830073
 20
-38.10695884875474
 42
-0.1730044290472394
 10
-56.76377817277489
 20
-38.05858367939368
 10
-56.94542273380034
 20
-37.94211662630141
 42
0.6935273263148176
 10
-57.11113133477852
 20
-38.02945422110042
 42
0.1940731523186352
 10
-56.68123975570143
 20
-38.81674290534295
 42
-0.9442779230106229
 10
-56.84392456319756
 20
-39.07951384161112
 42
-0.1848969568933989
 10
-59.12889840087496
 20
-36.956131757135836
 42
-0.2413739550731988
 10
-59.12889840087496
 20
-36.04379021950194
 42
-0.1155441180481
 10
-57.09687683768129
 20
-33.6495951354803
 42
-0.8046084068019029
 10
-56.77321512657261
 20
-33.93239158122486
 42
0.0941294090166279
 10
-57.11113133477852
 20
-34.970467755537356
 42
0.6935273263667959
 10
-56.94542273379943
 20
-35.057805350335684
 10
-56.691370728459674
 20
-34.9335542784691
 42
-0.1102863192832164
 10
-56.52324963794808
 20
-34.900588454071
 10
-55.23024404430748
 20
-35.01049900287353
 42
0.4865963738769969
 10
-54.86961145922919
 20
-34.635786369651896
 42
0.0904941723492964
 10
-54.920121434422754
 20
-32.939554695087054
 42
-0.9312118644052843
 10
-54.31715543507903
 20
-32.41687669152975
 10
-52.97376182719313
 20
-34.60765460681796
 42
-0.1383914179832654
 10
-52.900005338993424
 20
-34.86902879959189
  0
LWPOLYLINE
  5
31
330
17
100
AcDbEntity
  8
0
100
AcDbPolyline
 90
108
 70
1
 10
1.2858791391046932e-15
 20
20.99999999999955
 42
0.414214000000013
 10
-1.0000000000002256
 20
21.99999999999954
 10
-4.558168279114168
 20
21.99999999999977
 42
0.4931454668898546
 10
-4.984944934158417
 20
21.44381375891248
 10
-4.643785587692945
 20
20.17059041395623
 42
0.3394542222102445
 10
-4.160822691561176
 20
19.79999999999973
 10
-3.0913372702650537
 20
19.79999999999995
 42
-0.4608620707067141
 10
-2.1035745988574477
 20
18.64403556503362
 10
-2.412414866609878
 20
16.68807113006801
 42
-0.3690546425320968
 10
-4.387940209424184
 20
15.00000000000045
 10
-9.300000000000178
 20
14.99999999999977
 42
-0.4142135623730951
 10
-10.300000000000178
 20
15.99999999999977
 10
-10.299999999999947
 20
17.33566577471743
 42
-0.1006947051833751
 10
-10.260252426726538
 20
17.53103133896206
 10
-9.000000000000226
 20
20.49999999999977
 10
-9.000000000000226
 20
21.49999999999955
 42
0.4142135623730951
 10
-9.500000000000226
 20
21.99999999999954
 10
-11.964723819590057
 20
21.99999999999909
 42
0.3394542588633729
 10
-13.413612559023928
 20
20.88822856765296
 10
-13.482962913144767
 20
20.62940952255098
 42
0.4931454260312745
 10
-13.000000000000227
 20
19.99999999999977
 10
-12.230305390341298
 20
20.0
 42
-0.5373193821397761
 10
-12.046204419651069
 20
19.72185377430219
 10
-13.149838941795679
 20
17.12185377430182
 42
-0.3009658391329427
 10
-13.333939912486358
 20
16.99999999999954
 10
-34.49999999840156
 20
16.999999999999773
 10
-34.64644661288116
 20
16.853553390592882
 42
-0.4142135623730012
 10
-35.35355339402486
 20
16.853553390549905
 10
-35.49999999840203
 20
16.999999999999773
 10
-41.9194207475041
 20
16.999999999999773
 10
-54.78909695432982
 20
15.191284963543243
 42
-0.5715470873652189
 10
-57.47098077297279
 20
18.562875009260324
 10
-55.33209786751422
 20
24.134855476931083
 42
0.091887091667884
 10
-55.00000000000023
 20
25.926695224657124
 10
-55.0
 20
33.89999999999965
 10
-55.99999999999977
 20
34.89999999999965
 10
-56.50000000000023
 20
34.89999999999986
 10
-56.50000000000023
 20
34.09999999999991
 42
-0.4142140000000796
 10
-57.00000000000023
 20
33.59999999999991
 10
-59.50000000000091
 20
33.60000000000015
 42
-0.4142135623730951
 10
-60.50000000000091
 20
34.60000000000015
 10
-60.50000000000091
 20
36.09999813231186
 10
-60.50000000000022
 20
36.09999999999969
 10
-60.50000000000114
 20
36.439439087706894
 42
-0.2882204520473333
 10
-59.65019954769831
 20
37.79119370603622
 10
-56.78669327302667
 20
39.16855203673776
 42
-0.5525293025908538
 10
-56.50000000000023
 20
38.98831808762725
 10
-56.50000000000023
 20
38.09999999999968
 10
-55.99999999999977
 20
38.0999999999999
 10
-55.0
 20
39.10000000000037
 10
-55.00000000000023
 20
41.99999999999977
 10
-56.00000000000022
 20
41.99999999999977
 10
-60.78828200656062
 20
40.257207876338505
 42
0.3152987888789615
 10
-70.00000000000023
 20
27.101511185336225
 10
-70.00000000000023
 20
-27.101511185336907
 42
0.3152987888789811
 10
-60.78828200655948
 20
-40.25720787633939
 10
-56.00000000000022
 20
-42.00000000000023
 10
-55.00000000000023
 20
-42.00000000000023
 10
-55.0
 20
-39.10000000000082
 10
-55.99999999999977
 20
-38.10000000000036
 10
-56.50000000000023
 20
-38.10000000000014
 10
-56.50000000000023
 20
-38.98831808762748
 42
-0.5525293025908538
 10
-56.78669327302667
 20
-39.16855203673799
 10
-59.65019954769831
 20
-37.7911937060362
 42
-0.2882204520472691
 10
-60.50000000000114
 20
-36.439439087707115
 10
-60.50000000000022
 20
-36.100000000000136
 10
-60.50000000000091
 20
-36.099998132312294
 10
-60.50000000000091
 20
-34.600000000000584
 42
-0.4142135623730951
 10
-59.50000000000091
 20
-33.600000000000584
 10
-57.00000000000023
 20
-33.60000000000037
 42
-0.4142140000000796
 10
-56.50000000000023
 20
-34.10000000000037
 10
-56.50000000000023
 20
-34.90000000000032
 10
-55.99999999999977
 20
-34.90000000000009
 10
-55.0
 20
-33.90000000000009
 10
-55.00000000000023
 20
-25.926695224657575
 42
0.0918870916679447
 10
-55.33209786751422
 20
-24.134855476930397
 10
-57.470980772973
 20
-18.562875009260548
 42
-0.5715470873651795
 10
-54.78909695432982
 20
-15.191284963543687
 10
-41.9194207475041
 20
-17.000000000000227
 10
-35.49999999840203
 20
-17.000000000000227
 10
-35.35355339402509
 20
-16.853553390550356
 42
-0.4142135623730951
 10
-34.64644661288139
 20
-16.853553390593326
 10
-34.49999999840156
 20
-17.000000000000227
 10
-13.333939912486361
 20
-17.0
 42
-0.3009658391331316
 10
-13.149838941795682
 20
-17.12185377430228
 10
-12.046204419650852
 20
-19.72185377430264
 42
-0.5373193821396333
 10
-12.230305390341302
 20
-20.00000000000068
 10
-13.000000000000231
 20
-20.00000000000023
 42
0.4931454260312746
 10
-13.482962913144771
 20
-20.62940952255144
 10
-13.413612559023703
 20
-20.88822856765341
 42
0.3394542588634029
 10
-11.964723819590061
 20
-21.99999999999977
 10
-9.50000000000023
 20
-22.0
 42
0.4142135623730951
 10
-9.00000000000023
 20
-21.5
 10
-9.00000000000023
 20
-20.50000000000023
 10
-10.260252426726542
 20
-17.53103133896252
 42
-0.1006947051833751
 10
-10.299999999999951
 20
-17.33566577471788
 10
-10.300000000000182
 20
-16.00000000000022
 42
-0.4142135623730951
 10
-9.300000000000182
 20
-15.00000000000023
 10
-4.387940209424186
 20
-15.00000000000091
 42
-0.3690546425320965
 10
-2.41241486660988
 20
-16.68807113006846
 10
-2.1035745988574504
 20
-18.64403556503407
 42
-0.4608620707067931
 10
-3.0913372702648294
 20
-19.80000000000064
 10
-4.160822691561178
 20
-19.80000000000018
 42
0.3394542222102444
 10
-4.643785587692947
 20
-20.17059041395669
 10
-4.984944934158419
 20
-21.44381375891294
 42
0.493145466889855
 10
-4.558168279114172
 20
-22.00000000000023
 10
-1.0000000000002283
 20
-22.0
 42
0.4142140000000796
 10
-1.2858791391047066e-15
 20
-20.99999999999977
  0
LWPOLYLINE
  5
32
330
17
100
AcDbEntity
  8
POST_EXT
100
AcDbPolyline
 90
108
 70
1
 10
1.2858791391046932e-15
 20
20.99999999999955
 42
0.414214000000013
 10
-1.0000000000002256
 20
21.99999999999954
 10
-4.558168279114168
 20
21.99999999999977
 42
0.4931454668898546
 10
-4.984944934158417
 20
21.44381375891248
 10
-4.643785587692945
 20
20.17059041395623
 42
0.3394542222102445
 10
-4.160822691561176
 20
19.79999999999973
 10
-3.0913372702650537
 20
19.79999999999995
 42
-0.4608620707067141
 10
-2.1035745988574477
 20
18.64403556503362
 10
-2.412414866609878
 20
16.68807113006801
 42
-0.3690546425320968
 10
-4.387940209424184
 20
15.00000000000045
 10
-9.300000000000178
 20
14.99999999999977
 42
-0.4142135623730951
 10
-10.300000000000178
 20
15.99999999999977
 10
-10.299999999999947
 20
17.33566577471743
 42
-0.1006947051833751
 10
-10.260252426726538
 20
17.53103133896206
 10
-9.000000000000226
 20
20.49999999999977
 10
-9.000000000000226
 20
21.49999999999955
 42
0.4142135623730951
 10
-9.500000000000226
 20
21.99999999999954
 10
-11.964723819590057
 20
21.99999999999909
 42
0.3394542588633729
 10
-13.413612559023928
 20
20.88822856765296
 10
-13.482962913144767
 20
20.62940952255098
 42
0.4931454260312745
 10
-13.000000000000227
 20
19.99999999999977
 10
-12.230305390341298
 20
20.0
 42
-0.5373193821397761
 10
-12.046204419651069
 20
19.72185377430219
 10
-13.149838941795679
 20
17.12185377430182
 42
-0.3009658391329427
 10
-13.333939912486358
 20
16.99999999999954
 10
-34.49999999840156
 20
16.999999999999773
 10
-34.64644661288116
 20
16.853553390592882
 42
-0.4142135623730012
 10
-35.35355339402486
 20
16.853553390549905
 10
-35.49999999840203
 20
16.999999999999773
 10
-41.9194207475041
 20
16.999999999999773
 10
-54.78909695432982
 20
15.191284963543243
 42
-0.5715470873652189
 10
-57.47098077297279
 20
18.562875009260324
 10
-55.33209786751422
 20
24.134855476931083
 42
0.091887091667884
 10
-55.00000000000023
 20
25.926695224657124
 10
-55.0
 20
33.89999999999965
 10
-55.99999999999977
 20
34.89999999999965
 10
-56.50000000000023
 20
34.89999999999986
 10
-56.50000000000023
 20
34.09999999999991
 42
-0.4142140000000796
 10
-57.00000000000023
 20
33.59999999999991
 10
-59.50000000000091
 20
33.60000000000015
 42
-0.4142135623730951
 10
-60.50000000000091
 20
34.60000000000015
 10
-60.50000000000091
 20
36.09999813231186
 10
-60.50000000000022
 20
36.09999999999969
 10
-60.50000000000114
 20
36.439439087706894
 42
-0.2882204520473333
 10
-59.65019954769831
 20
37.79119370603622
 10
-56.78669327302667
 20
39.16855203673776
 42
-0.5525293025908538
 10
-56.50000000000023
 20
38.98831808762725
 10
-56.50000000000023
 20
38.09999999999968
 10
-55.99999999999977
 20
38.0999999999999
 10
-55.0
 20
39.10000000000037
 10
-55.00000000000023
 20
41.99999999999977
 10
-56.00000000000022
 20
41.99999999999977
 10
-60.78828200656062
 20
40.257207876338505
 42
0.3152987888789615
 10
-70.00000000000023
 20
27.101511185336225
 10
-70.00000000000023
 20
-27.101511185336907
 42
0.3152987888789811
 10
-60.78828200655948
 20
-40.25720787633939
 10
-56.00000000000022
 20
-42.00000000000023
 10
-55.00000000000023
 20
-42.00000000000023
 10
-55.0
 20
-39.10000000000082
 10
-55.99999999999977
 20
-38.10000000000036
 10
-56.50000000000023
 20
-38.10000000000014
 10
-56.50000000000023
 20
-38.98831808762748
 42
-0.5525293025908538
 10
-56.78669327302667
 20
-39.16855203673799
 10
-59.65019954769831
 20
-37.7911937060362
 42
-0.2882204520472691
 10
-60.50000000000114
 20
-36.439439087707115
 10
-60.50000000000022
 20
-36.100000000000136
 10
-60.50000000000091
 20
-36.099998132312294
 10
-60.50000000000091
 20
-34.600000000000584
 42
-0.4142135623730951
 10
-59.50000000000091
 20
-33.600000000000584
 10
-57.00000000000023
 20
-33.60000000000037
 42
-0.4142140000000796
 10
-56.50000000000023
 20
-34.10000000000037
 10
-56.50000000000023
 20
-34.90000000000032
 10
-55.99999999999977
 20
-34.90000000000009
 10
-55.0
 20
-33.90000000000009
 10
-55.00000000000023
 20
-25.926695224657575
 42
0.0918870916679447
 10
-55.33209786751422
 20
-24.134855476930397
 10
-57.470980772973
 20
-18.562875009260548
 42
-0.5715470873651795
 10
-54.78909695432982
 20
-15.191284963543687
 10
-41.9194207475041
 20
-17.000000000000227
 10
-35.49999999840203
 20
-17.000000000000227
 10
-35.35355339402509
 20
-16.853553390550356
 42
-0.4142135623730951
 10
-34.64644661288139
 20
-16.853553390593326
 10
-34.49999999840156
 20
-17.000000000000227
 10
-13.333939912486361
 20
-17.0
 42
-0.3009658391331316
 10
-13.149838941795682
 20
-17.12185377430228
 10
-12.046204419650852
 20
-19.72185377430264
 42
-0.5373193821396333
 10
-12.230305390341302
 20
-20.00000000000068
 10
-13.000000000000231
 20
-20.00000000000023
 42
0.4931454260312746
 10
-13.482962913144771
 20
-20.62940952255144
 10
-13.413612559023703
 20
-20.88822856765341
 42
0.3394542588634029
 10
-11.964723819590061
 20
-21.99999999999977
 10
-9.50000000000023
 20
-22.0
 42
0.4142135623730951
 10
-9.00000000000023
 20
-21.5
 10
-9.00000000000023
 20
-20.50000000000023
 10
-10.260252426726542
 20
-17.53103133896252
 42
-0.1006947051833751
 10
-10.299999999999951
 20
-17.33566577471788
 10
-10.300000000000182
 20
-16.00000000000022
 42
-0.4142135623730951
 10
-9.300000000000182
 20
-15.00000000000023
 10
-4.387940209424186
 20
-15.00000000000091
 42
-0.3690546425320965
 10
-2.41241486660988
 20
-16.68807113006846
 10
-2.1035745988574504
 20
-18.64403556503407
 42
-0.4608620707067931
 10
-3.0913372702648294
 20
-19.80000000000064
 10
-4.160822691561178
 20
-19.80000000000018
 42
0.3394542222102444
 10
-4.643785587692947
 20
-20.17059041395669
 10
-4.984944934158419
 20
-21.44381375891294
 42
0.493145466889855
 10
-4.558168279114172
 20
-22.00000000000023
 10
-1.0000000000002283
 20
-22.0
 42
0.4142140000000796
 10
-1.2858791391047066e-15
 20
-20.99999999999977
  0
LWPOLYLINE
  5
33
330
17
100
AcDbEntity
  8
POST_INT
100
AcDbPolyline
 90
108
 70
1
 10
1.2858791391046932e-15
 20
20.99999999999955
 42
0.414214000000013
 10
-1.0000000000002256
 20
21.99999999999954
 10
-4.558168279114168
 20
21.99999999999977
 42
0.4931454668898546
 10
-4.984944934158417
 20
21.44381375891248
 10
-4.643785587692945
 20
20.17059041395623
 42
0.3394542222102445
 10
-4.160822691561176
 20
19.79999999999973
 10
-3.0913372702650537
 20
19.79999999999995
 42
-0.4608620707067141
 10
-2.1035745988574477
 20
18.64403556503362
 10
-2.412414866609878
 20
16.68807113006801
 42
-0.3690546425320968
 10
-4.387940209424184
 20
15.00000000000045
 10
-9.300000000000178
 20
14.99999999999977
 42
-0.4142135623730951
 10
-10.300000000000178
 20
15.99999999999977
 10
-10.299999999999947
 20
17.33566577471743
 42
-0.1006947051833751
 10
-10.260252426726538
 20
17.53103133896206
 10
-9.000000000000226
 20
20.49999999999977
 10
-9.000000000000226
 20
21.49999999999955
 42
0.4142135623730951
 10
-9.500000000000226
 20
21.99999999999954
 10
-11.964723819590057
 20
21.99999999999909
 42
0.3394542588633729
 10
-13.413612559023928
 20
20.88822856765296
 10
-13.482962913144767
 20
20.62940952255098
 42
0.4931454260312745
 10
-13.000000000000227
 20
19.99999999999977
 10
-12.230305390341298
 20
20.0
 42
-0.5373193821397761
 10
-12.046204419651069
 20
19.72185377430219
 10
-13.149838941795679
 20
17.12185377430182
 42
-0.3009658391329427
 10
-13.333939912486358
 20
16.99999999999954
 10
-34.49999999840156
 20
16.999999999999773
 10
-34.64644661288116
 20
16.853553390592882
 42
-0.4142135623730012
 10
-35.35355339402486
 20
16.853553390549905
 10
-35.49999999840203
 20
16.999999999999773
 10
-41.9194207475041
 20
16.999999999999773
 10
-54.78909695432982
 20
15.191284963543243
 42
-0.5715470873652189
 10
-57.47098077297279
 20
18.562875009260324
 10
-55.33209786751422
 20
24.134855476931083
 42
0.091887091667884
 10
-55.00000000000023
 20
25.926695224657124
 10
-55.0
 20
33.89999999999965
 10
-55.99999999999977
 20
34.89999999999965
 10
-56.50000000000023
 20
34.89999999999986
 10
-56.50000000000023
 20
34.09999999999991
 42
-0.4142140000000796
 10
-57.00000000000023
 20
33.59999999999991
 10
-59.50000000000091
 20
33.60000000000015
 42
-0.4142135623730951
 10
-60.50000000000091
 20
34.60000000000015
 10
-60.50000000000091
 20
36.09999813231186
 10
-60.50000000000022
 20
36.09999999999969
 10
-60.50000000000114
 20
36.439439087706894
 42
-0.2882204520473333
 10
-59.65019954769831
 20
37.79119370603622
 10
-56.78669327302667
 20
39.16855203673776
 42
-0.5525293025908538
 10
-56.50000000000023
 20
38.98831808762725
 10
-56.50000000000023
 20
38.09999999999968
 10
-55.99999999999977
 20
38.0999999999999
 10
-55.0
 20
39.10000000000037
 10
-55.00000000000023
 20
41.99999999999977
 10
-56.00000000000022
 20
41.99999999999977
 10
-60.78828200656062
 20
40.257207876338505
 42
0.3152987888789615
 10
-70.00000000000023
 20
27.101511185336225
 10
-70.00000000000023
 20
-27.101511185336907
 42
0.3152987888789811
 10
-60.78828200655948
 20
-40.25720787633939
 10
-56.00000000000022
 20
-42.00000000000023
 10
-55.00000000000023
 20
-42.00000000000023
 10
-55.0
 20
-39.10000000000082
 10
-55.99999999999977
 20
-38.10000000000036
 10
-56.50000000000023
 20
-38.10000000000014
 10
-56.50000000000023
 20
-38.98831808762748
 42
-0.5525293025908538
 10
-56.78669327302667
 20
-39.16855203673799
 10
-59.65019954769831
 20
-37.7911937060362
 42
-0.2882204520472691
 10
-60.50000000000114
 20
-36.439439087707115
 10
-60.50000000000022
 20
-36.100000000000136
 10
-60.50000000000091
 20
-36.099998132312294
 10
-60.50000000000091
 20
-34.600000000000584
 42
-0.4142135623730951
 10
-59.50000000000091
 20
-33.600000000000584
 10
-57.00000000000023
 20
-33.60000000000037
 42
-0.4142140000000796
 10
-56.50000000000023
 20
-34.10000000000037
 10
-56.50000000000023
 20
-34.90000000000032
 10
-55.99999999999977
 20
-34.90000000000009
 10
-55.0
 20
-33.90000000000009
 10
-55.00000000000023
 20
-25.926695224657575
 42
0.0918870916679447
 10
-55.33209786751422
 20
-24.134855476930397
 10
-57.470980772973
 20
-18.562875009260548
 42
-0.5715470873651795
 10
-54.78909695432982
 20
-15.191284963543687
 10
-41.9194207475041
 20
-17.000000000000227
 10
-35.49999999840203
 20
-17.000000000000227
 10
-35.35355339402509
 20
-16.853553390550356
 42
-0.4142135623730951
 10
-34.64644661288139
 20
-16.853553390593326
 10
-34.49999999840156
 20
-17.000000000000227
 10
-13.333939912486361
 20
-17.0
 42
-0.3009658391331316
 10
-13.149838941795682
 20
-17.12185377430228
 10
-12.046204419650852
 20
-19.72185377430264
 42
-0.5373193821396333
 10
-12.230305390341302
 20
-20.00000000000068
 10
-13.000000000000231
 20
-20.00000000000023
 42
0.4931454260312746
 10
-13.482962913144771
 20
-20.62940952255144
 10
-13.413612559023703
 20
-20.88822856765341
 42
0.3394542588634029
 10
-11.964723819590061
 20
-21.99999999999977
 10
-9.50000000000023
 20
-22.0
 42
0.4142135623730951
 10
-9.00000000000023
 20
-21.5
 10
-9.00000000000023
 20
-20.50000000000023
 10
-10.260252426726542
 20
-17.53103133896252
 42
-0.1006947051833751
 10
-10.299999999999951
 20
-17.33566577471788
 10
-10.300000000000182
 20
-16.00000000000022
 42
-0.4142135623730951
 10
-9.300000000000182
 20
-15.00000000000023
 10
-4.387940209424186
 20
-15.00000000000091
 42
-0.3690546425320965
 10
-2.41241486660988
 20
-16.68807113006846
 10
-2.1035745988574504
 20
-18.64403556503407
 42
-0.4608620707067931
 10
-3.0913372702648294
 20
-19.80000000000064
 10
-4.160822691561178
 20
-19.80000000000018
 42
0.3394542222102444
 10
-4.643785587692947
 20
-20.17059041395669
 10
-4.984944934158419
 20
-21.44381375891294
 42
0.493145466889855
 10
-4.558168279114172
 20
-22.00000000000023
 10
-1.0000000000002283
 20
-22.0
 42
0.4142140000000796
 10
-1.2858791391047066e-15
 20
-20.99999999999977
  0
LWPOLYLINE
  5
34
330
17
100
AcDbEntity
  8
GLS_EXT
100
AcDbPolyline
 90
4
 70
1
 10
-51.0
 20
-26.0
 10
-47.0
 20
-26.0
 10
-47.0
 20
-65.00000000000136
 10
-51.0
 20
-65.00000000000136
  0
LWPOLYLINE
  5
35
330
17
100
AcDbEntity
  8
GLS_INT
100
AcDbPolyline
 90
4
 70
1
 10
-30.999999999999996
 20
-26.000000000000004
 10
-26.999999999999996
 20
-26.000000000000004
 10
-27.000000000000004
 20
-65.00000000000138
 10
-31.000000000000004
 20
-65.00000000000138
  0
LWPOLYLINE
  5
36
330
17
100
AcDbEntity
  8
SPACER_POST
 62
3
100
AcDbPolyline
 90
4
 70
1
 10
-47.0
 20
-26.0
 10
-30.999999999999996
 20
-26.000000000000004
 10
-31.0
 20
-40.0
 10
-47.0
 20
-40.0
1001
AcDbBlockRepETag
1070
1
1071
8
1005
331
  0
LWPOLYLINE
  5
37
330
17
100
AcDbEntity
  8
BZD_POST
100
AcDbPolyline
 90
41
 70
1
 10
-11.964724193128404
 20
-22.72281193039316
 10
-11.964724193128404
 20
-21.99999999999954
 10
-10.464724193128397
 20
-21.999999999999087
 42
0.4142135623730951
 10
-9.964724193128404
 20
-22.499999999999087
 10
-7.9959213411189
 20
-22.499999999999087
 42
0.3394542588634029
 10
-7.029995514829806
 20
-21.758819045101514
 10
-6.592609550940777
 20
-20.12647240534943
 42
0.2493293434598935
 10
-6.698219330075516
 20
-19.669031463186002
 10
-7.892948167797382
 20
-18.294667166806445
 42
0.2171199618910894
 10
-8.647654435816547
 20
-17.950730006031787
 10
-9.448749932103505
 20
-17.950730006031336
 42
-0.9999999999999998
 10
-9.448749932103052
 20
-16.250730006031514
 10
-8.328648190944476
 20
-16.25073000603197
 42
-0.2171199618911793
 10
-6.8192356549047854
 20
-16.938604327582198
 10
-4.66392548872136
 20
-19.417979769523754
 42
-0.2493293434599847
 10
-4.55831570958662
 20
-19.875420711687184
 10
-5.216983896034434
 20
-22.3336038488419
 42
0.6068148963146447
 10
-4.563010911227137
 20
-22.93285968178588
 10
-2.000000000000454
 20
-21.99999999999954
 10
-1.000000000000454
 20
-21.99999999999954
 10
-1.91768201098057
 20
-27.204433305062132
 42
-0.2679491924310402
 10
-10.916708546589236
 20
-37.92905550872637
 10
-22.101536612209994
 20
-41.999999999999545
 10
-23.101536612209994
 20
-41.999999999999545
 10
-23.101536612209994
 20
-39.10000000000081
 10
-22.101536612210456
 20
-38.0999999999999
 10
-21.601536612210005
 20
-38.0999999999999
 10
-21.601536612210005
 20
-39.18842088903829
 42
0.5205670505518223
 10
-20.930526540547245
 20
-39.658267199431066
 10
-17.930526540547245
 20
-38.566356496631656
 42
0.3152987888789177
 10
-17.601536612209994
 20
-38.09651018623889
 10
-17.601536612209195
 20
-34.5999999999999
 42
0.4142135623730951
 10
-18.601536612209205
 20
-33.5999999999999
 10
-21.101536612210115
 20
-33.5999999999999
 42
0.4142140000000189
 10
-21.601536612210115
 20
-34.0999999999999
 10
-21.601536612210115
 20
-34.90000000000008
 10
-22.101536612210566
 20
-34.90000000000008
 10
-23.101536612210115
 20
-33.90000000000008
 10
-23.101536612210115
 20
-31.677732923014894
 42
-0.3152987888789177
 10
-21.785576898862026
 20
-29.79834768144337
 10
-15.254623476499095
 20
-27.421275034322658
 42
0.3152987888789177
  0
LWPOLYLINE
  5
38
330
17
100
AcDbEntity
  8
GSK_BZD_POST
347
491
100
AcDbPolyline
 90
33
 70
1
 10
-20.930526540547255
 20
-39.658267199431286
 42
-0.5337481849688936
 10
-21.60153661220955
 20
-39.16693704841918
 10
-21.601536612210005
 20
-38.0999999999999
 10
-22.101536612210005
 20
-38.0999999999999
 10
-23.101536612210005
 20
-39.10000000000081
 10
-23.101536612210005
 20
-41.78912944548164
 42
-0.2075133254383016
 10
-23.196527764797683
 20
-42.008153125668734
 42
0.161228174486363
 10
-26.053004629456048
 20
-46.13072334330945
 42
-0.941095309667078
 10
-26.998150523650004
 20
-45.99209502564644
 42
-0.1085807304372004
 10
-25.46506627162706
 20
-41.63410506737659
 42
0.1390430086413624
 10
-24.451536612210823
 20
-38.84494033927012
 10
-24.379539664719125
 20
-34.8595102972863
 42
0.8399780497293138
 10
-25.176054195322088
 20
-34.73544382418981
 42
-0.0657473970983625
 10
-25.391841146231293
 20
-35.24547000085658
 42
-0.3140963318641297
 10
-26.22165126200924
 20
-35.627116753293194
 42
-0.451051254984801
 10
-26.954082356907186
 20
-34.39144535146806
 42
-0.223054966404159
 10
-24.77771484091489
 20
-32.06738358154825
 42
-0.0994163557827123
 10
-24.62328848548521
 20
-32.03637206476832
 10
-23.351536612210005
 20
-32.03637206476787
 42
-0.4142135623730951
 10
-23.101536612210005
 20
-32.28637206476787
 10
-23.101536612210005
 20
-33.900000000000084
 10
-22.101536612210005
 20
-34.900000000000084
 10
-21.601536612210005
 20
-34.900000000000084
 10
-21.60153661220955
 20
-34.10000000000081
 42
-0.4142135623729619
 10
-21.10153661220955
 20
-33.60000000000104
 10
-20.601536612210005
 20
-33.60000000000081
 42
-0.4142135623733615
 10
-20.10153661220955
 20
-34.10000000000081
 10
-20.10153661220955
 20
-34.630913068069724
 42
-0.2156416552380446
 10
-20.27137886470917
 20
-35.00640722489742
 42
0.4523166325164124
 10
-20.271378864708716
 20
-38.02384737030979
 42
-0.2156416552372918
 10
-20.101536612210005
 20
-38.39934152713749
 10
-20.10153661220955
 20
-39.00646899540197
 42
-0.3183729929591983
 10
-20.435787645264906
 20
-39.478196967814476
  0
LWPOLYLINE
  5
39
330
17
100
AcDbEntity
  8
GSK_SSH_EXT
 62
6
100
AcDbPolyline
 90
31
 70
1
 10
-33.90000459191765
 20
85.4217179574557
 42
0.1826758888702128
 10
-34.02500442007545
 20
85.75243708181004
 42
-0.4362879657284912
 10
-33.92249415749279
 20
86.77356500444783
 10
-33.190079603233016
 20
88.02301680574259
 42
0.2073074163340437
 10
-32.0435327456546
 20
90.01994751679057
 42
0.0916074222265504
 10
-32.13551352655372
 20
91.8345190859145
 42
0.4268639712463462
 10
-33.33020004339437
 20
92.57442010746375
 42
-0.0527154374469259
 10
-35.74388744299199
 20
91.95252969842862
 42
0.3718316879017271
 10
-35.999995443499984
 20
91.65575859536601
 10
-36.00000306393281
 20
88.30342361957945
 42
-0.4589973865408548
 10
-36.34496786511704
 20
88.0068131644259
 10
-37.58332934122541
 20
88.10695735468049
 42
0.1730044290472394
 10
-37.76377742569957
 20
88.05858218531942
 10
-37.94542198672502
 20
87.94211513222716
 42
-0.6935273263148176
 10
-38.1111305877032
 20
88.02945272702617
 42
-0.1940731523186352
 10
-37.68123900862611
 20
88.8167414112687
 42
0.9442779230106229
 10
-37.84392381612224
 20
89.07951234753686
 42
0.1848969568933989
 10
-40.12889765379964
 20
86.95613026306158
 42
0.2413739550731988
 10
-40.12889765379964
 20
86.04378872542769
 42
0.1155441180481
 10
-38.096876090605974
 20
83.64959364140604
 42
0.8046084068019029
 10
-37.77321437949729
 20
83.93239008715061
 42
-0.0941294090166279
 10
-38.1111305877032
 20
84.9704662614631
 42
-0.6935273263667959
 10
-37.945421986724114
 20
85.05780385626143
 10
-37.691369981384355
 20
84.93355278439485
 42
0.1102863192832164
 10
-37.523248890872765
 20
84.90058695999674
 10
-36.230243297232164
 20
85.01049750879928
 42
-0.4865963738769969
 10
-35.86961071215387
 20
84.63578487557764
 42
-0.0904941723492964
 10
-35.920120687347435
 20
82.9395532010128
 42
0.9312118644052843
 10
-35.31715468800371
 20
82.4168751974555
 10
-33.97376108011781
 20
84.6076531127437
 42
0.1383914179832654
 10
-33.900004591918105
 20
84.86902730551763
  0
LWPOLYLINE
  5
3A
330
17
100
AcDbEntity
  8
BZD_SSH
100
AcDbPolyline
 90
41
 70
1
 10
7.035276553947369
 20
72.72281043631801
 10
7.035276553947369
 20
71.9999985059244
 10
8.535276553947376
 20
71.99999850592394
 42
-0.4142135623730951
 10
9.03527655394737
 20
72.49999850592394
 10
11.004079405956873
 20
72.49999850592394
 42
-0.3394542588634029
 10
11.970005232245967
 20
71.75881755102637
 10
12.407391196134995
 20
70.12647091127428
 42
-0.2493293434598935
 10
12.301781417000257
 20
69.66902996911085
 10
11.107052579278392
 20
68.2946656727313
 42
-0.2171199618910894
 10
10.352346311259227
 20
67.95072851195664
 10
9.551250814972269
 20
67.95072851195619
 42
0.9999999999999998
 10
9.551250814972722
 20
66.25072851195637
 10
10.671352556131298
 20
66.25072851195682
 42
0.2171199618911793
 10
12.180765092170986
 20
66.93860283350705
 10
14.336075258354413
 20
69.4179782754486
 42
0.2493293434599847
 10
14.441685037489153
 20
69.87541921761203
 10
13.783016851041339
 20
72.33360235476675
 42
-0.6068148963146447
 10
14.436989835848635
 20
72.93285818771074
 10
17.00000074707532
 20
71.9999985059244
 10
18.00000074707532
 20
71.9999985059244
 10
17.082318736095203
 20
77.20443181098699
 42
0.2679491924310402
 10
8.083292200486541
 20
87.92905401465123
 10
-3.1015358651342204
 20
91.9999985059244
 10
-4.10153586513422
 20
91.9999985059244
 10
-4.10153586513422
 20
89.09999850592567
 10
-3.1015358651346823
 20
88.09999850592476
 10
-2.601535865134231
 20
88.09999850592476
 10
-2.601535865134231
 20
89.18841939496315
 42
-0.5205670505518223
 10
-1.930525793471471
 20
89.65826570535592
 10
1.069474206528529
 20
88.5663550025565
 42
-0.3152987888789177
 10
1.3984641348657796
 20
88.09650869216375
 10
1.398464134866579
 20
84.59999850592476
 42
-0.4142135623730951
 10
0.3984641348665683
 20
83.59999850592476
 10
-2.101535865134341
 20
83.59999850592476
 42
-0.4142140000000189
 10
-2.601535865134341
 20
84.09999850592476
 10
-2.601535865134341
 20
84.89999850592494
 10
-3.1015358651347924
 20
84.89999850592494
 10
-4.101535865134341
 20
83.89999850592494
 10
-4.101535865134341
 20
81.67773142893975
 42
0.3152987888789177
 10
-2.785576151786252
 20
79.79834618736822
 10
3.745377270576679
 20
77.42127354024751
 42
-0.3152987888789177
  0
LWPOLYLINE
  5
3B
330
17
100
AcDbEntity
  8
GSK_BZD_SSH
347
491
100
AcDbPolyline
 90
33
 70
1
 10
-1.9305257934714812
 20
89.65826570535614
 42
0.5337481849688936
 10
-2.6015358651337763
 20
89.16693555434404
 10
-2.601535865134231
 20
88.09999850592476
 10
-3.101535865134231
 20
88.09999850592476
 10
-4.101535865134231
 20
89.09999850592567
 10
-4.10153586513423
 20
91.7891279514065
 42
0.2075133254383016
 10
-4.196527017721909
 20
92.00815163159359
 42
-0.161228174486363
 10
-7.053003882380272
 20
96.1307218492343
 42
0.941095309667078
 10
-7.998149776574229
 20
95.9920935315713
 42
0.1085807304372004
 10
-6.465065524551283
 20
91.63410357330145
 42
-0.1390430086413624
 10
-5.45153586513505
 20
88.84493884519497
 10
-5.379538917643352
 20
84.85950880321116
 42
-0.8399780497293138
 10
-6.176053448246314
 20
84.73544233011467
 42
0.0657473970983625
 10
-6.391840399155519
 20
85.24546850678144
 42
0.3140963318641297
 10
-7.221650514933466
 20
85.62711525921804
 42
0.451051254984801
 10
-7.954081609831413
 20
84.39144385739291
 42
0.223054966404159
 10
-5.777714093839116
 20
82.0673820874731
 42
0.0994163557827123
 10
-5.623287738409438
 20
82.03637057069318
 10
-4.351535865134232
 20
82.03637057069272
 42
0.4142135623730951
 10
-4.101535865134232
 20
82.28637057069272
 10
-4.101535865134232
 20
83.89999850592494
 10
-3.1015358651342315
 20
84.89999850592494
 10
-2.6015358651342315
 20
84.89999850592494
 10
-2.601535865133777
 20
84.09999850592567
 42
0.4142135623729619
 10
-2.101535865133777
 20
83.5999985059259
 10
-1.601535865134232
 20
83.59999850592567
 42
0.4142135623733615
 10
-1.1015358651337777
 20
84.09999850592567
 10
-1.1015358651337777
 20
84.63091157399458
 42
0.2156416552380446
 10
-1.2713781176333987
 20
85.00640573082228
 42
-0.4523166325164124
 10
-1.2713781176329422
 20
88.02384587623465
 42
0.2156416552372918
 10
-1.101535865134231
 20
88.39934003306234
 10
-1.1015358651337768
 20
89.00646750132682
 42
0.3183729929591983
 10
-1.4357868981891309
 20
89.47819547373933
  0
LWPOLYLINE
  5
3C
330
17
100
AcDbEntity
  8
GLS_EXT
100
AcDbPolyline
 90
4
 70
1
 10
-31.99999925292468
 20
75.99999850592575
 10
-27.99999925292468
 20
75.99999850592575
 10
-27.99999925292468
 20
114.99999850592712
 10
-31.99999925292468
 20
114.99999850592712
  0
LWPOLYLINE
  5
3D
330
17
100
AcDbEntity
  8
GLS_INT
100
AcDbPolyline
 90
4
 70
1
 10
-11.999999252924681
 20
75.99999850592575
 10
-7.999999252924681
 20
75.99999850592575
 10
-7.999999252924681
 20
114.99999850592712
 10
-11.999999252924681
 20
114.99999850592712
  0
LWPOLYLINE
  5
3E
330
17
100
AcDbEntity
  8
SPACER_SSH
 62
3
100
AcDbPolyline
 90
4
 70
1
 10
-27.99999925292468
 20
75.99999850592575
 10
-11.999999252924681
 20
75.99999850592575
 10
-11.999999252924681
 20
89.99999850592575
 10
-27.99999925292468
 20
89.99999850592575
1001
AcDbBlockRepETag
1070
1
1071
8
1005
331
  0
LINE
  5
3F
330
17
100
AcDbEntity
  8
SSH_EXT
100
AcDbLine
 10
16.00000074707532
 20
16.79999850592367
 30
0.0
 11
11.70000074707604
 21
16.79999850592367
 31
0.0
  0
LINE
  5
40
330
17
100
AcDbEntity
  8
SSH_INT
100
AcDbLine
 10
16.00000074707532
 20
16.79999850592367
 30
0.0
 11
11.70000074707604
 21
16.79999850592367
 31
0.0
  0
ARC
  5
41
330
17
100
AcDbEntity
  8
SSH_EXT
100
AcDbCircle
 10
11.70000074707604
 20
16.999998505923944
 30
0.0
 40
0.2000000000000454
100
AcDbArc
 50
180.0
 51
-90.00000000000001
  0
ARC
  5
42
330
17
100
AcDbEntity
  8
SSH_INT
100
AcDbCircle
 10
11.70000074707604
 20
16.999998505923944
 30
0.0
 40
0.2000000000000454
100
AcDbArc
 50
180.0
 51
-90.00000000000001
  0
LINE
  5
43
330
17
100
AcDbEntity
  8
SSH_EXT
100
AcDbLine
 10
11.50000074707623
 20
16.999998505923944
 30
0.0
 11
11.50000074707623
 21
21.399998505849002
 31
0.0
  0
LINE
  5
44
330
17
100
AcDbEntity
  8
SSH_INT
100
AcDbLine
 10
11.50000074707623
 20
16.999998505923944
 30
0.0
 11
11.50000074707623
 21
21.399998505849002
 31
0.0
  0
ARC
  5
45
330
17
100
AcDbEntity
  8
SSH_EXT
100
AcDbCircle
 10
8.500000747076228
 20
21.399998505849002
 30
0.0
 40
2.999999999999999
100
AcDbArc
 50
1.4000000000000002e-14
 51
89.99999999999132
  0
ARC
  5
46
330
17
100
AcDbEntity
  8
SSH_INT
100
AcDbCircle
 10
8.500000747076228
 20
21.399998505849002
 30
0.0
 40
2.999999999999999
100
AcDbArc
 50
1.4000000000000002e-14
 51
89.99999999999132
  0
LINE
  5
47
330
17
100
AcDbEntity
  8
SSH_EXT
100
AcDbLine
 10
8.500000747076683
 20
24.399998505849002
 30
0.0
 11
6.700000747075137
 21
24.399998505849457
 31
0.0
  0
LINE
  5
48
330
17
100
AcDbEntity
  8
SSH_INT
100
AcDbLine
 10
8.500000747076683
 20
24.399998505849002
 30
0.0
 11
6.700000747075137
 21
24.399998505849457
 31
0.0
  0
ARC
  5
49
330
17
100
AcDbEntity
  8
SSH_EXT
100
AcDbCircle
 10
6.700000747075137
 20
24.59999850584973
 30
0.0
 40
0.2000000000000454
100
AcDbArc
 50
180.0
 51
-90.00000000000001
  0
ARC
  5
4A
330
17
100
AcDbEntity
  8
SSH_INT
100
AcDbCircle
 10
6.700000747075137
 20
24.59999850584973
 30
0.0
 40
0.2000000000000454
100
AcDbArc
 50
180.0
 51
-90.00000000000001
  0
LINE
  5
4B
330
17
100
AcDbEntity
  8
SSH_EXT
100
AcDbLine
 10
6.500000747075318
 20
24.59999850584973
 30
0.0
 11
6.500000747074864
 21
28.99809585497133
 31
0.0
  0
LINE
  5
4C
330
17
100
AcDbEntity
  8
SSH_INT
100
AcDbLine
 10
6.500000747075318
 20
24.59999850584973
 30
0.0
 11
6.500000747074864
 21
28.99809585497133
 31
0.0
  0
ARC
  5
4D
330
17
100
AcDbEntity
  8
SSH_EXT
100
AcDbCircle
 10
6.700000747075137
 20
28.99809585497133
 30
0.0
 40
0.200000000000216
100
AcDbArc
 50
90.00000000000003
 51
180.0
  0
ARC
  5
4E
330
17
100
AcDbEntity
  8
SSH_INT
100
AcDbCircle
 10
6.700000747075137
 20
28.99809585497133
 30
0.0
 40
0.200000000000216
100
AcDbArc
 50
90.00000000000003
 51
180.0
  0
LINE
  5
4F
330
17
100
AcDbEntity
  8
SSH_EXT
100
AcDbLine
 10
6.700000747075137
 20
29.1980958549716
 30
0.0
 11
10.50000074707532
 21
29.198095854970237
 31
0.0
  0
LINE
  5
50
330
17
100
AcDbEntity
  8
SSH_INT
100
AcDbLine
 10
6.700000747075137
 20
29.1980958549716
 30
0.0
 11
10.50000074707532
 21
29.198095854970237
 31
0.0
  0
ARC
  5
51
330
17
100
AcDbEntity
  8
SSH_EXT
100
AcDbCircle
 10
10.50000074707532
 20
29.698095854970237
 30
0.0
 40
0.5
100
AcDbArc
 50
-90.00000000000001
 51
90.0
  0
ARC
  5
52
330
17
100
AcDbEntity
  8
SSH_INT
100
AcDbCircle
 10
10.50000074707532
 20
29.698095854970237
 30
0.0
 40
0.5
100
AcDbArc
 50
-90.00000000000001
 51
90.0
  0
LINE
  5
53
330
17
100
AcDbEntity
  8
SSH_EXT
100
AcDbLine
 10
10.50000074707532
 20
30.198095854970237
 30
0.0
 11
6.700000747075137
 21
30.198095854970692
 31
0.0
  0
LINE
  5
54
330
17
100
AcDbEntity
  8
SSH_INT
100
AcDbLine
 10
10.50000074707532
 20
30.198095854970237
 30
0.0
 11
6.700000747075137
 21
30.198095854970692
 31
0.0
  0
ARC
  5
55
330
17
100
AcDbEntity
  8
SSH_EXT
100
AcDbCircle
 10
6.700000747075137
 20
30.39809585497096
 30
0.0
 40
0.2000000000000454
100
AcDbArc
 50
180.0
 51
-90.00000000000001
  0
ARC
  5
56
330
17
100
AcDbEntity
  8
SSH_INT
100
AcDbCircle
 10
6.700000747075137
 20
30.39809585497096
 30
0.0
 40
0.2000000000000454
100
AcDbArc
 50
180.0
 51
-90.00000000000001
  0
LINE
  5
57
330
17
100
AcDbEntity
  8
SSH_EXT
100
AcDbLine
 10
6.500000747075318
 20
30.39809585497096
 30
0.0
 11
6.500000747075318
 21
34.79999850592504
 31
0.0
  0
LINE
  5
58
330
17
100
AcDbEntity
  8
SSH_INT
100
AcDbLine
 10
6.500000747075318
 20
30.39809585497096
 30
0.0
 11
6.500000747075318
 21
34.79999850592504
 31
0.0
  0
ARC
  5
59
330
17
100
AcDbEntity
  8
SSH_EXT
100
AcDbCircle
 10
6.700000747075137
 20
34.79999850592504
 30
0.0
 40
0.2000000000000454
100
AcDbArc
 50
90.00000000000003
 51
180.0
  0
ARC
  5
5A
330
17
100
AcDbEntity
  8
SSH_INT
100
AcDbCircle
 10
6.700000747075137
 20
34.79999850592504
 30
0.0
 40
0.2000000000000454
100
AcDbArc
 50
90.00000000000003
 51
180.0
  0
LINE
  5
5B
330
17
100
AcDbEntity
  8
SSH_EXT
100
AcDbLine
 10
6.700000747075137
 20
34.999998505925305
 30
0.0
 11
16.00000074707532
 21
34.999998505925305
 31
0.0
  0
LINE
  5
5C
330
17
100
AcDbEntity
  8
SSH_INT
100
AcDbLine
 10
6.700000747075137
 20
34.999998505925305
 30
0.0
 11
16.00000074707532
 21
34.999998505925305
 31
0.0
  0
ARC
  5
5D
330
17
100
AcDbEntity
  8
SSH_EXT
100
AcDbCircle
 10
16.00000074707532
 20
34.79999850592504
 30
0.0
 40
0.2000000000000454
100
AcDbArc
 50
0.0
 51
90.0
  0
ARC
  5
5E
330
17
100
AcDbEntity
  8
SSH_INT
100
AcDbCircle
 10
16.00000074707532
 20
34.79999850592504
 30
0.0
 40
0.2000000000000454
100
AcDbArc
 50
0.0
 51
90.0
  0
LINE
  5
5F
330
17
100
AcDbEntity
  8
SSH_EXT
100
AcDbLine
 10
16.20000074707559
 20
34.79999850592504
 30
0.0
 11
16.20000074707514
 21
30.39809585497096
 31
0.0
  0
LINE
  5
60
330
17
100
AcDbEntity
  8
SSH_INT
100
AcDbLine
 10
16.20000074707559
 20
34.79999850592504
 30
0.0
 11
16.20000074707514
 21
30.39809585497096
 31
0.0
  0
ARC
  5
61
330
17
100
AcDbEntity
  8
SSH_EXT
100
AcDbCircle
 10
16.00000074707532
 20
30.39809585497096
 30
0.0
 40
0.199999999999875
100
AcDbArc
 50
-89.99999999993483
 51
0.0
  0
ARC
  5
62
330
17
100
AcDbEntity
  8
SSH_INT
100
AcDbCircle
 10
16.00000074707532
 20
30.39809585497096
 30
0.0
 40
0.199999999999875
100
AcDbArc
 50
-89.99999999993483
 51
0.0
  0
LINE
  5
63
330
17
100
AcDbEntity
  8
SSH_EXT
100
AcDbLine
 10
16.00000074707532
 20
30.198095854971147
 30
0.0
 11
13.50000074707532
 21
30.198095854970692
 31
0.0
  0
LINE
  5
64
330
17
100
AcDbEntity
  8
SSH_INT
100
AcDbLine
 10
16.00000074707532
 20
30.198095854971147
 30
0.0
 11
13.50000074707532
 21
30.198095854970692
 31
0.0
  0
ARC
  5
65
330
17
100
AcDbEntity
  8
SSH_EXT
100
AcDbCircle
 10
13.50000074707532
 20
29.698095854970237
 30
0.0
 40
0.5000000000002274
100
AcDbArc
 50
90.00000000000003
 51
-90.00000000000001
  0
ARC
  5
66
330
17
100
AcDbEntity
  8
SSH_INT
100
AcDbCircle
 10
13.50000074707532
 20
29.698095854970237
 30
0.0
 40
0.5000000000002274
100
AcDbArc
 50
90.00000000000003
 51
-90.00000000000001
  0
LINE
  5
67
330
17
100
AcDbEntity
  8
SSH_EXT
100
AcDbLine
 10
13.50000074707532
 20
29.198095854969782
 30
0.0
 11
16.00000074707532
 21
29.198095854969782
 31
0.0
  0
LINE
  5
68
330
17
100
AcDbEntity
  8
SSH_INT
100
AcDbLine
 10
13.50000074707532
 20
29.198095854969782
 30
0.0
 11
16.00000074707532
 21
29.198095854969782
 31
0.0
  0
ARC
  5
69
330
17
100
AcDbEntity
  8
SSH_EXT
100
AcDbCircle
 10
16.00000074707532
 20
28.99809585496951
 30
0.0
 40
0.2000000000000454
100
AcDbArc
 50
0.0
 51
90.0
  0
ARC
  5
6A
330
17
100
AcDbEntity
  8
SSH_INT
100
AcDbCircle
 10
16.00000074707532
 20
28.99809585496951
 30
0.0
 40
0.2000000000000454
100
AcDbArc
 50
0.0
 51
90.0
  0
LINE
  5
6B
330
17
100
AcDbEntity
  8
SSH_EXT
100
AcDbLine
 10
16.20000074707559
 20
28.99809585496951
 30
0.0
 11
16.20000074707514
 21
23.898095854970965
 31
0.0
  0
LINE
  5
6C
330
17
100
AcDbEntity
  8
SSH_INT
100
AcDbLine
 10
16.20000074707559
 20
28.99809585496951
 30
0.0
 11
16.20000074707514
 21
23.898095854970965
 31
0.0
  0
ARC
  5
6D
330
17
100
AcDbEntity
  8
SSH_EXT
100
AcDbCircle
 10
16.00000074707532
 20
23.898095854970965
 30
0.0
 40
0.199999999999875
100
AcDbArc
 50
-89.99999999993483
 51
0.0
  0
ARC
  5
6E
330
17
100
AcDbEntity
  8
SSH_INT
100
AcDbCircle
 10
16.00000074707532
 20
23.898095854970965
 30
0.0
 40
0.199999999999875
100
AcDbArc
 50
-89.99999999993483
 51
0.0
  0
LINE
  5
6F
330
17
100
AcDbEntity
  8
SSH_EXT
100
AcDbLine
 10
16.00000074707532
 20
23.698095854971147
 30
0.0
 11
13.50000074707532
 21
23.698095854970237
 31
0.0
  0
LINE
  5
70
330
17
100
AcDbEntity
  8
SSH_INT
100
AcDbLine
 10
16.00000074707532
 20
23.698095854971147
 30
0.0
 11
13.50000074707532
 21
23.698095854970237
 31
0.0
  0
ARC
  5
71
330
17
100
AcDbEntity
  8
SSH_EXT
100
AcDbCircle
 10
13.50000074707532
 20
23.198095854970237
 30
0.0
 40
0.5
100
AcDbArc
 50
90.00000000000003
 51
-90.00000000000001
  0
ARC
  5
72
330
17
100
AcDbEntity
  8
SSH_INT
100
AcDbCircle
 10
13.50000074707532
 20
23.198095854970237
 30
0.0
 40
0.5
100
AcDbArc
 50
90.00000000000003
 51
-90.00000000000001
  0
LINE
  5
73
330
17
100
AcDbEntity
  8
SSH_EXT
100
AcDbLine
 10
13.50000074707532
 20
22.698095854970237
 30
0.0
 11
16.00000074707532
 21
22.6980958549716
 31
0.0
  0
LINE
  5
74
330
17
100
AcDbEntity
  8
SSH_INT
100
AcDbLine
 10
13.50000074707532
 20
22.698095854970237
 30
0.0
 11
16.00000074707532
 21
22.6980958549716
 31
0.0
  0
ARC
  5
75
330
17
100
AcDbEntity
  8
SSH_EXT
100
AcDbCircle
 10
16.00000074707532
 20
22.49809585497133
 30
0.0
 40
0.2000000000000454
100
AcDbArc
 50
0.0
 51
90.0
  0
ARC
  5
76
330
17
100
AcDbEntity
  8
SSH_INT
100
AcDbCircle
 10
16.00000074707532
 20
22.49809585497133
 30
0.0
 40
0.2000000000000454
100
AcDbArc
 50
0.0
 51
90.0
  0
LINE
  5
77
330
17
100
AcDbEntity
  8
SSH_EXT
100
AcDbLine
 10
16.20000074707559
 20
22.49809585497133
 30
0.0
 11
16.20000074707514
 21
16.999998505923944
 31
0.0
  0
LINE
  5
78
330
17
100
AcDbEntity
  8
SSH_INT
100
AcDbLine
 10
16.20000074707559
 20
22.49809585497133
 30
0.0
 11
16.20000074707514
 21
16.999998505923944
 31
0.0
  0
ARC
  5
79
330
17
100
AcDbEntity
  8
SSH_EXT
100
AcDbCircle
 10
16.00000074707532
 20
16.999998505923944
 30
0.0
 40
0.199999999999875
100
AcDbArc
 50
-89.99999999993483
 51
0.0
  0
ARC
  5
7A
330
17
100
AcDbEntity
  8
SSH_INT
100
AcDbCircle
 10
16.00000074707532
 20
16.999998505923944
 30
0.0
 40
0.199999999999875
100
AcDbArc
 50
-89.99999999993483
 51
0.0
  0
ARC
  5
7B
330
17
100
AcDbEntity
  8
SSH_EXT
100
AcDbCircle
 10
12.70000074707513
 20
36.69999850592604
 30
0.0
 40
0.2000000000000454
100
AcDbArc
 50
180.0
 51
-90.00000000000001
  0
ARC
  5
7C
330
17
100
AcDbEntity
  8
SSH_INT
100
AcDbCircle
 10
12.70000074707513
 20
36.69999850592604
 30
0.0
 40
0.2000000000000454
100
AcDbArc
 50
180.0
 51
-90.00000000000001
  0
LINE
  5
7D
330
17
100
AcDbEntity
  8
SSH_EXT
100
AcDbLine
 10
12.50000074707532
 20
36.69999850592604
 30
0.0
 11
12.50000074708532
 21
49.79999850591503
 31
0.0
  0
LINE
  5
7E
330
17
100
AcDbEntity
  8
SSH_INT
100
AcDbLine
 10
12.50000074707532
 20
36.69999850592604
 30
0.0
 11
12.50000074708532
 21
49.79999850591503
 31
0.0
  0
ARC
  5
7F
330
17
100
AcDbEntity
  8
SSH_EXT
100
AcDbCircle
 10
12.70000074708514
 20
49.79999850591503
 30
0.0
 40
0.200000000000017
100
AcDbArc
 50
90.00000000000003
 51
180.0
  0
ARC
  5
80
330
17
100
AcDbEntity
  8
SSH_INT
100
AcDbCircle
 10
12.70000074708514
 20
49.79999850591503
 30
0.0
 40
0.200000000000017
100
AcDbArc
 50
90.00000000000003
 51
180.0
  0
LINE
  5
81
330
17
100
AcDbEntity
  8
SSH_EXT
100
AcDbLine
 10
12.70000074708514
 20
49.999998505914846
 30
0.0
 11
16.00000074708578
 21
49.999998505914846
 31
0.0
  0
LINE
  5
82
330
17
100
AcDbEntity
  8
SSH_INT
100
AcDbLine
 10
12.70000074708514
 20
49.999998505914846
 30
0.0
 11
16.00000074708578
 21
49.999998505914846
 31
0.0
  0
ARC
  5
83
330
17
100
AcDbEntity
  8
SSH_EXT
100
AcDbCircle
 10
16.00000074708578
 20
49.79999850591458
 30
0.0
 40
0.2000000000000454
100
AcDbArc
 50
0.0
 51
90.0
  0
ARC
  5
84
330
17
100
AcDbEntity
  8
SSH_INT
100
AcDbCircle
 10
16.00000074708578
 20
49.79999850591458
 30
0.0
 40
0.2000000000000454
100
AcDbArc
 50
0.0
 51
90.0
  0
LINE
  5
85
330
17
100
AcDbEntity
  8
SSH_EXT
100
AcDbLine
 10
16.20000074708605
 20
49.79999850591458
 30
0.0
 11
16.20000074707559
 21
36.69999850592513
 31
0.0
  0
LINE
  5
86
330
17
100
AcDbEntity
  8
SSH_INT
100
AcDbLine
 10
16.20000074708605
 20
49.79999850591458
 30
0.0
 11
16.20000074707559
 21
36.69999850592513
 31
0.0
  0
ARC
  5
87
330
17
100
AcDbEntity
  8
SSH_EXT
100
AcDbCircle
 10
16.00000074707532
 20
36.69999850592513
 30
0.0
 40
0.2000000000000454
100
AcDbArc
 50
-90.00000000000001
 51
0.0
  0
ARC
  5
88
330
17
100
AcDbEntity
  8
SSH_INT
100
AcDbCircle
 10
16.00000074707532
 20
36.69999850592513
 30
0.0
 40
0.2000000000000454
100
AcDbArc
 50
-90.00000000000001
 51
0.0
  0
LINE
  5
89
330
17
100
AcDbEntity
  8
SSH_EXT
100
AcDbLine
 10
16.00000074707532
 20
36.499998505925305
 30
0.0
 11
12.70000074707513
 21
36.49999850592576
 31
0.0
  0
LINE
  5
8A
330
17
100
AcDbEntity
  8
SSH_INT
100
AcDbLine
 10
16.00000074707532
 20
36.499998505925305
 30
0.0
 11
12.70000074707513
 21
36.49999850592576
 31
0.0
  0
ARC
  5
8B
330
17
100
AcDbEntity
  8
SSH_EXT
100
AcDbCircle
 10
7.462630571588306
 20
36.69999850592467
 30
0.0
 40
0.2000000000000454
100
AcDbArc
 50
180.0
 51
-90.00000000000001
  0
ARC
  5
8C
330
17
100
AcDbEntity
  8
SSH_INT
100
AcDbCircle
 10
7.462630571588306
 20
36.69999850592467
 30
0.0
 40
0.2000000000000454
100
AcDbArc
 50
180.0
 51
-90.00000000000001
  0
LINE
  5
8D
330
17
100
AcDbEntity
  8
SSH_EXT
100
AcDbLine
 10
7.262630571588488
 20
36.69999850592467
 30
0.0
 11
7.262630571598492
 21
49.79999850591458
 31
0.0
  0
LINE
  5
8E
330
17
100
AcDbEntity
  8
SSH_INT
100
AcDbLine
 10
7.262630571588488
 20
36.69999850592467
 30
0.0
 11
7.262630571598492
 21
49.79999850591458
 31
0.0
  0
ARC
  5
8F
330
17
100
AcDbEntity
  8
SSH_EXT
100
AcDbCircle
 10
7.46263057159831
 20
49.79999850591458
 30
0.0
 40
0.200000000000017
100
AcDbArc
 50
90.00000000000003
 51
180.0
  0
ARC
  5
90
330
17
100
AcDbEntity
  8
SSH_INT
100
AcDbCircle
 10
7.46263057159831
 20
49.79999850591458
 30
0.0
 40
0.200000000000017
100
AcDbArc
 50
90.00000000000003
 51
180.0
  0
LINE
  5
91
330
17
100
AcDbEntity
  8
SSH_EXT
100
AcDbLine
 10
7.46263057159831
 20
49.99999850591439
 30
0.0
 11
11.3000007470855
 21
49.99999850591439
 31
0.0
  0
LINE
  5
92
330
17
100
AcDbEntity
  8
SSH_INT
100
AcDbLine
 10
7.46263057159831
 20
49.99999850591439
 30
0.0
 11
11.3000007470855
 21
49.99999850591439
 31
0.0
  0
ARC
  5
93
330
17
100
AcDbEntity
  8
SSH_EXT
100
AcDbCircle
 10
11.3000007470855
 20
49.79999850591458
 30
0.0
 40
0.2000000000000454
100
AcDbArc
 50
0.0
 51
90.0
  0
ARC
  5
94
330
17
100
AcDbEntity
  8
SSH_INT
100
AcDbCircle
 10
11.3000007470855
 20
49.79999850591458
 30
0.0
 40
0.2000000000000454
100
AcDbArc
 50
0.0
 51
90.0
  0
LINE
  5
95
330
17
100
AcDbEntity
  8
SSH_EXT
100
AcDbLine
 10
11.50000074708532
 20
49.79999850591458
 30
0.0
 11
11.50000074707532
 21
36.69999850592513
 31
0.0
  0
LINE
  5
96
330
17
100
AcDbEntity
  8
SSH_INT
100
AcDbLine
 10
11.50000074708532
 20
49.79999850591458
 30
0.0
 11
11.50000074707532
 21
36.69999850592513
 31
0.0
  0
ARC
  5
97
330
17
100
AcDbEntity
  8
SSH_EXT
100
AcDbCircle
 10
11.3000007470755
 20
36.69999850592513
 30
0.0
 40
0.2000000000000241
100
AcDbArc
 50
-90.00000000000001
 51
0.0
  0
ARC
  5
98
330
17
100
AcDbEntity
  8
SSH_INT
100
AcDbCircle
 10
11.3000007470755
 20
36.69999850592513
 30
0.0
 40
0.2000000000000241
100
AcDbArc
 50
-90.00000000000001
 51
0.0
  0
LINE
  5
99
330
17
100
AcDbEntity
  8
SSH_EXT
100
AcDbLine
 10
11.3000007470755
 20
36.499998505925305
 30
0.0
 11
7.462630571588306
 21
36.499998505924395
 31
0.0
  0
LINE
  5
9A
330
17
100
AcDbEntity
  8
SSH_INT
100
AcDbLine
 10
11.3000007470755
 20
36.499998505925305
 30
0.0
 11
7.462630571588306
 21
36.499998505924395
 31
0.0
  0
LINE
  5
9B
330
17
100
AcDbEntity
  8
SSH_EXT
100
AcDbLine
 10
16.00000074708578
 20
50.9999985059144
 30
0.0
 11
12.70000074708514
 21
50.9999985059144
 31
0.0
  0
LINE
  5
9C
330
17
100
AcDbEntity
  8
SSH_INT
100
AcDbLine
 10
16.00000074708578
 20
50.9999985059144
 30
0.0
 11
12.70000074708514
 21
50.9999985059144
 31
0.0
  0
ARC
  5
9D
330
17
100
AcDbEntity
  8
SSH_EXT
100
AcDbCircle
 10
12.70000074708514
 20
51.199998505914664
 30
0.0
 40
0.2000000000000454
100
AcDbArc
 50
180.0
 51
-90.00000000000001
  0
ARC
  5
9E
330
17
100
AcDbEntity
  8
SSH_INT
100
AcDbCircle
 10
12.70000074708514
 20
51.199998505914664
 30
0.0
 40
0.2000000000000454
100
AcDbArc
 50
180.0
 51
-90.00000000000001
  0
LINE
  5
9F
330
17
100
AcDbEntity
  8
SSH_EXT
100
AcDbLine
 10
12.50000074708532
 20
51.199998505914664
 30
0.0
 11
12.50000074707532
 21
62.29999850592458
 31
0.0
  0
LINE
  5
A0
330
17
100
AcDbEntity
  8
SSH_INT
100
AcDbLine
 10
12.50000074708532
 20
51.199998505914664
 30
0.0
 11
12.50000074707532
 21
62.29999850592458
 31
0.0
  0
ARC
  5
A1
330
17
100
AcDbEntity
  8
SSH_EXT
100
AcDbCircle
 10
12.70000074707513
 20
62.29999850592458
 30
0.0
 40
0.200000000000017
100
AcDbArc
 50
90.00000000000003
 51
180.0
  0
ARC
  5
A2
330
17
100
AcDbEntity
  8
SSH_INT
100
AcDbCircle
 10
12.70000074707513
 20
62.29999850592458
 30
0.0
 40
0.200000000000017
100
AcDbArc
 50
90.00000000000003
 51
180.0
  0
LINE
  5
A3
330
17
100
AcDbEntity
  8
SSH_EXT
100
AcDbLine
 10
12.70000074707513
 20
62.49999850592485
 30
0.0
 11
16.00000074707532
 21
62.499998505926214
 31
0.0
  0
LINE
  5
A4
330
17
100
AcDbEntity
  8
SSH_INT
100
AcDbLine
 10
12.70000074707513
 20
62.49999850592485
 30
0.0
 11
16.00000074707532
 21
62.499998505926214
 31
0.0
  0
ARC
  5
A5
330
17
100
AcDbEntity
  8
SSH_EXT
100
AcDbCircle
 10
16.00000074707532
 20
62.29999850592594
 30
0.0
 40
0.2000000000000454
100
AcDbArc
 50
0.0
 51
90.0
  0
ARC
  5
A6
330
17
100
AcDbEntity
  8
SSH_INT
100
AcDbCircle
 10
16.00000074707532
 20
62.29999850592594
 30
0.0
 40
0.2000000000000454
100
AcDbArc
 50
0.0
 51
90.0
  0
LINE
  5
A7
330
17
100
AcDbEntity
  8
SSH_EXT
100
AcDbLine
 10
16.20000074707559
 20
62.29999850592594
 30
0.0
 11
16.20000074708605
 21
51.19999850591421
 31
0.0
  0
LINE
  5
A8
330
17
100
AcDbEntity
  8
SSH_INT
100
AcDbLine
 10
16.20000074707559
 20
62.29999850592594
 30
0.0
 11
16.20000074708605
 21
51.19999850591421
 31
0.0
  0
ARC
  5
A9
330
17
100
AcDbEntity
  8
SSH_EXT
100
AcDbCircle
 10
16.00000074708578
 20
51.19999850591421
 30
0.0
 40
0.200000000000017
100
AcDbArc
 50
-90.00000000000001
 51
0.0
  0
ARC
  5
AA
330
17
100
AcDbEntity
  8
SSH_INT
100
AcDbCircle
 10
16.00000074708578
 20
51.19999850591421
 30
0.0
 40
0.200000000000017
100
AcDbArc
 50
-90.00000000000001
 51
0.0
  0
LINE
  5
AB
330
17
100
AcDbEntity
  8
SSH_EXT
100
AcDbLine
 10
11.30000074708505
 20
50.999998505913936
 30
0.0
 11
7.46263057159831
 21
50.99999850591348
 31
0.0
  0
LINE
  5
AC
330
17
100
AcDbEntity
  8
SSH_INT
100
AcDbLine
 10
11.30000074708505
 20
50.999998505913936
 30
0.0
 11
7.46263057159831
 21
50.99999850591348
 31
0.0
  0
ARC
  5
AD
330
17
100
AcDbEntity
  8
SSH_EXT
100
AcDbCircle
 10
7.46263057159831
 20
51.199998505913754
 30
0.0
 40
0.2000000000000454
100
AcDbArc
 50
180.0
 51
-90.00000000000001
  0
ARC
  5
AE
330
17
100
AcDbEntity
  8
SSH_INT
100
AcDbCircle
 10
7.46263057159831
 20
51.199998505913754
 30
0.0
 40
0.2000000000000454
100
AcDbArc
 50
180.0
 51
-90.00000000000001
  0
LINE
  5
AF
330
17
100
AcDbEntity
  8
SSH_EXT
100
AcDbLine
 10
7.262630571598492
 20
51.199998505913754
 30
0.0
 11
7.262630571588488
 21
63.05310612618223
 31
0.0
  0
LINE
  5
B0
330
17
100
AcDbEntity
  8
SSH_INT
100
AcDbLine
 10
7.262630571598492
 20
51.199998505913754
 30
0.0
 11
7.262630571588488
 21
63.05310612618223
 31
0.0
  0
ARC
  5
B1
330
17
100
AcDbEntity
  8
SSH_EXT
100
AcDbCircle
 10
7.462630571588306
 20
63.05310612618223
 30
0.0
 40
0.2000000000000223
100
AcDbArc
 50
52.79312825265275
 51
180.0
  0
ARC
  5
B2
330
17
100
AcDbEntity
  8
SSH_INT
100
AcDbCircle
 10
7.462630571588306
 20
63.05310612618223
 30
0.0
 40
0.2000000000000223
100
AcDbArc
 50
52.79312825265275
 51
180.0
  0
ARC
  5
B3
330
17
100
AcDbEntity
  8
SSH_EXT
100
AcDbCircle
 10
9.700000747086506
 20
65.99999850592121
 30
0.0
 40
3.499999999996238
100
AcDbArc
 50
-127.20687174757799
 51
-90.00000000018612
  0
ARC
  5
B4
330
17
100
AcDbEntity
  8
SSH_INT
100
AcDbCircle
 10
9.700000747086506
 20
65.99999850592121
 30
0.0
 40
3.499999999996238
100
AcDbArc
 50
-127.20687174757799
 51
-90.00000000018612
  0
LINE
  5
B5
330
17
100
AcDbEntity
  8
SSH_EXT
100
AcDbLine
 10
9.700000747075137
 20
62.49999850592485
 30
0.0
 11
11.30000074707504
 21
62.499998505925305
 31
0.0
  0
LINE
  5
B6
330
17
100
AcDbEntity
  8
SSH_INT
100
AcDbLine
 10
9.700000747075137
 20
62.49999850592485
 30
0.0
 11
11.30000074707504
 21
62.499998505925305
 31
0.0
  0
ARC
  5
B7
330
17
100
AcDbEntity
  8
SSH_EXT
100
AcDbCircle
 10
11.30000074707504
 20
62.29999850592549
 30
0.0
 40
0.2000000000000454
100
AcDbArc
 50
0.0
 51
90.0
  0
ARC
  5
B8
330
17
100
AcDbEntity
  8
SSH_INT
100
AcDbCircle
 10
11.30000074707504
 20
62.29999850592549
 30
0.0
 40
0.2000000000000454
100
AcDbArc
 50
0.0
 51
90.0
  0
LINE
  5
B9
330
17
100
AcDbEntity
  8
SSH_EXT
100
AcDbLine
 10
11.50000074707532
 20
62.29999850592549
 30
0.0
 11
11.50000074708532
 21
51.19999850591421
 31
0.0
  0
LINE
  5
BA
330
17
100
AcDbEntity
  8
SSH_INT
100
AcDbLine
 10
11.50000074707532
 20
62.29999850592549
 30
0.0
 11
11.50000074708532
 21
51.19999850591421
 31
0.0
  0
ARC
  5
BB
330
17
100
AcDbEntity
  8
SSH_EXT
100
AcDbCircle
 10
11.30000074708505
 20
51.19999850591421
 30
0.0
 40
0.200000000000017
100
AcDbArc
 50
-90.00000000000001
 51
-6.510090442006648e-11
  0
ARC
  5
BC
330
17
100
AcDbEntity
  8
SSH_INT
100
AcDbCircle
 10
11.30000074708505
 20
51.19999850591421
 30
0.0
 40
0.200000000000017
100
AcDbArc
 50
-90.00000000000001
 51
-6.510090442006648e-11
  0
ARC
  5
BD
330
17
100
AcDbEntity
  8
SSH_EXT
100
AcDbCircle
 10
-8.742966291497396
 20
49.49999850592486
 30
0.0
 40
0.9999999999999853
100
AcDbArc
 50
-158.19859051363852
 51
-90.00000000001305
  0
ARC
  5
BE
330
17
100
AcDbEntity
  8
SSH_INT
100
AcDbCircle
 10
-8.742966291497396
 20
49.49999850592486
 30
0.0
 40
0.9999999999999853
100
AcDbArc
 50
-158.19859051363852
 51
-90.00000000001305
  0
LINE
  5
BF
330
17
100
AcDbEntity
  8
SSH_EXT
100
AcDbLine
 10
-9.67144298238236
 20
49.12860782957069
 30
0.0
 11
-10.24855552346616
 21
50.5713891822793
 31
0.0
  0
LINE
  5
C0
330
17
100
AcDbEntity
  8
SSH_INT
100
AcDbLine
 10
-9.67144298238236
 20
49.12860782957069
 30
0.0
 11
-10.24855552346616
 21
50.5713891822793
 31
0.0
  0
ARC
  5
C1
330
17
100
AcDbEntity
  8
SSH_EXT
100
AcDbCircle
 10
-11.17703221435113
 20
50.19999850592513
 30
0.0
 40
1.000000000000085
100
AcDbArc
 50
21.801409486362704
 51
90.00000000000003
  0
ARC
  5
C2
330
17
100
AcDbEntity
  8
SSH_INT
100
AcDbCircle
 10
-11.17703221435113
 20
50.19999850592513
 30
0.0
 40
1.000000000000085
100
AcDbArc
 50
21.801409486362704
 51
90.00000000000003
  0
LINE
  5
C3
330
17
100
AcDbEntity
  8
SSH_EXT
100
AcDbLine
 10
-11.17703221435113
 20
51.19999850592513
 30
0.0
 11
-11.99999925292468
 21
51.19999850592467
 31
0.0
  0
LINE
  5
C4
330
17
100
AcDbEntity
  8
SSH_INT
100
AcDbLine
 10
-11.17703221435113
 20
51.19999850592513
 30
0.0
 11
-11.99999925292468
 21
51.19999850592467
 31
0.0
  0
LINE
  5
C5
330
17
100
AcDbEntity
  8
SSH_EXT
100
AcDbLine
 10
-11.99999925292468
 20
51.19999850592467
 30
0.0
 11
-11.99999925292468
 21
49.25699333987541
 31
0.0
  0
LINE
  5
C6
330
17
100
AcDbEntity
  8
SSH_INT
100
AcDbLine
 10
-11.99999925292468
 20
51.19999850592467
 30
0.0
 11
-11.99999925292468
 21
49.25699333987541
 31
0.0
  0
ARC
  5
C7
330
17
100
AcDbEntity
  8
SSH_EXT
100
AcDbCircle
 10
-12.49999925292468
 20
49.25699333987541
 30
0.0
 40
0.4999999999999954
100
AcDbArc
 50
-98.21321070172282
 51
0.0
  0
ARC
  5
C8
330
17
100
AcDbEntity
  8
SSH_INT
100
AcDbCircle
 10
-12.49999925292468
 20
49.25699333987541
 30
0.0
 40
0.4999999999999954
100
AcDbArc
 50
-98.21321070172282
 51
0.0
  0
ARC
  5
C9
330
17
100
AcDbEntity
  8
SSH_EXT
100
AcDbCircle
 10
-12.99999925292604
 20
45.79289172473819
 30
0.0
 40
2.999999999999734
100
AcDbArc
 50
81.78678929823234
 51
98.21321070170627
  0
ARC
  5
CA
330
17
100
AcDbEntity
  8
SSH_INT
100
AcDbCircle
 10
-12.99999925292604
 20
45.79289172473819
 30
0.0
 40
2.999999999999734
100
AcDbArc
 50
81.78678929823234
 51
98.21321070170627
  0
ARC
  5
CB
330
17
100
AcDbEntity
  8
SSH_EXT
100
AcDbCircle
 10
-13.49999925292468
 20
49.25699333987587
 30
0.0
 40
0.4999999999997445
100
AcDbArc
 50
-179.9999999999479
 51
-81.78678929822374
  0
ARC
  5
CC
330
17
100
AcDbEntity
  8
SSH_INT
100
AcDbCircle
 10
-13.49999925292468
 20
49.25699333987587
 30
0.0
 40
0.4999999999997445
100
AcDbArc
 50
-179.9999999999479
 51
-81.78678929822374
  0
LINE
  5
CD
330
17
100
AcDbEntity
  8
SSH_EXT
100
AcDbLine
 10
-13.99999925292468
 20
49.25699333987541
 30
0.0
 11
-13.99999925292468
 21
51.19999850592467
 31
0.0
  0
LINE
  5
CE
330
17
100
AcDbEntity
  8
SSH_INT
100
AcDbLine
 10
-13.99999925292468
 20
49.25699333987541
 30
0.0
 11
-13.99999925292468
 21
51.19999850592467
 31
0.0
  0
LINE
  5
CF
330
17
100
AcDbEntity
  8
SSH_EXT
100
AcDbLine
 10
-13.99999925292468
 20
51.19999850592467
 30
0.0
 11
-14.82296629149732
 21
51.19999850592513
 31
0.0
  0
LINE
  5
D0
330
17
100
AcDbEntity
  8
SSH_INT
100
AcDbLine
 10
-13.99999925292468
 20
51.19999850592467
 30
0.0
 11
-14.82296629149732
 21
51.19999850592513
 31
0.0
  0
ARC
  5
D1
330
17
100
AcDbEntity
  8
SSH_EXT
100
AcDbCircle
 10
-14.82296629149732
 20
50.19999850592513
 30
0.0
 40
1.000000000000001
100
AcDbArc
 50
90.00000000000003
 51
158.1985905136312
  0
ARC
  5
D2
330
17
100
AcDbEntity
  8
SSH_INT
100
AcDbCircle
 10
-14.82296629149732
 20
50.19999850592513
 30
0.0
 40
1.000000000000001
100
AcDbArc
 50
90.00000000000003
 51
158.1985905136312
  0
LINE
  5
D3
330
17
100
AcDbEntity
  8
SSH_EXT
100
AcDbLine
 10
-15.75144298238274
 20
50.5713891822793
 30
0.0
 11
-16.32855552346609
 21
49.12860782957069
 31
0.0
  0
LINE
  5
D4
330
17
100
AcDbEntity
  8
SSH_INT
100
AcDbLine
 10
-15.75144298238274
 20
50.5713891822793
 30
0.0
 11
-16.32855552346609
 21
49.12860782957069
 31
0.0
  0
ARC
  5
D5
330
17
100
AcDbEntity
  8
SSH_EXT
100
AcDbCircle
 10
-17.25703221435106
 20
49.499998505925305
 30
0.0
 40
1.000000000000085
100
AcDbArc
 50
-90.00000000000001
 51
-21.80140948638557
  0
ARC
  5
D6
330
17
100
AcDbEntity
  8
SSH_INT
100
AcDbCircle
 10
-17.25703221435106
 20
49.499998505925305
 30
0.0
 40
1.000000000000085
100
AcDbArc
 50
-90.00000000000001
 51
-21.80140948638557
  0
LINE
  5
D7
330
17
100
AcDbEntity
  8
SSH_EXT
100
AcDbLine
 10
-17.25703221435106
 20
48.49999850592485
 30
0.0
 11
-20.38879244868349
 21
48.49999850592395
 31
0.0
  0
LINE
  5
D8
330
17
100
AcDbEntity
  8
SSH_INT
100
AcDbLine
 10
-17.25703221435106
 20
48.49999850592485
 30
0.0
 11
-20.38879244868349
 21
48.49999850592395
 31
0.0
  0
ARC
  5
D9
330
17
100
AcDbEntity
  8
SSH_EXT
100
AcDbCircle
 10
-20.38879244868303
 20
44.99999850592395
 30
0.0
 40
3.499999999999978
100
AcDbArc
 50
90.00000000000746
 51
-160.000000000012
  0
ARC
  5
DA
330
17
100
AcDbEntity
  8
SSH_INT
100
AcDbCircle
 10
-20.38879244868303
 20
44.99999850592395
 30
0.0
 40
3.499999999999978
100
AcDbArc
 50
90.00000000000746
 51
-160.000000000012
  0
LINE
  5
DB
330
17
100
AcDbEntity
  8
SSH_EXT
100
AcDbLine
 10
-23.67771662143423
 20
43.802928004284695
 30
0.0
 11
-22.06879694748841
 21
39.38245753040247
 31
0.0
  0
LINE
  5
DC
330
17
100
AcDbEntity
  8
SSH_INT
100
AcDbLine
 10
-23.67771662143423
 20
43.802928004284695
 30
0.0
 11
-22.06879694748841
 21
39.38245753040247
 31
0.0
  0
ARC
  5
DD
330
17
100
AcDbEntity
  8
SSH_EXT
100
AcDbCircle
 10
-23.00848956827394
 20
39.04043738707697
 30
0.0
 40
1.000000000000006
100
AcDbArc
 50
-55.259379595427006
 51
19.99999999998921
  0
ARC
  5
DE
330
17
100
AcDbEntity
  8
SSH_INT
100
AcDbCircle
 10
-23.00848956827394
 20
39.04043738707697
 30
0.0
 40
1.000000000000006
100
AcDbArc
 50
-55.259379595427006
 51
19.99999999998921
  0
ARC
  5
DF
330
17
100
AcDbEntity
  8
SSH_EXT
100
AcDbCircle
 10
-20.89999925292977
 20
35.99999850591621
 30
0.0
 40
2.699999999996393
100
AcDbArc
 50
124.74062040438861
 51
166.0320373252603
  0
ARC
  5
E0
330
17
100
AcDbEntity
  8
SSH_INT
100
AcDbCircle
 10
-20.89999925292977
 20
35.99999850591621
 30
0.0
 40
2.699999999996393
100
AcDbArc
 50
124.74062040438861
 51
166.0320373252603
  0
ARC
  5
E1
330
17
100
AcDbEntity
  8
SSH_EXT
100
AcDbCircle
 10
-23.71424870882811
 20
36.699998505938765
 30
0.0
 40
0.2000000000129773
100
AcDbArc
 50
-90.00000000475512
 51
-13.967962679431052
  0
ARC
  5
E2
330
17
100
AcDbEntity
  8
SSH_INT
100
AcDbCircle
 10
-23.71424870882811
 20
36.699998505938765
 30
0.0
 40
0.2000000000129773
100
AcDbArc
 50
-90.00000000475512
 51
-13.967962679431052
  0
LINE
  5
E3
330
17
100
AcDbEntity
  8
SSH_EXT
100
AcDbLine
 10
-23.71424870884494
 20
36.499998505925305
 30
0.0
 11
-31.03736942841488
 21
36.49999850592576
 31
0.0
  0
LINE
  5
E4
330
17
100
AcDbEntity
  8
SSH_INT
100
AcDbLine
 10
-23.71424870884494
 20
36.499998505925305
 30
0.0
 11
-31.03736942841488
 21
36.49999850592576
 31
0.0
  0
ARC
  5
E5
330
17
100
AcDbEntity
  8
SSH_EXT
100
AcDbCircle
 10
-31.03736942841488
 20
36.69999850592604
 30
0.0
 40
0.1999999999999318
100
AcDbArc
 50
-179.99999999986983
 51
-90.00000000000001
  0
ARC
  5
E6
330
17
100
AcDbEntity
  8
SSH_INT
100
AcDbCircle
 10
-31.03736942841488
 20
36.69999850592604
 30
0.0
 40
0.1999999999999318
100
AcDbArc
 50
-179.99999999986983
 51
-90.00000000000001
  0
LINE
  5
E7
330
17
100
AcDbEntity
  8
SSH_EXT
100
AcDbLine
 10
-31.2373694284147
 20
36.69999850592558
 30
0.0
 11
-31.2373694284147
 21
49.47523902470812
 31
0.0
  0
LINE
  5
E8
330
17
100
AcDbEntity
  8
SSH_INT
100
AcDbLine
 10
-31.2373694284147
 20
36.69999850592558
 30
0.0
 11
-31.2373694284147
 21
49.47523902470812
 31
0.0
  0
ARC
  5
E9
330
17
100
AcDbEntity
  8
SSH_EXT
100
AcDbCircle
 10
-31.03736942841442
 20
49.47523902470812
 30
0.0
 40
0.2000000000000175
100
AcDbArc
 50
135.0000000000921
 51
179.9999999999674
  0
ARC
  5
EA
330
17
100
AcDbEntity
  8
SSH_INT
100
AcDbCircle
 10
-31.03736942841442
 20
49.47523902470812
 30
0.0
 40
0.2000000000000175
100
AcDbArc
 50
135.0000000000921
 51
179.9999999999674
  0
LINE
  5
EB
330
17
100
AcDbEntity
  8
SSH_EXT
100
AcDbLine
 10
-31.17879078465194
 20
49.61666038094518
 30
0.0
 11
-30.7373694284147
 21
50.058081737182434
 31
0.0
  0
LINE
  5
EC
330
17
100
AcDbEntity
  8
SSH_INT
100
AcDbLine
 10
-31.17879078465194
 20
49.61666038094518
 30
0.0
 11
-30.7373694284147
 21
50.058081737182434
 31
0.0
  0
LINE
  5
ED
330
17
100
AcDbEntity
  8
SSH_EXT
100
AcDbLine
 10
-30.7373694284147
 20
50.058081737182434
 30
0.0
 11
-31.17879078465194
 21
50.49950309341967
 31
0.0
  0
LINE
  5
EE
330
17
100
AcDbEntity
  8
SSH_INT
100
AcDbLine
 10
-30.7373694284147
 20
50.058081737182434
 30
0.0
 11
-31.17879078465194
 21
50.49950309341967
 31
0.0
  0
ARC
  5
EF
330
17
100
AcDbEntity
  8
SSH_EXT
100
AcDbCircle
 10
-31.03736942841488
 20
50.64092444965764
 30
0.0
 40
0.2000000000000075
100
AcDbArc
 50
-179.99999999986983
 51
-134.99999999988492
  0
ARC
  5
F0
330
17
100
AcDbEntity
  8
SSH_INT
100
AcDbCircle
 10
-31.03736942841488
 20
50.64092444965764
 30
0.0
 40
0.2000000000000075
100
AcDbArc
 50
-179.99999999986983
 51
-134.99999999988492
  0
LINE
  5
F1
330
17
100
AcDbEntity
  8
SSH_EXT
100
AcDbLine
 10
-31.2373694284147
 20
50.64092444965718
 30
0.0
 11
-31.23736942841424
 21
63.14388534684895
 31
0.0
  0
LINE
  5
F2
330
17
100
AcDbEntity
  8
SSH_INT
100
AcDbLine
 10
-31.2373694284147
 20
50.64092444965718
 30
0.0
 11
-31.23736942841424
 21
63.14388534684895
 31
0.0
  0
ARC
  5
F3
330
17
100
AcDbEntity
  8
SSH_EXT
100
AcDbCircle
 10
-31.03736942841442
 20
63.1438853468494
 30
0.0
 40
0.19999999999991
100
AcDbArc
 50
98.00000000005141
 51
-179.99999999996754
  0
ARC
  5
F4
330
17
100
AcDbEntity
  8
SSH_INT
100
AcDbCircle
 10
-31.03736942841442
 20
63.1438853468494
 30
0.0
 40
0.19999999999991
100
AcDbArc
 50
98.00000000005141
 51
-179.99999999996754
  0
LINE
  5
F5
330
17
100
AcDbEntity
  8
SSH_EXT
100
AcDbLine
 10
-31.06520404860658
 20
63.34193896059742
 30
0.0
 11
-22.83997189025559
 21
64.4979199537529
 31
0.0
  0
LINE
  5
F6
330
17
100
AcDbEntity
  8
SSH_INT
100
AcDbLine
 10
-31.06520404860658
 20
63.34193896059742
 30
0.0
 11
-22.83997189025559
 21
64.4979199537529
 31
0.0
  0
ARC
  5
F7
330
17
100
AcDbEntity
  8
SSH_EXT
100
AcDbCircle
 10
-22.81213727006161
 20
64.29986634000534
 30
0.0
 40
0.1999999999998612
100
AcDbArc
 50
89.99927888598064
 51
98.00000000057194
  0
ARC
  5
F8
330
17
100
AcDbEntity
  8
SSH_INT
100
AcDbCircle
 10
-22.81213727006161
 20
64.29986634000534
 30
0.0
 40
0.1999999999998612
100
AcDbArc
 50
89.99927888598064
 51
98.00000000057194
  0
LINE
  5
F9
330
17
100
AcDbEntity
  8
SSH_EXT
100
AcDbLine
 10
-22.8121347528986
 20
64.49986633998924
 30
0.0
 11
6.0626330887535
 21
64.49950292722815
 31
0.0
  0
LINE
  5
FA
330
17
100
AcDbEntity
  8
SSH_INT
100
AcDbLine
 10
-22.8121347528986
 20
64.49986633998924
 30
0.0
 11
6.0626330887535
 21
64.49950292722815
 31
0.0
  0
ARC
  5
FB
330
17
100
AcDbEntity
  8
SSH_EXT
100
AcDbCircle
 10
6.06263057158867
 20
64.29950292724425
 30
0.0
 40
0.2000000000000075
100
AcDbArc
 50
0.0
 51
89.9992788853944
  0
ARC
  5
FC
330
17
100
AcDbEntity
  8
SSH_INT
100
AcDbCircle
 10
6.06263057158867
 20
64.29950292724425
 30
0.0
 40
0.2000000000000075
100
AcDbArc
 50
0.0
 51
89.9992788853944
  0
LINE
  5
FD
330
17
100
AcDbEntity
  8
SSH_EXT
100
AcDbLine
 10
6.262630571588488
 20
64.29950292724425
 30
0.0
 11
6.262630571588488
 21
57.69999850592512
 31
0.0
  0
LINE
  5
FE
330
17
100
AcDbEntity
  8
SSH_INT
100
AcDbLine
 10
6.262630571588488
 20
64.29950292724425
 30
0.0
 11
6.262630571588488
 21
57.69999850592512
 31
0.0
  0
ARC
  5
FF
330
17
100
AcDbEntity
  8
SSH_EXT
100
AcDbCircle
 10
6.062630571588215
 20
57.69999850592512
 30
0.0
 40
0.200000000000017
100
AcDbArc
 50
-90.00000000000001
 51
0.0
  0
ARC
  5
100
330
17
100
AcDbEntity
  8
SSH_INT
100
AcDbCircle
 10
6.062630571588215
 20
57.69999850592512
 30
0.0
 40
0.200000000000017
100
AcDbArc
 50
-90.00000000000001
 51
0.0
  0
LINE
  5
101
330
17
100
AcDbEntity
  8
SSH_EXT
100
AcDbLine
 10
6.062630571588215
 20
57.499998505924864
 30
0.0
 11
5.462630571585577
 21
57.499998505924864
 31
0.0
  0
LINE
  5
102
330
17
100
AcDbEntity
  8
SSH_INT
100
AcDbLine
 10
6.062630571588215
 20
57.499998505924864
 30
0.0
 11
5.462630571585577
 21
57.499998505924864
 31
0.0
  0
ARC
  5
103
330
17
100
AcDbEntity
  8
SSH_EXT
100
AcDbCircle
 10
5.462630571585123
 20
57.29999850592503
 30
0.0
 40
0.1999999999999318
100
AcDbArc
 50
89.99999999993486
 51
180.0
  0
ARC
  5
104
330
17
100
AcDbEntity
  8
SSH_INT
100
AcDbCircle
 10
5.462630571585123
 20
57.29999850592503
 30
0.0
 40
0.1999999999999318
100
AcDbArc
 50
89.99999999993486
 51
180.0
  0
LINE
  5
105
330
17
100
AcDbEntity
  8
SSH_EXT
100
AcDbLine
 10
5.262630571585305
 20
57.29999850592503
 30
0.0
 11
5.262630571585305
 21
56.69999850592421
 31
0.0
  0
LINE
  5
106
330
17
100
AcDbEntity
  8
SSH_INT
100
AcDbLine
 10
5.262630571585305
 20
57.29999850592503
 30
0.0
 11
5.262630571585305
 21
56.69999850592421
 31
0.0
  0
ARC
  5
107
330
17
100
AcDbEntity
  8
SSH_EXT
100
AcDbCircle
 10
5.462630571585577
 20
56.69999850592421
 30
0.0
 40
0.200000000000017
100
AcDbArc
 50
180.0
 51
-90.00000000000001
  0
ARC
  5
108
330
17
100
AcDbEntity
  8
SSH_INT
100
AcDbCircle
 10
5.462630571585577
 20
56.69999850592421
 30
0.0
 40
0.200000000000017
100
AcDbArc
 50
180.0
 51
-90.00000000000001
  0
LINE
  5
109
330
17
100
AcDbEntity
  8
SSH_EXT
100
AcDbLine
 10
5.462630571585577
 20
56.499998505924395
 30
0.0
 11
6.06263057158867
 21
56.499998505924395
 31
0.0
  0
LINE
  5
10A
330
17
100
AcDbEntity
  8
SSH_INT
100
AcDbLine
 10
5.462630571585577
 20
56.499998505924395
 30
0.0
 11
6.06263057158867
 21
56.499998505924395
 31
0.0
  0
ARC
  5
10B
330
17
100
AcDbEntity
  8
SSH_EXT
100
AcDbCircle
 10
6.06263057158867
 20
56.29999850592412
 30
0.0
 40
0.2000000000000454
100
AcDbArc
 50
0.0
 51
90.0
  0
ARC
  5
10C
330
17
100
AcDbEntity
  8
SSH_INT
100
AcDbCircle
 10
6.06263057158867
 20
56.29999850592412
 30
0.0
 40
0.2000000000000454
100
AcDbArc
 50
0.0
 51
90.0
  0
LINE
  5
10D
330
17
100
AcDbEntity
  8
SSH_EXT
100
AcDbLine
 10
6.262630571588488
 20
56.29999850592412
 30
0.0
 11
6.262630571588488
 21
43.49999850592485
 31
0.0
  0
LINE
  5
10E
330
17
100
AcDbEntity
  8
SSH_INT
100
AcDbLine
 10
6.262630571588488
 20
56.29999850592412
 30
0.0
 11
6.262630571588488
 21
43.49999850592485
 31
0.0
  0
ARC
  5
10F
330
17
100
AcDbEntity
  8
SSH_EXT
100
AcDbCircle
 10
6.062630571588215
 20
43.49999850592485
 30
0.0
 40
0.2000000000000241
100
AcDbArc
 50
-90.00000000000001
 51
0.0
  0
ARC
  5
110
330
17
100
AcDbEntity
  8
SSH_INT
100
AcDbCircle
 10
6.062630571588215
 20
43.49999850592485
 30
0.0
 40
0.2000000000000241
100
AcDbArc
 50
-90.00000000000001
 51
0.0
  0
LINE
  5
111
330
17
100
AcDbEntity
  8
SSH_EXT
100
AcDbLine
 10
6.062630571588215
 20
43.29999850592458
 30
0.0
 11
5.462630571585577
 21
43.29999850592504
 31
0.0
  0
LINE
  5
112
330
17
100
AcDbEntity
  8
SSH_INT
100
AcDbLine
 10
6.062630571588215
 20
43.29999850592458
 30
0.0
 11
5.462630571585577
 21
43.29999850592504
 31
0.0
  0
ARC
  5
113
330
17
100
AcDbEntity
  8
SSH_EXT
100
AcDbCircle
 10
5.462630571585123
 20
43.09999850592477
 30
0.0
 40
0.1999999999999318
100
AcDbArc
 50
89.99999999993486
 51
180.0
  0
ARC
  5
114
330
17
100
AcDbEntity
  8
SSH_INT
100
AcDbCircle
 10
5.462630571585123
 20
43.09999850592477
 30
0.0
 40
0.1999999999999318
100
AcDbArc
 50
89.99999999993486
 51
180.0
  0
LINE
  5
115
330
17
100
AcDbEntity
  8
SSH_EXT
100
AcDbLine
 10
5.262630571585305
 20
43.09999850592477
 30
0.0
 11
5.262630571585305
 21
42.499998505924395
 31
0.0
  0
LINE
  5
116
330
17
100
AcDbEntity
  8
SSH_INT
100
AcDbLine
 10
5.262630571585305
 20
43.09999850592477
 30
0.0
 11
5.262630571585305
 21
42.499998505924395
 31
0.0
  0
ARC
  5
117
330
17
100
AcDbEntity
  8
SSH_EXT
100
AcDbCircle
 10
5.462630571585577
 20
42.499998505924395
 30
0.0
 40
0.2000000000000241
100
AcDbArc
 50
180.0
 51
-90.00000000000001
  0
ARC
  5
118
330
17
100
AcDbEntity
  8
SSH_INT
100
AcDbCircle
 10
5.462630571585577
 20
42.499998505924395
 30
0.0
 40
0.2000000000000241
100
AcDbArc
 50
180.0
 51
-90.00000000000001
  0
LINE
  5
119
330
17
100
AcDbEntity
  8
SSH_EXT
100
AcDbLine
 10
5.462630571585577
 20
42.29999850592413
 30
0.0
 11
6.06263057158867
 21
42.29999850592413
 31
0.0
  0
LINE
  5
11A
330
17
100
AcDbEntity
  8
SSH_INT
100
AcDbLine
 10
5.462630571585577
 20
42.29999850592413
 30
0.0
 11
6.06263057158867
 21
42.29999850592413
 31
0.0
  0
ARC
  5
11B
330
17
100
AcDbEntity
  8
SSH_EXT
100
AcDbCircle
 10
6.06263057158867
 20
42.09999850592385
 30
0.0
 40
0.2000000000000454
100
AcDbArc
 50
0.0
 51
90.0
  0
ARC
  5
11C
330
17
100
AcDbEntity
  8
SSH_INT
100
AcDbCircle
 10
6.06263057158867
 20
42.09999850592385
 30
0.0
 40
0.2000000000000454
100
AcDbArc
 50
0.0
 51
90.0
  0
LINE
  5
11D
330
17
100
AcDbEntity
  8
SSH_EXT
100
AcDbLine
 10
6.262630571588488
 20
42.09999850592385
 30
0.0
 11
6.262630571588033
 21
36.69999850592467
 31
0.0
  0
LINE
  5
11E
330
17
100
AcDbEntity
  8
SSH_INT
100
AcDbLine
 10
6.262630571588488
 20
42.09999850592385
 30
0.0
 11
6.262630571588033
 21
36.69999850592467
 31
0.0
  0
ARC
  5
11F
330
17
100
AcDbEntity
  8
SSH_EXT
100
AcDbCircle
 10
6.06263057158776
 20
36.69999850592467
 30
0.0
 40
0.2000000000000241
100
AcDbArc
 50
-90.00000000000001
 51
0.0
  0
ARC
  5
120
330
17
100
AcDbEntity
  8
SSH_INT
100
AcDbCircle
 10
6.06263057158776
 20
36.69999850592467
 30
0.0
 40
0.2000000000000241
100
AcDbArc
 50
-90.00000000000001
 51
0.0
  0
LINE
  5
121
330
17
100
AcDbEntity
  8
SSH_EXT
100
AcDbLine
 10
6.06263057158776
 20
36.499998505924395
 30
0.0
 11
-2.285749797004427
 21
36.499998505925305
 31
0.0
  0
LINE
  5
122
330
17
100
AcDbEntity
  8
SSH_INT
100
AcDbLine
 10
6.06263057158776
 20
36.499998505924395
 30
0.0
 11
-2.285749797004427
 21
36.499998505925305
 31
0.0
  0
ARC
  5
123
330
17
100
AcDbEntity
  8
SSH_EXT
100
AcDbCircle
 10
-2.285749797003973
 20
36.69999850592558
 30
0.0
 40
0.2000000000001532
100
AcDbArc
 50
-166.03203732556574
 51
-90.00000000013029
  0
ARC
  5
124
330
17
100
AcDbEntity
  8
SSH_INT
100
AcDbCircle
 10
-2.285749797003973
 20
36.69999850592558
 30
0.0
 40
0.2000000000001532
100
AcDbArc
 50
-166.03203732556574
 51
-90.00000000013029
  0
ARC
  5
125
330
17
100
AcDbEntity
  8
SSH_EXT
100
AcDbCircle
 10
-5.099999252904126
 20
35.99999850589529
 30
0.0
 40
2.700000000012762
100
AcDbArc
 50
13.96796267526315
 51
55.25937959611561
  0
ARC
  5
126
330
17
100
AcDbEntity
  8
SSH_INT
100
AcDbCircle
 10
-5.099999252904126
 20
35.99999850589529
 30
0.0
 40
2.700000000012762
100
AcDbArc
 50
13.96796267526315
 51
55.25937959611561
  0
ARC
  5
127
330
17
100
AcDbEntity
  8
SSH_EXT
100
AcDbCircle
 10
-2.991508937576327
 20
39.040437387082875
 30
0.0
 40
0.9999999999962463
100
AcDbArc
 50
160.0000000003023
 51
-124.7406204042695
  0
ARC
  5
128
330
17
100
AcDbEntity
  8
SSH_INT
100
AcDbCircle
 10
-2.991508937576327
 20
39.040437387082875
 30
0.0
 40
0.9999999999962463
100
AcDbArc
 50
160.0000000003023
 51
-124.7406204042695
  0
LINE
  5
129
330
17
100
AcDbEntity
  8
SSH_EXT
100
AcDbLine
 10
-3.931201558360953
 20
39.38245753040247
 30
0.0
 11
-2.322281884415133
 21
43.80292800428424
 31
0.0
  0
LINE
  5
12A
330
17
100
AcDbEntity
  8
SSH_INT
100
AcDbLine
 10
-3.931201558360953
 20
39.38245753040247
 30
0.0
 11
-2.322281884415133
 21
43.80292800428424
 31
0.0
  0
ARC
  5
12B
330
17
100
AcDbEntity
  8
SSH_EXT
100
AcDbCircle
 10
-5.611206057165418
 20
44.999998505924395
 30
0.0
 40
3.499999999999898
100
AcDbArc
 50
-20.000000000000497
 51
90.0
  0
ARC
  5
12C
330
17
100
AcDbEntity
  8
SSH_INT
100
AcDbCircle
 10
-5.611206057165418
 20
44.999998505924395
 30
0.0
 40
3.499999999999898
100
AcDbArc
 50
-20.000000000000497
 51
90.0
  0
LINE
  5
12D
330
17
100
AcDbEntity
  8
SSH_EXT
100
AcDbLine
 10
-5.611206057165418
 20
48.49999850592395
 30
0.0
 11
-8.742966291497396
 21
48.49999850592485
 31
0.0
  0
LINE
  5
12E
330
17
100
AcDbEntity
  8
SSH_INT
100
AcDbLine
 10
-5.611206057165418
 20
48.49999850592395
 30
0.0
 11
-8.742966291497396
 21
48.49999850592485
 31
0.0
  0
LINE
  5
12F
330
17
100
AcDbEntity
  8
SSH_EXT
100
AcDbLine
 10
-36.701606792039
 20
36.70689505764949
 30
0.0
 11
-36.70527968015858
 21
39.76874850592276
 31
0.0
  0
LINE
  5
130
330
17
100
AcDbEntity
  8
SSH_INT
100
AcDbLine
 10
-36.701606792039
 20
36.70689505764949
 30
0.0
 11
-36.70527968015858
 21
39.76874850592276
 31
0.0
  0
ARC
  5
131
330
17
100
AcDbEntity
  8
SSH_EXT
100
AcDbCircle
 10
-39.40000108273443
 20
39.599998505925214
 30
0.0
 40
2.699999999999957
100
AcDbArc
 50
3.583321698419889
 51
81.95367362281122
  0
ARC
  5
132
330
17
100
AcDbEntity
  8
SSH_INT
100
AcDbCircle
 10
-39.40000108273443
 20
39.599998505925214
 30
0.0
 40
2.699999999999957
100
AcDbArc
 50
3.583321698419889
 51
81.95367362281122
  0
ARC
  5
133
330
17
100
AcDbEntity
  8
SSH_EXT
100
AcDbCircle
 10
-38.99407725278206
 20
42.47144863510267
 30
0.0
 40
0.2000000000129054
100
AcDbArc
 50
169.2192001426706
 51
-98.04632638081763
  0
ARC
  5
134
330
17
100
AcDbEntity
  8
SSH_INT
100
AcDbCircle
 10
-38.99407725278206
 20
42.47144863510267
 30
0.0
 40
0.2000000000129054
100
AcDbArc
 50
169.2192001426706
 51
-98.04632638081763
  0
LINE
  5
135
330
17
100
AcDbEntity
  8
SSH_EXT
100
AcDbLine
 10
-39.19054725041906
 20
42.508859061906605
 30
0.0
 11
-35.55765729196674
 21
61.58786838519245
 31
0.0
  0
LINE
  5
136
330
17
100
AcDbEntity
  8
SSH_INT
100
AcDbLine
 10
-39.19054725041906
 20
42.508859061906605
 30
0.0
 11
-35.55765729196674
 21
61.58786838519245
 31
0.0
  0
ARC
  5
137
330
17
100
AcDbEntity
  8
SSH_EXT
100
AcDbCircle
 10
-34.06883806450469
 20
61.4050643700848
 30
0.0
 40
1.500000000000025
100
AcDbArc
 50
98.0000000000049
 51
173.000000000003
  0
ARC
  5
138
330
17
100
AcDbEntity
  8
SSH_INT
100
AcDbCircle
 10
-34.06883806450469
 20
61.4050643700848
 30
0.0
 40
1.500000000000025
100
AcDbArc
 50
98.0000000000049
 51
173.000000000003
  0
LINE
  5
139
330
17
100
AcDbEntity
  8
SSH_EXT
100
AcDbLine
 10
-34.27759771594492
 20
62.89046647319719
 30
0.0
 11
-32.46520404860667
 21
63.14518179201377
 31
0.0
  0
LINE
  5
13A
330
17
100
AcDbEntity
  8
SSH_INT
100
AcDbLine
 10
-34.27759771594492
 20
62.89046647319719
 30
0.0
 11
-32.46520404860667
 21
63.14518179201377
 31
0.0
  0
ARC
  5
13B
330
17
100
AcDbEntity
  8
SSH_EXT
100
AcDbCircle
 10
-32.43736942841497
 20
62.9471281782653
 30
0.0
 40
0.2000000000000219
100
AcDbArc
 50
0.0
 51
97.99999999990422
  0
ARC
  5
13C
330
17
100
AcDbEntity
  8
SSH_INT
100
AcDbCircle
 10
-32.43736942841497
 20
62.9471281782653
 30
0.0
 40
0.2000000000000219
100
AcDbArc
 50
0.0
 51
97.99999999990422
  0
LINE
  5
13D
330
17
100
AcDbEntity
  8
SSH_EXT
100
AcDbLine
 10
-32.23736942841469
 20
62.9471281782653
 30
0.0
 11
-32.23736942841469
 21
36.69999850592513
 31
0.0
  0
LINE
  5
13E
330
17
100
AcDbEntity
  8
SSH_INT
100
AcDbLine
 10
-32.23736942841469
 20
62.9471281782653
 30
0.0
 11
-32.23736942841469
 21
36.69999850592513
 31
0.0
  0
ARC
  5
13F
330
17
100
AcDbEntity
  8
SSH_EXT
100
AcDbCircle
 10
-32.43736942841497
 20
36.69999850592513
 30
0.0
 40
0.2000000000000241
100
AcDbArc
 50
-90.00000000000001
 51
0.0
  0
ARC
  5
140
330
17
100
AcDbEntity
  8
SSH_INT
100
AcDbCircle
 10
-32.43736942841497
 20
36.69999850592513
 30
0.0
 40
0.2000000000000241
100
AcDbArc
 50
-90.00000000000001
 51
0.0
  0
LINE
  5
141
330
17
100
AcDbEntity
  8
SSH_EXT
100
AcDbLine
 10
-32.43736942841497
 20
36.499998505925305
 30
0.0
 11
-36.50172573347118
 21
36.499998505925305
 31
0.0
  0
LINE
  5
142
330
17
100
AcDbEntity
  8
SSH_INT
100
AcDbLine
 10
-32.43736942841497
 20
36.499998505925305
 30
0.0
 11
-36.50172573347118
 21
36.499998505925305
 31
0.0
  0
ARC
  5
143
330
17
100
AcDbEntity
  8
SSH_EXT
100
AcDbCircle
 10
-36.50172573347118
 20
36.69999850592558
 30
0.0
 40
0.2000000000000371
100
AcDbArc
 50
178.0238917143483
 51
-90.00000000000001
  0
ARC
  5
144
330
17
100
AcDbEntity
  8
SSH_INT
100
AcDbCircle
 10
-36.50172573347118
 20
36.69999850592558
 30
0.0
 40
0.2000000000000371
100
AcDbArc
 50
178.0238917143483
 51
-90.00000000000001
  0
ARC
  5
145
330
17
100
AcDbEntity
  8
SSH_EXT
100
AcDbCircle
 10
-47.99999925292422
 20
73.36695364132174
 30
0.0
 40
0.2000000000001592
100
AcDbArc
 50
-179.99999999996754
 51
-90.00000000000001
  0
ARC
  5
146
330
17
100
AcDbEntity
  8
SSH_INT
100
AcDbCircle
 10
-47.99999925292422
 20
73.36695364132174
 30
0.0
 40
0.2000000000001592
100
AcDbArc
 50
-179.99999999996754
 51
-90.00000000000001
  0
LINE
  5
147
330
17
100
AcDbEntity
  8
SSH_EXT
100
AcDbLine
 10
-48.19999925292449
 20
73.36695364132174
 30
0.0
 11
-48.19999925292496
 21
77.10150969126335
 31
0.0
  0
LINE
  5
148
330
17
100
AcDbEntity
  8
SSH_INT
100
AcDbLine
 10
-48.19999925292449
 20
73.36695364132174
 30
0.0
 11
-48.19999925292496
 21
77.10150969126335
 31
0.0
  0
ARC
  5
149
330
17
100
AcDbEntity
  8
SSH_EXT
100
AcDbCircle
 10
-36.99999925291968
 20
77.10150969127335
 30
0.0
 40
11.20000000000525
100
AcDbArc
 50
130.8594423205477
 51
-179.99999999994944
  0
ARC
  5
14A
330
17
100
AcDbEntity
  8
SSH_INT
100
AcDbCircle
 10
-36.99999925291968
 20
77.10150969127335
 30
0.0
 40
11.20000000000525
100
AcDbArc
 50
130.8594423205477
 51
-179.99999999994944
  0
ARC
  5
14B
330
17
100
AcDbEntity
  8
SSH_EXT
100
AcDbCircle
 10
-43.99999925292559
 20
85.194098893749
 30
0.0
 40
0.5000000000000762
100
AcDbArc
 50
2.54e-14
 51
130.8594423204317
  0
ARC
  5
14C
330
17
100
AcDbEntity
  8
SSH_INT
100
AcDbCircle
 10
-43.99999925292559
 20
85.194098893749
 30
0.0
 40
0.5000000000000762
100
AcDbArc
 50
2.54e-14
 51
130.8594423204317
  0
LINE
  5
14D
330
17
100
AcDbEntity
  8
SSH_EXT
100
AcDbLine
 10
-43.49999925292559
 20
85.194098893749
 30
0.0
 11
-43.49999925292559
 21
84.59999850592521
 31
0.0
  0
LINE
  5
14E
330
17
100
AcDbEntity
  8
SSH_INT
100
AcDbLine
 10
-43.49999925292559
 20
85.194098893749
 30
0.0
 11
-43.49999925292559
 21
84.59999850592521
 31
0.0
  0
ARC
  5
14F
330
17
100
AcDbEntity
  8
SSH_EXT
100
AcDbCircle
 10
-40.49999925292559
 20
84.59999850592521
 30
0.0
 40
2.999999999999999
100
AcDbArc
 50
180.0
 51
-90.00000000000001
  0
ARC
  5
150
330
17
100
AcDbEntity
  8
SSH_INT
100
AcDbCircle
 10
-40.49999925292559
 20
84.59999850592521
 30
0.0
 40
2.999999999999999
100
AcDbArc
 50
180.0
 51
-90.00000000000001
  0
LINE
  5
151
330
17
100
AcDbEntity
  8
SSH_EXT
100
AcDbLine
 10
-40.49999925292559
 20
81.59999850592521
 30
0.0
 11
-38.99999925292468
 21
81.59999850592521
 31
0.0
  0
LINE
  5
152
330
17
100
AcDbEntity
  8
SSH_INT
100
AcDbLine
 10
-40.49999925292559
 20
81.59999850592521
 30
0.0
 11
-38.99999925292468
 21
81.59999850592521
 31
0.0
  0
ARC
  5
153
330
17
100
AcDbEntity
  8
SSH_EXT
100
AcDbCircle
 10
-38.99999925292468
 20
81.09999850592521
 30
0.0
 40
0.5
100
AcDbArc
 50
0.0
 51
90.0
  0
ARC
  5
154
330
17
100
AcDbEntity
  8
SSH_INT
100
AcDbCircle
 10
-38.99999925292468
 20
81.09999850592521
 30
0.0
 40
0.5
100
AcDbArc
 50
0.0
 51
90.0
  0
LINE
  5
155
330
17
100
AcDbEntity
  8
SSH_EXT
100
AcDbLine
 10
-38.49999925292468
 20
81.09999850592521
 30
0.0
 11
-38.49999925292468
 21
75.92669373058243
 31
0.0
  0
LINE
  5
156
330
17
100
AcDbEntity
  8
SSH_INT
100
AcDbLine
 10
-38.49999925292468
 20
81.09999850592521
 30
0.0
 11
-38.49999925292468
 21
75.92669373058243
 31
0.0
  0
ARC
  5
157
330
17
100
AcDbEntity
  8
SSH_EXT
100
AcDbCircle
 10
-40.99999925292467
 20
75.92669373058243
 30
0.0
 40
2.49999999999983
100
AcDbArc
 50
-20.99999999999357
 51
0.0
  0
ARC
  5
158
330
17
100
AcDbEntity
  8
SSH_INT
100
AcDbCircle
 10
-40.99999925292467
 20
75.92669373058243
 30
0.0
 40
2.49999999999983
100
AcDbArc
 50
-20.99999999999357
 51
0.0
  0
LINE
  5
159
330
17
100
AcDbEntity
  8
SSH_EXT
100
AcDbLine
 10
-38.66604818668202
 20
75.0307738567194
 30
0.0
 11
-39.33224184156552
 21
73.29528005141265
 31
0.0
  0
LINE
  5
15A
330
17
100
AcDbEntity
  8
SSH_INT
100
AcDbLine
 10
-38.66604818668202
 20
75.0307738567194
 30
0.0
 11
-39.33224184156552
 21
73.29528005141265
 31
0.0
  0
ARC
  5
15B
330
17
100
AcDbEntity
  8
SSH_EXT
100
AcDbCircle
 10
-39.51895792686491
 20
73.36695364132174
 30
0.0
 40
0.1999999999999297
100
AcDbArc
 50
-90.00000000000001
 51
-21.00000000001438
  0
ARC
  5
15C
330
17
100
AcDbEntity
  8
SSH_INT
100
AcDbCircle
 10
-39.51895792686491
 20
73.36695364132174
 30
0.0
 40
0.1999999999999297
100
AcDbArc
 50
-90.00000000000001
 51
-21.00000000001438
  0
LINE
  5
15D
330
17
100
AcDbEntity
  8
SSH_EXT
100
AcDbLine
 10
-39.51895792686491
 20
73.16695364132192
 30
0.0
 11
-47.99999925292422
 21
73.16695364132147
 31
0.0
  0
LINE
  5
15E
330
17
100
AcDbEntity
  8
SSH_INT
100
AcDbLine
 10
-39.51895792686491
 20
73.16695364132192
 30
0.0
 11
-47.99999925292422
 21
73.16695364132147
 31
0.0
  0
ARC
  5
15F
330
17
100
AcDbEntity
  8
SSH_EXT
100
AcDbCircle
 10
-40.05636757591446
 20
71.9669536413221
 30
0.0
 40
0.1999999999999318
100
AcDbArc
 50
-20.999999999984052
 51
90.0
  0
ARC
  5
160
330
17
100
AcDbEntity
  8
SSH_INT
100
AcDbCircle
 10
-40.05636757591446
 20
71.9669536413221
 30
0.0
 40
0.1999999999999318
100
AcDbArc
 50
-20.999999999984052
 51
90.0
  0
LINE
  5
161
330
17
100
AcDbEntity
  8
SSH_EXT
100
AcDbLine
 10
-39.86965149061507
 20
71.89528005141301
 30
0.0
 11
-40.80493109215331
 21
69.45879338905615
 31
0.0
  0
LINE
  5
162
330
17
100
AcDbEntity
  8
SSH_INT
100
AcDbLine
 10
-39.86965149061507
 20
71.89528005141301
 30
0.0
 11
-40.80493109215331
 21
69.45879338905615
 31
0.0
  0
ARC
  5
163
330
17
100
AcDbEntity
  8
SSH_EXT
100
AcDbCircle
 10
-36.1370289596739
 20
67.66695364133193
 30
0.0
 40
4.99999999999312
100
AcDbArc
 50
158.9999999999973
 51
-97.0423615304969
  0
ARC
  5
164
330
17
100
AcDbEntity
  8
SSH_INT
100
AcDbCircle
 10
-36.1370289596739
 20
67.66695364133193
 30
0.0
 40
4.99999999999312
100
AcDbArc
 50
158.9999999999973
 51
-97.0423615304969
  0
ARC
  5
165
330
17
100
AcDbEntity
  8
SSH_EXT
100
AcDbCircle
 10
-36.7868256399579
 20
62.40693802593523
 30
0.0
 40
0.2999999999999178
100
AcDbArc
 50
-10.648780644353025
 51
82.95763846922858
  0
ARC
  5
166
330
17
100
AcDbEntity
  8
SSH_INT
100
AcDbCircle
 10
-36.7868256399579
 20
62.40693802593523
 30
0.0
 40
0.2999999999999178
100
AcDbArc
 50
-10.648780644353025
 51
82.95763846922858
  0
LINE
  5
167
330
17
100
AcDbEntity
  8
SSH_EXT
100
AcDbLine
 10
-36.49199212598797
 20
62.351501584490975
 30
0.0
 11
-40.23154490782826
 21
42.4630408782964
 31
0.0
  0
LINE
  5
168
330
17
100
AcDbEntity
  8
SSH_INT
100
AcDbLine
 10
-36.49199212598797
 20
62.351501584490975
 30
0.0
 11
-40.23154490782826
 21
42.4630408782964
 31
0.0
  0
ARC
  5
169
330
17
100
AcDbEntity
  8
SSH_EXT
100
AcDbCircle
 10
-40.42810058380837
 20
42.49999850592576
 30
0.0
 40
0.1999999999999504
100
AcDbArc
 50
-90.00000000000001
 51
-10.648780644353126
  0
ARC
  5
16A
330
17
100
AcDbEntity
  8
SSH_INT
100
AcDbCircle
 10
-40.42810058380837
 20
42.49999850592576
 30
0.0
 40
0.1999999999999504
100
AcDbArc
 50
-90.00000000000001
 51
-10.648780644353126
  0
LINE
  5
16B
330
17
100
AcDbEntity
  8
SSH_EXT
100
AcDbLine
 10
-40.42810058380837
 20
42.29999850592595
 30
0.0
 11
-48.00000043550426
 21
42.29999850592549
 31
0.0
  0
LINE
  5
16C
330
17
100
AcDbEntity
  8
SSH_INT
100
AcDbLine
 10
-40.42810058380837
 20
42.29999850592595
 30
0.0
 11
-48.00000043550426
 21
42.29999850592549
 31
0.0
  0
ARC
  5
16D
330
17
100
AcDbEntity
  8
SSH_EXT
100
AcDbCircle
 10
-48.00000043550426
 20
42.499998505925305
 30
0.0
 40
0.2000000000000469
100
AcDbArc
 50
179.9999902411911
 51
-90.00000000000001
  0
ARC
  5
16E
330
17
100
AcDbEntity
  8
SSH_INT
100
AcDbCircle
 10
-48.00000043550426
 20
42.499998505925305
 30
0.0
 40
0.2000000000000469
100
AcDbArc
 50
179.9999902411911
 51
-90.00000000000001
  0
LINE
  5
16F
330
17
100
AcDbEntity
  8
SSH_EXT
100
AcDbLine
 10
-48.20000043550408
 20
42.499998539989974
 30
0.0
 11
-48.19999925292449
 21
71.9669536413221
 31
0.0
  0
LINE
  5
170
330
17
100
AcDbEntity
  8
SSH_INT
100
AcDbLine
 10
-48.20000043550408
 20
42.499998539989974
 30
0.0
 11
-48.19999925292449
 21
71.9669536413221
 31
0.0
  0
ARC
  5
171
330
17
100
AcDbEntity
  8
SSH_EXT
100
AcDbCircle
 10
-47.99999925292422
 20
71.9669536413221
 30
0.0
 40
0.2000000000002728
100
AcDbArc
 50
90.00000000000003
 51
179.9999999999674
  0
ARC
  5
172
330
17
100
AcDbEntity
  8
SSH_INT
100
AcDbCircle
 10
-47.99999925292422
 20
71.9669536413221
 30
0.0
 40
0.2000000000002728
100
AcDbArc
 50
90.00000000000003
 51
179.9999999999674
  0
LINE
  5
173
330
17
100
AcDbEntity
  8
SSH_EXT
100
AcDbLine
 10
-47.99999925292422
 20
72.16695364132238
 30
0.0
 11
-40.05636757591446
 21
72.16695364132192
 31
0.0
  0
LINE
  5
174
330
17
100
AcDbEntity
  8
SSH_INT
100
AcDbLine
 10
-47.99999925292422
 20
72.16695364132238
 30
0.0
 11
-40.05636757591446
 21
72.16695364132192
 31
0.0
  0
ARC
  5
175
330
17
100
AcDbEntity
  8
SSH_EXT
100
AcDbCircle
 10
-6.699999252924953
 20
38.49999850592485
 30
0.0
 40
0.2000000000000288
100
AcDbArc
 50
159.9999999999751
 51
180.0
  0
ARC
  5
176
330
17
100
AcDbEntity
  8
SSH_INT
100
AcDbCircle
 10
-6.699999252924953
 20
38.49999850592485
 30
0.0
 40
0.2000000000000288
100
AcDbArc
 50
159.9999999999751
 51
180.0
  0
LINE
  5
177
330
17
100
AcDbEntity
  8
SSH_EXT
100
AcDbLine
 10
-6.899999252924772
 20
38.49999850592485
 30
0.0
 11
-6.899999252924317
 21
36.39999850592494
 31
0.0
  0
LINE
  5
178
330
17
100
AcDbEntity
  8
SSH_INT
100
AcDbLine
 10
-6.899999252924772
 20
38.49999850592485
 30
0.0
 11
-6.899999252924317
 21
36.39999850592494
 31
0.0
  0
ARC
  5
179
330
17
100
AcDbEntity
  8
SSH_EXT
100
AcDbCircle
 10
-6.699999252924499
 20
36.39999850592494
 30
0.0
 40
0.1999999999998181
100
AcDbArc
 50
180.0
 51
-90.00000000000001
  0
ARC
  5
17A
330
17
100
AcDbEntity
  8
SSH_INT
100
AcDbCircle
 10
-6.699999252924499
 20
36.39999850592494
 30
0.0
 40
0.1999999999998181
100
AcDbArc
 50
180.0
 51
-90.00000000000001
  0
LINE
  5
17B
330
17
100
AcDbEntity
  8
SSH_EXT
100
AcDbLine
 10
-6.699999252924499
 20
36.19999850592513
 30
0.0
 11
-5.099999252924135
 21
36.19999850592513
 31
0.0
  0
LINE
  5
17C
330
17
100
AcDbEntity
  8
SSH_INT
100
AcDbLine
 10
-6.699999252924499
 20
36.19999850592513
 30
0.0
 11
-5.099999252924135
 21
36.19999850592513
 31
0.0
  0
ARC
  5
17D
330
17
100
AcDbEntity
  8
SSH_EXT
100
AcDbCircle
 10
-5.099999252924135
 20
35.99999850592485
 30
0.0
 40
0.2000000000000454
100
AcDbArc
 50
0.0
 51
89.99999999999999
  0
ARC
  5
17E
330
17
100
AcDbEntity
  8
SSH_INT
100
AcDbCircle
 10
-5.099999252924135
 20
35.99999850592485
 30
0.0
 40
0.2000000000000454
100
AcDbArc
 50
0.0
 51
89.99999999999999
  0
LINE
  5
17F
330
17
100
AcDbEntity
  8
SSH_EXT
100
AcDbLine
 10
-4.899999252924317
 20
35.99999850592485
 30
0.0
 11
-4.899999252924317
 21
34.19999850592467
 31
0.0
  0
LINE
  5
180
330
17
100
AcDbEntity
  8
SSH_INT
100
AcDbLine
 10
-4.899999252924317
 20
35.99999850592485
 30
0.0
 11
-4.899999252924317
 21
34.19999850592467
 31
0.0
  0
ARC
  5
181
330
17
100
AcDbEntity
  8
SSH_EXT
100
AcDbCircle
 10
-4.699999252924499
 20
34.19999850592467
 30
0.0
 40
0.1999999999998181
100
AcDbArc
 50
180.0
 51
-90.00000000000001
  0
ARC
  5
182
330
17
100
AcDbEntity
  8
SSH_INT
100
AcDbCircle
 10
-4.699999252924499
 20
34.19999850592467
 30
0.0
 40
0.1999999999998181
100
AcDbArc
 50
180.0
 51
-90.00000000000001
  0
LINE
  5
183
330
17
100
AcDbEntity
  8
SSH_EXT
100
AcDbLine
 10
-4.699999252924499
 20
33.99999850592485
 30
0.0
 11
3.8000007470755
 21
33.99999850592485
 31
0.0
  0
LINE
  5
184
330
17
100
AcDbEntity
  8
SSH_INT
100
AcDbLine
 10
-4.699999252924499
 20
33.99999850592485
 30
0.0
 11
3.8000007470755
 21
33.99999850592485
 31
0.0
  0
ARC
  5
185
330
17
100
AcDbEntity
  8
SSH_EXT
100
AcDbCircle
 10
3.8000007470755
 20
33.79999850592503
 30
0.0
 40
0.1999999999998181
100
AcDbArc
 50
0.0
 51
89.99999999999999
  0
ARC
  5
186
330
17
100
AcDbEntity
  8
SSH_INT
100
AcDbCircle
 10
3.8000007470755
 20
33.79999850592503
 30
0.0
 40
0.1999999999998181
100
AcDbArc
 50
0.0
 51
89.99999999999999
  0
LINE
  5
187
330
17
100
AcDbEntity
  8
SSH_EXT
100
AcDbLine
 10
4.000000747075318
 20
33.79999850592503
 30
0.0
 11
4.000000747075318
 21
22.09999850584973
 31
0.0
  0
LINE
  5
188
330
17
100
AcDbEntity
  8
SSH_INT
100
AcDbLine
 10
4.000000747075318
 20
33.79999850592503
 30
0.0
 11
4.000000747075318
 21
22.09999850584973
 31
0.0
  0
LINE
  5
189
330
17
100
AcDbEntity
  8
SSH_EXT
100
AcDbLine
 10
4.000000747075318
 20
22.09999850584973
 30
0.0
 11
5.000000747074864
 21
21.09999850584973
 31
0.0
  0
LINE
  5
18A
330
17
100
AcDbEntity
  8
SSH_INT
100
AcDbLine
 10
4.000000747075318
 20
22.09999850584973
 30
0.0
 11
5.000000747074864
 21
21.09999850584973
 31
0.0
  0
LINE
  5
18B
330
17
100
AcDbEntity
  8
SSH_EXT
100
AcDbLine
 10
5.000000747074864
 20
21.09999850584973
 30
0.0
 11
5.500000747075318
 21
21.09999850584973
 31
0.0
  0
LINE
  5
18C
330
17
100
AcDbEntity
  8
SSH_INT
100
AcDbLine
 10
5.000000747074864
 20
21.09999850584973
 30
0.0
 11
5.500000747075318
 21
21.09999850584973
 31
0.0
  0
LINE
  5
18D
330
17
100
AcDbEntity
  8
SSH_EXT
100
AcDbLine
 10
5.500000747075318
 20
21.09999850584973
 30
0.0
 11
5.500000747075318
 21
21.899998505849002
 31
0.0
  0
LINE
  5
18E
330
17
100
AcDbEntity
  8
SSH_INT
100
AcDbLine
 10
5.500000747075318
 20
21.09999850584973
 30
0.0
 11
5.500000747075318
 21
21.899998505849002
 31
0.0
  0
ARC
  5
18F
330
17
100
AcDbEntity
  8
SSH_EXT
100
AcDbCircle
 10
6.000000373537659
 20
21.89999887938666
 30
0.0
 40
0.4999996264624801
100
AcDbArc
 50
89.99995719570524
 51
-179.99995719570532
  0
ARC
  5
190
330
17
100
AcDbEntity
  8
SSH_INT
100
AcDbCircle
 10
6.000000373537659
 20
21.89999887938666
 30
0.0
 40
0.4999996264624801
100
AcDbArc
 50
89.99995719570524
 51
-179.99995719570532
  0
LINE
  5
191
330
17
100
AcDbEntity
  8
SSH_EXT
100
AcDbLine
 10
6.000000747075318
 20
22.399998505849002
 30
0.0
 11
8.500000747076228
 21
22.399998505849002
 31
0.0
  0
LINE
  5
192
330
17
100
AcDbEntity
  8
SSH_INT
100
AcDbLine
 10
6.000000747075318
 20
22.399998505849002
 30
0.0
 11
8.500000747076228
 21
22.399998505849002
 31
0.0
  0
ARC
  5
193
330
17
100
AcDbEntity
  8
SSH_EXT
100
AcDbCircle
 10
8.500000747076228
 20
21.399998505849002
 30
0.0
 40
0.9999999999999998
100
AcDbArc
 50
0.0
 51
89.99999999999999
  0
ARC
  5
194
330
17
100
AcDbEntity
  8
SSH_INT
100
AcDbCircle
 10
8.500000747076228
 20
21.399998505849002
 30
0.0
 40
0.9999999999999998
100
AcDbArc
 50
0.0
 51
89.99999999999999
  0
LINE
  5
195
330
17
100
AcDbEntity
  8
SSH_EXT
100
AcDbLine
 10
9.500000747076228
 20
21.399998505849002
 30
0.0
 11
9.500000747076228
 21
19.9000003735373
 31
0.0
  0
LINE
  5
196
330
17
100
AcDbEntity
  8
SSH_INT
100
AcDbLine
 10
9.500000747076228
 20
21.399998505849002
 30
0.0
 11
9.500000747076228
 21
19.9000003735373
 31
0.0
  0
LINE
  5
197
330
17
100
AcDbEntity
  8
SSH_EXT
100
AcDbLine
 10
9.500000747076228
 20
19.9000003735373
 30
0.0
 11
9.500000747075317
 21
19.899998505849457
 31
0.0
  0
LINE
  5
198
330
17
100
AcDbEntity
  8
SSH_INT
100
AcDbLine
 10
9.500000747076228
 20
19.9000003735373
 30
0.0
 11
9.500000747075317
 21
19.899998505849457
 31
0.0
  0
LINE
  5
199
330
17
100
AcDbEntity
  8
SSH_EXT
100
AcDbLine
 10
9.500000747075317
 20
19.899998505849457
 30
0.0
 11
9.500000747075317
 21
16.99999850592531
 31
0.0
  0
LINE
  5
19A
330
17
100
AcDbEntity
  8
SSH_INT
100
AcDbLine
 10
9.500000747075317
 20
19.899998505849457
 30
0.0
 11
9.500000747075317
 21
16.99999850592531
 31
0.0
  0
ARC
  5
19B
330
17
100
AcDbEntity
  8
SSH_EXT
100
AcDbCircle
 10
8.500000747075317
 20
16.99999850592531
 30
0.0
 40
0.9999999999999998
100
AcDbArc
 50
-90.00000000000001
 51
0.0
  0
ARC
  5
19C
330
17
100
AcDbEntity
  8
SSH_INT
100
AcDbCircle
 10
8.500000747075317
 20
16.99999850592531
 30
0.0
 40
0.9999999999999998
100
AcDbArc
 50
-90.00000000000001
 51
0.0
  0
LINE
  5
19D
330
17
100
AcDbEntity
  8
SSH_EXT
100
AcDbLine
 10
8.500000747075317
 20
15.999998505925308
 30
0.0
 11
5.700000747075591
 21
15.999998505925308
 31
0.0
  0
LINE
  5
19E
330
17
100
AcDbEntity
  8
SSH_INT
100
AcDbLine
 10
8.500000747075317
 20
15.999998505925308
 30
0.0
 11
5.700000747075591
 21
15.999998505925308
 31
0.0
  0
ARC
  5
19F
330
17
100
AcDbEntity
  8
SSH_EXT
100
AcDbCircle
 10
5.700000747075591
 20
16.199998505925127
 30
0.0
 40
0.2000000000000454
100
AcDbArc
 50
180.0
 51
-90.00000000000001
  0
ARC
  5
1A0
330
17
100
AcDbEntity
  8
SSH_INT
100
AcDbCircle
 10
5.700000747075591
 20
16.199998505925127
 30
0.0
 40
0.2000000000000454
100
AcDbArc
 50
180.0
 51
-90.00000000000001
  0
LINE
  5
1A1
330
17
100
AcDbEntity
  8
SSH_EXT
100
AcDbLine
 10
5.500000747075318
 20
16.199998505925127
 30
0.0
 11
5.500000747075318
 21
17.899998505849002
 31
0.0
  0
LINE
  5
1A2
330
17
100
AcDbEntity
  8
SSH_INT
100
AcDbLine
 10
5.500000747075318
 20
16.199998505925127
 30
0.0
 11
5.500000747075318
 21
17.899998505849002
 31
0.0
  0
LINE
  5
1A3
330
17
100
AcDbEntity
  8
SSH_EXT
100
AcDbLine
 10
5.500000747075318
 20
17.899998505849002
 30
0.0
 11
5.000000747074864
 21
17.899998505849002
 31
0.0
  0
LINE
  5
1A4
330
17
100
AcDbEntity
  8
SSH_INT
100
AcDbLine
 10
5.500000747075318
 20
17.899998505849002
 30
0.0
 11
5.000000747074864
 21
17.899998505849002
 31
0.0
  0
LINE
  5
1A5
330
17
100
AcDbEntity
  8
SSH_EXT
100
AcDbLine
 10
5.000000747074864
 20
17.899998505849002
 30
0.0
 11
4.000000747075318
 21
16.899998505849002
 31
0.0
  0
LINE
  5
1A6
330
17
100
AcDbEntity
  8
SSH_INT
100
AcDbLine
 10
5.000000747074864
 20
17.899998505849002
 30
0.0
 11
4.000000747075318
 21
16.899998505849002
 31
0.0
  0
LINE
  5
1A7
330
17
100
AcDbEntity
  8
SSH_EXT
100
AcDbLine
 10
4.000000747075318
 20
16.899998505849002
 30
0.0
 11
4.000000747075318
 21
13.999998505849366
 31
0.0
  0
LINE
  5
1A8
330
17
100
AcDbEntity
  8
SSH_INT
100
AcDbLine
 10
4.000000747075318
 20
16.899998505849002
 30
0.0
 11
4.000000747075318
 21
13.999998505849366
 31
0.0
  0
LINE
  5
1A9
330
17
100
AcDbEntity
  8
SSH_EXT
100
AcDbLine
 10
4.000000747075318
 20
13.999998505849366
 30
0.0
 11
16.50000074709169
 21
13.999998505928492
 31
0.0
  0
LINE
  5
1AA
330
17
100
AcDbEntity
  8
SSH_INT
100
AcDbLine
 10
4.000000747075318
 20
13.999998505849366
 30
0.0
 11
16.50000074709169
 21
13.999998505928492
 31
0.0
  0
ARC
  5
1AB
330
17
100
AcDbEntity
  8
SSH_EXT
100
AcDbCircle
 10
16.50000074707577
 20
16.49999850592849
 30
0.0
 40
2.5
100
AcDbArc
 50
-89.99999999963529
 51
0.0
  0
ARC
  5
1AC
330
17
100
AcDbEntity
  8
SSH_INT
100
AcDbCircle
 10
16.50000074707577
 20
16.49999850592849
 30
0.0
 40
2.5
100
AcDbArc
 50
-89.99999999963529
 51
0.0
  0
LINE
  5
1AD
330
17
100
AcDbEntity
  8
SSH_EXT
100
AcDbLine
 10
19.00000074707577
 20
16.49999850592849
 30
0.0
 11
19.00000074707532
 21
70.99999850592485
 31
0.0
  0
LINE
  5
1AE
330
17
100
AcDbEntity
  8
SSH_INT
100
AcDbLine
 10
19.00000074707577
 20
16.49999850592849
 30
0.0
 11
19.00000074707532
 21
70.99999850592485
 31
0.0
  0
ARC
  5
1AF
330
17
100
AcDbEntity
  8
SSH_EXT
100
AcDbCircle
 10
18.00000149415064
 20
70.99999925299971
 30
0.0
 40
0.9999992529253008
100
AcDbArc
 50
-4.280426867084724e-05
 51
90.00004280429475
  0
ARC
  5
1B0
330
17
100
AcDbEntity
  8
SSH_INT
100
AcDbCircle
 10
18.00000149415064
 20
70.99999925299971
 30
0.0
 40
0.9999992529253008
100
AcDbArc
 50
-4.280426867084724e-05
 51
90.00004280429475
  0
LINE
  5
1B1
330
17
100
AcDbEntity
  8
SSH_EXT
100
AcDbLine
 10
18.00000074707532
 20
71.99999850592486
 30
0.0
 11
14.44183246796092
 21
71.99999850592486
 31
0.0
  0
LINE
  5
1B2
330
17
100
AcDbEntity
  8
SSH_INT
100
AcDbLine
 10
18.00000074707532
 20
71.99999850592486
 30
0.0
 11
14.44183246796092
 21
71.99999850592486
 31
0.0
  0
ARC
  5
1B3
330
17
100
AcDbEntity
  8
SSH_EXT
100
AcDbCircle
 10
14.44183246796092
 20
71.5581667850388
 30
0.0
 40
0.4418317208859916
100
AcDbArc
 50
90.00000000000003
 51
-164.99999246769153
  0
ARC
  5
1B4
330
17
100
AcDbEntity
  8
SSH_INT
100
AcDbCircle
 10
14.44183246796092
 20
71.5581667850388
 30
0.0
 40
0.4418317208859916
100
AcDbArc
 50
90.00000000000003
 51
-164.99999246769153
  0
LINE
  5
1B5
330
17
100
AcDbEntity
  8
SSH_EXT
100
AcDbLine
 10
14.01505581291712
 20
71.44381226483756
 30
0.0
 11
14.35621515938237
 21
70.17058891988108
 31
0.0
  0
LINE
  5
1B6
330
17
100
AcDbEntity
  8
SSH_INT
100
AcDbLine
 10
14.01505581291712
 20
71.44381226483756
 30
0.0
 11
14.35621515938237
 21
70.17058891988108
 31
0.0
  0
ARC
  5
1B7
330
17
100
AcDbEntity
  8
SSH_EXT
100
AcDbCircle
 10
14.83917805551391
 20
70.29999850592503
 30
0.0
 40
0.5000000000000246
100
AcDbArc
 50
-164.99999246760882
 51
-90.00000000000001
  0
ARC
  5
1B8
330
17
100
AcDbEntity
  8
SSH_INT
100
AcDbCircle
 10
14.83917805551391
 20
70.29999850592503
 30
0.0
 40
0.5000000000000246
100
AcDbArc
 50
-164.99999246760882
 51
-90.00000000000001
  0
LINE
  5
1B9
330
17
100
AcDbEntity
  8
SSH_EXT
100
AcDbLine
 10
14.83917805551391
 20
69.79999850592503
 30
0.0
 11
15.90866347681003
 21
69.79999850592503
 31
0.0
  0
LINE
  5
1BA
330
17
100
AcDbEntity
  8
SSH_INT
100
AcDbLine
 10
14.83917805551391
 20
69.79999850592503
 30
0.0
 11
15.90866347681003
 21
69.79999850592503
 31
0.0
  0
ARC
  5
1BB
330
17
100
AcDbEntity
  8
SSH_EXT
100
AcDbCircle
 10
15.90866347681049
 20
68.79999850592503
 30
0.0
 40
0.9999999999999413
100
AcDbArc
 50
-8.972734591941263
 51
90.00000000002605
  0
ARC
  5
1BC
330
17
100
AcDbEntity
  8
SSH_INT
100
AcDbCircle
 10
15.90866347681049
 20
68.79999850592503
 30
0.0
 40
0.9999999999999413
100
AcDbArc
 50
-8.972734591941263
 51
90.00000000002605
  0
LINE
  5
1BD
330
17
100
AcDbEntity
  8
SSH_EXT
100
AcDbLine
 10
16.89642614821787
 20
68.64403407095868
 30
0.0
 11
16.58758588046566
 21
66.68806963599354
 31
0.0
  0
LINE
  5
1BE
330
17
100
AcDbEntity
  8
SSH_INT
100
AcDbLine
 10
16.89642614821787
 20
68.64403407095868
 30
0.0
 11
16.58758588046566
 21
66.68806963599354
 31
0.0
  0
ARC
  5
1BF
330
17
100
AcDbEntity
  8
SSH_EXT
100
AcDbCircle
 10
14.6120605376509
 20
66.99999850592576
 30
0.0
 40
2.000000000000027
100
AcDbArc
 50
-90.00000000000001
 51
-8.972734591928388
  0
ARC
  5
1C0
330
17
100
AcDbEntity
  8
SSH_INT
100
AcDbCircle
 10
14.6120605376509
 20
66.99999850592576
 30
0.0
 40
2.000000000000027
100
AcDbArc
 50
-90.00000000000001
 51
-8.972734591928388
  0
LINE
  5
1C1
330
17
100
AcDbEntity
  8
SSH_EXT
100
AcDbLine
 10
14.6120605376509
 20
64.99999850592576
 30
0.0
 11
9.700000747075137
 21
64.99999850592485
 31
0.0
  0
LINE
  5
1C2
330
17
100
AcDbEntity
  8
SSH_INT
100
AcDbLine
 10
14.6120605376509
 20
64.99999850592576
 30
0.0
 11
9.700000747075137
 21
64.99999850592485
 31
0.0
  0
ARC
  5
1C3
330
17
100
AcDbEntity
  8
SSH_EXT
100
AcDbCircle
 10
9.700000747075137
 20
65.99999850592485
 30
0.0
 40
0.9999999999999998
100
AcDbArc
 50
180.0
 51
-90.00000000000001
  0
ARC
  5
1C4
330
17
100
AcDbEntity
  8
SSH_INT
100
AcDbCircle
 10
9.700000747075137
 20
65.99999850592485
 30
0.0
 40
0.9999999999999998
100
AcDbArc
 50
180.0
 51
-90.00000000000001
  0
LINE
  5
1C5
330
17
100
AcDbEntity
  8
SSH_EXT
100
AcDbLine
 10
8.700000747075137
 20
65.99999850592485
 30
0.0
 11
8.700000747075137
 21
67.3356642806425
 31
0.0
  0
LINE
  5
1C6
330
17
100
AcDbEntity
  8
SSH_INT
100
AcDbLine
 10
8.700000747075137
 20
65.99999850592485
 30
0.0
 11
8.700000747075137
 21
67.3356642806425
 31
0.0
  0
ARC
  5
1C7
330
17
100
AcDbEntity
  8
SSH_EXT
100
AcDbCircle
 10
9.200000747075592
 20
67.33566428064296
 30
0.0
 40
0.500000000000063
100
AcDbArc
 50
157.0000000000639
 51
-179.9999999999479
  0
ARC
  5
1C8
330
17
100
AcDbEntity
  8
SSH_INT
100
AcDbCircle
 10
9.200000747075592
 20
67.33566428064296
 30
0.0
 40
0.500000000000063
100
AcDbArc
 50
157.0000000000639
 51
-179.9999999999479
  0
LINE
  5
1C9
330
17
100
AcDbEntity
  8
SSH_EXT
100
AcDbLine
 10
8.739748320349008
 20
67.53102984488714
 30
0.0
 11
10.00000074707532
 21
70.49999850592485
 31
0.0
  0
LINE
  5
1CA
330
17
100
AcDbEntity
  8
SSH_INT
100
AcDbLine
 10
8.739748320349008
 20
67.53102984488714
 30
0.0
 11
10.00000074707532
 21
70.49999850592485
 31
0.0
  0
LINE
  5
1CB
330
17
100
AcDbEntity
  8
SSH_EXT
100
AcDbLine
 10
10.00000074707532
 20
70.49999850592485
 30
0.0
 11
10.00000074707532
 21
71.49999850592486
 31
0.0
  0
LINE
  5
1CC
330
17
100
AcDbEntity
  8
SSH_INT
100
AcDbLine
 10
10.00000074707532
 20
70.49999850592485
 30
0.0
 11
10.00000074707532
 21
71.49999850592486
 31
0.0
  0
ARC
  5
1CD
330
17
100
AcDbEntity
  8
SSH_EXT
100
AcDbCircle
 10
9.500000747075317
 20
71.49999850592486
 30
0.0
 40
0.5
100
AcDbArc
 50
0.0
 51
90.0
  0
ARC
  5
1CE
330
17
100
AcDbEntity
  8
SSH_INT
100
AcDbCircle
 10
9.500000747075317
 20
71.49999850592486
 30
0.0
 40
0.5
100
AcDbArc
 50
0.0
 51
90.0
  0
LINE
  5
1CF
330
17
100
AcDbEntity
  8
SSH_EXT
100
AcDbLine
 10
9.500000747075317
 20
71.99999850592486
 30
0.0
 11
7.035276927485028
 21
71.9999985059244
 31
0.0
  0
LINE
  5
1D0
330
17
100
AcDbEntity
  8
SSH_INT
100
AcDbLine
 10
9.500000747075317
 20
71.99999850592486
 30
0.0
 11
7.035276927485028
 21
71.9999985059244
 31
0.0
  0
ARC
  5
1D1
330
17
100
AcDbEntity
  8
SSH_EXT
100
AcDbCircle
 10
7.035276927485028
 20
70.4999985059244
 30
0.0
 40
1.500000000000001
100
AcDbArc
 50
90.00000000000003
 51
165.0000000000055
  0
ARC
  5
1D2
330
17
100
AcDbEntity
  8
SSH_INT
100
AcDbCircle
 10
7.035276927485028
 20
70.4999985059244
 30
0.0
 40
1.500000000000001
100
AcDbArc
 50
90.00000000000003
 51
165.0000000000055
  0
LINE
  5
1D3
330
17
100
AcDbEntity
  8
SSH_EXT
100
AcDbLine
 10
5.586388188051387
 20
70.88822707357804
 30
0.0
 11
5.517037833930771
 21
70.62940802847606
 31
0.0
  0
LINE
  5
1D4
330
17
100
AcDbEntity
  8
SSH_INT
100
AcDbLine
 10
5.586388188051387
 20
70.88822707357804
 30
0.0
 11
5.517037833930771
 21
70.62940802847606
 31
0.0
  0
ARC
  5
1D5
330
17
100
AcDbEntity
  8
SSH_EXT
100
AcDbCircle
 10
6.000000747075318
 20
70.49999850592485
 30
0.0
 40
0.5000000000000004
100
AcDbArc
 50
165.0000000000055
 51
-90.00000000000001
  0
ARC
  5
1D6
330
17
100
AcDbEntity
  8
SSH_INT
100
AcDbCircle
 10
6.000000747075318
 20
70.49999850592485
 30
0.0
 40
0.5000000000000004
100
AcDbArc
 50
165.0000000000055
 51
-90.00000000000001
  0
LINE
  5
1D7
330
17
100
AcDbEntity
  8
SSH_EXT
100
AcDbLine
 10
6.000000747075318
 20
69.99999850592485
 30
0.0
 11
6.769695356733791
 21
69.99999850592485
 31
0.0
  0
LINE
  5
1D8
330
17
100
AcDbEntity
  8
SSH_INT
100
AcDbLine
 10
6.000000747075318
 20
69.99999850592485
 30
0.0
 11
6.769695356733791
 21
69.99999850592485
 31
0.0
  0
ARC
  5
1D9
330
17
100
AcDbEntity
  8
SSH_EXT
100
AcDbCircle
 10
6.769695356733791
 20
69.79999850592503
 30
0.0
 40
0.1999999999999315
100
AcDbArc
 50
-22.99999999998026
 51
90.0
  0
ARC
  5
1DA
330
17
100
AcDbEntity
  8
SSH_INT
100
AcDbCircle
 10
6.769695356733791
 20
69.79999850592503
 30
0.0
 40
0.1999999999999315
100
AcDbArc
 50
-22.99999999998026
 51
90.0
  0
LINE
  5
1DB
330
17
100
AcDbEntity
  8
SSH_EXT
100
AcDbLine
 10
6.953796327424242
 20
69.72185228022727
 30
0.0
 11
5.85016180527964
 21
67.1218522802269
 31
0.0
  0
LINE
  5
1DC
330
17
100
AcDbEntity
  8
SSH_INT
100
AcDbLine
 10
6.953796327424242
 20
69.72185228022727
 30
0.0
 11
5.85016180527964
 21
67.1218522802269
 31
0.0
  0
ARC
  5
1DD
330
17
100
AcDbEntity
  8
SSH_EXT
100
AcDbCircle
 10
5.666060834589188
 20
67.19999850592467
 30
0.0
 40
0.200000000000093
100
AcDbArc
 50
-90.00000000000001
 51
-22.99999999998026
  0
ARC
  5
1DE
330
17
100
AcDbEntity
  8
SSH_INT
100
AcDbCircle
 10
5.666060834589188
 20
67.19999850592467
 30
0.0
 40
0.200000000000093
100
AcDbArc
 50
-90.00000000000001
 51
-22.99999999998026
  0
LINE
  5
1DF
330
17
100
AcDbEntity
  8
SSH_EXT
100
AcDbLine
 10
5.666060834589188
 20
66.9999985059244
 30
0.0
 11
-15.49999925132624
 21
66.99999850592486
 31
0.0
  0
LINE
  5
1E0
330
17
100
AcDbEntity
  8
SSH_INT
100
AcDbLine
 10
5.666060834589188
 20
66.9999985059244
 30
0.0
 11
-15.49999925132624
 21
66.99999850592486
 31
0.0
  0
LINE
  5
1E1
330
17
100
AcDbEntity
  8
SSH_EXT
100
AcDbLine
 10
-15.49999925132624
 20
66.99999850592486
 30
0.0
 11
-15.64644586576287
 21
66.85355189656093
 31
0.0
  0
LINE
  5
1E2
330
17
100
AcDbEntity
  8
SSH_INT
100
AcDbLine
 10
-15.49999925132624
 20
66.99999850592486
 30
0.0
 11
-15.64644586576287
 21
66.85355189656093
 31
0.0
  0
ARC
  5
1E3
330
17
100
AcDbEntity
  8
SSH_EXT
100
AcDbCircle
 10
-15.99999925639895
 20
67.20710528711152
 30
0.0
 40
0.5000000000000844
100
AcDbArc
 50
-134.9999999930727
 51
-44.99999999307271
  0
ARC
  5
1E4
330
17
100
AcDbEntity
  8
SSH_INT
100
AcDbCircle
 10
-15.99999925639895
 20
67.20710528711152
 30
0.0
 40
0.5000000000000844
100
AcDbArc
 50
-134.9999999930727
 51
-44.99999999307271
  0
LINE
  5
1E5
330
17
100
AcDbEntity
  8
SSH_EXT
100
AcDbLine
 10
-16.35355264694954
 20
66.85355189647544
 30
0.0
 11
-16.4999992513267
 21
66.99999850592486
 31
0.0
  0
LINE
  5
1E6
330
17
100
AcDbEntity
  8
SSH_INT
100
AcDbLine
 10
-16.35355264694954
 20
66.85355189647544
 30
0.0
 11
-16.4999992513267
 21
66.99999850592486
 31
0.0
  0
LINE
  5
1E7
330
17
100
AcDbEntity
  8
SSH_EXT
100
AcDbLine
 10
-16.4999992513267
 20
66.99999850592486
 30
0.0
 11
-22.91942000042855
 21
66.99999850592486
 31
0.0
  0
LINE
  5
1E8
330
17
100
AcDbEntity
  8
SSH_INT
100
AcDbLine
 10
-16.4999992513267
 20
66.99999850592486
 30
0.0
 11
-22.91942000042855
 21
66.99999850592486
 31
0.0
  0
LINE
  5
1E9
330
17
100
AcDbEntity
  8
SSH_EXT
100
AcDbLine
 10
-22.91942000042855
 20
66.99999850592486
 30
0.0
 11
-35.78909620725426
 21
65.19128346946854
 31
0.0
  0
LINE
  5
1EA
330
17
100
AcDbEntity
  8
SSH_INT
100
AcDbLine
 10
-22.91942000042855
 20
66.99999850592486
 30
0.0
 11
-35.78909620725426
 21
65.19128346946854
 31
0.0
  0
ARC
  5
1EB
330
17
100
AcDbEntity
  8
SSH_EXT
100
AcDbCircle
 10
-36.13702895965435
 20
67.66695364132238
 30
0.0
 40
2.499999999999895
100
AcDbArc
 50
159.0000000000155
 51
-82.00000000000148
  0
ARC
  5
1EC
330
17
100
AcDbEntity
  8
SSH_INT
100
AcDbCircle
 10
-36.13702895965435
 20
67.66695364132238
 30
0.0
 40
2.499999999999895
100
AcDbArc
 50
159.0000000000155
 51
-82.00000000000148
  0
LINE
  5
1ED
330
17
100
AcDbEntity
  8
SSH_EXT
100
AcDbLine
 10
-38.47098002589746
 20
68.56287351518493
 30
0.0
 11
-36.3320971204389
 21
74.13485398285594
 31
0.0
  0
LINE
  5
1EE
330
17
100
AcDbEntity
  8
SSH_INT
100
AcDbLine
 10
-38.47098002589746
 20
68.56287351518493
 30
0.0
 11
-36.3320971204389
 21
74.13485398285594
 31
0.0
  0
ARC
  5
1EF
330
17
100
AcDbEntity
  8
SSH_EXT
100
AcDbCircle
 10
-40.99999925292422
 20
75.92669373058288
 30
0.0
 40
4.999999999999757
100
AcDbArc
 50
-21.000000000007667
 51
-5.1538097838421125e-12
  0
ARC
  5
1F0
330
17
100
AcDbEntity
  8
SSH_INT
100
AcDbCircle
 10
-40.99999925292422
 20
75.92669373058288
 30
0.0
 40
4.999999999999757
100
AcDbArc
 50
-21.000000000007667
 51
-5.1538097838421125e-12
  0
LINE
  5
1F1
330
17
100
AcDbEntity
  8
SSH_EXT
100
AcDbLine
 10
-35.99999925292468
 20
75.92669373058243
 30
0.0
 11
-35.99999925292468
 21
83.89999850592496
 31
0.0
  0
LINE
  5
1F2
330
17
100
AcDbEntity
  8
SSH_INT
100
AcDbLine
 10
-35.99999925292468
 20
75.92669373058243
 30
0.0
 11
-35.99999925292468
 21
83.89999850592496
 31
0.0
  0
LINE
  5
1F3
330
17
100
AcDbEntity
  8
SSH_EXT
100
AcDbLine
 10
-35.99999925292468
 20
83.89999850592496
 30
0.0
 11
-36.99999925292468
 21
84.89999850592494
 31
0.0
  0
LINE
  5
1F4
330
17
100
AcDbEntity
  8
SSH_INT
100
AcDbLine
 10
-35.99999925292468
 20
83.89999850592496
 30
0.0
 11
-36.99999925292468
 21
84.89999850592494
 31
0.0
  0
LINE
  5
1F5
330
17
100
AcDbEntity
  8
SSH_EXT
100
AcDbLine
 10
-36.99999925292468
 20
84.89999850592494
 30
0.0
 11
-37.49999925292468
 21
84.8999985059254
 31
0.0
  0
LINE
  5
1F6
330
17
100
AcDbEntity
  8
SSH_INT
100
AcDbLine
 10
-36.99999925292468
 20
84.89999850592494
 30
0.0
 11
-37.49999925292468
 21
84.8999985059254
 31
0.0
  0
LINE
  5
1F7
330
17
100
AcDbEntity
  8
SSH_EXT
100
AcDbLine
 10
-37.49999925292468
 20
84.8999985059254
 30
0.0
 11
-37.49999925292468
 21
84.09999850592521
 31
0.0
  0
LINE
  5
1F8
330
17
100
AcDbEntity
  8
SSH_INT
100
AcDbLine
 10
-37.49999925292468
 20
84.8999985059254
 30
0.0
 11
-37.49999925292468
 21
84.09999850592521
 31
0.0
  0
ARC
  5
1F9
330
17
100
AcDbEntity
  8
SSH_EXT
100
AcDbCircle
 10
-37.99999887938702
 20
84.09999813238755
 30
0.0
 40
0.4999996264624801
100
AcDbArc
 50
-90.00004280429472
 51
4.280429474870001e-05
  0
ARC
  5
1FA
330
17
100
AcDbEntity
  8
SSH_INT
100
AcDbCircle
 10
-37.99999887938702
 20
84.09999813238755
 30
0.0
 40
0.4999996264624801
100
AcDbArc
 50
-90.00004280429472
 51
4.280429474870001e-05
  0
LINE
  5
1FB
330
17
100
AcDbEntity
  8
SSH_EXT
100
AcDbLine
 10
-37.99999925292468
 20
83.59999850592521
 30
0.0
 11
-40.49999925292559
 21
83.59999850592521
 31
0.0
  0
LINE
  5
1FC
330
17
100
AcDbEntity
  8
SSH_INT
100
AcDbLine
 10
-37.99999925292468
 20
83.59999850592521
 30
0.0
 11
-40.49999925292559
 21
83.59999850592521
 31
0.0
  0
ARC
  5
1FD
330
17
100
AcDbEntity
  8
SSH_EXT
100
AcDbCircle
 10
-40.49999925292559
 20
84.59999850592521
 30
0.0
 40
0.9999999999999998
100
AcDbArc
 50
180.0
 51
-90.00000000000001
  0
ARC
  5
1FE
330
17
100
AcDbEntity
  8
SSH_INT
100
AcDbCircle
 10
-40.49999925292559
 20
84.59999850592521
 30
0.0
 40
0.9999999999999998
100
AcDbArc
 50
180.0
 51
-90.00000000000001
  0
LINE
  5
1FF
330
17
100
AcDbEntity
  8
SSH_EXT
100
AcDbLine
 10
-41.49999925292559
 20
84.59999850592521
 30
0.0
 11
-41.49999925292559
 21
86.09999663823692
 31
0.0
  0
LINE
  5
200
330
17
100
AcDbEntity
  8
SSH_INT
100
AcDbLine
 10
-41.49999925292559
 20
84.59999850592521
 30
0.0
 11
-41.49999925292559
 21
86.09999663823692
 31
0.0
  0
LINE
  5
201
330
17
100
AcDbEntity
  8
SSH_EXT
100
AcDbLine
 10
-41.49999925292559
 20
86.09999663823692
 30
0.0
 11
-41.49999925292468
 21
86.09999850592521
 31
0.0
  0
LINE
  5
202
330
17
100
AcDbEntity
  8
SSH_INT
100
AcDbLine
 10
-41.49999925292559
 20
86.09999663823692
 30
0.0
 11
-41.49999925292468
 21
86.09999850592521
 31
0.0
  0
LINE
  5
203
330
17
100
AcDbEntity
  8
SSH_EXT
100
AcDbLine
 10
-41.49999925292468
 20
86.09999850592521
 30
0.0
 11
-41.49999925292559
 21
86.43943759363219
 31
0.0
  0
LINE
  5
204
330
17
100
AcDbEntity
  8
SSH_INT
100
AcDbLine
 10
-41.49999925292468
 20
86.09999850592521
 30
0.0
 11
-41.49999925292559
 21
86.43943759363219
 31
0.0
  0
ARC
  5
205
330
17
100
AcDbEntity
  8
SSH_EXT
100
AcDbCircle
 10
-39.99999925292559
 20
86.43943759363219
 30
0.0
 40
1.499999999999993
100
AcDbArc
 50
115.68774639343239
 51
180.0
  0
ARC
  5
206
330
17
100
AcDbEntity
  8
SSH_INT
100
AcDbCircle
 10
-39.99999925292559
 20
86.43943759363219
 30
0.0
 40
1.499999999999993
100
AcDbArc
 50
115.68774639343239
 51
180.0
  0
LINE
  5
207
330
17
100
AcDbEntity
  8
SSH_EXT
100
AcDbLine
 10
-40.650198800623
 20
87.79119221196106
 30
0.0
 11
-37.78669252595137
 21
89.16855054266262
 31
0.0
  0
LINE
  5
208
330
17
100
AcDbEntity
  8
SSH_INT
100
AcDbLine
 10
-40.650198800623
 20
87.79119221196106
 30
0.0
 11
-37.78669252595137
 21
89.16855054266262
 31
0.0
  0
ARC
  5
209
330
17
100
AcDbEntity
  8
SSH_EXT
100
AcDbCircle
 10
-37.69999925292495
 20
88.9883165935521
 30
0.0
 40
0.2000000000000279
100
AcDbArc
 50
0.0
 51
115.68774639345581
  0
ARC
  5
20A
330
17
100
AcDbEntity
  8
SSH_INT
100
AcDbCircle
 10
-37.69999925292495
 20
88.9883165935521
 30
0.0
 40
0.2000000000000279
100
AcDbArc
 50
0.0
 51
115.68774639345581
  0
LINE
  5
20B
330
17
100
AcDbEntity
  8
SSH_EXT
100
AcDbLine
 10
-37.49999925292468
 20
88.9883165935521
 30
0.0
 11
-37.49999925292468
 21
88.0999985059252
 31
0.0
  0
LINE
  5
20C
330
17
100
AcDbEntity
  8
SSH_INT
100
AcDbLine
 10
-37.49999925292468
 20
88.9883165935521
 30
0.0
 11
-37.49999925292468
 21
88.0999985059252
 31
0.0
  0
LINE
  5
20D
330
17
100
AcDbEntity
  8
SSH_EXT
100
AcDbLine
 10
-37.49999925292468
 20
88.0999985059252
 30
0.0
 11
-36.99999925292468
 21
88.0999985059252
 31
0.0
  0
LINE
  5
20E
330
17
100
AcDbEntity
  8
SSH_INT
100
AcDbLine
 10
-37.49999925292468
 20
88.0999985059252
 30
0.0
 11
-36.99999925292468
 21
88.0999985059252
 31
0.0
  0
LINE
  5
20F
330
17
100
AcDbEntity
  8
SSH_EXT
100
AcDbLine
 10
-36.99999925292468
 20
88.0999985059252
 30
0.0
 11
-35.99999925292468
 21
89.09999850592567
 31
0.0
  0
LINE
  5
210
330
17
100
AcDbEntity
  8
SSH_INT
100
AcDbLine
 10
-36.99999925292468
 20
88.0999985059252
 30
0.0
 11
-35.99999925292468
 21
89.09999850592567
 31
0.0
  0
LINE
  5
211
330
17
100
AcDbEntity
  8
SSH_EXT
100
AcDbLine
 10
-35.99999925292468
 20
89.09999850592567
 30
0.0
 11
-35.99999925292468
 21
91.99999850592485
 31
0.0
  0
LINE
  5
212
330
17
100
AcDbEntity
  8
SSH_INT
100
AcDbLine
 10
-35.99999925292468
 20
89.09999850592567
 30
0.0
 11
-35.99999925292468
 21
91.99999850592485
 31
0.0
  0
LINE
  5
213
330
17
100
AcDbEntity
  8
SSH_EXT
100
AcDbLine
 10
-35.99999925292468
 20
91.99999850592485
 30
0.0
 11
-36.99999925292468
 21
91.99999850592485
 31
0.0
  0
LINE
  5
214
330
17
100
AcDbEntity
  8
SSH_INT
100
AcDbLine
 10
-35.99999925292468
 20
91.99999850592485
 30
0.0
 11
-36.99999925292468
 21
91.99999850592485
 31
0.0
  0
LINE
  5
215
330
17
100
AcDbEntity
  8
SSH_EXT
100
AcDbLine
 10
-36.99999925292468
 20
91.99999850592485
 30
0.0
 11
-41.7882812594853
 21
90.25720638226403
 31
0.0
  0
LINE
  5
216
330
17
100
AcDbEntity
  8
SSH_INT
100
AcDbLine
 10
-36.99999925292468
 20
91.99999850592485
 30
0.0
 11
-41.7882812594853
 21
90.25720638226403
 31
0.0
  0
ARC
  5
217
330
17
100
AcDbEntity
  8
SSH_EXT
100
AcDbCircle
 10
-36.99999925292468
 20
77.10150969126153
 30
0.0
 40
14.00000000000001
100
AcDbArc
 50
110.0000000000052
 51
180.0
  0
ARC
  5
218
330
17
100
AcDbEntity
  8
SSH_INT
100
AcDbCircle
 10
-36.99999925292468
 20
77.10150969126153
 30
0.0
 40
14.00000000000001
100
AcDbArc
 50
110.0000000000052
 51
180.0
  0
LINE
  5
219
330
17
100
AcDbEntity
  8
SSH_EXT
100
AcDbLine
 10
-50.99999925292468
 20
77.10150969126153
 30
0.0
 11
-50.99999925292422
 21
35.499998505926214
 31
0.0
  0
LINE
  5
21A
330
17
100
AcDbEntity
  8
SSH_INT
100
AcDbLine
 10
-50.99999925292468
 20
77.10150969126153
 30
0.0
 11
-50.99999925292422
 21
35.499998505926214
 31
0.0
  0
LINE
  5
21B
330
17
100
AcDbEntity
  8
SSH_EXT
100
AcDbLine
 10
-50.99999925292422
 20
35.499998505926214
 30
0.0
 11
-46.44183097380983
 21
35.49999850592576
 31
0.0
  0
LINE
  5
21C
330
17
100
AcDbEntity
  8
SSH_INT
100
AcDbLine
 10
-50.99999925292422
 20
35.499998505926214
 30
0.0
 11
-46.44183097380983
 21
35.49999850592576
 31
0.0
  0
ARC
  5
21D
330
17
100
AcDbEntity
  8
SSH_EXT
100
AcDbCircle
 10
-46.44183097380983
 20
35.94183022681182
 30
0.0
 40
0.4418317208861015
100
AcDbArc
 50
-90.00000000000001
 51
15.000007532293294
  0
ARC
  5
21E
330
17
100
AcDbEntity
  8
SSH_INT
100
AcDbCircle
 10
-46.44183097380983
 20
35.94183022681182
 30
0.0
 40
0.4418317208861015
100
AcDbArc
 50
-90.00000000000001
 51
15.000007532293294
  0
LINE
  5
21F
330
17
100
AcDbEntity
  8
SSH_EXT
100
AcDbLine
 10
-46.01505431876558
 20
36.05618474701305
 30
0.0
 11
-46.35621366523127
 21
37.32940809196998
 31
0.0
  0
LINE
  5
220
330
17
100
AcDbEntity
  8
SSH_INT
100
AcDbLine
 10
-46.01505431876558
 20
36.05618474701305
 30
0.0
 11
-46.35621366523127
 21
37.32940809196998
 31
0.0
  0
ARC
  5
221
330
17
100
AcDbEntity
  8
SSH_EXT
100
AcDbCircle
 10
-46.83917656136282
 20
37.19999850592603
 30
0.0
 40
0.5000000000000249
100
AcDbArc
 50
15.00000753239127
 51
90.00000000005213
  0
ARC
  5
222
330
17
100
AcDbEntity
  8
SSH_INT
100
AcDbCircle
 10
-46.83917656136282
 20
37.19999850592603
 30
0.0
 40
0.5000000000000249
100
AcDbArc
 50
15.00000753239127
 51
90.00000000005213
  0
LINE
  5
223
330
17
100
AcDbEntity
  8
SSH_EXT
100
AcDbLine
 10
-46.83917656136327
 20
37.69999850592603
 30
0.0
 11
-48.00000108273434
 21
37.69999850592603
 31
0.0
  0
LINE
  5
224
330
17
100
AcDbEntity
  8
SSH_INT
100
AcDbLine
 10
-46.83917656136327
 20
37.69999850592603
 30
0.0
 11
-48.00000108273434
 21
37.69999850592603
 31
0.0
  0
ARC
  5
225
330
17
100
AcDbEntity
  8
SSH_EXT
100
AcDbCircle
 10
-48.00000108273434
 20
37.89999850592585
 30
0.0
 40
0.2000000000000454
100
AcDbArc
 50
180.0
 51
-90.00000000000001
  0
ARC
  5
226
330
17
100
AcDbEntity
  8
SSH_INT
100
AcDbCircle
 10
-48.00000108273434
 20
37.89999850592585
 30
0.0
 40
0.2000000000000454
100
AcDbArc
 50
180.0
 51
-90.00000000000001
  0
LINE
  5
227
330
17
100
AcDbEntity
  8
SSH_EXT
100
AcDbLine
 10
-48.20000108273416
 20
37.89999850592585
 30
0.0
 11
-48.20000108273461
 21
39.59999850592567
 31
0.0
  0
LINE
  5
228
330
17
100
AcDbEntity
  8
SSH_INT
100
AcDbLine
 10
-48.20000108273416
 20
37.89999850592585
 30
0.0
 11
-48.20000108273461
 21
39.59999850592567
 31
0.0
  0
ARC
  5
229
330
17
100
AcDbEntity
  8
SSH_EXT
100
AcDbCircle
 10
-48.00000108273434
 20
39.59999850592567
 30
0.0
 40
0.2000000000000454
100
AcDbArc
 50
90.0
 51
180.0
  0
ARC
  5
22A
330
17
100
AcDbEntity
  8
SSH_INT
100
AcDbCircle
 10
-48.00000108273434
 20
39.59999850592567
 30
0.0
 40
0.2000000000000454
100
AcDbArc
 50
90.0
 51
180.0
  0
LINE
  5
22B
330
17
100
AcDbEntity
  8
SSH_EXT
100
AcDbLine
 10
-48.00000108273434
 20
39.79999850592549
 30
0.0
 11
-39.40000108273443
 21
39.79999850592549
 31
0.0
  0
LINE
  5
22C
330
17
100
AcDbEntity
  8
SSH_INT
100
AcDbLine
 10
-48.00000108273434
 20
39.79999850592549
 30
0.0
 11
-39.40000108273443
 21
39.79999850592549
 31
0.0
  0
ARC
  5
22D
330
17
100
AcDbEntity
  8
SSH_EXT
100
AcDbCircle
 10
-39.40000108273398
 20
39.599998505925214
 30
0.0
 40
0.2000000000000454
100
AcDbArc
 50
0.0
 51
90.00000000013026
  0
ARC
  5
22E
330
17
100
AcDbEntity
  8
SSH_INT
100
AcDbCircle
 10
-39.40000108273398
 20
39.599998505925214
 30
0.0
 40
0.2000000000000454
100
AcDbArc
 50
0.0
 51
90.00000000013026
  0
LINE
  5
22F
330
17
100
AcDbEntity
  8
SSH_EXT
100
AcDbLine
 10
-39.20000108273416
 20
39.599998505925214
 30
0.0
 11
-39.20000108273462
 21
34.999998505925305
 31
0.0
  0
LINE
  5
230
330
17
100
AcDbEntity
  8
SSH_INT
100
AcDbLine
 10
-39.20000108273416
 20
39.599998505925214
 30
0.0
 11
-39.20000108273462
 21
34.999998505925305
 31
0.0
  0
ARC
  5
231
330
17
100
AcDbEntity
  8
SSH_EXT
100
AcDbCircle
 10
-38.20000108273461
 20
34.999998505925305
 30
0.0
 40
0.9999999999999998
100
AcDbArc
 50
180.0
 51
-90.00000000000001
  0
ARC
  5
232
330
17
100
AcDbEntity
  8
SSH_INT
100
AcDbCircle
 10
-38.20000108273461
 20
34.999998505925305
 30
0.0
 40
0.9999999999999998
100
AcDbArc
 50
180.0
 51
-90.00000000000001
  0
LINE
  5
233
330
17
100
AcDbEntity
  8
SSH_EXT
100
AcDbLine
 10
-38.20000108273461
 20
33.999998505925305
 30
0.0
 11
-21.29999925292395
 21
33.99999850592485
 31
0.0
  0
LINE
  5
234
330
17
100
AcDbEntity
  8
SSH_INT
100
AcDbLine
 10
-38.20000108273461
 20
33.999998505925305
 30
0.0
 11
-21.29999925292395
 21
33.99999850592485
 31
0.0
  0
ARC
  5
235
330
17
100
AcDbEntity
  8
SSH_EXT
100
AcDbCircle
 10
-21.29999925292486
 20
34.19999850592467
 30
0.0
 40
0.1999999999998181
100
AcDbArc
 50
-89.99999999973936
 51
0.0
  0
ARC
  5
236
330
17
100
AcDbEntity
  8
SSH_INT
100
AcDbCircle
 10
-21.29999925292486
 20
34.19999850592467
 30
0.0
 40
0.1999999999998181
100
AcDbArc
 50
-89.99999999973936
 51
0.0
  0
LINE
  5
237
330
17
100
AcDbEntity
  8
SSH_EXT
100
AcDbLine
 10
-21.09999925292459
 20
34.19999850592467
 30
0.0
 11
-21.09999925292413
 21
35.99999850592485
 31
0.0
  0
LINE
  5
238
330
17
100
AcDbEntity
  8
SSH_INT
100
AcDbLine
 10
-21.09999925292459
 20
34.19999850592467
 30
0.0
 11
-21.09999925292413
 21
35.99999850592485
 31
0.0
  0
ARC
  5
239
330
17
100
AcDbEntity
  8
SSH_EXT
100
AcDbCircle
 10
-20.89999925292432
 20
35.99999850592485
 30
0.0
 40
0.2000000000000454
100
AcDbArc
 50
90.0
 51
180.0
  0
ARC
  5
23A
330
17
100
AcDbEntity
  8
SSH_INT
100
AcDbCircle
 10
-20.89999925292432
 20
35.99999850592485
 30
0.0
 40
0.2000000000000454
100
AcDbArc
 50
90.0
 51
180.0
  0
LINE
  5
23B
330
17
100
AcDbEntity
  8
SSH_EXT
100
AcDbLine
 10
-20.89999925292432
 20
36.19999850592513
 30
0.0
 11
-19.29999925292486
 21
36.19999850592513
 31
0.0
  0
LINE
  5
23C
330
17
100
AcDbEntity
  8
SSH_INT
100
AcDbLine
 10
-20.89999925292432
 20
36.19999850592513
 30
0.0
 11
-19.29999925292486
 21
36.19999850592513
 31
0.0
  0
ARC
  5
23D
330
17
100
AcDbEntity
  8
SSH_EXT
100
AcDbCircle
 10
-19.29999925292395
 20
36.39999850592494
 30
0.0
 40
0.1999999999998181
100
AcDbArc
 50
-90.00000000026061
 51
0.0
  0
ARC
  5
23E
330
17
100
AcDbEntity
  8
SSH_INT
100
AcDbCircle
 10
-19.29999925292395
 20
36.39999850592494
 30
0.0
 40
0.1999999999998181
100
AcDbArc
 50
-90.00000000026061
 51
0.0
  0
LINE
  5
23F
330
17
100
AcDbEntity
  8
SSH_EXT
100
AcDbLine
 10
-19.09999925292413
 20
36.39999850592494
 30
0.0
 11
-19.09999925292413
 21
38.49999850592485
 31
0.0
  0
LINE
  5
240
330
17
100
AcDbEntity
  8
SSH_INT
100
AcDbLine
 10
-19.09999925292413
 20
36.39999850592494
 30
0.0
 11
-19.09999925292413
 21
38.49999850592485
 31
0.0
  0
ARC
  5
241
330
17
100
AcDbEntity
  8
SSH_EXT
100
AcDbCircle
 10
-19.29999925292395
 20
38.499998505924395
 30
0.0
 40
0.1999999999999994
100
AcDbArc
 50
1.302612e-10
 51
20.00000000014729
  0
ARC
  5
242
330
17
100
AcDbEntity
  8
SSH_INT
100
AcDbCircle
 10
-19.29999925292395
 20
38.499998505924395
 30
0.0
 40
0.1999999999999994
100
AcDbArc
 50
1.302612e-10
 51
20.00000000014729
  0
LINE
  5
243
330
17
100
AcDbEntity
  8
SSH_EXT
100
AcDbLine
 10
-19.11206072876712
 20
38.56840253458995
 30
0.0
 11
-21.32848506946903
 21
44.65797836259845
 31
0.0
  0
LINE
  5
244
330
17
100
AcDbEntity
  8
SSH_INT
100
AcDbLine
 10
-19.11206072876712
 20
38.56840253458995
 30
0.0
 11
-21.32848506946903
 21
44.65797836259845
 31
0.0
  0
ARC
  5
245
330
17
100
AcDbEntity
  8
SSH_EXT
100
AcDbCircle
 10
-20.38879244868349
 20
44.99999850592395
 30
0.0
 40
1.000000000000009
100
AcDbArc
 50
90.0
 51
-160.00000000000193
  0
ARC
  5
246
330
17
100
AcDbEntity
  8
SSH_INT
100
AcDbCircle
 10
-20.38879244868349
 20
44.99999850592395
 30
0.0
 40
1.000000000000009
100
AcDbArc
 50
90.0
 51
-160.00000000000193
  0
LINE
  5
247
330
17
100
AcDbEntity
  8
SSH_EXT
100
AcDbLine
 10
-20.38879244868349
 20
45.99999850592395
 30
0.0
 11
-13.49999925292468
 21
45.99999850592395
 31
0.0
  0
LINE
  5
248
330
17
100
AcDbEntity
  8
SSH_INT
100
AcDbLine
 10
-20.38879244868349
 20
45.99999850592395
 30
0.0
 11
-13.49999925292468
 21
45.99999850592395
 31
0.0
  0
LINE
  5
249
330
17
100
AcDbEntity
  8
SSH_EXT
100
AcDbLine
 10
-13.49999925292468
 20
45.99999850592395
 30
0.0
 11
-13.35355264351801
 21
46.14644511533152
 31
0.0
  0
LINE
  5
24A
330
17
100
AcDbEntity
  8
SSH_INT
100
AcDbLine
 10
-13.49999925292468
 20
45.99999850592395
 30
0.0
 11
-13.35355264351801
 21
46.14644511533152
 31
0.0
  0
ARC
  5
24B
330
17
100
AcDbEntity
  8
SSH_EXT
100
AcDbCircle
 10
-12.99999925292468
 20
45.79289172473819
 30
0.0
 40
0.5000000000000844
100
AcDbArc
 50
45.0
 51
135.0
  0
ARC
  5
24C
330
17
100
AcDbEntity
  8
SSH_INT
100
AcDbCircle
 10
-12.99999925292468
 20
45.79289172473819
 30
0.0
 40
0.5000000000000844
100
AcDbArc
 50
45.0
 51
135.0
  0
LINE
  5
24D
330
17
100
AcDbEntity
  8
SSH_EXT
100
AcDbLine
 10
-12.64644586233135
 20
46.14644511533152
 30
0.0
 11
-12.49999925292377
 21
45.99999850592395
 31
0.0
  0
LINE
  5
24E
330
17
100
AcDbEntity
  8
SSH_INT
100
AcDbLine
 10
-12.64644586233135
 20
46.14644511533152
 30
0.0
 11
-12.49999925292377
 21
45.99999850592395
 31
0.0
  0
LINE
  5
24F
330
17
100
AcDbEntity
  8
SSH_EXT
100
AcDbLine
 10
-12.49999925292377
 20
45.99999850592395
 30
0.0
 11
-5.611206057165418
 21
45.99999850592395
 31
0.0
  0
LINE
  5
250
330
17
100
AcDbEntity
  8
SSH_INT
100
AcDbLine
 10
-12.49999925292377
 20
45.99999850592395
 30
0.0
 11
-5.611206057165418
 21
45.99999850592395
 31
0.0
  0
ARC
  5
251
330
17
100
AcDbEntity
  8
SSH_EXT
100
AcDbCircle
 10
-5.611206057165418
 20
44.99999850592395
 30
0.0
 40
1.000000000000009
100
AcDbArc
 50
-19.999999999989303
 51
90.0
  0
ARC
  5
252
330
17
100
AcDbEntity
  8
SSH_INT
100
AcDbCircle
 10
-5.611206057165418
 20
44.99999850592395
 30
0.0
 40
1.000000000000009
100
AcDbArc
 50
-19.999999999989303
 51
90.0
  0
LINE
  5
253
330
17
100
AcDbEntity
  8
SSH_EXT
100
AcDbLine
 10
-4.671513436379427
 20
44.65797836259845
 30
0.0
 11
-6.887937777081788
 21
38.56840253458995
 31
0.0
  0
LINE
  5
254
330
17
100
AcDbEntity
  8
SSH_INT
100
AcDbLine
 10
-4.671513436379427
 20
44.65797836259845
 30
0.0
 11
-6.887937777081788
 21
38.56840253458995
 31
0.0
  0
ENDSEC
  0
SECTION
  2
OBJECTS
  0
DICTIONARY
  5
A
330
0
100
AcDbDictionary
281
1
  3
ACAD_COLOR
350
B
  3
ACAD_GROUP
350
C
  3
ACAD_LAYOUT
350
D
  3
ACAD_MATERIAL
350
E
  3
ACAD_MLEADERSTYLE
350
F
  3
ACAD_MLINESTYLE
350
10
  3
ACAD_PLOTSETTINGS
350
11
  3
ACAD_PLOTSTYLENAME
350
12
  3
ACAD_SCALELIST
350
14
  3
ACAD_TABLESTYLE
350
15
  3
ACAD_VISUALSTYLE
350
16
  3
EZDXF_META
350
2D
  0
DICTIONARY
  5
B
330
A
100
AcDbDictionary
281
1
  0
DICTIONARY
  5
C
330
A
100
AcDbDictionary
281
1
  0
DICTIONARY
  5
D
330
A
100
AcDbDictionary
281
1
  3
Model
350
1A
  3
Layout1
350
1E
  0
DICTIONARY
  5
E
330
A
100
AcDbDictionary
281
1
  3
ByBlock
350
1F
  3
ByLayer
350
20
  3
Global
350
21
  0
DICTIONARY
  5
F
330
A
100
AcDbDictionary
281
1
  3
Standard
350
2C
  0
DICTIONARY
  5
10
330
A
100
AcDbDictionary
281
1
  3
Standard
350
22
  0
DICTIONARY
  5
11
330
A
100
AcDbDictionary
281
1
  0
ACDBDICTIONARYWDFLT
  5
12
330
A
100
AcDbDictionary
281
1
  3
Normal
350
13
100
AcDbDictionaryWithDefault
340
13
  0
ACDBPLACEHOLDER
  5
13
330
12
  0
DICTIONARY
  5
14
330
A
100
AcDbDictionary
281
1
  0
DICTIONARY
  5
15
330
A
100
AcDbDictionary
281
1
  0
DICTIONARY
  5
16
330
A
100
AcDbDictionary
281
1
  0
LAYOUT
  5
1A
330
D
100
AcDbPlotSettings
  1

  4
A3
  6

 40
7.5
 41
20.0
 42
7.5
 43
20.0
 44
420.0
 45
297.0
 46
0.0
 47
0.0
 48
0.0
 49
0.0
140
0.0
141
0.0
142
1.0
143
1.0
 70
1024
 72
1
 73
0
 74
5
  7

 75
16
 76
0
 77
2
 78
300
147
1.0
148
0.0
149
0.0
100
AcDbLayout
  1
Model
 70
1
 71
0
 10
0.0
 20
0.0
 11
420.0
 21
297.0
 12
0.0
 22
0.0
 32
0.0
 14
1e+20
 24
1e+20
 34
1e+20
 15
-1e+20
 25
-1e+20
 35
-1e+20
146
0.0
 13
0.0
 23
0.0
 33
0.0
 16
1.0
 26
0.0
 36
0.0
 17
0.0
 27
1.0
 37
0.0
 76
1
330
17
  0
LAYOUT
  5
1E
330
D
100
AcDbPlotSettings
  1

  4
A3
  6

 40
7.5
 41
20.0
 42
7.5
 43
20.0
 44
420.0
 45
297.0
 46
0.0
 47
0.0
 48
0.0
 49
0.0
140
0.0
141
0.0
142
1.0
143
1.0
 70
0
 72
1
 73
0
 74
5
  7

 75
16
 76
0
 77
2
 78
300
147
1.0
148
0.0
149
0.0
100
AcDbLayout
  1
Layout1
 70
1
 71
1
 10
0.0
 20
0.0
 11
420.0
 21
297.0
 12
0.0
 22
0.0
 32
0.0
 14
1e+20
 24
1e+20
 34
1e+20
 15
-1e+20
 25
-1e+20
 35
-1e+20
146
0.0
 13
0.0
 23
0.0
 33
0.0
 16
1.0
 26
0.0
 36
0.0
 17
0.0
 27
1.0
 37
0.0
 76
1
330
1B
  0
MATERIAL
  5
1F
102
{ACAD_REACTORS
330
E
102
}
330
E
100
AcDbMaterial
  1
ByBlock
  2

 70
0
 40
1.0
 71
1
 41
1.0
 91
-1023410177
 42
1.0
 72
1
  3

 73
1
 74
1
 75
1
 44
0.5
 73
0
 45
1.0
 46
1.0
 77
1
  4

 78
1
 79
1
170
1
 48
1.0
171
1
  6

172
1
173
1
174
1
140
1.0
141
1.0
175
1
  7

176
1
177
1
178
1
143
1.0
179
1
  8

270
1
271
1
272
1
145
1.0
146
1.0
273
1
  9

274
1
275
1
276
1
 42
1.0
 72
1
  3

 73
1
 74
1
 75
1
 94
63
  0
MATERIAL
  5
20
102
{ACAD_REACTORS
330
E
102
}
330
E
100
AcDbMaterial
  1
ByLayer
  2

 70
0
 40
1.0
 71
1
 41
1.0
 91
-1023410177
 42
1.0
 72
1
  3

 73
1
 74
1
 75
1
 44
0.5
 73
0
 45
1.0
 46
1.0
 77
1
  4

 78
1
 79
1
170
1
 48
1.0
171
1
  6

172
1
173
1
174
1
140
1.0
141
1.0
175
1
  7

176
1
177
1
178
1
143
1.0
179
1
  8

270
1
271
1
272
1
145
1.0
146
1.0
273
1
  9

274
1
275
1
276
1
 42
1.0
 72
1
  3

 73
1
 74
1
 75
1
 94
63
  0
MATERIAL
  5
21
102
{ACAD_REACTORS
330
E
102
}
330
E
100
AcDbMaterial
  1
Global
  2

 70
0
 40
1.0
 71
1
 41
1.0
 91
-1023410177
 42
1.0
 72
1
  3

 73
1
 74
1
 75
1
 44
0.5
 73
0
 45
1.0
 46
1.0
 77
1
  4

 78
1
 79
1
170
1
 48
1.0
171
1
  6

172
1
173
1
174
1
140
1.0
141
1.0
175
1
  7

176
1
177
1
178
1
143
1.0
179
1
  8

270
1
271
1
272
1
145
1.0
146
1.0
273
1
  9

274
1
275
1
276
1
 42
1.0
 72
1
  3

 73
1
 74
1
 75
1
 94
63
  0
MLINESTYLE
  5
22
102
{ACAD_REACTORS
330
10
102
}
330
10
100
AcDbMlineStyle
  2
Standard
 70
0
  3

 62
256
 51
90.0
 52
90.0
 71
2
 49
0.5
 62
256
  6
BYLAYER
 49
-0.5
 62
256
  6
BYLAYER
  0
MLEADERSTYLE
  5
2C
102
{ACAD_REACTORS
330
F
102
}
330
F
100
AcDbMLeaderStyle
179
2
170
2
171
1
172
0
 90
2
 40
0.0
 41
0.0
173
1
 91
-1056964608
 92
-2
290
1
 42
2.0
291
1
 43
8.0
  3
Standard
 44
4.0
300

342
29
174
1
175
1
176
0
178
1
 93
-1056964608
 45
4.0
292
0
297
0
 46
4.0
 94
-1056964608
 47
1.0
 49
1.0
140
1.0
294
1
141
0.0
177
0
142
1.0
295
0
296
0
143
3.75
271
0
272
9
273
9
  0
DICTIONARY
  5
2D
330
A
100
AcDbDictionary
280
1
281
1
  3
CREATED_BY_EZDXF
350
2E
  3
WRITTEN_BY_EZDXF
350
257
  0
DICTIONARYVAR
  5
2E
330
2D
100
DictionaryVariables
280
0
  1
1.4.4 @ 2026-07-02T14:24:02.870057+00:00
  0
DICTIONARYVAR
  5
257
330
2D
100
DictionaryVariables
280
0
  1
1.4.4 @ 2026-07-02T14:24:02.890573+00:00
  0
ENDSEC
  0
EOF
