  0
SECTION
  2
HEADER
  9
$ACADVER
  1
AC1024
  9
$ACADMAINTVER
 70
6
  9
$DWGCODEPAGE
  3
ANSI_1252
  9
$LASTSAVEDBY
  1
ezdxf
  9
$INSBASE
 10
0.0
 20
0.0
 30
0.0
  9
$EXTMIN
 10
1e+20
 20
1e+20
 30
1e+20
  9
$EXTMAX
 10
-1e+20
 20
-1e+20
 30
-1e+20
  9
$LIMMIN
 10
0.0
 20
0.0
  9
$LIMMAX
 10
420.0
 20
297.0
  9
$ORTHOMODE
 70
0
  9
$REGENMODE
 70
1
  9
$FILLMODE
 70
1
  9
$QTEXTMODE
 70
0
  9
$MIRRTEXT
 70
1
  9
$LTSCALE
 40
1.0
  9
$ATTMODE
 70
1
  9
$TEXTSIZE
 40
2.5
  9
$TRACEWID
 40
1.0
  9
$TEXTSTYLE
  7
Standard
  9
$CLAYER
  8
0
  9
$CELTYPE
  6
ByLayer
  9
$CECOLOR
 62
256
  9
$CELTSCALE
 40
1.0
  9
$DISPSILH
 70
0
  9
$DIMSCALE
 40
1.0
  9
$DIMASZ
 40
2.5
  9
$DIMEXO
 40
0.625
  9
$DIMDLI
 40
3.75
  9
$DIMRND
 40
0.0
  9
$DIMDLE
 40
0.0
  9
$DIMEXE
 40
1.25
  9
$DIMTP
 40
0.0
  9
$DIMTM
 40
0.0
  9
$DIMTXT
 40
2.5
  9
$DIMCEN
 40
2.5
  9
$DIMTSZ
 40
0.0
  9
$DIMTOL
 70
0
  9
$DIMLIM
 70
0
  9
$DIMTIH
 70
0
  9
$DIMTOH
 70
0
  9
$DIMSE1
 70
0
  9
$DIMSE2
 70
0
  9
$DIMTAD
 70
1
  9
$DIMZIN
 70
8
  9
$DIMBLK
  1

  9
$DIMASO
 70
1
  9
$DIMSHO
 70
1
  9
$DIMPOST
  1

  9
$DIMAPOST
  1

  9
$DIMALT
 70
0
  9
$DIMALTD
 70
3
  9
$DIMALTF
 40
0.03937007874
  9
$DIMLFAC
 40
1.0
  9
$DIMTOFL
 70
1
  9
$DIMTVP
 40
0.0
  9
$DIMTIX
 70
0
  9
$DIMSOXD
 70
0
  9
$DIMSAH
 70
0
  9
$DIMBLK1
  1

  9
$DIMBLK2
  1

  9
$DIMSTYLE
  2
ISO-25
  9
$DIMCLRD
 70
0
  9
$DIMCLRE
 70
0
  9
$DIMCLRT
 70
0
  9
$DIMTFAC
 40
1.0
  9
$DIMGAP
 40
0.625
  9
$DIMJUST
 70
0
  9
$DIMSD1
 70
0
  9
$DIMSD2
 70
0
  9
$DIMTOLJ
 70
0
  9
$DIMTZIN
 70
8
  9
$DIMALTZ
 70
0
  9
$DIMALTTZ
 70
0
  9
$DIMUPT
 70
0
  9
$DIMDEC
 70
2
  9
$DIMTDEC
 70
2
  9
$DIMALTU
 70
2
  9
$DIMALTTD
 70
3
  9
$DIMTXSTY
  7
Standard
  9
$DIMAUNIT
 70
0
  9
$DIMADEC
 70
0
  9
$DIMALTRND
 40
0.0
  9
$DIMAZIN
 70
0
  9
$DIMDSEP
 70
44
  9
$DIMATFIT
 70
3
  9
$DIMFRAC
 70
0
  9
$DIMLDRBLK
  1

  9
$DIMLUNIT
 70
2
  9
$DIMLWD
 70
-2
  9
$DIMLWE
 70
-2
  9
$DIMTMOVE
 70
0
  9
$DIMFXL
 40
1.0
  9
$DIMFXLON
 70
0
  9
$DIMJOGANG
 40
0.785398163397
  9
$DIMTFILL
 70
0
  9
$DIMTFILLCLR
 70
0
  9
$DIMARCSYM
 70
0
  9
$DIMLTYPE
  6

  9
$DIMLTEX1
  6

  9
$DIMLTEX2
  6

  9
$DIMTXTDIRECTION
 70
0
  9
$LUNITS
 70
2
  9
$LUPREC
 70
4
  9
$SKETCHINC
 40
1.0
  9
$FILLETRAD
 40
10.0
  9
$AUNITS
 70
0
  9
$AUPREC
 70
2
  9
$MENU
  1
.
  9
$ELEVATION
 40
0.0
  9
$PELEVATION
 40
0.0
  9
$THICKNESS
 40
0.0
  9
$LIMCHECK
 70
0
  9
$CHAMFERA
 40
0.0
  9
$CHAMFERB
 40
0.0
  9
$CHAMFERC
 40
0.0
  9
$CHAMFERD
 40
0.0
  9
$SKPOLY
 70
0
  9
$TDCREATE
 40
2461225.441898148
  9
$TDUCREATE
 40
2458532.153996898
  9
$TDUPDATE
 40
2461225.441898148
  9
$TDUUPDATE
 40
2458532.1544311
  9
$TDINDWG
 40
0.0
  9
$TDUSRTIMER
 40
0.0
  9
$USRTIMER
 70
1
  9
$ANGBASE
 50
0.0
  9
$ANGDIR
 70
0
  9
$PDMODE
 70
0
  9
$PDSIZE
 40
0.0
  9
$PLINEWID
 40
0.0
  9
$SPLFRAME
 70
0
  9
$SPLINETYPE
 70
6
  9
$SPLINESEGS
 70
8
  9
$HANDSEED
  5
3A
  9
$SURFTAB1
 70
6
  9
$SURFTAB2
 70
6
  9
$SURFTYPE
 70
6
  9
$SURFU
 70
6
  9
$SURFV
 70
6
  9
$UCSBASE
  2

  9
$UCSNAME
  2

  9
$UCSORG
 10
0.0
 20
0.0
 30
0.0
  9
$UCSXDIR
 10
1.0
 20
0.0
 30
0.0
  9
$UCSYDIR
 10
0.0
 20
1.0
 30
0.0
  9
$UCSORTHOREF
  2

  9
$UCSORTHOVIEW
 70
0
  9
$UCSORGTOP
 10
0.0
 20
0.0
 30
0.0
  9
$UCSORGBOTTOM
 10
0.0
 20
0.0
 30
0.0
  9
$UCSORGLEFT
 10
0.0
 20
0.0
 30
0.0
  9
$UCSORGRIGHT
 10
0.0
 20
0.0
 30
0.0
  9
$UCSORGFRONT
 10
0.0
 20
0.0
 30
0.0
  9
$UCSORGBACK
 10
0.0
 20
0.0
 30
0.0
  9
$PUCSBASE
  2

  9
$PUCSNAME
  2

  9
$PUCSORG
 10
0.0
 20
0.0
 30
0.0
  9
$PUCSXDIR
 10
1.0
 20
0.0
 30
0.0
  9
$PUCSYDIR
 10
0.0
 20
1.0
 30
0.0
  9
$PUCSORTHOREF
  2

  9
$PUCSORTHOVIEW
 70
0
  9
$PUCSORGTOP
 10
0.0
 20
0.0
 30
0.0
  9
$PUCSORGBOTTOM
 10
0.0
 20
0.0
 30
0.0
  9
$PUCSORGLEFT
 10
0.0
 20
0.0
 30
0.0
  9
$PUCSORGRIGHT
 10
0.0
 20
0.0
 30
0.0
  9
$PUCSORGFRONT
 10
0.0
 20
0.0
 30
0.0
  9
$PUCSORGBACK
 10
0.0
 20
0.0
 30
0.0
  9
$USERI1
 70
0
  9
$USERI2
 70
0
  9
$USERI3
 70
0
  9
$USERI4
 70
0
  9
$USERI5
 70
0
  9
$USERR1
 40
0.0
  9
$USERR2
 40
0.0
  9
$USERR3
 40
0.0
  9
$USERR4
 40
0.0
  9
$USERR5
 40
0.0
  9
$WORLDVIEW
 70
1
  9
$SHADEDGE
 70
3
  9
$SHADEDIF
 70
70
  9
$TILEMODE
 70
1
  9
$MAXACTVP
 70
64
  9
$PINSBASE
 10
0.0
 20
0.0
 30
0.0
  9
$PLIMCHECK
 70
0
  9
$PEXTMIN
 10
1e+20
 20
1e+20
 30
1e+20
  9
$PEXTMAX
 10
-1e+20
 20
-1e+20
 30
-1e+20
  9
$PLIMMIN
 10
0.0
 20
0.0
  9
$PLIMMAX
 10
420.0
 20
297.0
  9
$UNITMODE
 70
0
  9
$VISRETAIN
 70
1
  9
$PLINEGEN
 70
0
  9
$PSLTSCALE
 70
1
  9
$TREEDEPTH
 70
3020
  9
$CMLSTYLE
  2
Standard
  9
$CMLJUST
 70
0
  9
$CMLSCALE
 40
20.0
  9
$PROXYGRAPHICS
 70
1
  9
$MEASUREMENT
 70
1
  9
$CELWEIGHT
370
-1
  9
$ENDCAPS
280
0
  9
$JOINSTYLE
280
0
  9
$LWDISPLAY
290
0
  9
$INSUNITS
 70
6
  9
$HYPERLINKBASE
  1

  9
$STYLESHEET
  1

  9
$XEDIT
290
1
  9
$CEPSNTYPE
380
0
  9
$PSTYLEMODE
290
1
  9
$FINGERPRINTGUID
  2
{2F0EAA14-646F-458C-83F7-70DFAFB72966}
  9
$VERSIONGUID
  2
{CADF9270-23FD-46B0-B5EF-B53D94DE183C}
  9
$EXTNAMES
290
1
  9
$PSVPSCALE
 40
0.0
  9
$OLESTARTUP
290
0
  9
$SORTENTS
280
127
  9
$INDEXCTL
280
0
  9
$HIDETEXT
280
1
  9
$XCLIPFRAME
280
1
  9
$HALOGAP
280
0
  9
$OBSCOLOR
 70
257
  9
$OBSLTYPE
280
0
  9
$INTERSECTIONDISPLAY
280
0
  9
$INTERSECTIONCOLOR
 70
257
  9
$DIMASSOC
280
2
  9
$PROJECTNAME
  1

  9
$CAMERADISPLAY
290
0
  9
$LENSLENGTH
 40
50.0
  9
$CAMERAHEIGHT
 40
0.0
  9
$STEPSPERSEC
 40
24.0
  9
$STEPSIZE
 40
100.0
  9
$3DDWFPREC
 40
2.0
  9
$PSOLWIDTH
 40
0.005
  9
$PSOLHEIGHT
 40
0.08
  9
$LOFTANG1
 40
1.570796326795
  9
$LOFTANG2
 40
1.570796326795
  9
$LOFTMAG1
 40
0.0
  9
$LOFTMAG2
 40
0.0
  9
$LOFTPARAM
 70
7
  9
$LOFTNORMALS
280
1
  9
$LATITUDE
 40
37.795
  9
$LONGITUDE
 40
-122.394
  9
$NORTHDIRECTION
 40
0.0
  9
$TIMEZONE
 70
-8000
  9
$LIGHTGLYPHDISPLAY
280
1
  9
$TILEMODELIGHTSYNCH
280
1
  9
$CMATERIAL
347
20
  9
$SOLIDHIST
280
0
  9
$SHOWHIST
280
1
  9
$DWFFRAME
280
2
  9
$DGNFRAME
280
2
  9
$REALWORLDSCALE
290
1
  9
$INTERFERECOLOR
 62
256
  9
$CSHADOW
280
0
  9
$SHADOWPLANELOCATION
 40
0.0
  0
ENDSEC
  0
SECTION
  2
CLASSES
  0
CLASS
  1
ACDBDICTIONARYWDFLT
  2
AcDbDictionaryWithDefault
  3
ObjectDBX Classes
 90
0
 91
0
280
0
281
0
  0
CLASS
  1
SUN
  2
AcDbSun
  3
SCENEOE
 90
1153
 91
0
280
0
281
0
  0
CLASS
  1
VISUALSTYLE
  2
AcDbVisualStyle
  3
ObjectDBX Classes
 90
4095
 91
0
280
0
281
0
  0
CLASS
  1
MATERIAL
  2
AcDbMaterial
  3
ObjectDBX Classes
 90
1153
 91
0
280
0
281
0
  0
CLASS
  1
SCALE
  2
AcDbScale
  3
ObjectDBX Classes
 90
1153
 91
0
280
0
281
0
  0
CLASS
  1
TABLESTYLE
  2
AcDbTableStyle
  3
ObjectDBX Classes
 90
4095
 91
0
280
0
281
0
  0
CLASS
  1
MLEADERSTYLE
  2
AcDbMLeaderStyle
  3
ACDB_MLEADERSTYLE_CLASS
 90
4095
 91
0
280
0
281
0
  0
CLASS
  1
DICTIONARYVAR
  2
AcDbDictionaryVar
  3
ObjectDBX Classes
 90
0
 91
0
280
0
281
0
  0
CLASS
  1
CELLSTYLEMAP
  2
AcDbCellStyleMap
  3
ObjectDBX Classes
 90
1152
 91
0
280
0
281
0
  0
CLASS
  1
MENTALRAYRENDERSETTINGS
  2
AcDbMentalRayRenderSettings
  3
SCENEOE
 90
1024
 91
0
280
0
281
0
  0
CLASS
  1
ACDBDETAILVIEWSTYLE
  2
AcDbDetailViewStyle
  3
ObjectDBX Classes
 90
1025
 91
0
280
0
281
0
  0
CLASS
  1
ACDBSECTIONVIEWSTYLE
  2
AcDbSectionViewStyle
  3
ObjectDBX Classes
 90
1025
 91
0
280
0
281
0
  0
CLASS
  1
RASTERVARIABLES
  2
AcDbRasterVariables
  3
ISM
 90
0
 91
0
280
0
281
0
  0
CLASS
  1
ACDBPLACEHOLDER
  2
AcDbPlaceHolder
  3
ObjectDBX Classes
 90
0
 91
0
280
0
281
0
  0
CLASS
  1
LAYOUT
  2
AcDbLayout
  3
ObjectDBX Classes
 90
0
 91
0
280
0
281
0
  0
ENDSEC
  0
SECTION
  2
TABLES
  0
TABLE
  2
VPORT
  5
8
330
0
100
AcDbSymbolTable
 70
1
  0
VPORT
  5
23
330
8
100
AcDbSymbolTableRecord
100
AcDbViewportTableRecord
  2
*Active
 70
0
 10
0.0
 20
0.0
 11
1.0
 21
1.0
 12
0.0
 22
0.0
 13
0.0
 23
0.0
 14
0.5
 24
0.5
 15
0.5
 25
0.5
 16
0.0
 26
0.0
 36
1.0
 17
0.0
 27
0.0
 37
0.0
 40
1000.0
 41
1.34
 42
50.0
 43
0.0
 44
0.0
 50
0.0
 51
0.0
 71
0
 72
1000
 73
1
 74
3
 75
0
 76
0
 77
0
 78
0
281
0
 65
0
146
0.0
  0
ENDTAB
  0
TABLE
  2
LTYPE
  5
2
330
0
100
AcDbSymbolTable
 70
3
  0
LTYPE
  5
24
330
2
100
AcDbSymbolTableRecord
100
AcDbLinetypeTableRecord
  2
ByBlock
 70
0
  3

 72
65
 73
0
 40
0.0
  0
LTYPE
  5
25
330
2
100
AcDbSymbolTableRecord
100
AcDbLinetypeTableRecord
  2
ByLayer
 70
0
  3

 72
65
 73
0
 40
0.0
  0
LTYPE
  5
26
330
2
100
AcDbSymbolTableRecord
100
AcDbLinetypeTableRecord
  2
Continuous
 70
0
  3

 72
65
 73
0
 40
0.0
  0
ENDTAB
  0
TABLE
  2
LAYER
  5
1
330
0
100
AcDbSymbolTable
 70
2
  0
LAYER
  5
27
330
1
100
AcDbSymbolTableRecord
100
AcDbLayerTableRecord
  2
0
 70
0
 62
7
  6
Continuous
370
-3
390
13
347
21
  0
LAYER
  5
28
330
1
100
AcDbSymbolTableRecord
100
AcDbLayerTableRecord
  2
Defpoints
 70
0
 62
7
  6
Continuous
290
0
370
-3
390
13
347
21
  0
ENDTAB
  0
TABLE
  2
STYLE
  5
5
330
0
100
AcDbSymbolTable
 70
1
  0
STYLE
  5
29
330
5
100
AcDbSymbolTableRecord
100
AcDbTextStyleTableRecord
  2
Standard
 70
0
 40
0.0
 41
1.0
 50
0.0
 71
0
 42
2.5
  3
txt
  4

  0
ENDTAB
  0
TABLE
  2
VIEW
  5
7
330
0
100
AcDbSymbolTable
 70
0
  0
ENDTAB
  0
TABLE
  2
UCS
  5
6
330
0
100
AcDbSymbolTable
 70
0
  0
ENDTAB
  0
TABLE
  2
APPID
  5
3
330
0
100
AcDbSymbolTable
 70
3
  0
APPID
  5
2A
330
3
100
AcDbSymbolTableRecord
100
AcDbRegAppTableRecord
  2
ACAD
 70
0
  0
APPID
  5
37
330
3
100
AcDbSymbolTableRecord
100
AcDbRegAppTableRecord
  2
HATCHBACKGROUNDCOLOR
 70
0
  0
APPID
  5
38
330
3
100
AcDbSymbolTableRecord
100
AcDbRegAppTableRecord
  2
EZDXF
 70
0
  0
ENDTAB
  0
TABLE
  2
DIMSTYLE
  5
4
330
0
100
AcDbSymbolTable
 70
1
100
AcDbDimStyleTable
  0
DIMSTYLE
105
2B
330
4
100
AcDbSymbolTableRecord
100
AcDbDimStyleTableRecord
  2
Standard
 70
0
 40
1.0
 41
2.5
 42
0.625
 43
3.75
 44
1.25
 45
0.0
 46
0.0
 47
0.0
 48
0.0
 49
2.5
140
2.5
141
2.5
142
0.0
143
0.03937007874
144
1.0
145
0.0
146
1.0
147
0.625
148
0.0
 69
0
 70
0
 71
0
 72
0
 73
0
 74
0
 75
0
 76
0
 77
1
 78
8
 79
3
170
0
171
3
172
1
173
0
174
0
175
0
176
0
177
0
178
0
179
2
271
2
272
2
273
2
274
3
275
0
276
0
277
2
278
44
279
0
280
0
281
0
282
0
283
0
284
8
285
0
286
0
288
0
289
3
290
0
371
-2
372
-2
  0
ENDTAB
  0
TABLE
  2
BLOCK_RECORD
  5
9
330
0
100
AcDbSymbolTable
 70
2
  0
BLOCK_RECORD
  5
17
330
9
100
AcDbSymbolTableRecord
100
AcDbBlockTableRecord
  2
*Model_Space
340
1A
 70
0
280
1
281
0
  0
BLOCK_RECORD
  5
1B
330
9
100
AcDbSymbolTableRecord
100
AcDbBlockTableRecord
  2
*Paper_Space
340
1E
 70
0
280
1
281
0
  0
ENDTAB
  0
ENDSEC
  0
SECTION
  2
BLOCKS
  0
BLOCK
  5
18
330
17
100
AcDbEntity
  8
0
100
AcDbBlockBegin
  2
*Model_Space
 70
0
 10
0.0
 20
0.0
 30
0.0
  3
*Model_Space
  1

  0
ENDBLK
  5
19
330
17
100
AcDbEntity
  8
0
100
AcDbBlockEnd
  0
BLOCK
  5
1C
330
1B
100
AcDbEntity
  8
0
100
AcDbBlockBegin
  2
*Paper_Space
 70
0
 10
0.0
 20
0.0
 30
0.0
  3
*Paper_Space
  1

  0
ENDBLK
  5
1D
330
1B
100
AcDbEntity
  8
0
100
AcDbBlockEnd
  0
ENDSEC
  0
SECTION
  2
ENTITIES
  0
LWPOLYLINE
  5
2F
330
17
100
AcDbEntity
  8
GSK_FRM_EXT
 62
6
100
AcDbPolyline
 90
31
 70
1
 10
-52.90000533899297
 20
59.42171945152995
 42
0.1826758888702128
 10
-53.025005167150766
 20
59.7524385758843
 42
-0.4362879657284912
 10
-52.92249490456811
 20
60.77356649852209
 10
-52.190080350308335
 20
62.02301829981684
 42
0.2073074163340437
 10
-51.04353349272992
 20
64.01994901086482
 42
0.0916074222265504
 10
-51.13551427362904
 20
65.83452057998875
 42
0.4268639712463462
 10
-52.33020079046969
 20
66.574421601538
 42
-0.0527154374469259
 10
-54.74388819006731
 20
65.95253119250287
 42
0.3718316879017271
 10
-54.9999961905753
 20
65.65576008944026
 10
-55.00000381100813
 20
62.3034251136537
 42
-0.4589973865408548
 10
-55.34496861219236
 20
62.00681465850016
 10
-56.58333008830073
 20
62.10695884875474
 42
0.1730044290472394
 10
-56.76377817277489
 20
62.05858367939368
 10
-56.94542273380034
 20
61.94211662630141
 42
-0.6935273263148176
 10
-57.11113133477852
 20
62.02945422110042
 42
-0.1940731523186352
 10
-56.68123975570143
 20
62.81674290534295
 42
0.9442779230106229
 10
-56.84392456319756
 20
63.07951384161112
 42
0.1848969568933989
 10
-59.12889840087496
 20
60.956131757135836
 42
0.2413739550731988
 10
-59.12889840087496
 20
60.04379021950194
 42
0.1155441180481
 10
-57.09687683768129
 20
57.6495951354803
 42
0.8046084068019029
 10
-56.77321512657261
 20
57.93239158122486
 42
-0.0941294090166279
 10
-57.11113133477852
 20
58.970467755537356
 42
-0.6935273263667959
 10
-56.94542273379943
 20
59.057805350335684
 10
-56.691370728459674
 20
58.9335542784691
 42
0.1102863192832164
 10
-56.52324963794808
 20
58.900588454071
 10
-55.23024404430748
 20
59.01049900287353
 42
-0.4865963738769969
 10
-54.86961145922919
 20
58.635786369651896
 42
-0.0904941723492964
 10
-54.920121434422754
 20
56.939554695087054
 42
0.9312118644052843
 10
-54.31715543507903
 20
56.41687669152975
 10
-52.97376182719313
 20
58.60765460681796
 42
0.1383914179832654
 10
-52.900005338993424
 20
58.86902879959189
  0
LWPOLYLINE
  5
30
330
17
100
AcDbEntity
  8
FRM_EXT
100
AcDbPolyline
 90
129
 70
1
 10
-8.906716096271339
 20
6.9175570504583
 42
-0.2400787590801145
 10
-8.74491269739633
 20
6.9999999999995435
 10
-3.6439756095976454
 20
7.0
 42
-0.3690546425321124
 10
-2.6562129381904898
 20
6.155964434966334
 10
-2.18252293304772
 20
3.155964434966334
 42
-0.4608620707066395
 10
-3.170285604454873
 20
2.0
 10
-4.598075999999537
 20
2.0000000000000004
 10
-4.598075999999537
 20
1.0000000000000002
 42
0.4142135623730951
 10
-3.598075999999537
 20
2.2031861282441725e-16
 10
0.0
 20
0.0
 10
2.3015545529808157e-13
 20
44.99999999999977
 42
0.4142140000000855
 10
-0.9999999999999972
 20
46.00000000000021
 10
-4.558168279113938
 20
46.00000000000045
 42
0.4931454668899049
 10
-4.98494493415819
 20
45.44381375891292
 10
-4.643785587692713
 20
44.17059041395669
 42
0.3394542222102505
 10
-4.1608226915609485
 20
43.80000000000018
 10
-3.0913372702643724
 20
43.80000000000018
 42
-0.4608620707066395
 10
-2.1035745988572185
 20
42.64403556503384
 10
-2.4124148666098764
 20
40.688071130068
 42
-0.3690546425321124
 10
-4.387940209423956
 20
39.00000000000068
 10
-9.299999999999951
 20
39.0
 42
-0.4142135623730951
 10
-10.299999999999947
 20
40.0
 10
-10.299999999999947
 20
41.33566577471809
 42
-0.1006947051834969
 10
-10.260252426726078
 20
41.53103133896275
 10
-8.999999999999996
 20
44.5
 10
-8.999999999999996
 20
45.49999999999999
 42
0.4142135623730951
 10
-9.499999999999996
 20
46.0
 10
-11.964723819589146
 20
46.0
 42
0.3394542588635296
 10
-13.413612559023477
 20
44.88822856765363
 10
-13.482962913144537
 20
44.62940952255121
 42
0.493145426031274
 10
-12.999999999999996
 20
44.0
 10
-12.230305390341066
 20
44.00000000000066
 42
-0.5373193821392536
 10
-12.046204419650616
 20
43.72185377430287
 10
-13.149838941795448
 20
41.12185377430203
 42
-0.3009658391326293
 10
-13.333939912485897
 20
40.99999999999977
 10
-34.49999999840134
 20
41.0
 10
-34.64644661283819
 20
40.85355339063608
 42
-0.4142135623730502
 10
-35.35355339402486
 20
40.85355339055036
 10
-35.49999999840179
 20
41.0
 10
-41.91942074750385
 20
41.0
 10
-54.78909695432889
 20
39.1912849635437
 42
-0.5715470873652616
 10
-57.47098077297255
 20
42.56287500926053
 10
-55.33209786751422
 20
48.13485547692994
 42
0.0918870916679617
 10
-55.0
 20
49.92669522465757
 10
-54.99999999999977
 20
57.90000000000009
 10
-55.999999999999545
 20
58.90000000000011
 10
-56.49999999999999
 20
58.90000000000054
 10
-56.49999999999999
 20
58.10000000000036
 42
-0.4142140000002187
 10
-57.0
 20
57.60000000000037
 10
-59.50000000000066
 20
57.60000000000038
 42
-0.4142135623730951
 10
-60.500000000000675
 20
58.600000000000364
 10
-60.500000000000675
 20
60.09999813231208
 10
-60.49999999999999
 20
60.10000000000038
 10
-60.5000000000009
 20
60.43943908770711
 42
-0.2882204520472692
 10
-59.65019954769808
 20
61.79119370603644
 10
-56.78669327302645
 20
63.16855203673799
 42
-0.5525293025908593
 10
-56.49999999999999
 20
62.98831808762748
 10
-56.49999999999999
 20
62.10000000000036
 10
-55.999999999999545
 20
62.10000000000036
 10
-54.999999999999766
 20
63.10000000000082
 10
-54.99999999999999
 20
66.0
 10
-55.99999999999999
 20
66.0
 10
-60.78828200655696
 20
64.25720787634032
 42
0.3152987888790331
 10
-70.0
 20
51.10151118533669
 10
-70.0
 20
4.2862637970157365e-15
 10
-66.40192400000024
 20
4.065945184191305e-15
 42
0.4142135623730951
 10
-65.40192400000024
 20
1.000000000000004
 10
-65.40192400000024
 20
2.000000000000004
 10
-66.82971439554467
 20
2.000000000000004
 42
-0.4608620707066397
 10
-67.81747706695182
 20
3.155964434966338
 10
-67.34378706180951
 20
6.1559644349663385
 42
-0.3690546425321123
 10
-66.35602439040211
 20
7.000000000000004
 10
-61.25508730260342
 20
6.999999999999775
 42
-0.2400787590802713
 10
-61.09328390372843
 20
6.917557050458075
 10
-60.01151247204825
 20
5.428626409810935
 42
-0.2325553856618125
 10
-59.86105290366504
 20
4.5590527164527
 10
-60.29999999999995
 20
3.0644582269437737
 10
-60.29999999999995
 20
2.0000000000009126
 10
-60.59807621135314
 20
2.0000000000004574
 10
-61.0
 20
0.5000000000000038
 10
-60.99999999999977
 20
3.735172737399413e-15
 10
-57.19999999999981
 20
3.5024898455614188e-15
 42
0.4142135623730951
 10
-56.19999999999982
 20
1.0000000000000033
 10
-56.19999999999982
 20
2.0000000000000036
 10
-56.79999999587085
 20
2.0000000000004574
 42
-0.3349997217040084
 10
-57.76166160783759
 20
2.7257611550683154
 42
-0.1418030814149202
 10
-57.76122459779411
 20
2.8369666123253436
 10
-57.4623614926411
 20
3.8545816137884716
 42
0.1374014254549942
 10
-57.43864017345891
 20
5.742409146115507
 42
-0.4927503700213901
 10
-56.47238609093415
 20
7.0000000000000036
 10
-35.49999999840179
 20
7.000000000000002
 10
-35.35355339402464
 20
7.146446609450324
 42
-0.4142135623729112
 10
-34.64644661283819
 20
7.146446609363921
 10
-34.49999999840134
 20
7.000000000000002
 10
-23.4429650564382
 20
7.000000000000002
 42
-0.4927503700213129
 10
-22.4767109739139
 20
5.742409146115052
 42
0.1374014254549932
 10
-22.45298965473148
 20
3.8545816137882425
 10
-22.15412654957868
 20
2.8369666123253414
 42
-0.1418030814153937
 10
-22.15368953973689
 20
2.7257611551256105
 42
-0.3349997217039354
 10
-23.11535115150196
 20
2.000000000000455
 10
-23.91535115150213
 20
2.0000000000000013
 10
-23.91535115150213
 20
1.0000000000000016
 42
0.4142135623730951
 10
-22.91535115150214
 20
1.4031605719512354e-15
 10
-19.11535115150195
 20
6.832704776801132e-13
 42
0.4142135623730951
 10
-18.91535115150191
 20
0.20000000000072876
 10
-18.91535115150191
 20
0.5000000000000011
 10
-19.31727494014853
 20
2.000000000000455
 10
-19.61535115150173
 20
2.0000000000009104
 10
-19.61535115150173
 20
3.0644582269437715
 10
-20.05429824783687
 20
4.5590527164526975
 42
-0.2325553856618117
 10
-19.90383867945365
 20
5.428626409810932
 10
-18.82206724777347
 20
6.917557050457843
 42
-0.2400787590804843
 10
-18.66026384889824
 20
6.999999999999773
 10
-12.3182117870499
 20
7.000000000000228
 42
-0.5888795210479483
 10
-12.14855009789903
 20
6.694099522029319
 42
0.214102191292491
 10
-12.53763850735845
 20
3.854581613788242
 10
-12.23877540220565
 20
2.836966612325341
 42
-0.1418030814153268
 10
-12.23833839236408
 20
2.72576115512561
 42
-0.3349997205558119
 10
-13.19999999999982
 20
2.0000000000004547
 10
-14.97913649999986
 20
2.000000000000001
 10
-14.97913649999986
 20
1.0000000000000009
 42
0.4142135623730951
 10
-13.97913649999987
 20
8.559752384784387e-16
 10
-8.999999999999773
 20
5.510910596162951e-16
 10
-8.999999999999773
 20
0.5000000000000006
 10
-9.4019237886464
 20
2.0000000000004543
 10
-9.699999999999818
 20
2.0000000000009095
 10
-9.699999999999818
 20
3.0644582269437706
 10
-10.13894709633473
 20
4.5590527164526975
 42
-0.2325553856618117
 10
-9.988487527951518
 20
5.428626409810932
  0
LWPOLYLINE
  5
31
330
17
100
AcDbEntity
  8
FRM_INT
100
AcDbPolyline
 90
129
 70
1
 10
-8.906716096271339
 20
6.9175570504583
 42
-0.2400787590801145
 10
-8.74491269739633
 20
6.9999999999995435
 10
-3.6439756095976454
 20
7.0
 42
-0.3690546425321124
 10
-2.6562129381904898
 20
6.155964434966334
 10
-2.18252293304772
 20
3.155964434966334
 42
-0.4608620707066395
 10
-3.170285604454873
 20
2.0
 10
-4.598075999999537
 20
2.0000000000000004
 10
-4.598075999999537
 20
1.0000000000000002
 42
0.4142135623730951
 10
-3.598075999999537
 20
2.2031861282441725e-16
 10
0.0
 20
0.0
 10
2.3015545529808157e-13
 20
44.99999999999977
 42
0.4142140000000855
 10
-0.9999999999999972
 20
46.00000000000021
 10
-4.558168279113938
 20
46.00000000000045
 42
0.4931454668899049
 10
-4.98494493415819
 20
45.44381375891292
 10
-4.643785587692713
 20
44.17059041395669
 42
0.3394542222102505
 10
-4.1608226915609485
 20
43.80000000000018
 10
-3.0913372702643724
 20
43.80000000000018
 42
-0.4608620707066395
 10
-2.1035745988572185
 20
42.64403556503384
 10
-2.4124148666098764
 20
40.688071130068
 42
-0.3690546425321124
 10
-4.387940209423956
 20
39.00000000000068
 10
-9.299999999999951
 20
39.0
 42
-0.4142135623730951
 10
-10.299999999999947
 20
40.0
 10
-10.299999999999947
 20
41.33566577471809
 42
-0.1006947051834969
 10
-10.260252426726078
 20
41.53103133896275
 10
-8.999999999999996
 20
44.5
 10
-8.999999999999996
 20
45.49999999999999
 42
0.4142135623730951
 10
-9.499999999999996
 20
46.0
 10
-11.964723819589146
 20
46.0
 42
0.3394542588635296
 10
-13.413612559023477
 20
44.88822856765363
 10
-13.482962913144537
 20
44.62940952255121
 42
0.493145426031274
 10
-12.999999999999996
 20
44.0
 10
-12.230305390341066
 20
44.00000000000066
 42
-0.5373193821392536
 10
-12.046204419650616
 20
43.72185377430287
 10
-13.149838941795448
 20
41.12185377430203
 42
-0.3009658391326293
 10
-13.333939912485897
 20
40.99999999999977
 10
-34.49999999840134
 20
41.0
 10
-34.64644661283819
 20
40.85355339063608
 42
-0.4142135623730502
 10
-35.35355339402486
 20
40.85355339055036
 10
-35.49999999840179
 20
41.0
 10
-41.91942074750385
 20
41.0
 10
-54.78909695432889
 20
39.1912849635437
 42
-0.5715470873652616
 10
-57.47098077297255
 20
42.56287500926053
 10
-55.33209786751422
 20
48.13485547692994
 42
0.0918870916679617
 10
-55.0
 20
49.92669522465757
 10
-54.99999999999977
 20
57.90000000000009
 10
-55.999999999999545
 20
58.90000000000011
 10
-56.49999999999999
 20
58.90000000000054
 10
-56.49999999999999
 20
58.10000000000036
 42
-0.4142140000002187
 10
-57.0
 20
57.60000000000037
 10
-59.50000000000066
 20
57.60000000000038
 42
-0.4142135623730951
 10
-60.500000000000675
 20
58.600000000000364
 10
-60.500000000000675
 20
60.09999813231208
 10
-60.49999999999999
 20
60.10000000000038
 10
-60.5000000000009
 20
60.43943908770711
 42
-0.2882204520472692
 10
-59.65019954769808
 20
61.79119370603644
 10
-56.78669327302645
 20
63.16855203673799
 42
-0.5525293025908593
 10
-56.49999999999999
 20
62.98831808762748
 10
-56.49999999999999
 20
62.10000000000036
 10
-55.999999999999545
 20
62.10000000000036
 10
-54.999999999999766
 20
63.10000000000082
 10
-54.99999999999999
 20
66.0
 10
-55.99999999999999
 20
66.0
 10
-60.78828200655696
 20
64.25720787634032
 42
0.3152987888790331
 10
-70.0
 20
51.10151118533669
 10
-70.0
 20
4.2862637970157365e-15
 10
-66.40192400000024
 20
4.065945184191305e-15
 42
0.4142135623730951
 10
-65.40192400000024
 20
1.000000000000004
 10
-65.40192400000024
 20
2.000000000000004
 10
-66.82971439554467
 20
2.000000000000004
 42
-0.4608620707066397
 10
-67.81747706695182
 20
3.155964434966338
 10
-67.34378706180951
 20
6.1559644349663385
 42
-0.3690546425321123
 10
-66.35602439040211
 20
7.000000000000004
 10
-61.25508730260342
 20
6.999999999999775
 42
-0.2400787590802713
 10
-61.09328390372843
 20
6.917557050458075
 10
-60.01151247204825
 20
5.428626409810935
 42
-0.2325553856618125
 10
-59.86105290366504
 20
4.5590527164527
 10
-60.29999999999995
 20
3.0644582269437737
 10
-60.29999999999995
 20
2.0000000000009126
 10
-60.59807621135314
 20
2.0000000000004574
 10
-61.0
 20
0.5000000000000038
 10
-60.99999999999977
 20
3.735172737399413e-15
 10
-57.19999999999981
 20
3.5024898455614188e-15
 42
0.4142135623730951
 10
-56.19999999999982
 20
1.0000000000000033
 10
-56.19999999999982
 20
2.0000000000000036
 10
-56.79999999587085
 20
2.0000000000004574
 42
-0.3349997217040084
 10
-57.76166160783759
 20
2.7257611550683154
 42
-0.1418030814149202
 10
-57.76122459779411
 20
2.8369666123253436
 10
-57.4623614926411
 20
3.8545816137884716
 42
0.1374014254549942
 10
-57.43864017345891
 20
5.742409146115507
 42
-0.4927503700213901
 10
-56.47238609093415
 20
7.0000000000000036
 10
-35.49999999840179
 20
7.000000000000002
 10
-35.35355339402464
 20
7.146446609450324
 42
-0.4142135623729112
 10
-34.64644661283819
 20
7.146446609363921
 10
-34.49999999840134
 20
7.000000000000002
 10
-23.4429650564382
 20
7.000000000000002
 42
-0.4927503700213129
 10
-22.4767109739139
 20
5.742409146115052
 42
0.1374014254549932
 10
-22.45298965473148
 20
3.8545816137882425
 10
-22.15412654957868
 20
2.8369666123253414
 42
-0.1418030814153937
 10
-22.15368953973689
 20
2.7257611551256105
 42
-0.3349997217039354
 10
-23.11535115150196
 20
2.000000000000455
 10
-23.91535115150213
 20
2.0000000000000013
 10
-23.91535115150213
 20
1.0000000000000016
 42
0.4142135623730951
 10
-22.91535115150214
 20
1.4031605719512354e-15
 10
-19.11535115150195
 20
6.832704776801132e-13
 42
0.4142135623730951
 10
-18.91535115150191
 20
0.20000000000072876
 10
-18.91535115150191
 20
0.5000000000000011
 10
-19.31727494014853
 20
2.000000000000455
 10
-19.61535115150173
 20
2.0000000000009104
 10
-19.61535115150173
 20
3.0644582269437715
 10
-20.05429824783687
 20
4.5590527164526975
 42
-0.2325553856618117
 10
-19.90383867945365
 20
5.428626409810932
 10
-18.82206724777347
 20
6.917557050457843
 42
-0.2400787590804843
 10
-18.66026384889824
 20
6.999999999999773
 10
-12.3182117870499
 20
7.000000000000228
 42
-0.5888795210479483
 10
-12.14855009789903
 20
6.694099522029319
 42
0.214102191292491
 10
-12.53763850735845
 20
3.854581613788242
 10
-12.23877540220565
 20
2.836966612325341
 42
-0.1418030814153268
 10
-12.23833839236408
 20
2.72576115512561
 42
-0.3349997205558119
 10
-13.19999999999982
 20
2.0000000000004547
 10
-14.97913649999986
 20
2.000000000000001
 10
-14.97913649999986
 20
1.0000000000000009
 42
0.4142135623730951
 10
-13.97913649999987
 20
8.559752384784387e-16
 10
-8.999999999999773
 20
5.510910596162951e-16
 10
-8.999999999999773
 20
0.5000000000000006
 10
-9.4019237886464
 20
2.0000000000004543
 10
-9.699999999999818
 20
2.0000000000009095
 10
-9.699999999999818
 20
3.0644582269437706
 10
-10.13894709633473
 20
4.5590527164526975
 42
-0.2325553856618117
 10
-9.988487527951518
 20
5.428626409810932
  0
LWPOLYLINE
  5
32
330
17
100
AcDbEntity
  8
GLS_EXT
100
AcDbPolyline
 90
4
 70
1
 10
-51.0
 20
50.0
 10
-47.0
 20
50.0
 10
-47.0
 20
89.00000000000136
 10
-51.0
 20
89.00000000000136
  0
LWPOLYLINE
  5
33
330
17
100
AcDbEntity
  8
GLS_INT
100
AcDbPolyline
 90
4
 70
1
 10
-31.0
 20
50.0
 10
-27.0
 20
50.0
 10
-27.0
 20
89.00000000000136
 10
-31.0
 20
89.00000000000136
  0
LWPOLYLINE
  5
34
330
17
100
AcDbEntity
  8
SPACER_FRM
 62
3
100
AcDbPolyline
 90
4
 70
1
 10
-47.0
 20
50.0
 10
-31.0
 20
50.0
 10
-31.0
 20
64.0
 10
-47.0
 20
64.0
1001
AcDbBlockRepETag
1070
1
1071
8
1005
331
  0
LWPOLYLINE
  5
35
330
17
100
AcDbEntity
  8
BZD_FRM
100
AcDbPolyline
 90
41
 70
1
 10
-11.96472419312795
 20
46.722811930394066
 10
-11.96472419312795
 20
46.00000000000045
 10
-10.464724193127942
 20
45.99999999999999
 42
-0.4142135623730951
 10
-9.96472419312795
 20
46.49999999999999
 10
-7.995921341118446
 20
46.49999999999999
 42
-0.3394542588634029
 10
-7.029995514829352
 20
45.75881904510242
 10
-6.592609550940323
 20
44.126472405350334
 42
-0.2493293434598935
 10
-6.698219330075062
 20
43.669031463186904
 10
-7.892948167796928
 20
42.29466716680735
 42
-0.2171199618910894
 10
-8.647654435816092
 20
41.95073000603269
 10
-9.44874993210305
 20
41.950730006032245
 42
0.9999999999999998
 10
-9.448749932102597
 20
40.25073000603242
 10
-8.32864819094402
 20
40.250730006032875
 42
0.2171199618911793
 10
-6.819235654904332
 20
40.9386043275831
 10
-4.663925488720906
 20
43.417979769524656
 42
0.2493293434599847
 10
-4.558315709586166
 20
43.875420711688086
 10
-5.21698389603398
 20
46.333603848842806
 42
-0.6068148963146447
 10
-4.563010911226683
 20
46.93285968178679
 10
-2.0
 20
46.00000000000045
 10
-1.0
 20
46.00000000000045
 10
-1.9176820109801151
 20
51.20443330506304
 42
0.2679491924310402
 10
-10.916708546588778
 20
61.929055508727274
 10
-22.10153661220954
 20
66.00000000000045
 10
-23.10153661220954
 20
66.00000000000045
 10
-23.10153661220954
 20
63.100000000001714
 10
-22.10153661221
 20
62.100000000000804
 10
-21.60153661220955
 20
62.100000000000804
 10
-21.60153661220955
 20
63.18842088903919
 42
-0.5205670505518223
 10
-20.93052654054679
 20
63.65826719943197
 10
-17.93052654054679
 20
62.56635649663256
 42
-0.3152987888789177
 10
-17.60153661220954
 20
62.0965101862398
 10
-17.60153661220874
 20
58.60000000000081
 42
-0.4142135623730951
 10
-18.60153661220875
 20
57.60000000000081
 10
-21.10153661220966
 20
57.60000000000081
 42
-0.4142140000000189
 10
-21.60153661220966
 20
58.10000000000081
 10
-21.60153661220966
 20
58.900000000000986
 10
-22.10153661221011
 20
58.900000000000986
 10
-23.10153661220966
 20
57.900000000000986
 10
-23.10153661220966
 20
55.6777329230158
 42
0.3152987888789177
 10
-21.78557689886157
 20
53.79834768144428
 10
-15.25462347649864
 20
51.421275034323564
 42
-0.3152987888789177
  0
LWPOLYLINE
  5
36
330
17
100
AcDbEntity
  8
GSK_BZD_FRM
347
491
100
AcDbPolyline
 90
33
 70
1
 10
-20.9305265405468
 20
63.65826719943219
 42
0.5337481849688936
 10
-21.601536612209095
 20
63.16693704842008
 10
-21.60153661220955
 20
62.100000000000804
 10
-22.10153661220955
 20
62.100000000000804
 10
-23.10153661220955
 20
63.100000000001714
 10
-23.10153661220955
 20
65.78912944548254
 42
0.2075133254383016
 10
-23.196527764797228
 20
66.00815312566964
 42
-0.161228174486363
 10
-26.053004629455593
 20
70.13072334331035
 42
0.941095309667078
 10
-26.99815052364955
 20
69.99209502564734
 42
0.1085807304372004
 10
-25.465066271626604
 20
65.63410506737749
 42
-0.1390430086413624
 10
-24.45153661221037
 20
62.84494033927102
 10
-24.37953966471867
 20
58.8595102972872
 42
-0.8399780497293138
 10
-25.176054195321633
 20
58.73544382419071
 42
0.0657473970983625
 10
-25.39184114623084
 20
59.24547000085748
 42
0.3140963318641297
 10
-26.221651262008784
 20
59.627116753294096
 42
0.451051254984801
 10
-26.95408235690673
 20
58.39144535146896
 42
0.223054966404159
 10
-24.777714840914435
 20
56.06738358154915
 42
0.0994163557827123
 10
-24.623288485484757
 20
56.036372064769225
 10
-23.35153661220955
 20
56.03637206476877
 42
0.4142135623730951
 10
-23.10153661220955
 20
56.28637206476877
 10
-23.10153661220955
 20
57.900000000000986
 10
-22.10153661220955
 20
58.900000000000986
 10
-21.60153661220955
 20
58.900000000000986
 10
-21.601536612209095
 20
58.100000000001714
 42
0.4142135623729619
 10
-21.101536612209095
 20
57.60000000000194
 10
-20.60153661220955
 20
57.600000000001714
 42
0.4142135623733615
 10
-20.101536612209095
 20
58.100000000001714
 10
-20.101536612209095
 20
58.630913068070626
 42
0.2156416552380446
 10
-20.27137886470872
 20
59.006407224898325
 42
-0.4523166325164124
 10
-20.27137886470826
 20
62.02384737031069
 42
0.2156416552372918
 10
-20.10153661220955
 20
62.39934152713839
 10
-20.101536612209095
 20
63.00646899540287
 42
0.3183729929591983
 10
-20.43578764526445
 20
63.47819696781538
  0
ENDSEC
  0
SECTION
  2
OBJECTS
  0
DICTIONARY
  5
A
330
0
100
AcDbDictionary
281
1
  3
ACAD_COLOR
350
B
  3
ACAD_GROUP
350
C
  3
ACAD_LAYOUT
350
D
  3
ACAD_MATERIAL
350
E
  3
ACAD_MLEADERSTYLE
350
F
  3
ACAD_MLINESTYLE
350
10
  3
ACAD_PLOTSETTINGS
350
11
  3
ACAD_PLOTSTYLENAME
350
12
  3
ACAD_SCALELIST
350
14
  3
ACAD_TABLESTYLE
350
15
  3
ACAD_VISUALSTYLE
350
16
  3
EZDXF_META
350
2D
  0
DICTIONARY
  5
B
330
A
100
AcDbDictionary
281
1
  0
DICTIONARY
  5
C
330
A
100
AcDbDictionary
281
1
  0
DICTIONARY
  5
D
330
A
100
AcDbDictionary
281
1
  3
Model
350
1A
  3
Layout1
350
1E
  0
DICTIONARY
  5
E
330
A
100
AcDbDictionary
281
1
  3
ByBlock
350
1F
  3
ByLayer
350
20
  3
Global
350
21
  0
DICTIONARY
  5
F
330
A
100
AcDbDictionary
281
1
  3
Standard
350
2C
  0
DICTIONARY
  5
10
330
A
100
AcDbDictionary
281
1
  3
Standard
350
22
  0
DICTIONARY
  5
11
330
A
100
AcDbDictionary
281
1
  0
ACDBDICTIONARYWDFLT
  5
12
330
A
100
AcDbDictionary
281
1
  3
Normal
350
13
100
AcDbDictionaryWithDefault
340
13
  0
ACDBPLACEHOLDER
  5
13
330
12
  0
DICTIONARY
  5
14
330
A
100
AcDbDictionary
281
1
  0
DICTIONARY
  5
15
330
A
100
AcDbDictionary
281
1
  0
DICTIONARY
  5
16
330
A
100
AcDbDictionary
281
1
  0
LAYOUT
  5
1A
330
D
100
AcDbPlotSettings
  1

  4
A3
  6

 40
7.5
 41
20.0
 42
7.5
 43
20.0
 44
420.0
 45
297.0
 46
0.0
 47
0.0
 48
0.0
 49
0.0
140
0.0
141
0.0
142
1.0
143
1.0
 70
1024
 72
1
 73
0
 74
5
  7

 75
16
 76
0
 77
2
 78
300
147
1.0
148
0.0
149
0.0
100
AcDbLayout
  1
Model
 70
1
 71
0
 10
0.0
 20
0.0
 11
420.0
 21
297.0
 12
0.0
 22
0.0
 32
0.0
 14
1e+20
 24
1e+20
 34
1e+20
 15
-1e+20
 25
-1e+20
 35
-1e+20
146
0.0
 13
0.0
 23
0.0
 33
0.0
 16
1.0
 26
0.0
 36
0.0
 17
0.0
 27
1.0
 37
0.0
 76
1
330
17
  0
LAYOUT
  5
1E
330
D
100
AcDbPlotSettings
  1

  4
A3
  6

 40
7.5
 41
20.0
 42
7.5
 43
20.0
 44
420.0
 45
297.0
 46
0.0
 47
0.0
 48
0.0
 49
0.0
140
0.0
141
0.0
142
1.0
143
1.0
 70
0
 72
1
 73
0
 74
5
  7

 75
16
 76
0
 77
2
 78
300
147
1.0
148
0.0
149
0.0
100
AcDbLayout
  1
Layout1
 70
1
 71
1
 10
0.0
 20
0.0
 11
420.0
 21
297.0
 12
0.0
 22
0.0
 32
0.0
 14
1e+20
 24
1e+20
 34
1e+20
 15
-1e+20
 25
-1e+20
 35
-1e+20
146
0.0
 13
0.0
 23
0.0
 33
0.0
 16
1.0
 26
0.0
 36
0.0
 17
0.0
 27
1.0
 37
0.0
 76
1
330
1B
  0
MATERIAL
  5
1F
102
{ACAD_REACTORS
330
E
102
}
330
E
100
AcDbMaterial
  1
ByBlock
  2

 70
0
 40
1.0
 71
1
 41
1.0
 91
-1023410177
 42
1.0
 72
1
  3

 73
1
 74
1
 75
1
 44
0.5
 73
0
 45
1.0
 46
1.0
 77
1
  4

 78
1
 79
1
170
1
 48
1.0
171
1
  6

172
1
173
1
174
1
140
1.0
141
1.0
175
1
  7

176
1
177
1
178
1
143
1.0
179
1
  8

270
1
271
1
272
1
145
1.0
146
1.0
273
1
  9

274
1
275
1
276
1
 42
1.0
 72
1
  3

 73
1
 74
1
 75
1
 94
63
  0
MATERIAL
  5
20
102
{ACAD_REACTORS
330
E
102
}
330
E
100
AcDbMaterial
  1
ByLayer
  2

 70
0
 40
1.0
 71
1
 41
1.0
 91
-1023410177
 42
1.0
 72
1
  3

 73
1
 74
1
 75
1
 44
0.5
 73
0
 45
1.0
 46
1.0
 77
1
  4

 78
1
 79
1
170
1
 48
1.0
171
1
  6

172
1
173
1
174
1
140
1.0
141
1.0
175
1
  7

176
1
177
1
178
1
143
1.0
179
1
  8

270
1
271
1
272
1
145
1.0
146
1.0
273
1
  9

274
1
275
1
276
1
 42
1.0
 72
1
  3

 73
1
 74
1
 75
1
 94
63
  0
MATERIAL
  5
21
102
{ACAD_REACTORS
330
E
102
}
330
E
100
AcDbMaterial
  1
Global
  2

 70
0
 40
1.0
 71
1
 41
1.0
 91
-1023410177
 42
1.0
 72
1
  3

 73
1
 74
1
 75
1
 44
0.5
 73
0
 45
1.0
 46
1.0
 77
1
  4

 78
1
 79
1
170
1
 48
1.0
171
1
  6

172
1
173
1
174
1
140
1.0
141
1.0
175
1
  7

176
1
177
1
178
1
143
1.0
179
1
  8

270
1
271
1
272
1
145
1.0
146
1.0
273
1
  9

274
1
275
1
276
1
 42
1.0
 72
1
  3

 73
1
 74
1
 75
1
 94
63
  0
MLINESTYLE
  5
22
102
{ACAD_REACTORS
330
10
102
}
330
10
100
AcDbMlineStyle
  2
Standard
 70
0
  3

 62
256
 51
90.0
 52
90.0
 71
2
 49
0.5
 62
256
  6
BYLAYER
 49
-0.5
 62
256
  6
BYLAYER
  0
MLEADERSTYLE
  5
2C
102
{ACAD_REACTORS
330
F
102
}
330
F
100
AcDbMLeaderStyle
179
2
170
2
171
1
172
0
 90
2
 40
0.0
 41
0.0
173
1
 91
-1056964608
 92
-2
290
1
 42
2.0
291
1
 43
8.0
  3
Standard
 44
4.0
300

342
29
174
1
175
1
176
0
178
1
 93
-1056964608
 45
4.0
292
0
297
0
 46
4.0
 94
-1056964608
 47
1.0
 49
1.0
140
1.0
294
1
141
0.0
177
0
142
1.0
295
0
296
0
143
3.75
271
0
272
9
273
9
  0
DICTIONARY
  5
2D
330
A
100
AcDbDictionary
280
1
281
1
  3
CREATED_BY_EZDXF
350
2E
  3
WRITTEN_BY_EZDXF
350
39
  0
DICTIONARYVAR
  5
2E
330
2D
100
DictionaryVariables
280
0
  1
1.4.4 @ 2026-07-03T08:36:20.781337+00:00
  0
DICTIONARYVAR
  5
39
330
2D
100
DictionaryVariables
280
0
  1
1.4.4 @ 2026-07-03T08:36:20.789339+00:00
  0
ENDSEC
  0
EOF
